<svg width="49" height="49" viewBox="0 0 49 49" fill="none" xmlns="http://www.w3.org/2000/svg">
<path d="M0 24.5C0 10.969 10.969 0 24.5 0C38.031 0 49 10.969 49 24.5C49 38.031 38.031 49 24.5 49C10.969 49 0 38.031 0 24.5Z" fill="#53606F"/>
<path d="M17 22.7151V31.1311C17 32.2533 17.5611 33.3754 18.6832 33.3754H29.9046C31.0267 33.3754 31.5878 32.2533 31.5878 31.1311V22.7151C31.5878 20.4708 29.8344 18.2266 27.0992 18.2266H21.4885C18.7534 18.2266 17.0001 20.6514 17 22.7151Z" stroke="#FCFCFC"/>
<path d="M22.0488 18.2261V17.104C22.0488 14.2987 26.5374 14.2987 26.5374 17.104V18.2262" stroke="#FCFCFC"/>
<path d="M20.3672 24.959V33.375H28.2221V24.959H20.3672Z" stroke="#FCFCFC" stroke-linecap="round" stroke-linejoin="round"/>
<path d="M22.0488 28.3252H26.5374" stroke="#FCFCFC" stroke-linecap="round" stroke-linejoin="round"/>
</svg>
