<svg width="48" height="48" viewBox="0 0 48 48" fill="none" xmlns="http://www.w3.org/2000/svg">
<path d="M0 24C0 10.7452 10.7452 0 24 0C37.2548 0 48 10.7452 48 24C48 37.2548 37.2548 48 24 48C10.7452 48 0 37.2548 0 24Z" fill="#53606F"/>
<path d="M21.1875 15L18.375 16.125C16.6875 17.25 15 23.4375 15 26.25V31.3125H17.25V26.25L18.375 21.75C19.5 24 19.5 27.9375 18.9375 33H29.0625C28.5 27.9375 28.5 24 29.625 21.75L30.75 26.25V31.3125H33V26.25C33 23.4375 31.3125 17.25 29.625 16.125L26.8125 15C25.6875 16.125 22.3125 16.125 21.1875 15Z" stroke="#FCFCFC" stroke-linecap="round" stroke-linejoin="round"/>
</svg>
