<svg width="48" height="48" viewBox="0 0 48 48" fill="none" xmlns="http://www.w3.org/2000/svg">
<circle cx="24" cy="24" r="24" fill="#4F5D6E"/>
<path d="M20.2305 28.2678L18.6729 26.6904L16.5962 27.2162L16.077 29.3195L17.6345 30.8969L19.7113 30.3711L20.2305 28.2678Z" stroke="#FCFCFC" stroke-linecap="round" stroke-linejoin="round"/>
<path d="M25.1888 22.7863C26.7392 24.4985 29.4383 24.547 31.2176 22.8945C32.8284 21.3985 32.9942 18.959 32.2924 18.1839L30.2789 20.0539L27.6154 20.3873L28.1735 17.7287L30.187 15.8587C29.4852 15.0837 27.2139 15.1981 25.6031 16.6941C23.8239 18.3465 23.6384 21.0741 25.1888 22.7863Z" stroke="#FCFCFC" stroke-linecap="round" stroke-linejoin="round"/>
<path d="M21.8242 27.4118L26.2949 23.5" stroke="#FCFCFC"/>
<path d="M20.1465 25.1765L24.6171 21.2646" stroke="#FCFCFC"/>
<ellipse cx="18.1535" cy="28.7934" rx="4.15348" ry="4.20645" stroke="#FCFCFC"/>
</svg>
