<svg width="66" height="66" viewBox="0 0 66 66" fill="none" xmlns="http://www.w3.org/2000/svg">
<path d="M64.8527 11.4315L45.8777 0.297764C45.5426 0.10357 45.1688 0 44.782 0H39.8707C39.3422 0 38.9039 0.427226 38.9039 0.970969C38.9039 1.51471 39.3293 1.94194 39.8707 1.94194H43.8152V4.51824C43.8152 10.5124 38.9555 15.3801 33 15.3801C27.0445 15.3801 22.1848 10.4994 22.1848 4.51824V1.94194H35.7715C36.3 1.94194 36.7383 1.51471 36.7383 0.970969C36.7383 0.427226 36.2871 0 35.7586 0H21.218C20.8313 0 20.4574 0.10357 20.1223 0.297764L1.14727 11.4315C0.438281 11.8458 0 12.6097 0 13.4253V27.226C0 28.5077 1.03125 29.5434 2.30742 29.5434H10.5574V51.4873C10.5574 52.0181 10.9828 52.4582 11.5242 52.4582C12.0656 52.4582 12.491 52.031 12.491 51.4873V19.3805C12.491 18.8497 12.0656 18.4096 11.5242 18.4096C10.9828 18.4096 10.5574 18.8368 10.5574 19.3805V27.6014H5.90391V10.8749L16.3969 4.72538C16.5129 13.8266 23.9121 21.193 33 21.193C42.0879 21.193 49.4871 13.8266 49.6031 4.72538L60.0961 10.8749V27.6014H55.4426V19.3805C55.4426 18.8497 55.0172 18.4096 54.4758 18.4096C53.9473 18.4096 53.509 18.8368 53.509 19.3805V35.887C53.509 36.4178 53.9344 36.858 54.4758 36.858C55.0043 36.858 55.4426 36.4308 55.4426 35.887V29.5434H63.6926C64.9688 29.5434 66 28.5077 66 27.226V13.4253C66 12.6097 65.5617 11.8458 64.8527 11.4315ZM3.9832 27.6014H2.30742C2.10117 27.6014 1.93359 27.4331 1.93359 27.226V13.4253C1.93359 13.2958 2.01094 13.1663 2.11406 13.1016L3.9832 12.0141V27.6014ZM47.6824 4.51824C47.6824 12.6485 41.0953 19.264 33 19.264C24.9047 19.264 18.3176 12.6355 18.3176 4.51824V3.59906L20.2512 2.47273V4.51824C20.2512 11.574 25.9746 17.3221 33 17.3221C40.0254 17.3221 45.7488 11.574 45.7488 4.51824V2.45979L47.6824 3.58611V4.51824ZM64.0664 27.226C64.0664 27.4331 63.8988 27.6014 63.6926 27.6014H62.0168V12.0141L63.8859 13.1016C64.002 13.1663 64.0664 13.2958 64.0664 13.4253V27.226Z" fill="#53606F"/>
<path d="M46.6775 37.5571C47.3349 36.9098 47.567 35.9647 47.2834 35.0714C46.9998 34.1911 46.2521 33.5567 45.3369 33.4272L38.5306 32.4304C38.3759 32.4045 38.2342 32.3139 38.1697 32.1714L35.1275 25.9702C34.715 25.1416 33.89 24.6238 32.9619 24.6238C32.0338 24.6238 31.2088 25.1416 30.7963 25.9702L27.7541 32.1714C27.6896 32.3139 27.5478 32.4174 27.3931 32.4304L20.5869 33.4272C19.6717 33.5567 18.924 34.1911 18.6404 35.0714C18.3568 35.9518 18.5889 36.9098 19.2463 37.5571L24.1705 42.386C24.2865 42.5026 24.3381 42.6579 24.3123 42.8133L23.1521 49.623C22.9974 50.5422 23.3584 51.4484 24.106 51.9922C24.5314 52.3029 25.0213 52.4582 25.524 52.4582C25.9107 52.4582 26.2974 52.3676 26.6455 52.1734L32.7299 48.9627C32.8717 48.8851 33.0392 48.8851 33.181 48.9627L39.2654 52.1734C40.0775 52.6006 41.0572 52.5359 41.8049 51.9922C42.5525 51.4484 42.9135 50.5422 42.7588 49.623L41.5986 42.8133C41.5728 42.6579 41.6244 42.5026 41.7404 42.386L46.6775 37.5571ZM39.7166 43.1369L40.8767 49.9467C40.9283 50.2185 40.7607 50.3609 40.6834 50.4257C40.606 50.4775 40.4127 50.594 40.1806 50.4645L34.0963 47.2538C33.7482 47.0726 33.3615 46.982 32.9748 46.982C32.5881 46.982 32.2013 47.0726 31.8533 47.2538L25.7689 50.4645C25.524 50.594 25.3306 50.4775 25.2662 50.4257C25.1888 50.3739 25.0342 50.2185 25.0728 49.9467L26.233 43.1369C26.3619 42.3472 26.1041 41.5445 25.5369 41.0008L20.6127 36.1718C20.4193 35.9776 20.458 35.7576 20.4967 35.6799C20.5224 35.5893 20.6127 35.3951 20.8834 35.3562L27.6896 34.3594C28.476 34.2428 29.1592 33.7509 29.5072 33.0388L32.5494 26.8376C32.6654 26.5916 32.8974 26.5657 32.9748 26.5657C33.065 26.5657 33.2842 26.5916 33.4002 26.8376L36.4424 33.0388C36.7904 33.7509 37.4736 34.2428 38.2599 34.3594L45.0662 35.3562C45.3369 35.3951 45.4271 35.6022 45.4529 35.6799C45.4787 35.7705 45.5302 35.9906 45.3369 36.1718L40.4127 41.0008C39.8326 41.5445 39.5748 42.3472 39.7166 43.1369Z" fill="#53606F"/>
<path d="M33.3094 34.6443H31.582C31.0535 34.6443 30.6152 35.0715 30.6152 35.6153C30.6152 36.1461 31.0406 36.5862 31.582 36.5862H32.3426V43.7325C32.3426 44.2633 32.768 44.7035 33.3094 44.7035C33.8379 44.7035 34.2762 44.2763 34.2762 43.7325V35.6153C34.2762 35.0715 33.8508 34.6443 33.3094 34.6443Z" fill="#53606F"/>
<path d="M54.476 39.046C53.9475 39.046 53.5092 39.4732 53.5092 40.017V63.3073C53.5092 63.7216 53.174 64.0582 52.7615 64.0582H13.2389C12.8264 64.0582 12.4912 63.7216 12.4912 63.3073V55.6043C12.4912 55.0735 12.0658 54.6333 11.5244 54.6333C10.983 54.6333 10.5576 55.0605 10.5576 55.6043V63.3073C10.5576 64.7832 11.7564 65.9872 13.226 65.9872H52.7615C54.2311 65.9872 55.4299 64.7832 55.4299 63.3073V40.017C55.4428 39.4862 55.0045 39.046 54.476 39.046Z" fill="#53606F"/>
</svg>
