<svg width="48" height="48" viewBox="0 0 48 48" fill="none" xmlns="http://www.w3.org/2000/svg">
<path d="M0 24C0 10.7452 10.7452 0 24 0C37.2548 0 48 10.7452 48 24C48 37.2548 37.2548 48 24 48C10.7452 48 0 37.2548 0 24Z" fill="#53606F"/>
<path d="M28 24.125C28 25.125 31.5 25.125 31.5 24.125M28 24.125C28 23.125 31.5 23.125 31.5 24.125M28 24.125V25.7353V27.625C28 28.625 31.5 28.625 31.5 27.625C31.5 26.825 31.5 25.125 31.5 24.125" stroke="#FCFCFC"/>
<path d="M21.5 25.125C21.5 26.625 26.5 26.625 26.5 25.125M21.5 25.125C21.5 23.625 26.5 23.625 26.5 25.125M21.5 25.125V28.125C21.5 29.625 26.5 29.625 26.5 28.125C26.5 27.325 26.5 26.2917 26.5 25.125" stroke="#FCFCFC"/>
<path d="M14 22.125C14 24.3472 20 24.3472 20 22.125M14 22.125C14 20.125 20 20.125 20 22.125M14 22.125C14 22.4583 14 24.125 14 24.125C14 26.3472 20 26.3472 20 24.125C20 22.9398 20 23.8534 20 22.125" stroke="#FCFCFC"/>
<path d="M29 19.125C29 20.625 34 20.625 34 19.125M29 19.125C29 17.625 34 17.625 34 19.125M29 19.125V20.625C29 22.125 34 22.125 34 20.625C34 19.825 34 20.2917 34 19.125" stroke="#FCFCFC"/>
<path d="M20 21.625C22 21.625 28 20.125 29 19.125" stroke="#FCFCFC" stroke-linecap="round" stroke-linejoin="round"/>
<path d="M29 21.125C25 21.125 21 22.625 20 23.625" stroke="#FCFCFC" stroke-linecap="round" stroke-linejoin="round"/>
</svg>
