<svg width="22" height="22" viewBox="0 0 22 22" fill="none" xmlns="http://www.w3.org/2000/svg">
<rect width="22" height="22" fill="white"/>
<path d="M11.3789 14.8337L10.8334 14.6346L8.74547 10.5068C8.72606 10.4683 8.69447 10.4375 8.65565 10.4189L4.55657 8.45878C4.85174 7.56952 5.37851 6.80284 6.08741 6.23403C6.17135 6.16669 6.18481 6.04403 6.11744 5.96011C6.0501 5.87617 5.92744 5.86276 5.84352 5.93008C5.03067 6.58231 4.43918 7.4731 4.13305 8.5062C4.12517 8.53272 4.12304 8.56065 4.12681 8.58804L4.50094 11.3137C4.50512 11.3442 4.51648 11.3733 4.53404 11.3985L4.92677 11.9631V12.757C4.92677 12.8388 4.97793 12.912 5.05481 12.94L11.2452 15.1998C11.2673 15.2079 11.2898 15.2117 11.312 15.2117C11.3916 15.2117 11.4662 15.1626 11.4951 15.0836C11.532 14.9825 11.48 14.8706 11.3789 14.8337ZM10.2978 14.4391L9.1805 14.0312L7.98559 12.2399C7.96174 12.2042 7.92675 12.1773 7.88603 12.1635L4.8707 11.1415L4.80383 10.6542L5.07266 10.7959C5.10163 10.8111 5.13273 10.8184 5.16331 10.8184C5.2333 10.8184 5.30098 10.7805 5.3359 10.7143C5.38607 10.6191 5.34951 10.5012 5.25432 10.451L4.73864 10.1794L4.67642 9.72602L5.07268 9.93475C5.10165 9.95 5.13273 9.95725 5.16331 9.95725C5.23332 9.95725 5.30101 9.91939 5.3359 9.85314C5.38607 9.75795 5.34951 9.6401 5.25429 9.58993L4.61123 9.25121L4.56213 8.89342L8.42767 10.7418L10.2978 14.4391ZM5.28162 11.7907L5.19207 11.6619L7.69819 12.5113L8.56126 13.8052L5.31652 12.6207V11.9019C5.31652 11.8622 5.30436 11.8233 5.28162 11.7907Z" fill="#F05A28"/>
<path d="M17.286 6.87946C17.286 6.87946 11.371 5.17151 11.3661 5.1705C10.6833 4.93308 9.91304 4.8125 9.07585 4.8125C8.21673 4.8125 7.37268 5.01892 6.63499 5.40947C6.53987 5.45982 6.50358 5.57778 6.55393 5.67287C6.58893 5.73894 6.65645 5.77661 6.72634 5.77661C6.75708 5.77661 6.78828 5.76931 6.81733 5.75393C7.49908 5.393 8.28007 5.20224 9.07588 5.20224C9.85794 5.20224 10.5755 5.3124 11.2102 5.52911L12.0428 6.61653C12.1056 6.69856 12.1263 6.80287 12.0995 6.90269C12.0727 7.00251 12.0026 7.08245 11.9072 7.12205L11.4621 7.30659C11.4133 7.32678 11.3749 7.36588 11.3555 7.41496C11.3361 7.46401 11.3374 7.51883 11.3592 7.5669L11.7707 8.47658C11.0115 8.78332 10.4988 9.52742 10.4988 10.3607V11.019C10.4988 11.7839 10.9213 12.4763 11.6015 12.8261L13.8465 13.9807L13.1755 15.49L12.2333 15.146C12.1321 15.109 12.0204 15.1612 11.9835 15.2622C11.9465 15.3633 11.9986 15.4752 12.0997 15.5121L14.7735 16.4882C14.7955 16.4962 14.818 16.5 14.8403 16.5C14.91 16.5 14.9767 16.4624 15.0116 16.398L15.8516 14.8495C15.8663 14.8224 15.8743 14.7923 15.8751 14.7615L15.9247 12.7887C15.9262 12.7299 15.901 12.6735 15.8562 12.6354L14.9666 11.8786C14.9225 11.8411 14.864 11.8251 14.8069 11.835C14.7499 11.8449 14.7002 11.8797 14.6714 11.9299L14.1605 12.8186L13.3561 12.4049C13.2604 12.3557 13.1429 12.3934 13.0937 12.4891C13.0445 12.5848 13.0822 12.7022 13.1779 12.7515L14.1476 13.2502C14.2402 13.2978 14.3538 13.2642 14.4057 13.174L14.8925 12.3272L15.2005 12.5893L14.6255 13.5893C14.5375 13.7424 14.3456 13.7991 14.1884 13.7183L11.7797 12.4795C11.23 12.1967 10.8885 11.6371 10.8885 11.019V10.3607C10.8885 9.62313 11.3826 8.96986 12.0939 8.77482L14.1134 8.21521C14.1694 8.33675 14.2228 8.46263 14.273 8.59228L12.2016 9.16035C11.6625 9.30814 11.2861 9.80165 11.2861 10.3605V11.0189C11.2861 11.4872 11.5449 11.9114 11.9616 12.1259L12.3657 12.3338C12.3942 12.3484 12.4246 12.3554 12.4547 12.3554C12.5254 12.3553 12.5936 12.3168 12.6281 12.2496C12.6773 12.1539 12.6396 12.0364 12.5439 11.9872L12.1399 11.7794C11.8536 11.632 11.6758 11.3406 11.6758 11.0189V10.3605C11.6758 9.97666 11.9344 9.63771 12.3046 9.5362L14.5811 8.9119C14.6333 8.89755 14.6772 8.86219 14.7023 8.81423C14.7273 8.76625 14.7313 8.71002 14.7133 8.659C14.6551 8.49451 14.5921 8.33433 14.5249 8.18003H17.2319C17.3395 8.18003 17.4267 8.09281 17.4267 7.98517V7.06666C17.4267 6.97985 17.3693 6.90355 17.286 6.87946V6.87946ZM14.9634 13.7835L15.5024 12.8461L15.5328 12.8719L15.4931 14.4514L15.2686 14.3444C15.1715 14.2982 15.0552 14.3393 15.0088 14.4364C14.9626 14.5336 15.0038 14.6499 15.1009 14.6962L15.4111 14.8441L15.1829 15.2649L14.8487 15.1056C14.7516 15.0592 14.6353 15.1004 14.589 15.1976C14.5426 15.2947 14.5838 15.411 14.681 15.4573L14.9968 15.6079L14.7492 16.0644L13.5425 15.6238L14.2057 14.1321C14.2502 14.1405 14.295 14.1449 14.3395 14.1449C14.5891 14.1449 14.8305 14.0146 14.9634 13.7835V13.7835ZM17.037 7.79036H14.2137C14.1961 7.79036 14.1786 7.79275 14.1616 7.79743L12.1441 8.35652L11.7971 7.58953L12.0564 7.48202C12.2646 7.39571 12.4175 7.22132 12.4759 7.00365C12.5343 6.78598 12.4892 6.55852 12.3522 6.37958L11.8412 5.71215L17.037 7.21317V7.79036Z" fill="#F05A28"/>
</svg>
