<svg width="72" height="62" viewBox="0 0 72 62" fill="none" xmlns="http://www.w3.org/2000/svg">
<path d="M6.11719 14.5411C6.11719 19.2055 9.91406 22.9848 14.5687 22.9848C19.2234 22.9848 23.0203 19.1914 23.0203 14.5411C23.0203 9.8767 19.2234 6.09741 14.5687 6.09741C9.91406 6.09741 6.11719 9.89075 6.11719 14.5411ZM20.925 14.5411C20.925 18.0394 18.0703 20.8774 14.5828 20.8774C11.0953 20.8774 8.24062 18.0253 8.24062 14.5411C8.24062 11.0428 11.0953 8.20482 14.5828 8.20482C18.0703 8.20482 20.925 11.0428 20.925 14.5411Z" fill="#53606F"/>
<path d="M57.5156 16.0163C57.5016 16.0163 57.4734 16.0163 57.4594 16.0163C49.4438 16.0163 42.9188 22.5352 42.9188 30.5434C42.9188 34.9268 45.1688 38.3689 47.6859 41.797C47.6859 41.811 47.7 41.811 47.7 41.8251L54.3234 50.2688C52.7344 51.182 51.5672 52.7836 51.2578 54.6662H4.52813C3.19219 54.6662 2.10938 53.5844 2.10938 52.2497C2.10938 50.915 3.19219 49.8332 4.52813 49.8332H39.2625C42.4125 49.8332 44.9719 47.2762 44.9719 44.1292C44.9719 40.9821 42.4125 38.4251 39.2625 38.4251H20.7844C20.475 36.5987 19.3641 35.0252 17.8453 34.0979L24.075 26.16L24.3422 25.8228C24.7078 25.3592 24.6234 24.6988 24.1594 24.3476C23.6953 23.9823 23.0344 24.0666 22.6828 24.5303L15.7781 33.2971C15.3844 33.2268 14.9906 33.1847 14.5688 33.1847C14.1609 33.1847 13.7531 33.2268 13.3594 33.2971L6.46875 24.5303C4.09219 21.2848 2.12344 18.2923 2.12344 14.5411C2.12344 7.68502 7.70625 2.12146 14.5547 2.12146C21.4172 2.12146 26.9859 7.69907 26.9859 14.5411C26.9859 16.4799 26.4656 18.3345 25.3688 20.3997C25.0875 20.9055 25.2844 21.5518 25.8047 21.8328C26.3109 22.1138 26.9578 21.9171 27.2391 21.3972C28.5188 19.0229 29.1094 16.8452 29.1094 14.5411C29.1234 6.51892 22.5984 0 14.5828 0C6.55313 0 0.0421875 6.51892 0.0421875 14.5271C0.0421875 18.9245 2.29219 22.3526 4.80938 25.7806C4.80938 25.7947 4.82344 25.7947 4.82344 25.8087L11.3203 34.0838C9.50625 35.1937 8.28281 37.1888 8.28281 39.4648C8.28281 42.935 11.1094 45.7589 14.5828 45.7589C17.6906 45.7589 20.2781 43.4969 20.7844 40.5185H39.2766C41.2594 40.5185 42.8766 42.1342 42.8766 44.1151C42.8766 46.0961 41.2594 47.7118 39.2766 47.7118H4.54219C2.025 47.7118 0 49.7489 0 52.2357C0 54.7224 2.025 56.7596 4.52813 56.7596H51.2438C51.75 59.724 54.3375 62 57.4453 62C60.9188 62 63.7453 59.1761 63.7453 55.7059C63.7453 53.3737 62.4656 51.3365 60.5813 50.2547L67.2047 41.811C67.5703 41.3474 67.4859 40.6871 67.0219 40.3358C66.5578 39.9705 65.8969 40.0548 65.5453 40.5185L58.4859 49.5101C58.1484 49.4539 57.7969 49.4258 57.4453 49.4258C57.0938 49.4258 56.7422 49.4539 56.4047 49.5101L49.3594 40.5325C46.9828 37.2871 45.0141 34.2946 45.0141 30.5434C45.0141 23.7154 50.5688 18.1518 57.3891 18.1237C57.4031 18.1237 57.4313 18.1237 57.4453 18.1237C64.3078 18.1237 69.8766 23.7013 69.8766 30.5434C69.8766 32.4822 69.3563 34.3508 68.2594 36.402C67.9781 36.9078 68.175 37.554 68.6813 37.835C69.1875 38.116 69.8344 37.9193 70.1156 37.4136C71.3953 35.0392 71.9859 32.8615 71.9859 30.5574C72 22.5493 65.5031 16.0444 57.5156 16.0163ZM14.5828 43.6374C12.2766 43.6374 10.3922 41.7689 10.3922 39.4507C10.3922 37.1466 12.2625 35.264 14.5828 35.264C16.8609 35.264 18.7172 37.0904 18.7594 39.3664C18.7594 39.3945 18.7594 39.4226 18.7594 39.4507C18.7594 39.4788 18.7594 39.5069 18.7594 39.535C18.7172 41.811 16.8609 43.6374 14.5828 43.6374ZM61.6359 55.7199C61.6359 58.024 59.7656 59.9066 57.4453 59.9066C55.125 59.9066 53.2547 58.0381 53.2547 55.7199C53.2547 53.4018 55.125 51.5332 57.4453 51.5332C59.7656 51.5332 61.6359 53.4018 61.6359 55.7199Z" fill="#53606F"/>
<path d="M48.9932 30.5575C48.9932 35.2219 52.79 39.0011 57.4447 39.0011C62.1135 39.0011 65.8963 35.2078 65.8963 30.5575C65.8963 25.8931 62.0994 22.1138 57.4447 22.1138C52.79 22.1138 48.9932 25.9071 48.9932 30.5575ZM63.801 30.5575C63.801 34.0558 60.9463 36.8937 57.4588 36.8937C53.9572 36.8937 51.1166 34.0417 51.1166 30.5575C51.1166 27.0592 53.9713 24.2212 57.4588 24.2212C60.9604 24.2212 63.801 27.0592 63.801 30.5575Z" fill="#53606F"/>
</svg>
