<svg width="48" height="48" viewBox="0 0 48 48" fill="none" xmlns="http://www.w3.org/2000/svg">
<path d="M0 24C0 10.7452 10.7452 0 24 0V0C37.2548 0 48 10.7452 48 24V24C48 37.2548 37.2548 48 24 48V48C10.7452 48 0 37.2548 0 24V24Z" fill="#53606F"/>
<path d="M32.1809 20.8275C29.999 19.7242 17.999 19.7242 15.8172 20.8275C14.7541 21.4488 14.1808 26.3442 16.3626 27.4475C17.4255 28.0688 21.2718 29.6541 21.8171 27.9893L22.3626 26.1526C22.8941 24.2885 25.1038 24.2885 25.6353 26.1526L26.1808 27.9893C26.7263 29.6541 30.5724 28.0689 31.6354 27.4475C33.8172 26.3442 33.2718 21.4397 32.1809 20.8275Z" stroke="#FCFCFC"/>
<path d="M14.7273 21.9307H12V26.344H15.2727" stroke="#FCFCFC" stroke-linecap="round" stroke-linejoin="round"/>
<path d="M33.273 21.9307H36.0003V26.344H32.7275" stroke="#FCFCFC" stroke-linecap="round" stroke-linejoin="round"/>
</svg>
