<svg width="48" height="48" viewBox="0 0 48 48" fill="none" xmlns="http://www.w3.org/2000/svg">
<path d="M0 24C0 10.7452 10.7452 0 24 0C37.2548 0 48 10.7452 48 24C48 37.2548 37.2548 48 24 48C10.7452 48 0 37.2548 0 24Z" fill="#53606F"/>
<path d="M32.1809 20.8277C29.999 19.7244 17.999 19.7244 15.8172 20.8277C14.7541 21.4491 14.1808 26.3444 16.3626 27.4477C17.4255 28.069 21.2718 29.6544 21.8171 27.9895L22.3626 26.1528C22.8941 24.2888 25.1038 24.2888 25.6353 26.1528L26.1808 27.9895C26.7263 29.6544 30.5724 28.0691 31.6354 27.4478C33.8172 26.3444 33.2718 21.4399 32.1809 20.8277Z" stroke="#FCFCFC"/>
<path d="M14.7273 21.9312H12V26.3445H15.2727" stroke="#FCFCFC" stroke-linecap="round" stroke-linejoin="round"/>
<path d="M33.273 21.9312H36.0003V26.3445H32.7275" stroke="#FCFCFC" stroke-linecap="round" stroke-linejoin="round"/>
</svg>
