<svg width="49" height="48" viewBox="0 0 49 48" fill="none" xmlns="http://www.w3.org/2000/svg">
<path d="M0.200195 24C0.200195 10.7452 10.9454 0 24.2002 0C37.455 0 48.2002 10.7452 48.2002 24C48.2002 37.2548 37.455 48 24.2002 48C10.9454 48 0.200195 37.2548 0.200195 24Z" fill="white"/>
<g clip-path="url(#clip0)">
<path d="M31.3038 22.9747C31.3038 22.0201 30.584 21.2309 29.6587 21.1201V16.3289C29.6587 16.0355 29.4684 15.7871 29.1852 15.7108C28.902 15.6345 28.6127 15.7536 28.4653 16.0072C27.4532 17.7484 25.8591 18.9386 23.7273 19.5447C22.1153 20.003 20.7851 19.9366 20.7723 19.9358C20.7527 19.9347 20.7333 19.9356 20.7141 19.9375H17.3056C15.5933 19.9375 14.2002 21.3306 14.2002 23.0429C14.2002 24.6557 15.4362 25.9848 17.0106 26.1339L18.0387 30.3615C18.1748 30.9212 18.6722 31.3122 19.2483 31.3122H19.9619C20.3463 31.3122 20.703 31.1388 20.9406 30.8366C21.1782 30.5343 21.2623 30.1467 21.1715 29.7732L20.29 26.1483H20.7135C20.7328 26.1502 20.7523 26.1511 20.7719 26.15C20.7851 26.1493 22.1153 26.0828 23.7273 26.5411C25.8591 27.1472 27.4531 28.3374 28.4653 30.0786C28.5829 30.2811 28.7911 30.3978 29.0143 30.3978C29.0707 30.3978 29.1281 30.3904 29.1852 30.375C29.4684 30.2987 29.6587 30.0503 29.6587 29.757V24.9657C30.584 24.8549 31.3038 24.0657 31.3038 23.1111V22.9747ZM20.333 29.4664L20.4503 29.9486C20.487 30.0994 20.453 30.2559 20.357 30.378C20.2612 30.5 20.1171 30.57 19.9619 30.57H19.2483C19.0157 30.57 18.8149 30.4122 18.7599 30.1861L17.7779 26.1483H19.5261L19.7882 27.2261H19.6109C19.4059 27.2261 19.2398 27.3923 19.2398 27.5972C19.2398 27.8022 19.4059 27.9683 19.6109 27.9683H19.9687L20.1525 28.7242H20.0362C19.8313 28.7242 19.6651 28.8904 19.6651 29.0953C19.6651 29.3003 19.8313 29.4664 20.0362 29.4664H20.333ZM20.3801 23.8313H18.0739C17.869 23.8313 17.7028 23.9975 17.7028 24.2024C17.7028 24.4074 17.869 24.5735 18.0739 24.5735H20.3801V25.4061H19.838C19.8312 25.4057 19.8245 25.4052 19.8176 25.4052H17.3056C17.3021 25.4052 17.2986 25.4058 17.295 25.4058C15.9968 25.4001 14.9424 24.3424 14.9424 23.0429C14.9424 21.7398 16.0025 20.6797 17.3056 20.6797H20.3801V23.8313ZM28.9165 21.4774V24.6084V29.3944C27.8044 27.6649 26.0794 26.4326 23.9052 25.8202C22.7014 25.4811 21.6617 25.4133 21.1223 25.4045V24.2024V20.6813C21.6617 20.6725 22.7015 20.6047 23.9052 20.2656C26.0793 19.6532 27.8044 18.4209 28.9165 16.6914V21.4774ZM30.5615 23.1111C30.5615 23.6557 30.1731 24.1112 29.6587 24.2151V21.8707C30.173 21.9746 30.5615 22.4302 30.5615 22.9747V23.1111Z" fill="#53606F"/>
<path d="M31.4151 20.8776C31.5043 20.8776 31.5938 20.8456 31.6649 20.7809L32.7352 19.8061C32.8868 19.6681 32.8977 19.4334 32.7597 19.2819C32.6217 19.1303 32.387 19.1194 32.2355 19.2574L31.1652 20.2321C31.0137 20.3701 31.0027 20.6048 31.1407 20.7564C31.2139 20.8368 31.3144 20.8776 31.4151 20.8776Z" fill="#53606F"/>
<path d="M31.6649 25.3047C31.5134 25.1668 31.2787 25.1777 31.1407 25.3292C31.0027 25.4807 31.0137 25.7155 31.1652 25.8535L32.2355 26.8282C32.3067 26.893 32.3961 26.925 32.4853 26.925C32.5861 26.925 32.6865 26.8841 32.7597 26.8037C32.8977 26.6522 32.8868 26.4175 32.7352 26.2795L31.6649 25.3047Z" fill="#53606F"/>
<path d="M32.8287 22.6719H32.0068C31.8019 22.6719 31.6357 22.838 31.6357 23.043C31.6357 23.2479 31.8019 23.4141 32.0068 23.4141H32.8287C33.0337 23.4141 33.1998 23.2479 33.1998 23.043C33.1998 22.838 33.0337 22.6719 32.8287 22.6719Z" fill="#53606F"/>
<path d="M16.8878 24.0607C16.8785 24.0381 16.867 24.0165 16.8537 23.9965C16.8399 23.9761 16.8247 23.9572 16.8077 23.9401C16.7902 23.923 16.7713 23.9074 16.7509 23.8941C16.7308 23.8807 16.7093 23.8692 16.6871 23.8599C16.6644 23.8507 16.641 23.8436 16.6177 23.8388C16.5698 23.8291 16.5204 23.8291 16.4726 23.8388C16.4488 23.8436 16.4254 23.8507 16.4032 23.8599C16.3809 23.8692 16.359 23.8807 16.339 23.8941C16.3186 23.9074 16.2996 23.923 16.2826 23.9401C16.2655 23.9572 16.2499 23.9761 16.2365 23.9965C16.2232 24.0165 16.2117 24.0381 16.2024 24.0607C16.1931 24.083 16.1861 24.1063 16.1813 24.1301C16.1764 24.1538 16.1738 24.1783 16.1738 24.2025C16.1738 24.2266 16.1764 24.2511 16.1813 24.2752C16.1861 24.2986 16.1931 24.3219 16.2024 24.3446C16.2117 24.3668 16.2232 24.3884 16.2365 24.4084C16.2499 24.4288 16.2655 24.4477 16.2826 24.4648C16.2996 24.4819 16.3186 24.4975 16.339 24.5112C16.359 24.5246 16.3809 24.5361 16.4032 24.5453C16.4254 24.5546 16.4488 24.5617 16.4726 24.5665C16.4967 24.5713 16.5208 24.5735 16.5449 24.5735C16.5694 24.5735 16.5935 24.5713 16.6177 24.5665C16.6414 24.5617 16.6644 24.5546 16.6871 24.5453C16.7093 24.5361 16.7308 24.5246 16.7509 24.5112C16.7713 24.4975 16.7902 24.4819 16.8077 24.4648C16.8247 24.4477 16.8399 24.4288 16.8537 24.4084C16.867 24.3884 16.8785 24.3668 16.8878 24.3446C16.8971 24.3219 16.9041 24.2986 16.909 24.2752C16.9138 24.2511 16.916 24.2266 16.916 24.2025C16.916 24.1783 16.9138 24.1538 16.909 24.1301C16.9041 24.1063 16.8971 24.083 16.8878 24.0607Z" fill="#53606F"/>
</g>
<defs>
<clipPath id="clip0">
<rect width="19" height="19" fill="white" transform="translate(14.2002 14)"/>
</clipPath>
</defs>
</svg>
