<svg width="19" height="19" viewBox="0 0 19 19" fill="none" xmlns="http://www.w3.org/2000/svg">
<g clip-path="url(#clip0)">
<path d="M14.0504 0.599121H5.79528C3.10858 0.599121 0.922852 2.78485 0.922852 5.47155V13.7268C0.922852 16.4134 3.10858 18.5991 5.79528 18.5991H14.0505C16.7371 18.5991 18.9228 16.4134 18.9228 13.7268V5.47155C18.9228 2.78485 16.7371 0.599121 14.0504 0.599121V0.599121ZM17.8676 13.7268C17.8676 15.8315 16.1552 17.5439 14.0504 17.5439H5.79528C3.69044 17.5439 1.97809 15.8315 1.97809 13.7268V5.47155C1.97809 3.36671 3.69044 1.65436 5.79528 1.65436H14.0505C16.1552 1.65436 17.8676 3.36671 17.8676 5.47155V13.7268Z" fill="white"/>
<path d="M9.92271 4.67725C7.20881 4.67725 5.00098 6.88508 5.00098 9.59898C5.00098 12.3129 7.20881 14.5207 9.92271 14.5207C12.6366 14.5207 14.8444 12.3129 14.8444 9.59898C14.8444 6.88508 12.6366 4.67725 9.92271 4.67725ZM9.92271 13.4655C7.79081 13.4655 6.05621 11.731 6.05621 9.59898C6.05621 7.46708 7.79081 5.73248 9.92271 5.73248C12.0547 5.73248 13.7892 7.46708 13.7892 9.59898C13.7892 11.731 12.0547 13.4655 9.92271 13.4655Z" fill="white"/>
<path d="M14.9621 2.9292C14.1601 2.9292 13.5078 3.58165 13.5078 4.38351C13.5078 5.18551 14.1601 5.83796 14.9621 5.83796C15.7641 5.83796 16.4166 5.18551 16.4166 4.38351C16.4166 3.58151 15.7641 2.9292 14.9621 2.9292ZM14.9621 4.78259C14.7421 4.78259 14.563 4.60351 14.563 4.38351C14.563 4.16337 14.7421 3.98443 14.9621 3.98443C15.1823 3.98443 15.3613 4.16337 15.3613 4.38351C15.3613 4.60351 15.1823 4.78259 14.9621 4.78259Z" fill="white"/>
</g>
<defs>
<clipPath id="clip0">
<rect width="18" height="18" fill="white" transform="translate(0.922852 0.599121)"/>
</clipPath>
</defs>
</svg>
