<svg width="18" height="19" viewBox="0 0 18 19" fill="none" xmlns="http://www.w3.org/2000/svg">
<g clip-path="url(#clip0)">
<path d="M13.1275 0.5H4.87243C2.18573 0.5 0 2.68573 0 5.37243V13.6277C0 16.3142 2.18573 18.5 4.87243 18.5H13.1277C15.8142 18.5 18 16.3142 18 13.6277V5.37243C18 2.68573 15.8142 0.5 13.1275 0.5V0.5ZM16.9447 13.6277C16.9447 15.7324 15.2324 17.4447 13.1275 17.4447H4.87243C2.76759 17.4447 1.05523 15.7324 1.05523 13.6277V5.37243C1.05523 3.26759 2.76759 1.55523 4.87243 1.55523H13.1277C15.2324 1.55523 16.9447 3.26759 16.9447 5.37243V13.6277Z" fill="#666666"/>
<path d="M8.99985 4.57812C6.28596 4.57812 4.07812 6.78596 4.07812 9.49985C4.07812 12.2137 6.28596 14.4216 8.99985 14.4216C11.7137 14.4216 13.9216 12.2137 13.9216 9.49985C13.9216 6.78596 11.7137 4.57812 8.99985 4.57812ZM8.99985 13.3663C6.86796 13.3663 5.13336 11.6319 5.13336 9.49985C5.13336 7.36796 6.86796 5.63336 8.99985 5.63336C11.1319 5.63336 12.8663 7.36796 12.8663 9.49985C12.8663 11.6319 11.1319 13.3663 8.99985 13.3663Z" fill="#666666"/>
<path d="M14.0393 2.83008C13.2373 2.83008 12.585 3.48253 12.585 4.28439C12.585 5.08639 13.2373 5.73884 14.0393 5.73884C14.8413 5.73884 15.4937 5.08639 15.4937 4.28439C15.4937 3.48239 14.8413 2.83008 14.0393 2.83008ZM14.0393 4.68347C13.8193 4.68347 13.6402 4.50439 13.6402 4.28439C13.6402 4.06425 13.8193 3.88531 14.0393 3.88531C14.2594 3.88531 14.4385 4.06425 14.4385 4.28439C14.4385 4.50439 14.2594 4.68347 14.0393 4.68347Z" fill="#666666"/>
</g>
<defs>
<clipPath id="clip0">
<rect width="18" height="18" fill="white" transform="translate(0 0.5)"/>
</clipPath>
</defs>
</svg>
