<svg width="49" height="48" viewBox="0 0 49 48" fill="none" xmlns="http://www.w3.org/2000/svg">
<path d="M0.466797 24C0.466797 10.7452 11.212 0 24.4668 0C37.7216 0 48.4668 10.7452 48.4668 24C48.4668 37.2548 37.7216 48 24.4668 48C11.212 48 0.466797 37.2548 0.466797 24Z" fill="#53606F"/>
<path d="M27.679 16.3032C26.5275 15.7277 23.073 15.7277 21.9215 16.3034C21.9215 16.3034 21.3457 18.0306 21.3457 18.6064L21.9215 20.3337C23.073 21.4852 26.5275 21.4852 27.679 20.3337L28.2548 18.6064L27.679 16.3032Z" stroke="#FCFCFC" stroke-linecap="round" stroke-linejoin="round"/>
<path d="M21.3456 14C20.7698 14 19.6183 14 19.0426 16.303L18.4668 20.3333C19.0426 23.2121 19.0426 24.3636 18.4668 26.6667C18.4668 28.3939 19.0426 33 24.8001 33C30.5577 33 31.1335 28.3939 31.1335 26.6667C30.5577 24.3636 30.5577 23.2121 31.1335 20.3333C31.1335 20.3333 30.8545 17.4903 30.5577 16.303C29.9819 14 28.8304 14 28.2547 14H21.3456Z" stroke="#FCFCFC" stroke-linecap="round" stroke-linejoin="round"/>
<path d="M24.8002 26.6665L21.3457 29.5453V30.6968C23.6487 31.8483 25.9518 31.8483 28.2548 30.6968V29.5453L24.8002 26.6665Z" stroke="#FCFCFC" stroke-linecap="round" stroke-linejoin="round"/>
</svg>
