<svg width="16" height="17" viewBox="0 0 16 17" fill="none" xmlns="http://www.w3.org/2000/svg">
<path d="M6.83337 8H0.5C0.223999 8 0 7.776 0 7.5C0 7.224 0.223999 7 0.5 7H6.83337C7.10938 7 7.33337 7.224 7.33337 7.5C7.33337 7.776 7.10938 8 6.83337 8Z" fill="#53606F"/>
<path d="M4.33337 10.5C4.20532 10.5 4.07739 10.4513 3.97998 10.3534C3.78467 10.158 3.78467 9.84131 3.97998 9.646L6.12671 7.49939L3.97998 5.35339C3.78467 5.15796 3.78467 4.84131 3.97998 4.646C4.17529 4.45068 4.49194 4.45068 4.68738 4.646L7.18738 7.146C7.38269 7.34131 7.38269 7.65796 7.18738 7.85339L4.68738 10.3534C4.58936 10.4513 4.4613 10.5 4.33337 10.5Z" fill="#53606F"/>
<path d="M10.6666 16.5C9.93127 16.5 9.33337 15.902 9.33337 15.1666V3.16663C9.33337 2.59668 9.69604 2.08801 10.236 1.90063L14.2413 0.565308C15.1373 0.290649 16 0.955322 16 1.83337V13.8334C16 14.4027 15.6373 14.9106 15.098 15.0986L11.0913 16.4347C10.9453 16.48 10.8101 16.5 10.6666 16.5ZM14.6666 1.5C14.6233 1.5 14.5867 1.50537 14.5474 1.51733L10.5587 2.84729C10.428 2.8927 10.3334 3.02466 10.3334 3.16663V15.1666C10.3334 15.394 10.58 15.5474 10.786 15.4827L14.7747 14.1527C14.9047 14.1073 15 13.9753 15 13.8334V1.83337C15 1.65002 14.8507 1.5 14.6666 1.5Z" fill="#53606F"/>
<path d="M5.83337 3.83337C5.55737 3.83337 5.33337 3.60938 5.33337 3.33337V2.33337C5.33337 1.32202 6.15527 0.5 7.16663 0.5H14.6666C14.9426 0.5 15.1666 0.723999 15.1666 1C15.1666 1.276 14.9426 1.5 14.6666 1.5H7.16663C6.70728 1.5 6.33337 1.87402 6.33337 2.33337V3.33337C6.33337 3.60938 6.10938 3.83337 5.83337 3.83337Z" fill="#53606F"/>
<path d="M9.83337 14.5H7.16663C6.15527 14.5 5.33337 13.678 5.33337 12.6666V11.6666C5.33337 11.3906 5.55737 11.1666 5.83337 11.1666C6.10938 11.1666 6.33337 11.3906 6.33337 11.6666V12.6666C6.33337 13.126 6.70728 13.5 7.16663 13.5H9.83337C10.1094 13.5 10.3334 13.724 10.3334 14C10.3334 14.276 10.1094 14.5 9.83337 14.5Z" fill="#53606F"/>
</svg>
