<svg width="18" height="19" viewBox="0 0 18 19" fill="none" xmlns="http://www.w3.org/2000/svg">
<path d="M7.83337 9H1.5C1.224 9 1 8.776 1 8.5C1 8.224 1.224 8 1.5 8H7.83337C8.10938 8 8.33337 8.224 8.33337 8.5C8.33337 8.776 8.10938 9 7.83337 9Z" fill="white"/>
<path d="M5.33337 11.5C5.20532 11.5 5.07739 11.4513 4.97998 11.3534C4.78467 11.158 4.78467 10.8413 4.97998 10.646L7.12671 8.49939L4.97998 6.35339C4.78467 6.15796 4.78467 5.84131 4.97998 5.646C5.17529 5.45068 5.49194 5.45068 5.68738 5.646L8.18738 8.146C8.38269 8.34131 8.38269 8.65796 8.18738 8.85339L5.68738 11.3534C5.58936 11.4513 5.4613 11.5 5.33337 11.5Z" fill="white"/>
<path d="M11.6666 17.5C10.9313 17.5 10.3334 16.902 10.3334 16.1666V4.16663C10.3334 3.59668 10.696 3.08801 11.236 2.90063L15.2413 1.56531C16.1373 1.29065 17 1.95532 17 2.83337V14.8334C17 15.4027 16.6373 15.9106 16.098 16.0986L12.0913 17.4347C11.9453 17.48 11.8101 17.5 11.6666 17.5ZM15.6666 2.5C15.6233 2.5 15.5867 2.50537 15.5474 2.51733L11.5587 3.84729C11.428 3.8927 11.3334 4.02466 11.3334 4.16663V16.1666C11.3334 16.394 11.58 16.5474 11.786 16.4827L15.7747 15.1527C15.9047 15.1073 16 14.9753 16 14.8334V2.83337C16 2.65002 15.8507 2.5 15.6666 2.5Z" fill="white"/>
<path d="M6.83337 4.83337C6.55737 4.83337 6.33337 4.60938 6.33337 4.33337V3.33337C6.33337 2.32202 7.15527 1.5 8.16663 1.5H15.6666C15.9426 1.5 16.1666 1.724 16.1666 2C16.1666 2.276 15.9426 2.5 15.6666 2.5H8.16663C7.70728 2.5 7.33337 2.87402 7.33337 3.33337V4.33337C7.33337 4.60938 7.10938 4.83337 6.83337 4.83337Z" fill="white"/>
<path d="M10.8334 15.5H8.16663C7.15527 15.5 6.33337 14.678 6.33337 13.6666V12.6666C6.33337 12.3906 6.55737 12.1666 6.83337 12.1666C7.10938 12.1666 7.33337 12.3906 7.33337 12.6666V13.6666C7.33337 14.126 7.70728 14.5 8.16663 14.5H10.8334C11.1094 14.5 11.3334 14.724 11.3334 15C11.3334 15.276 11.1094 15.5 10.8334 15.5Z" fill="white"/>
</svg>
