<svg width="16" height="16" viewBox="0 0 16 16" fill="none" xmlns="http://www.w3.org/2000/svg">
<path d="M13.7504 11.0626L13.7505 11.0626C13.7551 10.8787 13.6919 10.6995 13.573 10.5592C13.4545 10.4193 13.2889 10.3277 13.1075 10.3016C13.1069 10.3015 13.1062 10.3014 13.1055 10.3013L13.1754 9.80625M13.7504 11.0626L11.4191 9.36875C11.9862 9.58034 12.5753 9.72711 13.1754 9.80625M13.7504 11.0626V11.075L13.7504 12.95L13.7504 12.952C13.7508 13.0565 13.7294 13.1598 13.6876 13.2555C13.6457 13.3512 13.5844 13.4371 13.5074 13.5077C13.4305 13.5783 13.3396 13.6321 13.2407 13.6655C13.143 13.6986 13.0396 13.7111 12.9369 13.7024L13.7504 11.0626ZM13.1754 9.80625C13.479 9.84908 13.7563 10.002 13.9545 10.2359C14.1527 10.4699 14.258 10.7685 14.2504 11.075V12.95M13.1754 9.80625L14.2504 12.95M14.2504 12.95C14.2511 13.1241 14.2154 13.2964 14.1457 13.4558M14.2504 12.95L14.1457 13.4558M6.19414 2.825C6.27327 3.42504 6.42004 4.0142 6.63164 4.58125M6.19414 2.825C6.15168 2.52465 6.00147 2.24999 5.77149 2.05221C5.54151 1.85442 5.24745 1.74701 4.94414 1.75H3.06914M6.19414 2.825L5.69843 2.89038C5.69854 2.89125 5.69866 2.89212 5.69877 2.893C5.69887 2.89366 5.69896 2.89432 5.69906 2.89498L6.19414 2.825ZM6.63164 4.58125L1.82539 3.1125C1.80977 2.93967 1.83031 2.76548 1.8857 2.60102C1.94109 2.43656 2.03012 2.28543 2.14711 2.15726C2.26411 2.0291 2.40651 1.92669 2.56525 1.85658C2.724 1.78646 2.8956 1.75016 3.06914 1.75M6.63164 4.58125C6.71573 4.80495 6.73392 5.04807 6.68408 5.2818C6.63423 5.51553 6.51842 5.73007 6.35039 5.9L6.63164 4.58125ZM3.06914 1.75V2.25H3.06939C3.06946 2.25 3.06953 2.25 3.06961 2.25L3.06914 1.75ZM14.1457 13.4558C14.076 13.6153 13.9737 13.7585 13.8454 13.8762M14.1457 13.4558L13.8454 13.8762M13.8454 13.8762C13.7172 13.9938 13.5657 14.0834 13.4009 14.1392M13.8454 13.8762L13.4009 14.1392M13.4009 14.1392C13.236 14.195 13.0612 14.2157 12.8879 14.2L13.4009 14.1392Z" stroke="white" stroke-linecap="round" stroke-linejoin="round"/>
</svg>
