<svg width="66" height="66" viewBox="0 0 66 66" fill="none" xmlns="http://www.w3.org/2000/svg">
<g clip-path="url(#clip0)">
<path d="M43.3987 40.1857H31.01V28.975C31.01 28.3687 30.6108 27.9688 30.0055 27.9688C29.4002 27.9688 29.001 28.3687 29.001 28.975V46.4942L28.795 46.391L22.3044 34.4836C21.506 32.5872 19.703 31.3874 17.707 31.3874H4.42968C3.82442 31.3874 3.4252 31.7874 3.4252 32.3937V41.6048C1.4291 42.0047 0.0253906 43.8108 0.0253906 45.9136C0.0253906 50.9191 0.0253906 54.8151 0.0253906 60.1302C0.0253906 60.7365 0.42461 61.1365 1.02988 61.1365H3.52822C3.73427 63.8327 6.02656 66.0387 8.92412 66.0387C11.7187 66.0387 14.0238 63.8327 14.32 61.1365H17.8229C18.119 63.9359 20.4242 66.0387 23.2188 66.0387C26.0133 66.0387 28.3185 63.8327 28.6147 61.1365H30.0055C30.6108 61.1365 31.01 60.6333 31.01 60.1302C31.01 50.1193 31.01 52.3253 31.01 42.2111H43.3987C44.0039 42.2111 44.4031 41.8112 44.4031 41.2049C44.4031 40.5985 43.991 40.1857 43.3987 40.1857ZM5.43417 33.2709H17.7198V33.4774C18.9175 33.4774 20.0121 34.174 20.5144 35.3738C20.5144 35.3738 20.5144 35.477 20.6174 35.477L25.6141 44.6881L25.511 44.5849C25.0088 44.3784 24.4164 44.3784 24.0172 44.6881C23.515 44.9848 23.3218 45.4879 23.3218 45.991V48.2874H15.4275V43.3851C15.4275 42.2885 14.5261 41.3855 13.4314 41.3855H5.43417V33.2709ZM8.92412 64.0004C7.03105 64.0004 5.52432 62.5039 5.52432 60.5946C5.52432 58.6982 7.01817 57.1888 8.92412 57.1888C10.8301 57.1888 12.3239 58.6853 12.3239 60.5946C12.3239 62.5039 10.727 64.0004 8.92412 64.0004ZM23.2188 64.0004C21.3257 64.0004 19.819 62.5039 19.819 60.5946C19.819 58.6982 21.3128 57.1888 23.2188 57.1888C25.1247 57.1888 26.6186 58.6853 26.6186 60.5946C26.6057 62.5039 25.1118 64.0004 23.2188 64.0004ZM29.001 59.0982H28.3056C27.6102 56.8018 25.6141 55.1892 23.1157 55.1892C20.6174 55.1892 18.5183 56.8921 17.9259 59.0982H14.0238C13.3284 56.8018 11.3323 55.1892 8.83398 55.1892C6.33563 55.1892 4.23651 56.8921 3.63124 59.0982H2.03437V53.8992H29.0139V59.0982H29.001ZM29.104 51.8867H2.03437V45.9781C2.03437 44.572 3.129 43.4754 4.42968 43.4754H13.3155V49.3839C13.3155 49.9903 13.7148 50.3902 14.32 50.3902H24.2104C24.8156 50.3902 25.2149 49.9903 25.2149 49.3839V46.778L29.104 48.8937V51.8867Z" fill="#53606F"/>
<path d="M65.5747 21.9699L33.5985 0.154808C33.3023 -0.0516028 32.8001 -0.0516028 32.5039 0.154808L0.437526 21.9699C0.0383065 22.1763 -0.0647179 22.6665 0.0383065 23.0665C0.141331 23.4664 0.54055 23.7631 1.04279 23.7631H1.64806V29.4652C1.64806 30.0715 2.04728 30.4715 2.65255 30.4715C3.25782 30.4715 3.65704 30.0715 3.65704 29.4652V23.7631H62.3938V64.0004H31.2289C30.6237 64.0004 30.2245 64.4003 30.2245 65.0066C30.2245 65.613 30.6237 66.0129 31.2289 66.0129H63.3983C64.0036 66.0129 64.4028 65.613 64.4028 65.0066V23.7631H65.0081C65.4073 23.7631 65.8065 23.4664 66.0125 23.0665C66.0769 22.6665 65.8709 22.1634 65.5747 21.9699ZM4.23655 21.7635L33.0061 2.15442L61.7757 21.7635H4.23655Z" fill="#53606F"/>
<path d="M44.4928 49.1904H34.1002C33.4949 49.1904 33.0957 49.5904 33.0957 50.1967V60.6076C33.0957 61.2139 33.4949 61.6138 34.1002 61.6138H44.4928C45.098 61.6138 45.4973 61.2139 45.4973 60.6076V50.1838C45.4844 49.5904 44.995 49.1904 44.4928 49.1904ZM43.4883 59.6013H35.0918V51.19H43.4883V59.6013Z" fill="#53606F"/>
<path d="M59.0836 49.1904H48.691C48.0857 49.1904 47.6865 49.5904 47.6865 50.1967V60.6076C47.6865 61.2139 48.0857 61.6138 48.691 61.6138H59.0836C59.6889 61.6138 60.0881 61.2139 60.0881 60.6076V50.1838C60.0752 49.5904 59.676 49.1904 59.0836 49.1904ZM58.0791 59.6013H49.6826V51.19H58.0791V59.6013Z" fill="#53606F"/>
<path d="M59.0836 34.5739H48.691C48.0857 34.5739 47.6865 34.9738 47.6865 35.5801V45.991C47.6865 46.4941 48.0857 46.9972 48.691 46.9972H59.0836C59.6889 46.9972 60.0881 46.5973 60.0881 45.991V35.5801C60.0752 34.9738 59.676 34.5739 59.0836 34.5739ZM58.0791 44.9847H49.6826V36.5735H58.0791V44.9847Z" fill="#53606F"/>
<path d="M44.4928 26.4723H34.1002C33.4949 26.4723 33.0957 26.8722 33.0957 27.4785V37.8894C33.0957 38.4957 33.4949 38.8957 34.1002 38.8957H44.4928C45.098 38.8957 45.4973 38.4957 45.4973 37.8894V27.4785C45.4844 26.8722 45.0852 26.4723 44.4928 26.4723ZM43.4883 36.78H35.0918V28.3687H43.4883V36.78Z" fill="#53606F"/>
</g>
<defs>
<clipPath id="clip0">
<rect width="66" height="66" fill="white"/>
</clipPath>
</defs>
</svg>
