<svg width="16" height="16" viewBox="0 0 16 16" fill="none" xmlns="http://www.w3.org/2000/svg">
<path d="M4.875 0.5C2.46563 0.5 0.5 2.46563 0.5 4.875C0.5 5.51937 0.6975 6.1175 0.949375 6.67188C0.862741 7.10939 0.816919 7.55401 0.8125 8C0.8125 11.9625 4.0375 15.1875 8 15.1875C8.45625 15.1875 8.89625 15.1313 9.32812 15.0506C9.8825 15.3025 10.4806 15.5 11.125 15.5C13.5344 15.5 15.5 13.5344 15.5 11.125C15.5 10.4806 15.3025 9.8825 15.0506 9.32812C15.1319 8.89625 15.1875 8.45625 15.1875 8C15.1875 4.0375 11.9625 0.8125 8 0.8125C7.54375 0.8125 7.10375 0.86875 6.67188 0.949375C6.1175 0.6975 5.51937 0.5 4.875 0.5ZM4.875 1.75C5.41437 1.75 5.9175 1.88125 6.35938 2.12125C6.49117 2.19135 6.6437 2.21197 6.78937 2.17937C7.18791 2.09946 7.59354 2.0603 8 2.0625C11.2863 2.0625 13.9375 4.71375 13.9375 8C13.9375 8.4175 13.9006 8.81812 13.82 9.21125C13.7877 9.3568 13.8086 9.50909 13.8787 9.64062C14.1181 10.0825 14.25 10.5856 14.25 11.125C14.25 12.8581 12.8581 14.25 11.125 14.25C10.5856 14.25 10.0825 14.1187 9.64062 13.8787C9.50883 13.8086 9.3563 13.788 9.21062 13.8206C8.81209 13.9005 8.40646 13.9397 8 13.9375C7.21995 13.9387 6.44735 13.7859 5.72645 13.4879C5.00556 13.1899 4.35056 12.7526 3.79898 12.201C3.24741 11.6494 2.8101 10.9944 2.51212 10.2735C2.21414 9.55265 2.06135 8.78005 2.0625 8C2.0625 7.5825 2.09938 7.18188 2.18 6.78875C2.21225 6.6432 2.19142 6.49091 2.12125 6.35938C1.87532 5.90341 1.74767 5.39305 1.75 4.875C1.75 3.14188 3.14188 1.75 4.875 1.75ZM7.9025 3.7225C6.35687 3.7225 4.69938 4.37687 4.69938 6.125C4.69938 6.9675 4.99687 7.85812 6.6525 8.27375L8.7225 8.78125C9.345 8.935 9.50375 9.28687 9.50375 9.60188C9.50375 10.1269 8.98375 10.6369 8.03937 10.6369C6.19312 10.6369 6.43 9.23063 5.44125 9.23063C4.9975 9.23063 4.67938 9.53563 4.67938 9.9725C4.67938 10.825 5.72687 11.9456 8.03937 11.9456C10.2387 11.9456 11.3206 10.8831 11.3206 9.46438C11.3206 8.54688 10.8981 7.58938 9.23063 7.21875L7.70687 6.86688C7.12813 6.73563 6.45687 6.57188 6.45687 6.0275C6.45687 5.48063 6.92063 5.09 7.76562 5.09C9.4675 5.09 9.32312 6.26188 10.1681 6.26188C10.6119 6.26188 10.9881 6.00812 10.9881 5.55875C10.9881 4.50875 9.32562 3.7225 7.9025 3.7225Z" fill="#53606F"/>
</svg>
