<svg width="22" height="22" viewBox="0 0 22 22" fill="none" xmlns="http://www.w3.org/2000/svg">
<rect width="22" height="22" fill="white"/>
<g clip-path="url(#clip0)">
<path d="M6.34313 12.5474C5.91215 12.5474 5.56152 12.898 5.56152 13.329C5.56152 13.76 5.91215 14.1106 6.34313 14.1106C6.77411 14.1106 7.12474 13.76 7.12474 13.329C7.12474 12.898 6.77411 12.5474 6.34313 12.5474ZM6.34313 13.6473C6.16762 13.6473 6.02481 13.5045 6.02481 13.329C6.02481 13.1534 6.16759 13.0107 6.34313 13.0107C6.51867 13.0107 6.66145 13.1534 6.66145 13.329C6.66145 13.5045 6.51867 13.6473 6.34313 13.6473Z" fill="#F05A28"/>
<path d="M8.53161 12.5474C8.10062 12.5474 7.75 12.898 7.75 13.329C7.75 13.76 8.10062 14.1106 8.53161 14.1106C8.96259 14.1106 9.31321 13.7599 9.31321 13.329C9.31321 12.898 8.96259 12.5474 8.53161 12.5474ZM8.53161 13.6473C8.35609 13.6473 8.21329 13.5045 8.21329 13.329C8.21329 13.1534 8.35606 13.0107 8.53161 13.0107C8.70715 13.0107 8.84993 13.1535 8.84993 13.329C8.84993 13.5045 8.70712 13.6473 8.53161 13.6473Z" fill="#F05A28"/>
<path d="M10.7201 12.5474C10.2891 12.5474 9.93848 12.898 9.93848 13.329C9.93848 13.76 10.2891 14.1106 10.7201 14.1106C11.1511 14.1106 11.5017 13.7599 11.5017 13.329C11.5017 12.898 11.1511 12.5474 10.7201 12.5474ZM10.7201 13.6473C10.5446 13.6473 10.4018 13.5045 10.4018 13.329C10.4018 13.1534 10.5446 13.0107 10.7201 13.0107C10.8957 13.0107 11.0384 13.1535 11.0384 13.329C11.0384 13.5045 10.8956 13.6473 10.7201 13.6473Z" fill="#F05A28"/>
<path d="M19.7209 12.3158C19.4353 12.0347 18.9742 12.0383 18.6931 12.3239C18.1407 12.885 17.3722 13.2069 16.5848 13.2069H16.3037L15.691 11.9337C16.7866 11.4829 17.5763 10.8193 17.9843 10.002C18.0292 9.91206 18.0096 9.80001 17.9368 9.73068C17.9367 9.73061 17.9367 9.73055 17.9366 9.73052C17.3186 9.14339 16.4605 8.23142 14.8152 7.63737C14.6949 7.59395 14.5621 7.65624 14.5186 7.77657C14.4752 7.89689 14.5375 8.02969 14.6578 8.07311C15.6885 8.4452 16.4693 8.97554 17.1969 9.66678H11.3915L10.8353 8.85534L11.8421 7.83228C11.9534 7.71915 12.1083 7.6543 12.267 7.6543C12.7272 7.6543 13.1906 7.70016 13.6442 7.79065C13.7697 7.81582 13.8917 7.73426 13.9167 7.60881C13.9417 7.48332 13.8603 7.36133 13.7348 7.33632C13.2514 7.2399 12.7575 7.19101 12.267 7.19101C11.9849 7.19101 11.7097 7.3063 11.5118 7.50735L11.1435 7.88163L10.7536 7.53212L11.232 7.04598C11.3217 6.95478 11.3206 6.80811 11.2294 6.71839C11.1382 6.62868 10.9915 6.62982 10.9018 6.72102L9.60456 8.03926C9.51484 8.13046 9.51601 8.27713 9.60718 8.36685C9.69841 8.45663 9.84511 8.45533 9.93477 8.36422L10.4283 7.86273L10.8182 8.21224L10.3725 8.66515L9.81 9.21875C9.7957 9.23283 9.77676 9.24058 9.75669 9.24058H7.13568L7.00386 9.02087C6.90575 8.85738 6.72631 8.75577 6.53563 8.75577H4.50518C4.29554 8.75574 4.125 8.92628 4.125 9.13595V9.87478C4.125 9.98201 4.15289 10.088 4.2057 10.1814L5.23901 12.0079C4.70867 12.0807 4.29872 12.5366 4.29872 13.0867V13.5713C4.29872 14.1719 4.78733 14.6605 5.38799 14.6605H7.99082C8.11874 14.6605 8.22248 14.5568 8.22248 14.4289C8.22248 14.3009 8.11877 14.1972 7.99082 14.1972H5.38799C5.04284 14.1972 4.76201 13.9164 4.76201 13.5712V13.0866C4.76201 12.7415 5.04284 12.4607 5.38799 12.4607H11.6746C12.0198 12.4607 12.3006 12.7415 12.3006 13.0866V13.5712C12.3006 13.9164 12.0198 14.1972 11.6746 14.1972H9.07181C8.94389 14.1972 8.84015 14.3009 8.84015 14.4289C8.84015 14.5568 8.94386 14.6605 9.07181 14.6605H11.6746C12.2753 14.6605 12.7639 14.1719 12.7639 13.5713V13.0867C12.7639 12.8538 12.6902 12.638 12.5653 12.4607H13.6261C13.6333 12.4607 13.6404 12.4604 13.6475 12.4597C13.679 12.4568 14.3909 12.3881 15.2552 12.0965L15.7896 13.2069H14.4178C14.017 13.2069 13.691 13.533 13.691 13.9337C13.691 14.3345 14.0171 14.6606 14.4178 14.6606H16.5848C17.7591 14.6606 18.9051 14.1806 19.729 13.3437C20.0101 13.0581 20.0065 12.597 19.7209 12.3158ZM9.75666 9.70384V9.70381C9.8991 9.70381 10.0334 9.6488 10.135 9.54889L10.5016 9.18805L10.9449 9.83466L9.93319 10.4996C9.89647 10.5237 9.84888 10.5384 9.80366 10.5384H8.00854C7.94897 10.5384 7.89471 10.5055 7.86605 10.4577L7.41372 9.70387H9.75666V9.70384ZM13.6143 11.9974C13.0043 11.9974 5.98346 11.9974 5.76539 11.9974L4.60895 9.95323C4.59542 9.92935 4.58832 9.90224 4.58832 9.87478V9.21902H6.53563C6.56454 9.21902 6.59172 9.23444 6.60661 9.2592L6.95939 9.84714L7.46876 10.696C7.58154 10.884 7.78806 11.0016 8.00854 11.0016H9.80366C9.94412 11.0016 10.0784 10.9585 10.1877 10.8867L11.3388 10.1302H17.3712C16.2961 11.682 13.7902 11.9785 13.6143 11.9974ZM19.3989 13.0187C18.6616 13.7677 17.6359 14.1972 16.5849 14.1972H14.4179C14.2726 14.1972 14.1544 14.079 14.1544 13.9337C14.1544 13.7884 14.2725 13.6702 14.4179 13.6702C14.6301 13.6702 16.3737 13.6702 16.5849 13.6702C17.4955 13.6702 18.3844 13.2979 19.0233 12.6489C19.1252 12.5453 19.2924 12.544 19.396 12.6459C19.4994 12.7479 19.5008 12.9151 19.3989 13.0187Z" fill="#F05A28"/>
</g>
<defs>
<clipPath id="clip0">
<rect width="15.8125" height="15.8125" fill="white" transform="translate(4.125 2.75)"/>
</clipPath>
</defs>
</svg>
