<svg width="66" height="66" viewBox="0 0 66 66" fill="none" xmlns="http://www.w3.org/2000/svg">
<g clip-path="url(#clip0)">
<path d="M32.2807 32.7031C36.5192 32.7031 39.9678 29.2119 39.9678 24.9209C39.9678 22.9531 39.2405 21.0869 37.9237 19.6396C37.5726 19.2588 36.9832 19.2334 36.5945 19.5889C36.2183 19.9443 36.1932 20.541 36.5443 20.9346C37.535 22.0264 38.0868 23.4355 38.0868 24.9209C38.0868 28.1582 35.4784 30.7988 32.2807 30.7988C29.083 30.7988 26.4746 28.1582 26.4746 24.9209C26.4746 21.6836 29.083 19.043 32.2807 19.043C32.7071 19.043 33.1334 19.0938 33.5472 19.1826C34.0488 19.2969 34.5504 18.9795 34.6633 18.459C34.7762 17.9512 34.4627 17.4434 33.9485 17.3291C33.3968 17.2021 32.8325 17.1387 32.2681 17.1387C28.0296 17.1387 24.5811 20.6299 24.5811 24.9209C24.5936 29.2119 28.0421 32.7031 32.2807 32.7031Z" fill="#53606F"/>
<path d="M43.8805 52.7617C42.7143 52.7617 41.5731 53.1045 40.6075 53.7393C39.805 52.5078 38.4256 51.7461 36.9333 51.7461C36.5822 51.7461 36.231 51.7842 35.905 51.873V49.8545C37.2343 49.4609 38.2751 48.3438 38.551 46.9219L39.0777 44.1797C39.9178 44.0146 40.6201 43.3545 40.8082 42.4785L41.4979 39.2793H47.003C48.4451 39.2793 49.6114 38.0986 49.6114 36.6387V34.252C49.6114 33.7314 49.185 33.2998 48.6708 33.2998C48.1567 33.2998 47.7303 33.7314 47.7303 34.252V36.6387C47.7303 37.0449 47.4043 37.375 47.003 37.375H41.9117L42.639 34.0488C43.6799 29.25 43.7677 24.3496 42.9651 19.627L43.6423 20.249C46.2381 22.623 47.7303 26.0254 47.7303 29.5674V30.2021C47.7303 30.7227 48.1567 31.1543 48.6708 31.1543C49.185 31.1543 49.6114 30.7227 49.6114 30.2021V29.5674C49.6114 25.4795 47.8934 21.5693 44.9088 18.8398L42.2879 16.4404C40.8082 10.6514 37.9616 5.23047 33.886 0.698242C33.4973 0.253906 32.933 0 32.3436 0C31.7542 0 31.1899 0.253906 30.8012 0.698242C26.7382 5.23047 23.879 10.6514 22.3868 16.4277L19.7659 18.8271C16.7688 21.5693 15.0633 25.4795 15.0633 29.5547V30.1895C15.0633 30.71 15.4897 31.1416 16.0038 31.1416C16.518 31.1416 16.9443 30.71 16.9443 30.1895V29.5547C16.9443 26.0127 18.4366 22.6104 21.0324 20.2363L21.7096 19.6143C20.907 24.3369 20.9948 29.2373 22.0356 34.0361L22.763 37.3623H17.6717C17.2704 37.3623 16.9443 37.0322 16.9443 36.626V34.2393C16.9443 33.7188 16.518 33.2871 16.0038 33.2871C15.4897 33.2871 15.0633 33.7188 15.0633 34.2393V36.626C15.0633 38.0859 16.2296 39.2666 17.6717 39.2666H23.1768L23.8665 42.4658C24.042 43.291 24.6816 43.9258 25.4716 44.1289L26.0108 46.8965C26.2993 48.3691 27.4028 49.5117 28.7822 49.8672V51.8477C28.4436 51.7715 28.105 51.7207 27.7539 51.7207C26.2742 51.7207 24.8948 52.4824 24.0797 53.7139C23.0263 53.0283 21.7723 52.6855 20.4932 52.749C17.4459 52.9014 14.9881 55.3389 14.7749 58.4238C14.662 60.1377 15.2263 61.7754 16.38 63.0322C17.5212 64.2891 19.1263 65 20.8067 65C21.6469 65 22.462 64.8223 23.2395 64.4795C23.716 64.2637 23.9292 63.7051 23.716 63.2227C23.5028 62.7402 22.9511 62.5244 22.4745 62.7402C21.9478 62.9814 21.3835 63.0957 20.7942 63.0957C19.6279 63.0957 18.5495 62.6133 17.7469 61.75C16.9443 60.8867 16.5556 59.7568 16.6434 58.5635C16.7939 56.4434 18.4868 54.7676 20.581 54.6533C21.6093 54.6025 22.6125 54.9326 23.4025 55.5801C23.7285 55.8467 24.1424 55.9355 24.5437 55.8467C24.9449 55.7578 25.271 55.4785 25.4465 55.0977C25.8604 54.209 26.7507 53.625 27.7288 53.625C28.08 53.625 28.4311 53.7012 28.7446 53.8408C29.1584 54.0312 29.6475 53.9932 30.0237 53.7393C30.3999 53.4854 30.6256 53.0664 30.6256 52.6094V49.9814H33.9989V52.6094C33.9989 53.0664 34.2246 53.498 34.6008 53.7393C34.9896 53.9932 35.4661 54.0312 35.8799 53.8408C36.206 53.7012 36.5445 53.625 36.8957 53.625C37.8738 53.625 38.7642 54.1963 39.178 55.0977C39.3535 55.4785 39.6796 55.7451 40.0809 55.8467C40.4821 55.9355 40.9085 55.8467 41.222 55.5801C41.9619 54.9707 42.8648 54.6533 43.8304 54.6533C44.9966 54.6533 46.075 55.123 46.8776 55.9863C47.6676 56.8496 48.0689 57.9795 47.9937 59.1602C47.8557 61.1914 46.2506 62.8672 44.2442 63.0703C43.5169 63.1465 42.8146 63.0322 42.1625 62.7402C41.686 62.5244 41.1342 62.7529 40.9211 63.2227C40.7079 63.7051 40.9336 64.2637 41.3976 64.4795C42.1625 64.8223 42.9902 65 43.8304 65C44.0185 65 44.2191 64.9873 44.4072 64.9746C47.3165 64.6953 49.649 62.2578 49.8496 59.2998C49.9625 57.5859 49.3856 55.9482 48.2319 54.7041C47.166 53.4727 45.5484 52.7617 43.8805 52.7617ZM27.779 8.09961H36.9208C37.3095 8.77246 37.6606 9.45801 37.9992 10.1436H26.7006C27.0391 9.45801 27.3903 8.77246 27.779 8.09961ZM32.1931 1.96777C32.2433 1.91699 32.306 1.9043 32.3436 1.9043C32.3812 1.9043 32.4439 1.91699 32.4941 1.96777C33.6854 3.30078 34.7764 4.72266 35.742 6.19531H28.9327C29.9108 4.72266 30.9893 3.30078 32.1931 1.96777ZM23.8665 33.6299C22.2739 26.3301 23.0263 18.7891 25.8353 12.0479H38.8519C41.6609 18.7764 42.4133 26.3174 40.8207 33.6299L38.9899 42.0596C38.9648 42.1992 38.8394 42.3008 38.6889 42.3008H35.0523L35.2028 36.626C35.2153 36.042 35.0021 35.4961 34.6008 35.0771C34.1995 34.6582 33.6603 34.4297 33.0835 34.4297H31.6037C31.0269 34.4297 30.4877 34.6582 30.0864 35.0771C29.6851 35.4961 29.4719 36.042 29.4845 36.626L29.6349 42.3008H25.9983C25.8478 42.3008 25.735 42.1992 25.6973 42.0596L23.8665 33.6299ZM33.3217 36.5625L33.1462 43.3037C33.1462 43.4307 33.0333 43.5322 32.9079 43.5322H31.7793C31.6539 43.5322 31.541 43.4307 31.541 43.3037L31.3655 36.5625C31.3655 36.4736 31.4031 36.4229 31.4282 36.3848C31.4658 36.3467 31.516 36.3086 31.6037 36.3086H33.0835C33.1713 36.3086 33.2214 36.3467 33.259 36.3848C33.2841 36.4229 33.3217 36.4863 33.3217 36.5625ZM27.8542 46.541L27.4028 44.2051H29.8607C30.1992 44.9414 30.9266 45.4492 31.7793 45.4492H32.9079C33.7606 45.4492 34.5005 44.9414 34.8266 44.2051H37.159L36.7076 46.541C36.532 47.4424 35.742 48.1025 34.8391 48.1025H29.7102C28.8073 48.0898 28.0173 47.4424 27.8542 46.541Z" fill="#53606F"/>
<path d="M13.0316 54.4629C12.5551 54.2598 12.0034 54.4756 11.8027 54.958C11.3638 55.9863 11.113 57.0655 11.0378 58.1699C10.9625 59.3506 11.0879 60.5186 11.414 61.6612C11.5394 62.0801 11.903 62.3467 12.3169 62.3467C12.4046 62.3467 12.4924 62.334 12.5802 62.3086C13.0818 62.1563 13.3577 61.6358 13.2197 61.1279C12.9564 60.2012 12.8561 59.2617 12.9188 58.3096C12.9815 57.4082 13.1947 56.5449 13.5458 55.7197C13.7213 55.2373 13.5082 54.6787 13.0316 54.4629Z" fill="#53606F"/>
<path d="M52.8836 54.9707C52.6829 54.4883 52.1311 54.2598 51.6546 54.4756C51.1781 54.6788 50.9524 55.2373 51.1655 55.7198C51.6672 56.8877 51.8803 58.17 51.7926 59.4268C51.7549 59.9981 51.6546 60.5694 51.4916 61.128C51.3411 61.6358 51.6295 62.1563 52.1311 62.3086C52.2189 62.334 52.3067 62.3467 52.3945 62.3467C52.7958 62.3467 53.172 62.0801 53.2974 61.6612C53.498 60.9756 53.6234 60.2647 53.6736 59.5538C53.7739 57.9922 53.498 56.4053 52.8836 54.9707Z" fill="#53606F"/>
<path d="M26.2618 57.1543C25.7477 57.1543 25.3213 57.5859 25.3213 58.1064C25.3213 58.627 25.7477 59.0586 26.2618 59.0586C27.9673 59.0586 29.3592 60.4678 29.3592 62.1943C29.3592 62.7148 29.7856 63.1465 30.2997 63.1465C30.8139 63.1465 31.2402 62.7148 31.2402 62.1943C31.2402 59.4141 29.0081 57.1543 26.2618 57.1543Z" fill="#53606F"/>
<path d="M38.4257 57.1543C35.6794 57.1543 33.4473 59.4141 33.4473 62.1943C33.4473 62.7148 33.8736 63.1465 34.3878 63.1465C34.9019 63.1465 35.3283 62.7148 35.3283 62.1943C35.3283 60.4678 36.7202 59.0586 38.4257 59.0586C38.9398 59.0586 39.3662 58.627 39.3662 58.1064C39.3662 57.5859 38.9524 57.1543 38.4257 57.1543Z" fill="#53606F"/>
</g>
<defs>
<clipPath id="clip0">
<rect width="42.6866" height="65" fill="white" transform="translate(11)"/>
</clipPath>
</defs>
</svg>
