<svg width="114" height="18" viewBox="0 0 114 18" fill="none" xmlns="http://www.w3.org/2000/svg">
<g clip-path="url(#clip0)">
<path d="M20.7539 0.201172H40.9124V4.52519H33.4647V17.5978H28.2016V4.52519H20.7539V0.201172Z" fill="#53606F"/>
<path d="M42.7998 11.4637C42.7998 16.5922 45.5803 17.7989 50.3468 17.7989H58.7876C63.5542 17.7989 66.3347 16.5922 66.3347 11.4637V6.3352C66.3347 1.2067 63.5542 0 58.7876 0H50.3468C45.5803 0 42.7998 1.2067 42.7998 6.3352V11.4637ZM48.2615 7.94414C48.2615 5.73184 48.758 4.42458 51.5385 4.42458H57.6953C60.4758 4.42458 60.9723 5.73184 60.9723 7.94414V9.85475C60.9723 12.3687 60.4758 13.3743 57.9932 13.3743H51.2406C48.758 13.3743 48.2615 12.3687 48.2615 9.85475V7.94414Z" fill="#53606F"/>
<path d="M74.8744 4.42464H84.2089C85.2019 4.42464 85.7977 4.82687 85.7977 5.83246C85.7977 6.83804 85.2019 7.13972 84.2089 7.13972H74.8744V4.42464ZM69.6113 17.5978H86.3936C89.3726 17.5978 91.6566 16.7933 91.6566 12.9721C91.6566 10.3576 90.7629 9.05033 88.4789 8.84922V8.74866C89.9685 8.34642 91.0608 7.74307 91.0608 4.72631C91.0608 1.30732 88.9754 0.201172 84.8047 0.201172H69.6113V17.5978ZM74.8744 10.7598H84.4075C85.4998 10.7598 86.2942 11.0615 86.2942 12.1677C86.2942 13.1732 85.4998 13.4749 84.4075 13.4749H74.9737V10.7598H74.8744Z" fill="#53606F"/>
<path d="M94.834 0.201172H113.702V4.22352H100.097V7.03916H113.006V10.6593H100.097V13.4749H113.999V17.5978H94.834V0.201172Z" fill="#53606F"/>
<path d="M14.4973 16.7933H17.2778C17.8736 16.7933 18.4695 16.2905 18.4695 15.5866C18.4695 15.3855 18.3702 15.1843 18.2709 14.9832L16.8806 12.4693L14.4973 16.7933ZM2.68026 12.5698L1.29002 15.0838C0.992111 15.6871 1.19072 16.391 1.68723 16.6927C1.88584 16.7933 2.08445 16.8938 2.28305 16.8938H5.06354L2.68026 12.5698ZM12.2134 4.32401L10.8231 1.81004C10.5252 1.20669 9.83009 1.10613 9.23427 1.40781C9.03566 1.50836 8.93636 1.70948 8.83706 1.9106L7.44681 4.32401H12.2134ZM11.8162 1.30725L19.3632 14.4804C19.5618 14.8827 19.6611 15.2849 19.6611 15.6871C19.6611 16.9944 18.6681 18 17.3771 18H2.28305C1.88584 18 1.48863 17.8994 1.09141 17.6983C-0.000920326 17.095 -0.398133 15.5866 0.296989 14.4804L7.84403 1.30725C8.04263 0.905012 8.34054 0.703895 8.63845 0.502777C9.73079 -0.201133 11.2203 0.201101 11.8162 1.30725Z" fill="#53606F"/>
</g>
<defs>
<clipPath id="clip0">
<rect width="114" height="18" fill="white"/>
</clipPath>
</defs>
</svg>
