<svg width="48" height="48" viewBox="0 0 48 48" fill="none" xmlns="http://www.w3.org/2000/svg">
<path d="M0 24C0 10.7452 10.7452 0 24 0C37.2548 0 48 10.7452 48 24C48 37.2548 37.2548 48 24 48C10.7452 48 0 37.2548 0 24Z" fill="#53606F"/>
<path d="M16.8933 31.515L18.9669 29.9596C18.9666 32.0334 21.5589 32.5518 22.0774 30.9964L20.5218 29.4415C22.077 28.4047 20.5221 25.8127 18.9671 25.8125L18.9667 28.4046C17.4115 27.8863 15.3383 29.9596 16.8933 31.515Z" stroke="#FCFCFC" stroke-linecap="round" stroke-linejoin="round"/>
<path d="M30.8896 22.7272V21.6659L33.0347 21.1475C34.3218 21.1475 34.3218 23.221 33.0347 23.221L30.8896 22.7272Z" stroke="#FCFCFC" stroke-linecap="round" stroke-linejoin="round"/>
<path d="M19.4844 22.1839V17H28.8154V22.1839H19.4844Z" stroke="#FCFCFC" stroke-linecap="round" stroke-linejoin="round"/>
<path d="M28.8154 22.1841H29.8522" stroke="#FCFCFC" stroke-linecap="round" stroke-linejoin="round"/>
<path d="M22.5957 22.7025V29.4416H25.1877L26.7428 22.1841" stroke="#FCFCFC" stroke-linecap="round" stroke-linejoin="round"/>
<path d="M18.9658 20.1104H29.3337" stroke="#FCFCFC" stroke-linecap="round" stroke-linejoin="round"/>
</svg>
