<svg width="32" height="32" viewBox="0 0 32 32" fill="none" xmlns="http://www.w3.org/2000/svg">
<path fill-rule="evenodd" clip-rule="evenodd" d="M16 32C24.8366 32 32 24.8366 32 16C32 7.16344 24.8366 0 16 0C7.16344 0 0 7.16344 0 16C0 24.8366 7.16344 32 16 32Z" fill="#E0E0E0"/>
<path fill-rule="evenodd" clip-rule="evenodd" d="M16.5275 21.7682C16.5275 21.7682 16.8556 21.7324 17.0237 21.5552C17.1776 21.3929 17.1722 21.0865 17.1722 21.0865C17.1722 21.0865 17.1518 19.6558 17.8285 19.4445C18.4955 19.2368 19.3518 20.8281 20.2607 21.44C20.9472 21.9026 21.4683 21.8014 21.4683 21.8014L23.8969 21.7682C23.8969 21.7682 25.1668 21.6914 24.5648 20.7111C24.515 20.6308 24.2135 19.9857 22.7595 18.6606C21.2362 17.2736 21.4407 17.4979 23.2744 15.0983C24.3913 13.637 24.8378 12.7449 24.6981 12.3635C24.5656 11.9986 23.744 12.0955 23.744 12.0955L21.0103 12.1121C21.0103 12.1121 20.8076 12.085 20.6573 12.1732C20.5106 12.2596 20.4154 12.4612 20.4154 12.4612C20.4154 12.4612 19.9832 13.5916 19.4061 14.5536C18.1887 16.5822 17.7022 16.6896 17.503 16.5639C17.0397 16.2697 17.1553 15.3837 17.1553 14.7544C17.1553 12.7877 17.4595 11.968 16.564 11.7559C16.2669 11.6852 16.0482 11.6389 15.2878 11.6311C14.3123 11.6215 13.4871 11.6346 13.0193 11.8589C12.7081 12.0082 12.468 12.3416 12.6147 12.3608C12.7952 12.3844 13.2043 12.4691 13.4213 12.7589C13.7014 13.1334 13.6916 13.9731 13.6916 13.9731C13.6916 13.9731 13.8526 16.2881 13.3154 16.5753C12.9473 16.7725 12.4422 16.3701 11.3564 14.5292C10.8006 13.5864 10.3808 12.5442 10.3808 12.5442C10.3808 12.5442 10.2999 12.3495 10.155 12.2447C9.97978 12.1182 9.73523 12.0789 9.73523 12.0789L7.13766 12.0955C7.13766 12.0955 6.74727 12.106 6.60409 12.2727C6.47693 12.4202 6.59431 12.7266 6.59431 12.7266C6.59431 12.7266 8.62808 17.3975 10.9313 19.7518C13.0433 21.9096 15.4408 21.7682 15.4408 21.7682H16.5275Z" fill="#34495E"/>
</svg>
