<svg width="32" height="32" viewBox="0 0 32 32" fill="none" xmlns="http://www.w3.org/2000/svg">
<path fill-rule="evenodd" clip-rule="evenodd" d="M32 16C32 24.8366 24.8366 32 16 32C7.16344 32 0 24.8366 0 16C0 7.16344 7.16344 0 16 0C24.8366 0 32 7.16344 32 16ZM17.0237 21.5552C16.8556 21.7324 16.5275 21.7682 16.5275 21.7682H15.4408C15.4408 21.7682 13.0433 21.9096 10.9313 19.7518C8.62808 17.3975 6.59431 12.7266 6.59431 12.7266C6.59431 12.7266 6.47693 12.4202 6.60409 12.2727C6.74727 12.106 7.13766 12.0955 7.13766 12.0955L9.73522 12.0789C9.73522 12.0789 9.97978 12.1182 10.155 12.2447C10.2999 12.3495 10.3808 12.5442 10.3808 12.5442C10.3808 12.5442 10.8006 13.5864 11.3564 14.5292C12.4422 16.3701 12.9473 16.7725 13.3154 16.5753C13.8526 16.2881 13.6916 13.9731 13.6916 13.9731C13.6916 13.9731 13.7014 13.1334 13.4213 12.7589C13.2043 12.4691 12.7952 12.3844 12.6147 12.3608C12.468 12.3416 12.7081 12.0082 13.0193 11.8589C13.4871 11.6346 14.3123 11.6215 15.2878 11.6311C16.0482 11.6389 16.2669 11.6852 16.564 11.7559C17.2533 11.9192 17.2318 12.4425 17.1853 13.5719C17.1714 13.9096 17.1553 14.3016 17.1553 14.7544C17.1553 14.8561 17.1523 14.9646 17.1492 15.0761C17.1331 15.6547 17.1146 16.3173 17.503 16.5639C17.7022 16.6896 18.1887 16.5822 19.4061 14.5536C19.9832 13.5916 20.4154 12.4612 20.4154 12.4612C20.4154 12.4612 20.5106 12.2596 20.6573 12.1732C20.8076 12.085 21.0103 12.1121 21.0103 12.1121L23.744 12.0955C23.744 12.0955 24.5656 11.9986 24.6981 12.3635C24.8378 12.7449 24.3913 13.637 23.2744 15.0983C22.2149 16.4848 21.6993 16.9953 21.7466 17.4468C21.7812 17.7766 22.1164 18.075 22.7595 18.6606C24.1021 19.8842 24.462 20.528 24.5485 20.6827C24.5556 20.6955 24.5609 20.705 24.5648 20.7111C25.1668 21.6914 23.8969 21.7682 23.8969 21.7682L21.4683 21.8014C21.4683 21.8014 20.9472 21.9026 20.2607 21.44C19.901 21.1979 19.5496 20.8024 19.2149 20.4257C18.7038 19.8504 18.2315 19.319 17.8285 19.4445C17.1518 19.6558 17.1722 21.0865 17.1722 21.0865C17.1722 21.0865 17.1776 21.3929 17.0237 21.5552Z" fill="#E0E0E0"/>
</svg>
