<svg width="138" height="80" viewBox="0 0 138 80" fill="none" xmlns="http://www.w3.org/2000/svg">
<g clip-path="url(#clip0)">
<g clip-path="url(#clip1)">
<path d="M19.5 45.3593V46.2708V47.3125C19.5 49.1354 19.7591 50.8281 20.1477 52.1302H31.2876H32.0648H33.4896V45.3593H19.5Z" fill="#34495E"/>
<path d="M104.733 38.7188V38.849C104.733 40.0208 104.604 40.9323 104.215 41.4531C104.215 41.5833 104.086 41.5833 104.086 41.5833C103.697 41.974 102.92 42.2344 101.883 42.2344H101.624C100.718 42.2344 99.9404 41.974 99.4223 41.5833C98.9042 41.0625 98.7746 40.151 98.7746 38.849V40.151V38.849V39.1094V35.5938V31.1667V32.599V32.3385C98.7746 31.0365 99.0337 30.125 99.4223 29.6042C99.8109 29.2135 100.588 28.9531 101.624 28.8229H101.883C102.79 28.8229 103.567 29.0833 104.086 29.6042C104.604 30.125 104.733 31.0365 104.733 32.3385V32.4688V31.1667V32.8594V33.25V35.724V36.6354V37.1563V37.9375V40.2812V38.7188ZM52.272 36.2448C52.013 36.1146 51.8834 35.8542 51.6244 35.724C49.5518 34.2917 46.443 33.6406 42.2979 33.6406C38.671 33.6406 35.6917 34.4219 33.3601 36.1146V29.9948H53.1788C52.6606 31.5573 52.272 33.6406 52.272 36.2448ZM86.3394 43.7969C86.987 44.3177 87.6347 44.8385 88.8005 45.2292C91.0026 46.0104 93.3342 46.401 96.0544 46.401C98.2565 46.401 99.9404 46.1406 101.365 45.75C102.92 45.2292 103.567 44.8385 104.733 43.9271V52.1302L119.5 37.1563C119.5 35.3333 119.37 31.8177 119.241 31.0365C118.982 29.6042 118.205 28.3021 116.78 27.1302L116.65 27H33.3601L19.5 40.9323H33.3601C33.3601 39.6302 33.6192 38.7188 34.0078 38.3281C34.3964 37.9375 35.1736 37.6771 36.2098 37.5469H36.4689C37.3756 37.5469 38.1529 37.8073 38.671 38.3281C39.1891 38.849 39.3187 39.7604 39.3187 41.0625V52H42.2979H64.8368H64.9663H66.3912V31.0365V32.4688V32.3385C66.3912 31.0365 66.6503 30.125 67.0389 29.6042C67.4275 29.2135 68.2047 28.9531 69.2409 28.8229H69.5C70.4067 28.8229 71.1839 29.0833 71.7021 29.6042C72.2202 30.125 72.3497 31.0365 72.3497 32.3385V32.4688V31.1667V52.1302H73.1269H73.5155H98.7746V49.1354H85.4326C85.4326 49.1354 86.3394 47.7031 86.3394 43.7969Z" fill="#34495E"/>
</g>
</g>
<defs>
<clipPath id="clip0">
<rect width="137" height="80" fill="white" transform="translate(0.5)"/>
</clipPath>
<clipPath id="clip1">
<rect width="100" height="25" fill="white" transform="translate(19.5 27)"/>
</clipPath>
</defs>
</svg>
