<svg width="107" height="58" viewBox="0 0 107 58" fill="none" xmlns="http://www.w3.org/2000/svg">
<path d="M45.7834 47.9109C42.7707 43.0632 51.9323 38.8553 59.2664 36.3946L65.44 34.6474L71.095 40.381L74.9226 39.5197L79.2934 43.3831C91.6405 39.4705 99.7896 32.8019 99.7896 25.2473C99.7896 13.1896 79.0712 3.39584 53.488 3.39584C45.9069 3.39584 38.7455 4.25711 32.4238 5.78277L33.0906 1.89478C39.3876 0.664404 46.2773 0 53.488 0C83.047 0 107 11.2949 107 25.2473C107 39.1752 83.047 50.4947 53.488 50.4947C51.7347 50.4947 50.0308 50.4455 48.3269 50.3717C47.2157 49.6088 46.3267 48.7476 45.7834 47.9601V47.9109Z" fill="#34495E"/>
<path d="M34.7941 22.0977L35.0411 20.7197C35.4115 18.6772 35.2633 17.3238 34.6213 16.6348C33.9792 15.9458 33.0409 15.6013 31.8308 15.6013C30.9418 15.6013 30.0529 15.8228 29.0898 16.2657C28.1514 16.7086 27.46 17.2254 27.0155 17.8406L25.4103 26.8962C25.4844 27.3391 25.8301 27.7574 26.4969 28.1511C27.1883 28.5203 28.102 28.7171 29.2379 28.7171C30.4973 28.7171 31.6086 28.2988 32.5964 27.4375C33.6088 26.527 34.3249 24.7799 34.7941 22.0977ZM38.3007 45.4749C37.6093 46.9021 37.5105 48.3047 37.7327 49.3875C15.8784 46.1885 0 36.5915 0 25.2474C0 15.3552 12.0755 6.79178 29.6331 2.65771L28.9416 6.74257L27.534 14.9369V14.9123V14.9369C28.8428 13.6819 30.1022 12.8452 31.3616 12.4515C32.5964 12.0578 33.8805 11.8855 35.1892 11.8855C37.7081 11.8855 39.6095 12.5992 40.9183 14.051C42.2271 15.4783 42.6222 17.5945 42.1283 20.4244L41.7579 22.5898C41.2887 25.2967 40.0293 27.4375 38.0044 29.0862C35.9795 30.7103 33.2878 31.5224 29.9541 31.5224C29.1145 31.5224 28.1761 31.4239 27.1636 31.2025C26.1759 30.981 25.361 30.6365 24.7436 30.169L24.472 31.2517H17.8786L21.7309 9.35097C12.7916 13.3374 7.21071 18.9725 7.21071 25.2228C7.21071 32.1622 14.051 38.3387 24.7436 42.3251L25.2622 42.1528L44.82 35.7303L47.8821 39.3476C43.363 41.0701 39.5107 43.1371 38.3501 45.4256L38.3007 45.4749Z" fill="#34495E"/>
<path d="M61.8841 30.2181C61.5877 30.3903 60.7234 30.6856 59.3406 31.0547C57.933 31.4484 56.5254 31.6207 55.0685 31.6207C51.1174 31.6207 48.1047 30.8333 46.0551 29.2338C44.0054 27.6343 43.2399 25.2473 43.8079 22.073L43.9561 21.2609C44.4746 18.3818 46.0304 16.0687 48.6233 14.3462C51.2162 12.5991 54.4758 11.7378 58.4022 11.7378C59.9579 11.7378 61.3161 11.8854 62.5014 12.2053C63.6867 12.5252 64.5016 12.8451 64.8967 13.1896L64.3041 16.5363C63.7608 16.1179 63.02 15.7488 62.0569 15.4535C61.0938 15.1582 60.032 15.0106 58.8467 15.0106C56.7724 15.0106 55.0931 15.5766 53.7844 16.7331C52.5003 17.8651 51.6607 19.44 51.3149 21.4578L51.2655 21.8023C50.8704 24.0416 51.0433 25.6411 51.7594 26.5762C52.5003 27.5112 53.8337 27.9788 55.834 27.9788C57.1675 27.9788 58.5009 27.8311 59.8097 27.5112C61.1185 27.1913 62.0569 26.8714 62.5755 26.5515L61.8841 30.2181Z" fill="#34495E"/>
<path d="M80.1078 24.8783L80.2066 24.3615C80.4041 23.2296 80.2066 22.3437 79.6139 21.7531C79.0212 21.1379 78.0582 20.8426 76.7 20.8426C75.4159 20.8426 74.354 21.1379 73.5144 21.7039C72.6748 22.2699 72.1562 23.1558 71.934 24.3861L71.8352 24.9029C71.613 26.1825 71.8352 27.0437 72.5514 27.4867C73.2675 27.905 74.2306 28.1265 75.4653 28.1265C76.5024 28.1265 77.4902 27.8804 78.4286 27.3636C79.3423 26.8223 79.9102 26.0102 80.1078 24.8783ZM85.5158 31.227H79.1447L79.4657 28.7417C78.799 29.5291 77.8112 30.1935 76.4777 30.6857C75.1442 31.2024 73.6626 31.4485 72.0328 31.4485C69.3164 31.4485 67.3656 30.9071 66.1556 29.8736C64.9455 28.8155 64.5504 27.216 64.9208 25.0751L64.9702 24.7552C65.3406 22.639 66.5507 20.9903 68.625 19.8583C70.6746 18.7018 73.2922 18.1358 76.4283 18.1358C77.3667 18.1358 78.3051 18.2342 79.1694 18.4557C80.0584 18.6526 80.6758 18.9233 81.0462 19.2432L81.3672 17.373C81.4907 16.7332 81.1943 16.1672 80.5029 15.7243C79.8115 15.2813 78.7743 15.0599 77.3667 15.0599C75.8604 15.0599 74.5022 15.1829 73.2675 15.4536C72.0575 15.6997 70.9709 16.0196 70.0325 16.4133L70.6005 13.1651C71.7858 12.8206 73.0946 12.5007 74.5022 12.2546C75.9345 12.0085 77.6384 11.8855 79.6139 11.8855C82.7748 11.8855 85.0219 12.4515 86.3307 13.5588C87.6642 14.6662 88.1087 16.4133 87.6642 18.8494L85.5158 31.227Z" fill="#34495E"/>
<path d="M16.5206 48.5014C16.7428 48.403 16.891 48.403 17.0392 48.4522C17.3602 48.5753 17.3602 48.9198 17.1133 49.5103C16.8663 50.1009 16.5947 50.3224 16.2737 50.1994C16.0267 50.1009 15.9526 49.8795 16.0761 49.5596L16.5206 48.5014ZM14.6191 50.1747L15.2612 50.4208L15.6316 50.0763C15.7057 50.4946 15.9773 50.7899 16.3724 50.9622C17.0392 51.2329 17.8294 50.8884 18.2492 49.9041C18.5455 49.2151 18.5455 48.3292 17.7306 48.0093C17.3602 47.8616 17.0392 47.8862 16.7428 48.0831L17.3849 46.5328L16.3477 46.1145L14.6191 50.1747Z" fill="#34495E"/>
<path d="M20.9649 51.6512C20.7673 51.7004 20.6192 51.725 20.471 51.6758C20.3475 51.6266 20.1747 51.479 20.2488 51.2575C20.3722 50.913 20.8661 50.9868 21.1871 51.0606L20.9649 51.6512ZM20.6439 50.1255C20.792 49.9287 20.9402 49.8303 21.1871 49.9041C21.3847 49.9779 21.5082 50.1009 21.4341 50.3224L21.3353 50.5685C20.471 50.2732 19.4339 50.1994 19.1622 51.0114C18.9153 51.725 19.4585 52.0695 19.7549 52.168C20.1006 52.2664 20.471 52.2664 20.792 52.1434C20.7673 52.2418 20.7426 52.3402 20.7426 52.414L21.8292 52.7832C21.7798 52.6109 21.8786 52.2664 21.928 52.168L22.4959 50.6177C22.6688 50.1502 22.57 49.6826 21.4588 49.3135C20.8661 49.1166 20.1747 49.092 19.829 49.6826L20.6439 50.1255Z" fill="#34495E"/>
<path d="M26.8431 51.9466C26.8431 51.2084 26.4726 50.7162 25.7318 50.5194C24.7934 50.2733 23.9785 50.7655 23.7316 51.6759C23.4599 52.6602 23.9538 53.4231 24.8675 53.6445C25.633 53.8414 26.201 53.5707 26.6455 52.9801L25.9047 52.6356C25.7318 52.8817 25.5343 53.0786 25.1885 52.9801C24.7934 52.8817 24.6947 52.611 24.8675 51.9466C25.0651 51.2576 25.3367 51.11 25.559 51.1838C25.8553 51.2576 25.88 51.4791 25.8306 51.7252L26.8431 51.9466Z" fill="#34495E"/>
<path d="M27.6826 54.2842L28.7939 54.5302L28.9914 53.6444L29.4359 53.3737L29.7075 54.7271L30.9423 54.9978L30.399 52.7585L31.6584 51.9218L30.6212 51.6758L29.2384 52.6354L29.8063 50.2485L28.7198 50.0024L27.6826 54.2842Z" fill="#34495E"/>
<path d="M35.658 53.7429C35.6086 53.0046 35.1888 52.5371 34.4233 52.4141C33.4849 52.2418 32.6947 52.8078 32.5465 53.7429C32.3737 54.7518 32.9416 55.4654 33.8553 55.613C34.6455 55.7361 35.1641 55.4162 35.5592 54.801L34.7937 54.5303C34.6455 54.7764 34.4727 54.9979 34.1023 54.9486C33.7072 54.8748 33.559 54.6287 33.6825 53.9397C33.8059 53.2261 34.0776 53.0785 34.2998 53.1277C34.6208 53.1769 34.6455 53.3984 34.6208 53.6444L35.658 53.7429Z" fill="#34495E"/>
<path d="M40.1775 54.8994C40.3256 53.9151 39.6836 53.2015 38.7205 53.0538C37.6833 52.9062 36.9425 53.4967 36.7943 54.4318C36.6462 55.4407 37.2635 56.1298 38.2513 56.2774C39.2638 56.4004 40.0293 55.8591 40.1775 54.8994ZM38.3501 55.5638C38.0291 55.5146 37.8562 55.2931 37.955 54.5795C38.0537 53.8659 38.276 53.6936 38.6217 53.7428C38.9427 53.792 39.1156 54.0135 39.0168 54.7271C38.918 55.4407 38.6958 55.613 38.3501 55.5638Z" fill="#34495E"/>
<path d="M44.8444 53.7429L43.7084 53.6445L43.5109 55.7607C43.338 55.8838 43.1652 56.0068 42.9923 56.0068C42.696 55.9822 42.6713 55.7607 42.696 55.5393L42.8688 53.5953L41.7576 53.4968L41.5601 55.7115C41.486 56.4743 42.0786 56.6958 42.3997 56.7204C42.8195 56.745 43.1899 56.5236 43.4862 56.2775L43.4368 56.7204L44.5727 56.8188L44.8444 53.7429Z" fill="#34495E"/>
<path d="M46.2275 56.9419L47.3635 56.9911L47.4869 54.8749C47.6598 54.7272 47.808 54.6042 47.9808 54.6288C48.2772 54.6534 48.3019 54.8749 48.3019 55.0963L48.2031 57.0403L49.339 57.0896L49.4625 54.8749C49.5119 54.112 48.8945 53.9152 48.5982 53.8906C48.1784 53.866 47.8327 54.112 47.5363 54.3581L47.561 53.9152L46.4251 53.866L46.2275 56.9419Z" fill="#34495E"/>
<path d="M50.7959 54.7519H51.2651L51.2404 56.376C51.2404 56.9174 51.4626 57.2127 52.3269 57.2373C52.4998 57.2373 52.722 57.2127 52.9196 57.1881L52.9443 56.4744C52.8702 56.4991 52.7467 56.5237 52.6973 56.4991C52.5245 56.4991 52.3763 56.4252 52.401 56.2284L52.4257 54.7765H52.969L52.9937 54.0629H52.4504L52.4751 52.9802L51.4873 52.9556L51.3886 54.0383H50.87L50.7959 54.7519Z" fill="#34495E"/>
<path d="M54.3274 57.1633L55.4634 57.1387L55.4387 55.1701C55.6115 55.0471 55.7597 54.9487 55.9572 54.9487C56.1301 54.9487 56.3277 54.9979 56.5746 55.0963L56.5499 53.9644C56.1301 53.989 55.6609 54.1858 55.4387 54.5549V54.0628L54.3027 54.0874L54.3274 57.1633Z" fill="#34495E"/>
<path d="M58.8216 56.6958C58.871 56.7943 58.8957 56.8681 58.8957 56.9665C58.9204 57.2126 58.5253 57.2618 58.3524 57.2618C58.1796 57.2618 58.0808 57.2618 57.9326 57.2372L57.982 58C58.1055 58 58.2043 58 58.3277 58C59.4143 57.9508 59.6365 57.4095 59.8588 56.7943L60.9206 53.866L60.0563 53.9152L59.5131 55.6869L58.7969 53.989L57.5869 54.0382L58.8216 56.6958Z" fill="#34495E"/>
<path d="M67.3168 55.6131C67.1686 55.7361 67.0451 55.8099 66.8723 55.8345C66.7488 55.8592 66.5266 55.7607 66.4772 55.5393C66.4278 55.1701 66.897 55.0471 67.218 54.9733L67.3168 55.6131ZM66.329 54.3827C66.3537 54.1366 66.4525 53.989 66.7241 53.9644C66.9217 53.9398 67.1192 53.989 67.1439 54.2351L67.1686 54.4811C66.2549 54.6042 65.3165 54.9487 65.4153 55.8099C65.5141 56.5482 66.1562 56.6466 66.4772 56.5974C66.8229 56.5482 67.1686 56.3759 67.3909 56.1298C67.4156 56.2283 67.4403 56.3267 67.465 56.4005L68.6256 56.2775C68.5021 56.1298 68.428 55.7853 68.428 55.6869L68.2305 54.0382C68.1811 53.546 67.8601 53.1769 66.6994 53.3C66.0821 53.3738 65.4647 53.6445 65.3906 54.3089L66.329 54.3827Z" fill="#34495E"/>
<path d="M72.6008 53.5953C72.3044 52.9063 71.7365 52.611 70.971 52.734C70.0326 52.8817 69.4893 53.6445 69.6375 54.5796C69.8103 55.5885 70.5759 56.0806 71.5142 55.933C72.3044 55.81 72.6996 55.3424 72.8477 54.6288L72.0328 54.6042C71.9834 54.8995 71.8846 55.1455 71.5142 55.2194C71.1191 55.2686 70.8969 55.0717 70.7981 54.4073C70.6746 53.6937 70.8722 53.4722 71.1191 53.423C71.4401 53.3738 71.5389 53.5707 71.613 53.8167L72.6008 53.5953Z" fill="#34495E"/>
<path d="M76.898 52.7831C76.577 52.1187 76.009 51.8235 75.2435 51.9711C74.3051 52.1434 73.7865 52.9308 73.9841 53.8659C74.1816 54.8748 74.9718 55.3423 75.9102 55.1455C76.6758 54.9978 77.0709 54.5057 77.1943 53.7921L76.3794 53.8167C76.33 54.112 76.2559 54.3826 75.8855 54.4319C75.4904 54.5057 75.2682 54.3088 75.12 53.6444C74.9718 52.9308 75.1694 52.7093 75.3916 52.6601C75.7127 52.6109 75.8361 52.7831 75.8855 53.0292L76.898 52.7831Z" fill="#34495E"/>
<path d="M79.3429 52.3402C79.2688 52.0203 79.3429 51.725 79.7133 51.6266C80.0343 51.5528 80.2566 51.7742 80.306 52.0941L79.3429 52.3402ZM81.6148 52.414L81.5901 52.3402C81.2937 51.159 80.4294 50.8145 79.5158 51.036C78.5033 51.2821 78.0341 52.0941 78.2564 53.0046C78.5033 53.9889 79.3429 54.4072 80.306 54.1858C81.0468 54.0135 81.4913 53.6198 81.7382 52.98L80.948 52.8324C80.8739 53.1276 80.627 53.3737 80.3554 53.4475C79.9356 53.546 79.5651 53.3491 79.4664 52.9308L81.6148 52.414Z" fill="#34495E"/>
<path d="M83.0965 52.8324C83.5904 53.2015 84.1336 53.2015 84.7016 53.0293C85.8375 52.6848 86.1338 52.1434 85.9363 51.5282C85.7634 50.9622 85.1955 50.79 84.183 50.9622C83.7879 51.0361 83.6644 51.0115 83.6397 50.8884C83.5904 50.7162 83.7632 50.6177 83.9855 50.5439C84.2077 50.4701 84.6028 50.4947 84.7263 50.6423L85.2449 50.101C84.8251 49.7073 84.2077 49.7565 83.7138 49.9287C82.8989 50.1748 82.5532 50.79 82.7261 51.356C82.7755 51.5282 82.9236 51.7497 83.1459 51.8727C83.3928 52.0204 83.7138 52.0204 84.2818 51.9219C84.8991 51.8481 84.9485 51.9219 84.9979 52.0204C85.0473 52.1434 84.8991 52.3157 84.6028 52.3895C84.2077 52.5125 83.9114 52.4879 83.5904 52.2418L83.0965 52.8324Z" fill="#34495E"/>
<path d="M87.3682 51.5036C87.8868 51.8481 88.4053 51.8235 88.9733 51.6266C90.0845 51.2329 90.3562 50.6669 90.1339 50.0763C89.9117 49.5104 89.3437 49.3873 88.356 49.6088C87.9608 49.7072 87.8621 49.6826 87.8127 49.5842C87.7386 49.4119 87.9115 49.2889 88.1337 49.2151C88.356 49.1413 88.7264 49.1167 88.8745 49.2889L89.3684 48.7229C88.9486 48.3538 88.3313 48.4522 87.8374 48.6245C87.0225 48.8952 86.7261 49.535 86.9484 50.101C87.0225 50.2732 87.1706 50.4701 87.3929 50.5931C87.6645 50.7161 87.9609 50.7161 88.5535 50.5931C89.1709 50.4701 89.2203 50.5439 89.2696 50.6423C89.319 50.7654 89.1709 50.9376 88.8992 51.036C88.5288 51.1591 88.2325 51.1591 87.8868 50.9376L87.3682 51.5036Z" fill="#34495E"/>
</svg>
