<svg width="115" height="36" viewBox="0 0 115 36" fill="none" xmlns="http://www.w3.org/2000/svg">
<g clip-path="url(#clip0)">
<path d="M7.4591 21.3168C8.23162 18.3015 9.96315 15.9942 13.4528 15.9942C16.9159 15.9942 18.6474 18.3015 19.4199 21.343H7.4591V21.3168ZM16.7294 2.91042C18.1413 8.07575 17.1823 10.3831 15.8503 10.7764C13.7192 11.4581 12.8934 8.44283 11.6947 5.53241C9.59021 0.393299 6.87304 0 6.87304 0C8.57793 7.49891 -0.159619 10.1209 0.00021454 19.9796C0.133409 28.7633 7.37918 35.0823 7.96524 35.7378C7.85868 35.2396 6.87304 30.5462 6.92632 26.2462H19.9527C20.006 30.3627 19.1003 34.8725 18.9138 35.6854C24.9608 30.1267 26.7723 24.5943 26.8788 19.9796C27.1186 10.3569 16.7294 2.91042 16.7294 2.91042Z" fill="#53606F"/>
<path d="M40.7845 29.7333C42.5427 29.7333 43.4484 29.0254 43.4484 28.0028V27.9242C43.4484 26.9016 42.596 26.1936 40.8378 26.1936H36.7621V29.7333H40.7845ZM40.2517 21.3167C41.9833 21.3167 42.8091 20.7399 42.8091 19.6911V19.6124C42.8091 18.5636 41.9566 17.9868 40.2251 17.9868H36.7354V21.3167H40.2517ZM30.7417 11.9824H42.3829C45.7394 11.9824 47.8438 12.7428 49.2557 14.1325C50.1081 14.9715 50.7475 16.2038 50.7475 17.8295V17.9081C50.7475 20.7137 49.0159 22.4704 46.432 23.3357C49.5487 24.2271 51.5466 25.8528 51.5466 29.1041V29.1827C51.5466 32.9846 48.3766 35.7639 42.2763 35.7639H30.7683C30.7683 35.7639 28.877 35.7639 28.877 33.9023V13.8178C28.877 13.8178 28.877 11.9824 30.7417 11.9824Z" fill="#34495E"/>
<path d="M70.566 23.9651V23.8865C70.566 21.1334 68.648 18.6425 65.6111 18.6425C62.6276 18.6425 60.7362 21.0809 60.7362 23.8078V23.8865C60.7362 26.6396 62.6542 29.1305 65.6911 29.1305C68.7013 29.1567 70.566 26.692 70.566 23.9651ZM52.7979 23.9651V23.8865C52.7979 17.1742 58.4187 11.7991 65.6911 11.7991C72.9635 11.7991 78.5044 17.0955 78.5044 23.834V23.9127C78.5044 30.625 72.8836 36.0001 65.6111 36.0001C58.3654 36.0001 52.7979 30.7037 52.7979 23.9651Z" fill="#34495E"/>
<path d="M108.287 11.9825H101.494C101.494 11.9825 100.082 11.9825 99.3359 13.8179C98.59 15.6533 95.3401 23.598 95.3401 23.598C95.3401 23.598 92.0901 15.6533 91.3176 13.7917C90.5717 11.9563 89.1599 11.9563 89.1599 11.9563H82.3669C80.4756 11.9563 80.4756 13.7917 80.4756 13.7917V33.85C80.4756 33.85 80.4756 35.7116 82.3669 35.7116H86.6292C88.4939 35.7116 88.5205 33.8237 88.5205 33.8237V21.1071L95.3401 35.7116L102.16 21.1071V33.8762C102.16 33.8762 102.16 35.764 104.051 35.764H108.313C110.205 35.764 110.205 33.9024 110.205 33.9024V13.8179C110.151 13.8179 110.151 11.9825 108.287 11.9825Z" fill="#34495E"/>
<path d="M112.336 12.9002C112.416 12.7429 112.523 12.5856 112.629 12.4807C112.762 12.3496 112.895 12.2709 113.082 12.1923C113.242 12.1136 113.428 12.0874 113.615 12.0874C113.801 12.0874 113.988 12.1136 114.147 12.1923C114.307 12.2709 114.467 12.3496 114.574 12.4807C114.707 12.6118 114.787 12.7429 114.867 12.9002C114.947 13.0575 114.973 13.2411 114.973 13.4246C114.973 13.6082 114.947 13.7917 114.867 13.9752C114.787 14.1326 114.68 14.2899 114.574 14.3948C114.467 14.4996 114.307 14.6045 114.147 14.6832C113.988 14.7618 113.801 14.7881 113.615 14.7881C113.428 14.7881 113.242 14.7618 113.082 14.6832C112.922 14.6045 112.762 14.5259 112.629 14.3948C112.496 14.2637 112.389 14.1326 112.336 13.9752C112.256 13.8179 112.229 13.6344 112.229 13.4246C112.229 13.2411 112.256 13.0575 112.336 12.9002ZM112.576 13.8966C112.629 14.0277 112.709 14.1588 112.816 14.2637C112.922 14.3685 113.029 14.4472 113.188 14.4996C113.322 14.5521 113.482 14.5783 113.641 14.5783C113.801 14.5783 113.961 14.5521 114.094 14.4996C114.227 14.4472 114.361 14.3685 114.467 14.2637C114.574 14.1588 114.654 14.0277 114.707 13.8966C114.76 13.7655 114.787 13.6082 114.787 13.4246C114.787 13.2673 114.76 13.11 114.707 12.9789C114.654 12.8478 114.574 12.7167 114.467 12.6118C114.361 12.5069 114.254 12.4283 114.094 12.3758C113.961 12.3234 113.801 12.2972 113.641 12.2972C113.482 12.2972 113.322 12.3234 113.188 12.3758C113.055 12.4283 112.922 12.5069 112.816 12.6118C112.709 12.7167 112.629 12.8478 112.576 12.9789C112.523 13.11 112.496 13.2673 112.496 13.4246C112.469 13.6082 112.496 13.7655 112.576 13.8966ZM113.695 12.638C113.881 12.638 114.041 12.6642 114.121 12.7429C114.201 12.8216 114.254 12.9264 114.254 13.0838C114.254 13.2149 114.201 13.3197 114.121 13.3984C114.041 13.4771 113.934 13.5033 113.828 13.5295L114.281 14.2374H114.014L113.588 13.5557H113.322V14.2374H113.082V12.638H113.695ZM113.588 13.346C113.641 13.346 113.695 13.346 113.748 13.346C113.801 13.346 113.854 13.3197 113.881 13.3197C113.908 13.2935 113.961 13.2673 113.988 13.2411C114.014 13.2149 114.014 13.1624 114.014 13.0838C114.014 13.0313 114.014 12.9789 113.988 12.9527C113.961 12.9264 113.934 12.9002 113.908 12.874C113.881 12.8478 113.828 12.8478 113.801 12.8478C113.748 12.8478 113.721 12.8478 113.668 12.8478H113.348V13.346H113.588Z" fill="#34495E"/>
</g>
<defs>
<clipPath id="clip0">
<rect width="115" height="36" fill="white"/>
</clipPath>
</defs>
</svg>
