<svg width="116" height="40" viewBox="0 0 116 40" fill="none" xmlns="http://www.w3.org/2000/svg">
<path d="M8.05713 1.73039C8.2351 1.80996 8.59104 1.69061 8.84811 1.67072C8.86788 1.55138 8.76901 1.57127 8.80856 1.47182C8.59104 1.41214 8.53172 1.53149 8.2351 1.47182C8.17578 1.55138 8.09668 1.55138 7.95826 1.53149C7.95826 1.69061 7.58254 1.59116 7.60232 1.77017C7.78029 1.77017 7.91871 1.79007 8.03735 1.84974C8.09668 1.84974 7.99781 1.73039 8.05713 1.73039Z" fill="url(#paint0_linear)"/>
<path d="M8.90747 1.63102C9.08544 1.63102 8.94702 1.49178 8.8877 1.59123C8.8877 1.59123 8.90747 1.61112 8.90747 1.63102Z" fill="url(#paint1_linear)"/>
<path d="M113.257 25.4202C113.177 25.5395 113.098 25.639 113.039 25.7583C113.098 25.7185 113.217 25.5196 113.257 25.4202Z" fill="url(#paint2_linear)"/>
<path d="M106.988 28.8812C107.068 28.7619 107.107 28.6823 107.166 28.5829C107.265 28.4635 107.404 28.384 107.463 28.2249C107.087 28.5033 106.731 29.1796 106.336 29.5774C106.356 29.7167 106.83 28.9608 106.988 28.8812Z" fill="url(#paint3_linear)"/>
<path d="M104.24 32.6803C104.22 32.7201 104.24 32.74 104.259 32.7599L104.398 32.5809C104.378 32.5411 104.319 32.561 104.24 32.6803Z" fill="url(#paint4_linear)"/>
<path d="M101.57 35.2065C101.887 34.8087 102.183 34.4308 102.579 33.9932C102.302 34.212 101.808 34.8286 101.57 35.2065Z" fill="url(#paint5_linear)"/>
<path d="M101.432 35.3256C101.254 35.5245 100.898 36.0019 101.254 35.5444C101.373 35.4251 101.452 35.3058 101.55 35.2063C101.511 35.2461 101.491 35.2461 101.432 35.3256Z" fill="url(#paint6_linear)"/>
<path d="M102.678 34.8881C102.737 34.8682 102.935 34.6693 102.974 34.6096C102.895 34.6494 102.796 34.7488 102.678 34.8881Z" fill="url(#paint7_linear)"/>
<path d="M100.918 34.3908C100.997 34.3113 101.155 34.0925 101.195 33.9731C101.155 33.993 101.017 34.2516 100.918 34.3908Z" fill="url(#paint8_linear)"/>
<path d="M102.045 35.2263C101.985 35.3655 102.341 34.9279 102.5 34.7688C102.381 34.8683 102.183 35.1069 102.045 35.2263Z" fill="url(#paint9_linear)"/>
<path d="M101.985 35.5844C102.104 35.485 102.322 35.2463 102.48 35.0872C102.361 35.1468 102.163 35.4054 101.985 35.5844Z" fill="url(#paint10_linear)"/>
<path d="M100.423 34.5499C100.482 34.5499 100.581 34.351 100.66 34.2317C100.621 34.2317 100.502 34.4306 100.423 34.5499Z" fill="url(#paint11_linear)"/>
<path d="M100.779 34.6294C100.661 34.7686 100.324 35.3057 100.146 35.5643C100.384 35.246 100.562 34.9874 100.779 34.6294Z" fill="url(#paint12_linear)"/>
<path d="M101.254 36.3999C101.452 36.2209 101.669 35.8827 101.906 35.6838C101.669 35.8629 101.412 36.201 101.254 36.3999Z" fill="url(#paint13_linear)"/>
<path d="M100.681 36.2605C100.7 36.3202 100.859 36.0616 100.997 35.9224C100.898 35.982 100.78 36.1412 100.681 36.2605Z" fill="url(#paint14_linear)"/>
<path d="M100.463 36.718C100.502 36.6981 100.661 36.4793 100.76 36.3799C100.661 36.4594 100.601 36.5589 100.463 36.718Z" fill="url(#paint15_linear)"/>
<path d="M100.542 36.8374C100.482 36.8573 100.205 37.1954 100.304 37.1557C100.383 37.0761 100.364 37.0761 100.364 37.0562C100.443 36.9369 100.443 36.9567 100.542 36.8374Z" fill="url(#paint16_linear)"/>
<path d="M99.2568 37.3345C99.4546 37.1157 99.6919 36.7179 99.2568 37.3345V37.3345Z" fill="url(#paint17_linear)"/>
<path d="M98.5447 37.7523C98.5645 37.6727 98.3272 38.0506 98.3865 37.991L98.5447 37.7523Z" fill="url(#paint18_linear)"/>
<path d="M97.9907 37.991C97.9512 38.0506 97.8523 38.2098 97.793 38.349C97.8325 38.3092 97.9709 38.0506 97.9907 37.991Z" fill="url(#paint19_linear)"/>
<path d="M97.2596 39.3833C97.0025 39.7811 96.9234 39.9402 97.2596 39.3833V39.3833Z" fill="url(#paint20_linear)"/>
<path d="M102.776 29.1001C102.974 28.9011 103.033 28.563 103.29 28.2249C103.231 28.2845 103.152 28.4039 103.093 28.4238C103.073 28.6227 102.855 28.8614 102.776 29.1001Z" fill="url(#paint21_linear)"/>
<path d="M101.53 34.1521C101.451 34.1919 101.194 34.6096 101.115 34.6295C101.076 34.6096 101.293 34.3709 101.194 34.4107C101.115 34.53 101.155 34.53 101.056 34.6494C101.076 34.6693 101.115 34.6096 101.115 34.6295C100.937 34.8881 100.858 35.0074 100.72 35.1864C100.739 35.1665 100.779 35.1466 100.779 35.1665C100.542 35.3853 100.423 35.7632 100.008 36.2804C100.423 35.7831 101.194 34.5897 101.53 34.1521Z" fill="url(#paint22_linear)"/>
<path d="M101.57 35.8031C101.649 35.7634 102.124 35.1865 101.768 35.5843C101.729 35.6241 101.729 35.6042 101.768 35.5843C101.729 35.5843 101.59 35.7832 101.57 35.8031Z" fill="url(#paint23_linear)"/>
<path d="M98.8408 38.6673L98.8606 38.6872C98.6628 38.906 98.5046 39.0651 98.0498 39.5624C98.3662 39.264 98.9594 38.5679 99.2165 38.3888C99.256 38.3491 99.2758 38.3292 99.2956 38.3093C99.3154 38.2695 99.3549 38.2297 99.3747 38.1899C99.1967 38.3491 99.0188 38.5281 98.8408 38.6673Z" fill="url(#paint24_linear)"/>
<path d="M99.4143 38.1701C100.166 37.4938 100.818 36.6186 101.55 35.8628C101.154 36.1413 100.621 36.9767 100.186 37.3347C100.166 37.3546 100.166 37.3546 100.146 37.3745C100.106 37.4143 100.126 37.4143 100.146 37.3944C99.968 37.5933 99.7109 37.8519 99.4539 38.1104C99.4341 38.1303 99.4143 38.1701 99.3945 38.19C99.3945 38.1701 99.3945 38.1701 99.4143 38.1701Z" fill="url(#paint25_linear)"/>
<path d="M98.4259 37.832C98.3271 37.9514 98.3073 37.9912 98.2084 38.1105C98.1886 38.1503 98.3864 37.9315 98.4259 37.832Z" fill="url(#paint26_linear)"/>
<path d="M98.2275 39.9801C98.623 39.3635 99.0185 38.7668 99.3942 38.1899C99.3547 38.2297 99.3349 38.2695 99.2954 38.2894C98.9394 38.8463 98.5835 39.4033 98.2275 39.9801Z" fill="url(#paint27_linear)"/>
<path d="M115.768 14.5003C115.689 14.2815 115.61 13.9831 115.511 13.9036C115.471 13.4461 115.373 12.6107 115.017 12.1532C113.988 8.85135 111.101 5.86776 107.799 4.37596L106.553 3.79914C106.138 3.64001 105.723 3.54056 105.288 3.40132C104.457 3.16264 103.607 2.86428 102.776 2.76482C101.965 2.62559 101.115 2.48636 100.304 2.3869C99.553 2.34712 98.8016 2.28745 98.0304 2.24767C96.5868 2.34712 94.8269 2.10843 93.502 2.20789C93.067 2.22778 92.6715 2.3869 92.2364 2.26756C91.307 2.34712 90.2392 2.3869 89.2307 2.50625C88.2222 2.64548 87.2533 2.74493 86.4425 2.78471C85.2165 3.08307 83.8916 3.10296 82.6063 3.36154C82.0724 3.461 81.6176 3.60023 81.1034 3.6599C80.9057 3.67979 80.7079 3.67979 80.4904 3.71957C79.6599 3.85881 78.8096 4.11739 77.9791 4.27651C77.4847 4.37596 77.0892 4.39585 76.6542 4.49531C75.2304 4.85334 73.3716 5.33071 71.7501 5.68874C71.3348 5.76831 70.9393 5.96721 70.5439 6.04677C70.3263 6.10645 70.1088 6.10645 69.8715 6.14623C69.1201 6.32524 68.1511 6.68327 67.3799 6.86229C66.9844 6.96174 66.6087 7.14076 66.1935 7.27999C65.3234 7.55846 64.4731 7.73748 63.8008 8.05572C62.8516 8.25463 61.408 8.7519 60.3007 9.26905C60.2414 9.26905 60.2018 9.26905 60.1623 9.26905C59.3515 9.62708 58.4617 9.8061 57.6904 10.1442C57.552 10.2039 57.5323 10.1641 57.4532 10.184C57.0577 10.363 56.7808 10.4426 56.3853 10.5619C54.9023 11.278 53.7356 11.5764 52.4898 12.193C51.7383 12.372 50.9671 12.7698 50.2157 13.0682C50.018 13.1477 49.7807 13.1875 49.5829 13.2671C49.3852 13.3466 49.2863 13.4262 49.1083 13.5058C49.0095 13.5455 48.7919 13.6251 48.6535 13.6649C48.436 13.7643 48.1987 13.9235 47.9812 14.0229C47.7439 14.1224 47.5264 14.182 47.3089 14.2815C47.0518 14.4008 46.854 14.5401 46.6365 14.6395C46.0433 14.918 45.4501 15.0174 44.7975 15.4749C44.3229 15.6539 43.8285 15.8926 43.2551 16.1313C42.9189 16.2705 42.563 16.3899 42.3059 16.5092C42.207 16.5689 41.95 16.7081 41.8511 16.7678C41.1194 17.1457 40.3482 17.3844 39.5968 17.8419C39.0827 18.0408 38.1335 18.4784 37.2041 18.916L37.3227 19.5923L37.738 21.9195L38.4894 19.4729L38.707 18.737H39.4782H40.2889H41.6929L41.6336 18.916C41.9697 18.7967 42.385 18.737 42.8596 18.737H45.3116H47.823H47.8625H49.2468C49.8004 18.558 50.3541 18.3789 50.9078 18.18C51.8174 17.9811 52.9248 17.5435 53.6565 17.2452C54.6847 17.0264 55.5548 16.6286 56.4249 16.3899C57.0181 16.2308 57.552 16.1313 58.0662 15.9722C58.2441 15.9125 58.3826 15.833 58.5605 15.7932C59.0944 15.6539 59.6086 15.5744 60.1425 15.4152C60.6368 15.2561 61.0719 15.0373 61.6453 14.9777C63.0493 14.4804 65.1059 14.182 66.8658 13.645C66.9845 13.6052 67.0635 13.5654 67.1822 13.5256C68.3489 13.1875 69.4958 13.1079 70.4845 12.73C71.7896 12.4913 73.4309 12.1333 74.7558 11.815C76.0016 11.7156 77.2276 11.3973 78.4141 11.1785C79.3237 10.9796 80.3124 10.9399 81.2616 10.8603C81.5978 10.8205 81.9339 10.7211 82.2701 10.6813C82.7645 10.6216 83.2588 10.6415 83.7532 10.5818C84.643 10.4625 85.4933 10.3431 86.3832 10.3233C87.194 10.2835 88.0047 10.3431 88.8155 10.3034C89.1121 10.2835 89.4087 10.184 89.6855 10.1641C89.8833 10.1641 90.081 10.2039 90.259 10.2238C91.2279 10.3233 92.4737 10.3034 93.6009 10.3431C95.1828 10.3431 96.567 10.6415 98.1688 10.92C99.4541 10.9399 100.403 11.3775 101.471 11.6559C102.717 12.1134 103.864 12.6306 104.635 13.3068C105.446 14.0428 105.92 14.8384 106.494 15.8131C106.573 15.833 106.652 15.8727 106.731 15.9324C106.79 16.0517 106.632 16.0517 106.711 16.1711C106.731 16.2705 106.85 16.191 106.889 16.2507C107.206 17.2452 107.502 18.3988 107.522 19.6122C107.522 19.8111 107.621 19.6321 107.641 19.7912C107.581 20.4874 107.542 21.5416 107.324 22.4366C107.265 22.7947 107.127 23.1925 107.067 23.5704C107.048 23.6698 106.988 23.6102 106.988 23.6897C106.968 23.8091 107.048 23.7494 107.028 23.8489C107.028 23.8688 106.968 24.0478 106.949 24.1472C106.79 24.6047 106.612 25.0423 106.435 25.4998C106.217 25.9175 105.98 26.3352 105.782 26.7927C105.762 26.9916 105.742 27.0115 105.564 27.3098C105.426 27.5286 105.446 27.4888 105.307 27.6679C105.288 27.6878 105.149 27.8867 105.11 27.9463C105.09 28.006 105.149 27.9662 105.149 28.0259C105.09 28.2447 104.655 28.8016 104.437 29.1597C104.18 29.5973 103.963 30.1343 103.646 30.6515C104.002 30.1741 104.338 29.8359 104.615 29.8558C104.437 30.4327 103.725 31.2482 103.528 31.825C102.737 32.919 101.906 34.4506 101.056 35.7236C100.997 35.823 100.957 35.8628 100.937 35.8429C100.482 36.6186 99.9683 37.4143 99.4541 38.2298C99.4739 38.2099 99.4937 38.19 99.5332 38.1502C100.819 36.2009 101.985 34.3909 103.389 32.2427C103.725 31.646 104.675 30.1144 105.248 29.2392C105.604 28.7221 105.94 28.5629 105.999 28.9608C105.663 29.7166 105.129 30.2139 104.773 30.8901C104.773 31.0493 104.754 31.2283 104.932 31.1288C105.901 29.8757 106.929 28.2447 107.7 27.3496C107.759 27.1507 107.918 26.9717 108.036 26.7728C108.155 26.6932 108.254 26.6534 108.372 26.5938C108.392 26.6534 108.353 26.7728 108.432 26.7927C107.74 28.006 107.344 29.1994 106.316 30.4525C106.257 30.6912 106.217 30.91 106.158 31.1487C105.841 31.5465 105.386 32.1631 104.951 32.6604C104.853 32.7797 104.912 32.7599 104.892 32.8195C103.923 34.013 103.112 35.1467 102.341 36.2208C103.132 35.3655 103.765 34.3312 104.477 33.4958C104.595 33.3765 104.675 33.3367 104.773 33.277C105.307 32.4814 106.237 31.3675 106.909 30.4327C107.067 30.3531 107.245 30.4128 106.949 30.7907C107.067 30.7111 107.087 30.6316 107.206 30.4923C107.245 30.5122 107.225 30.552 107.206 30.6117C107.601 30.1144 107.661 30.0348 108.056 29.5376C108.155 29.458 108.254 29.4779 108.234 29.5774C107.878 29.9752 107.661 30.3929 107.364 30.7708C107.186 30.9896 107.008 31.1089 106.83 31.3078C106.751 31.4073 106.79 31.4272 106.692 31.5465C106.612 31.6659 106.435 31.7852 106.355 31.8847C106.257 32.004 106.257 32.0836 106.158 32.2228C105.802 32.7201 105.288 33.1577 104.932 33.6549C104.655 34.0329 104.477 34.4506 104.101 34.8683C104.319 34.7688 104.516 34.4307 104.734 34.1323C105.505 33.1776 106.514 32.183 107.166 31.3675C107.344 31.3277 107.225 31.5465 107.225 31.6659C106.988 31.9046 106.85 32.1035 106.652 32.3024C106.533 32.4217 106.652 32.2029 106.533 32.3024C106.059 32.8593 105.564 33.4361 105.011 34.0925C105.011 34.192 104.872 34.371 105.05 34.3113C104.971 34.4108 104.971 34.4307 104.912 34.4903C104.773 34.6694 104.892 34.4704 104.813 34.4903C104.813 34.6694 104.497 34.8285 104.457 35.0075C103.706 35.7434 103.231 36.4794 102.341 37.275C102.934 36.7579 103.666 36.002 104.338 35.1865C104.477 35.0075 104.358 35.2462 104.477 35.1268C104.675 34.908 104.754 34.6892 104.932 34.4903C105.149 34.2318 105.268 34.1721 105.485 33.9732C105.723 33.7345 105.96 33.4162 106.217 33.1577C106.454 32.919 106.731 32.7797 106.929 32.4615C107.067 32.3819 107.067 32.4615 107.285 32.2626C107.384 32.2626 107.186 32.5411 107.364 32.4416C107.522 32.3024 107.324 32.3819 107.423 32.2825C107.562 32.1234 107.68 32.1035 107.799 32.0438C108.076 31.6261 108.432 31.2681 108.807 30.8702C108.946 30.7509 108.709 31.089 108.867 30.9697C108.966 30.7708 109.46 30.2536 109.658 30.194C109.994 29.7166 110.31 29.4779 110.686 28.8613C110.824 28.6624 110.805 28.9011 110.864 28.8215C111.22 28.4834 111.339 28.2447 111.615 27.827C111.853 27.6281 112.189 27.1905 112.367 26.8126C112.505 26.8523 112.327 27.1109 112.209 27.3496C112.387 27.2502 112.525 26.7927 112.565 26.6335C112.723 26.3551 112.901 26.0965 113.079 25.8379C113.059 25.8379 113.059 25.8379 113.059 25.8379C113.138 25.7385 113.257 25.46 113.316 25.46C113.316 25.46 113.316 25.4799 113.316 25.4998C113.454 25.3009 113.593 25.102 113.712 24.9031C114.048 24.3063 114.404 23.65 114.7 22.8742C114.76 22.6355 114.957 22.556 114.918 22.3372C114.938 22.2576 114.997 22.2775 114.977 22.3372C115.373 21.462 115.511 19.3735 115.906 18.737C115.847 18.4585 115.847 18.8364 115.748 18.6773C115.906 18.2994 115.768 17.7027 115.986 17.4441C116.045 16.3501 115.649 15.3556 115.768 14.5003ZM105.525 27.3894C105.564 27.1308 106.019 26.5739 106.217 26.2954C106.059 26.6534 105.703 26.9916 105.525 27.3894ZM107.581 18.1403C107.581 18.0408 107.621 17.9414 107.661 17.9016C107.72 18.001 107.661 18.1204 107.581 18.1403ZM107.661 31.6659C107.522 31.7057 107.443 31.825 107.285 32.0239C107.127 31.9642 106.771 32.561 106.652 32.4416C106.87 32.1631 107.008 31.9642 107.087 31.7852C107.206 31.6858 107.186 31.8847 107.245 31.825C107.403 31.5266 107.918 31.0493 108.214 30.6912C108.333 30.731 108.194 30.8504 108.353 30.8305C108.135 31.1686 107.957 31.2084 107.661 31.6659ZM108.313 30.6713C108.333 30.6316 108.333 30.6117 108.313 30.6117C108.531 30.3531 108.491 30.6515 108.313 30.6713ZM108.333 29.0005C108.194 29.0403 108.115 29.1597 107.957 29.3586C107.799 29.2989 107.443 29.8956 107.324 29.7763C107.542 29.4978 107.68 29.2989 107.759 29.1199C107.878 29.0204 107.858 29.2193 107.918 29.1597C108.076 28.8613 108.59 28.3839 108.887 28.0259C109.005 28.0657 108.867 28.185 109.025 28.1651C108.807 28.5232 108.629 28.5629 108.333 29.0005ZM109.005 28.0259C109.025 27.9861 109.025 27.9662 109.005 27.9662C109.203 27.6878 109.163 27.9861 109.005 28.0259ZM111.002 26.6733C111.022 26.554 111.2 26.3949 111.279 26.3352C111.2 26.4148 111.062 26.6733 111.002 26.6733ZM111.18 28.0458C111.398 27.7872 111.556 27.648 111.714 27.5485C111.517 27.7474 111.319 27.9861 111.18 28.0458ZM113.237 25.1616C113.099 25.1418 113.356 24.8633 113.454 24.7638C113.375 24.9031 113.375 25.0025 113.237 25.1616Z" fill="#53606F"/>
<path d="M28.1084 27.25L28.3655 24.0874L28.1084 27.25Z" fill="url(#paint28_linear)"/>
<path d="M19.9408 31.447C19.921 31.5266 19.9013 31.5863 19.9013 31.626C19.8222 31.8647 19.7628 32.0835 19.6442 32.5012C19.5849 32.7001 19.4662 33.1377 19.4069 33.2968C19.3674 33.4361 19.3278 33.5753 19.2883 33.7146C19.1894 33.993 19.2289 33.9135 18.9916 34.6295C18.873 34.9876 18.7939 35.1865 18.695 35.5047C18.6555 35.624 18.6555 35.6042 18.6357 35.6439C18.4182 36.2605 18.2798 36.6584 17.9436 37.3545C17.9238 37.4142 17.8843 37.4938 17.8447 37.5733C17.8052 37.6529 17.7854 37.7126 17.7458 37.7921C17.7063 37.8916 17.6272 38.0109 17.6074 38.0706C17.6074 38.0905 17.6272 38.0308 17.6272 38.0308C17.6272 38.0308 17.6865 37.9314 17.647 37.991C17.7063 37.9115 17.7656 37.7921 17.8052 37.7126C17.8843 37.5932 17.9436 37.4739 18.0227 37.3545C18.1018 37.2153 18.1611 37.1158 18.2402 36.9965C18.2995 36.897 18.2995 36.8772 18.3589 36.7976C18.4577 36.6385 18.5764 36.4197 18.6752 36.2606C18.695 36.2407 18.695 36.2208 18.7148 36.2009C19.0114 35.6638 19.3871 35.0074 19.5255 34.7688C19.5651 34.7091 19.6244 34.5897 19.6442 34.5301C19.7431 34.3312 19.8815 34.0726 20.3363 33.1974C20.3759 33.0979 20.3759 33.1178 20.4154 33.0383C20.4154 33.0383 20.712 32.4614 21.8194 31.4669H20.4352H19.9408V31.447Z" fill="url(#paint29_linear)"/>
<path d="M23.6186 18.7172H24.3898H24.548C24.548 18.6575 24.5678 18.5978 24.5678 18.5382C24.5678 18.4984 24.548 18.4984 24.5678 18.4188C24.6271 18.0011 24.6073 17.5635 24.6666 17.1259C24.6666 17.106 24.6469 17.0862 24.6469 17.0663C24.726 16.4696 24.7655 15.7137 24.726 15.2363C24.7853 14.8783 24.726 14.4407 24.726 14.0031C24.726 13.7843 24.7457 13.5854 24.726 13.3865C24.6864 12.8097 24.8051 13.3467 24.7655 12.8892C24.7655 12.8495 24.726 12.6704 24.726 12.6307C24.7062 12.5511 24.7655 12.4318 24.7655 12.3323C24.7853 11.8748 25.161 11.2184 25.4972 10.7212C25.5367 10.6416 25.6949 10.383 25.774 10.2438C25.8926 10.0648 25.952 10.025 26.209 9.72664C26.5057 9.3885 26.6836 9.1697 26.9407 8.89123C27.0593 8.752 27.1384 8.61277 27.2769 8.47353C27.5933 8.15528 27.969 7.81714 28.3645 7.43922C28.6215 7.22042 28.8786 6.98174 29.1752 6.72316C29.6103 6.44469 30.0651 6.14633 30.4606 5.88775C31.1922 5.47005 31.8052 5.11202 32.438 4.77388C33.1103 4.39596 33.8618 3.99815 35.1669 3.28209C35.4437 3.12296 35.7008 2.98373 35.9579 2.8246C33.3081 2.72515 32.8533 2.42679 32.4775 2.24778C32.3787 2.26767 32.3391 2.24778 32.3194 2.20799C32.3589 2.16821 32.1018 2.16821 31.9832 2.16821C30.9549 2.1881 29.63 2.28756 28.6809 2.22788C26.209 2.26767 24.2711 2.30745 22.2344 2.34723C20.692 2.38701 19.3078 2.42679 17.884 2.54613C17.6665 2.48646 17.3303 2.52624 17.1326 2.58592C17.093 2.54613 16.9546 2.54613 16.8557 2.52624C16.4998 2.64559 16.0647 2.56602 15.6099 2.58592C15.5111 2.70526 15.2342 2.6257 15.076 2.70526C14.9969 2.64559 15.1749 2.64559 15.0365 2.60581C14.7596 2.8246 13.7709 2.74504 13.3359 2.8246C13.3754 2.8246 13.3754 2.86438 13.3359 2.86438C13.237 2.80471 13.1777 2.92406 13.059 2.92406C12.268 2.96384 11.7144 3.20252 11.0222 3.30198C10.9432 3.2622 10.7059 3.18263 10.6268 3.2622C10.7454 3.28209 10.9036 3.2622 10.9036 3.36165C10.7059 3.34176 10.429 3.38154 10.3104 3.4611C10.0533 3.48099 9.91488 3.42132 9.69736 3.50088C9.63804 3.50088 9.75668 3.60034 9.63804 3.60034C9.28209 3.56055 9.10412 3.64012 8.78773 3.60034C8.70864 3.69979 8.33292 3.73957 8.21427 3.69979C8.1154 3.73957 8.33292 3.77935 8.23405 3.79924C7.95721 3.83902 7.68036 3.89869 7.42329 3.83902C7.36397 3.8788 7.32442 3.95837 7.20578 3.97826C7.12668 3.99815 7.22555 3.8788 7.1069 3.91859C7.00803 3.97826 7.186 4.01804 7.16623 4.0976C7.0278 4.13738 7.04758 4.19705 6.98826 4.25673C6.79051 4.19705 6.65209 4.33629 6.47412 4.37607C6.27637 4.41585 6.07863 4.39596 5.90066 4.43574C5.74246 4.47552 5.68314 4.55508 5.50517 4.55508C5.36675 4.55508 5.22833 4.47552 5.07013 4.49541C4.99103 4.5153 5.12946 4.57497 5.01081 4.59487C4.57577 4.63465 4.16051 4.67443 3.80457 4.75399C3.78479 4.75399 3.78479 4.75399 3.78479 4.75399C3.68592 4.77388 3.58705 4.81366 3.50795 4.83355C4.12096 4.63465 4.59554 4.79377 5.14923 4.61476C5.22833 4.71421 5.38652 4.53519 5.4854 4.67443C5.52494 4.61476 5.38652 4.57497 5.52495 4.57497C5.56449 4.57497 5.58427 4.61476 5.64359 4.59487C5.56449 4.71421 5.68314 4.71421 5.74246 4.79377C6.15773 4.75399 6.63232 4.71421 6.98826 4.67443C7.06735 4.63465 6.92893 4.61476 7.00803 4.59487C7.16623 4.57497 7.28487 4.57497 7.46284 4.53519C7.52217 4.61476 7.64081 4.65454 7.58149 4.77388C7.02781 4.79377 6.29615 4.99268 5.64359 5.05235C5.44585 5.07224 5.22833 4.99268 5.12946 5.13191C5.42607 5.07224 5.66337 5.21147 5.92043 5.21147C6.2566 5.21147 6.59277 5.05235 6.90916 5.07224C7.00803 5.07224 7.04758 5.11202 7.12668 5.11202C7.186 5.11202 7.28487 5.03246 7.36397 5.03246C7.44307 5.03246 7.44307 5.07224 7.52217 5.07224C7.66059 5.05235 7.75946 4.97279 7.91766 4.97279C8.17472 4.97279 8.43179 5.03246 8.70864 4.99268C8.76796 5.03246 8.74818 5.13191 8.68886 5.1518C8.35269 5.17169 8.31315 5.17169 7.95721 5.19158C7.99675 5.19158 8.01653 5.21147 8.01653 5.25126C7.91766 5.25126 7.87811 5.23136 7.79901 5.27115C8.05608 5.25126 8.0363 5.41038 7.95721 5.48994C7.32442 5.48994 6.55322 5.60929 6.03908 5.5894C5.97976 5.64907 5.95998 5.70874 5.86111 5.72863C5.28765 5.82808 4.63509 5.80819 4.02209 5.88775C4.73397 5.98721 5.46562 5.84797 6.29615 5.74852C6.3357 5.76841 6.31592 5.82808 6.39502 5.80819C6.75096 5.72863 7.14645 5.70874 7.42329 5.66896C7.54194 5.74852 7.66059 5.84797 7.77924 5.92754C8.64931 5.7883 9.2821 6.12644 10.1126 6.06677C10.1126 6.12644 10.1719 6.14633 10.2115 6.18611C10.1522 6.24578 10.1126 6.30546 10.0335 6.36513C9.8951 6.38502 9.75668 6.4248 9.63804 6.38502C8.94593 6.62371 7.95721 6.56403 7.1069 6.74305C7.00803 6.86239 7.08713 6.94196 7.16623 7.02152C7.58149 7.04141 7.95721 6.86239 8.41202 6.96185C8.58999 7.20053 8.43179 7.37955 8.07585 7.43922C7.50239 7.51878 6.53344 7.57845 6.1775 7.57845C4.53622 7.87681 2.87517 7.97627 1.19434 8.25473C2.14351 8.21495 3.01359 7.99616 3.86389 8.01605C3.86389 7.95638 3.88366 7.93649 3.94299 7.93649C4.77352 7.8967 5.70292 7.79725 6.4148 7.63813C6.73119 7.75747 7.30465 7.51878 7.62104 7.65802C7.56172 7.91659 7.30465 8.03594 6.98826 8.13539C7.30465 8.09561 7.62104 8.13539 7.89788 8.1155C8.1154 8.09561 8.51089 7.99616 8.60976 8.03594C8.62954 8.03594 8.60976 8.09561 8.62954 8.09561C8.66909 8.07572 8.80751 8.05583 8.80751 8.05583C8.92615 8.01605 8.90638 7.99616 9.0448 7.99616C9.22277 7.99616 9.22277 7.99616 9.34142 8.03594C9.99398 8.01605 10.607 7.87681 11.2398 7.85692C11.3189 7.85692 11.4177 7.83703 11.4573 7.83703C11.5166 7.83703 11.4771 7.8967 11.5562 7.8967C11.5957 7.8967 11.5759 7.85692 11.6353 7.85692C11.8923 7.83703 12.6833 7.73758 12.9206 7.71769C13.5534 7.65802 14.285 7.59835 14.7992 7.55856C14.9178 7.55856 14.7596 7.63813 14.9178 7.61824C15.7879 7.57845 16.7173 7.49889 17.6665 7.41933C17.7456 7.41933 17.6862 7.49889 17.7851 7.479C17.9235 7.479 17.884 7.39944 18.0026 7.37955C18.0817 7.39944 18.1411 7.41933 18.1806 7.45911C19.2682 7.39944 19.8614 7.29999 20.9688 7.16075C21.4434 7.10108 21.8784 7.04141 22.3332 6.98174L22.6496 6.94196C22.8078 6.92207 23.0451 6.8425 23.1638 6.88228C23.4406 6.80272 23.6384 6.80272 23.8559 6.78283C23.9943 6.74305 23.7966 6.86239 23.7768 6.90217C23.7175 6.96185 23.6581 7.00163 23.6581 7.02152C23.6581 7.02152 23.6977 7.02152 23.6779 7.04141C23.6581 7.0613 23.5395 7.14086 23.5197 7.16075C23.4802 7.20053 23.4604 7.22042 23.4604 7.26021C23.4406 7.29999 23.4406 7.31988 23.4011 7.35966L23.144 7.63813C23.1045 7.67791 23.1044 7.73758 23.0649 7.79725C23.0451 7.83703 22.9858 7.85692 22.966 7.8967C22.8078 8.21495 22.5705 8.65255 22.3926 8.9708C22.0564 9.5874 21.7202 10.2637 21.5818 11.0792C21.4632 11.5168 21.3841 12.0339 21.4236 12.6108L21.4632 13.0484L21.5225 13.3069L21.6214 13.7843C21.6411 14.2816 21.6609 14.023 21.7202 14.5998C21.7202 14.6197 21.7202 14.7192 21.7202 14.759C21.7796 15.6143 21.9378 16.5889 21.918 17.305C21.9773 17.5635 21.9378 17.8022 21.9378 18.0409C21.9575 18.3393 21.9575 18.6177 21.9575 18.8166C21.9575 18.8564 21.9378 19.0155 21.9378 19.0553C21.9378 19.2741 21.9378 19.6322 21.9575 19.8708C21.9378 20.3084 21.8587 20.746 21.8784 21.2632C21.8389 21.6411 21.7598 22.198 21.74 22.6555C21.6214 23.3915 21.5818 24.1473 21.4632 24.9032C21.4236 25.1617 21.3643 25.3805 21.3445 25.659C21.2852 25.9176 21.2259 26.2358 21.1666 26.574C21.1468 26.6535 21.127 26.7928 21.0875 26.9121L23.3615 19.4531L23.6186 18.7172ZM7.38375 4.39596C7.32442 4.39596 7.42329 4.5153 7.36397 4.55508C7.24532 4.5153 7.12668 4.47552 6.92893 4.47552C6.90916 4.29651 7.28487 4.39596 7.28487 4.23683C7.42329 4.25673 7.50239 4.25673 7.56172 4.17716C7.85833 4.23683 7.91766 4.11749 8.13518 4.17716C8.07585 4.27662 8.17472 4.25673 8.17472 4.37607C7.91766 4.35618 7.56172 4.45563 7.38375 4.39596ZM8.1945 4.23683C8.25382 4.13738 8.41202 4.27662 8.21427 4.27662C8.23405 4.25673 8.21427 4.25673 8.1945 4.23683ZM8.2736 4.69432C8.51089 4.7341 8.74818 4.61476 8.9657 4.65454C8.78773 4.67443 8.41202 4.77388 8.2736 4.69432ZM14.7201 5.45016C14.7398 5.41038 14.8387 5.35071 14.898 5.39049C14.8783 5.43027 14.7992 5.45016 14.7201 5.45016Z" fill="#53606F"/>
<path d="M108.985 27.9662C109.005 27.9662 109.005 27.9861 108.985 28.0259C109.163 27.9861 109.203 27.6877 108.985 27.9662Z" fill="url(#paint30_linear)"/>
<path d="M108.985 27.9662C109.005 27.9662 109.005 27.9861 108.985 28.0259C109.163 27.9861 109.203 27.6877 108.985 27.9662Z" fill="url(#paint31_linear)"/>
<path d="M108.886 28.0259C108.57 28.3839 108.076 28.8414 107.917 29.1596C107.858 29.2392 107.858 29.0204 107.759 29.1199C107.68 29.2989 107.562 29.5177 107.324 29.7763C107.463 29.8956 107.819 29.2989 107.957 29.3586C108.115 29.1398 108.194 29.0403 108.333 29.0005C108.629 28.543 108.807 28.5231 109.025 28.1651C108.867 28.185 109.005 28.0657 108.886 28.0259Z" fill="url(#paint32_linear)"/>
<path d="M108.886 28.0259C108.57 28.3839 108.076 28.8414 107.917 29.1596C107.858 29.2392 107.858 29.0204 107.759 29.1199C107.68 29.2989 107.562 29.5177 107.324 29.7763C107.463 29.8956 107.819 29.2989 107.957 29.3586C108.115 29.1398 108.194 29.0403 108.333 29.0005C108.629 28.543 108.807 28.5231 109.025 28.1651C108.867 28.185 109.005 28.0657 108.886 28.0259Z" fill="url(#paint33_linear)"/>
<path d="M107.581 18.1403C107.66 18.1204 107.72 18.0011 107.66 17.9016C107.621 17.9414 107.601 18.021 107.581 18.1403Z" fill="url(#paint34_linear)"/>
<path d="M107.581 18.1403C107.66 18.1204 107.72 18.0011 107.66 17.9016C107.621 17.9414 107.601 18.021 107.581 18.1403Z" fill="url(#paint35_linear)"/>
<path d="M113.237 25.1615C113.375 24.9825 113.375 24.9029 113.454 24.7637C113.355 24.8631 113.118 25.1416 113.237 25.1615Z" fill="url(#paint36_linear)"/>
<path d="M113.237 25.1615C113.375 24.9825 113.375 24.9029 113.454 24.7637C113.355 24.8631 113.118 25.1416 113.237 25.1615Z" fill="url(#paint37_linear)"/>
<path d="M113 25.7583H113.02C113.099 25.639 113.178 25.5395 113.237 25.4202C113.237 25.4003 113.237 25.4003 113.237 25.3804C113.198 25.3804 113.079 25.6588 113 25.7583Z" fill="url(#paint38_linear)"/>
<path d="M113 25.7583H113.02C113.099 25.639 113.178 25.5395 113.237 25.4202C113.237 25.4003 113.237 25.4003 113.237 25.3804C113.198 25.3804 113.079 25.6588 113 25.7583Z" fill="url(#paint39_linear)"/>
<path d="M111.003 26.6733C111.062 26.6733 111.181 26.4347 111.28 26.3352C111.201 26.375 111.042 26.554 111.003 26.6733Z" fill="url(#paint40_linear)"/>
<path d="M111.003 26.6733C111.062 26.6733 111.181 26.4347 111.28 26.3352C111.201 26.375 111.042 26.554 111.003 26.6733Z" fill="url(#paint41_linear)"/>
<path d="M111.181 28.0459C111.319 28.0061 111.537 27.7674 111.715 27.5486C111.556 27.648 111.378 27.7873 111.181 28.0459Z" fill="url(#paint42_linear)"/>
<path d="M111.181 28.0459C111.319 28.0061 111.537 27.7674 111.715 27.5486C111.556 27.648 111.378 27.7873 111.181 28.0459Z" fill="url(#paint43_linear)"/>
<path d="M106.237 26.2954C106.039 26.5739 105.584 27.1109 105.545 27.3894C105.703 26.9916 106.059 26.6534 106.237 26.2954Z" fill="url(#paint44_linear)"/>
<path d="M106.237 26.2954C106.039 26.5739 105.584 27.1109 105.545 27.3894C105.703 26.9916 106.059 26.6534 106.237 26.2954Z" fill="url(#paint45_linear)"/>
<path d="M99.2959 38.2894C99.3157 38.2496 99.3552 38.2297 99.3948 38.1899C99.4145 38.17 99.4343 38.1302 99.4541 38.1104C99.4343 38.1302 99.4145 38.1501 99.375 38.1899C99.3552 38.2098 99.3157 38.2496 99.2959 38.2894Z" fill="url(#paint46_linear)"/>
<path d="M99.2959 38.2894C99.3157 38.2496 99.3552 38.2297 99.3948 38.1899C99.4145 38.17 99.4343 38.1302 99.4541 38.1104C99.4343 38.1302 99.4145 38.1501 99.375 38.1899C99.3552 38.2098 99.3157 38.2496 99.2959 38.2894Z" fill="url(#paint47_linear)"/>
<path d="M14.7207 5.44999C14.7998 5.4301 14.8591 5.4301 14.8987 5.39032C14.8393 5.35053 14.7405 5.41021 14.7207 5.44999Z" fill="url(#paint48_linear)"/>
<path d="M14.7207 5.44999C14.7998 5.4301 14.8591 5.4301 14.8987 5.39032C14.8393 5.35053 14.7405 5.41021 14.7207 5.44999Z" fill="url(#paint49_linear)"/>
<path d="M11.3392 0.159005C11.2601 0.159005 11.2205 0.119224 11.1216 0.139114C11.1019 0.238567 11.2798 0.178895 11.3392 0.159005Z" fill="url(#paint50_linear)"/>
<path d="M11.0229 0.0398457C10.9834 6.44653e-05 10.8252 6.44653e-05 10.8252 0.0398457C10.8845 0.0398457 11.0229 0.0796269 11.0229 0.0398457Z" fill="url(#paint51_linear)"/>
<path d="M10.2322 0.915039C10.1728 0.93493 10.0344 0.895148 10.0146 0.93493C10.074 0.974711 10.1728 0.95482 10.2322 0.915039Z" fill="url(#paint52_linear)"/>
<path d="M9.4209 0.0596718C9.59887 0.0795624 9.71752 0.0596718 9.77684 0C9.65819 0.0198906 9.48022 0 9.4209 0.0596718Z" fill="url(#paint53_linear)"/>
<path d="M8.27441 4.69426C8.41284 4.77382 8.78855 4.67437 8.96652 4.65448C8.76878 4.6147 8.51171 4.73404 8.27441 4.69426Z" fill="url(#paint54_linear)"/>
<path d="M8.27441 4.69426C8.41284 4.77382 8.78855 4.67437 8.96652 4.65448C8.76878 4.6147 8.51171 4.73404 8.27441 4.69426Z" fill="url(#paint55_linear)"/>
<path d="M8.11534 2.68512C8.05602 2.66523 8.01647 2.64534 7.93737 2.64534C7.85827 2.7448 7.38369 2.66523 7.42323 2.76469C7.71985 2.66523 8.13512 2.78458 8.35263 2.64534C8.27354 2.58567 8.21421 2.66523 8.11534 2.68512Z" fill="url(#paint56_linear)"/>
<path d="M5.50537 2.48633H5.38672C5.38672 2.52611 5.38672 2.56589 5.40649 2.56589C5.50537 2.56589 5.52514 2.52611 5.50537 2.48633Z" fill="url(#paint57_linear)"/>
<path d="M4.37838 3.30176C4.06199 3.36143 3.82469 3.36143 3.54785 3.38132C3.78515 3.46088 4.20041 3.4211 4.37838 3.30176Z" fill="url(#paint58_linear)"/>
<path d="M3.44885 3.44115C3.50817 3.44115 3.50817 3.42126 3.52794 3.40137C3.44885 3.40137 3.36975 3.40137 3.29065 3.44115C2.97426 3.44115 3.29065 3.46104 3.44885 3.44115Z" fill="url(#paint59_linear)"/>
<path d="M3.52832 3.402H3.54958C3.54958 3.3813 3.52832 3.3813 3.52832 3.402Z" fill="url(#paint60_linear)"/>
<path d="M3.96289 2.22778C4.06176 2.22778 4.14086 2.20788 4.18041 2.1681C4.14086 2.14821 3.98267 2.1681 3.96289 2.22778Z" fill="url(#paint61_linear)"/>
<path d="M3.76562 5.23131C3.84472 5.21142 4.00292 5.23131 4.04247 5.19153C3.96337 5.15175 3.82495 5.19153 3.76562 5.23131Z" fill="url(#paint62_linear)"/>
<path d="M3.62748 2.66537C3.72635 2.62559 3.88455 2.62559 3.96365 2.56592C3.845 2.58581 3.54838 2.58581 3.62748 2.66537Z" fill="url(#paint63_linear)"/>
<path d="M3.44922 2.32712C3.58764 2.30723 3.74584 2.32712 3.80516 2.24756C3.68651 2.26745 3.52832 2.26745 3.44922 2.32712Z" fill="url(#paint64_linear)"/>
<path d="M3.56738 5.86788C3.64648 5.84799 3.76513 5.84799 3.7849 5.74854C3.7058 5.78832 3.58716 5.78832 3.56738 5.86788Z" fill="url(#paint65_linear)"/>
<path d="M3.62668 5.21143C3.38939 5.21143 3.23119 5.23132 3.01367 5.29099C3.19164 5.29099 3.52781 5.29099 3.62668 5.21143Z" fill="url(#paint66_linear)"/>
<path d="M3.39011 2.32715C3.23192 2.40671 3.0144 2.28737 2.87598 2.36693C3.0144 2.36693 3.23192 2.44649 3.39011 2.32715Z" fill="url(#paint67_linear)"/>
<path d="M2.79661 3.5205C2.87571 3.50061 2.97458 3.48072 3.03391 3.44094C2.93503 3.44094 2.77684 3.40115 2.79661 3.5205Z" fill="url(#paint68_linear)"/>
<path d="M2.51953 3.24217C2.6184 3.24217 2.6975 3.28195 2.75683 3.20239C2.6975 3.22228 2.53931 3.1825 2.51953 3.24217Z" fill="url(#paint69_linear)"/>
<path d="M2.28213 2.90397C2.24258 3.02331 2.4601 3.00342 2.49965 2.94375C2.42055 2.92386 2.42055 2.98353 2.34145 2.96364C2.34145 2.92386 2.34145 2.88408 2.28213 2.90397Z" fill="url(#paint70_linear)"/>
<path d="M1.94629 4.79376C2.36155 4.79376 2.08471 4.67442 1.94629 4.79376V4.79376Z" fill="url(#paint71_linear)"/>
<path d="M1.27441 5.72862C1.43261 5.72862 1.55126 5.74851 1.6699 5.66895C1.59081 5.66895 1.35351 5.68884 1.27441 5.72862Z" fill="url(#paint72_linear)"/>
<path d="M1.57056 5.82788L1.41236 5.84777C1.37281 5.92733 1.62988 5.90744 1.57056 5.82788Z" fill="url(#paint73_linear)"/>
<path d="M1.15527 7.20044C1.23437 7.20044 1.33324 7.18055 1.37279 7.14077C1.31347 7.10099 1.15527 7.14077 1.15527 7.20044Z" fill="url(#paint74_linear)"/>
<path d="M0.502755 7.10107C0.166589 7.14086 0.265462 7.24031 0.502755 7.10107V7.10107Z" fill="url(#paint75_linear)"/>
<path d="M7.14744 6.48422C7.16722 6.44444 7.24631 6.42455 7.30564 6.38477C7.08812 6.46433 6.91015 6.36488 6.75195 6.48422C6.89037 6.50411 7.04857 6.40466 7.14744 6.48422Z" fill="url(#paint76_linear)"/>
<path d="M3.70625 4.67415C3.72602 4.57469 4.00287 4.63437 4.04242 4.53491C3.7458 4.59458 2.99437 4.5548 2.6582 4.71393C3.01414 4.63437 3.21189 4.81338 3.38986 4.67415C3.38986 4.71393 3.37008 4.73382 3.37008 4.75371C3.5085 4.75371 3.5876 4.69404 3.72602 4.71393C3.72602 4.73382 3.68648 4.75371 3.68648 4.79349C3.76557 4.7736 3.76557 4.81338 3.80512 4.81338H3.8249C3.86444 4.67415 3.70625 4.75371 3.70625 4.67415Z" fill="#53606F"/>
<path d="M3.82595 4.77368C3.80469 4.77368 3.80469 4.77368 3.80469 4.77368C3.80469 4.79438 3.82595 4.79438 3.82595 4.77368Z" fill="url(#paint77_linear)"/>
<path d="M3.82595 4.77368C3.80469 4.77368 3.80469 4.77368 3.80469 4.77368C3.80469 4.79438 3.82595 4.79438 3.82595 4.77368Z" fill="#53606F"/>
<path d="M3.38964 2.64549C3.36987 2.64549 3.35009 2.6256 3.38964 2.6256C3.66649 2.60571 3.27099 2.58582 3.23145 2.64549C3.27099 2.66539 3.38964 2.70517 3.38964 2.64549Z" fill="#53606F"/>
<path d="M1.15524 3.00354C1.47164 2.84441 1.90667 2.8643 2.14397 2.84441C2.42081 2.62562 2.9745 2.90409 3.21179 2.64551C2.6581 2.78474 2.06487 2.64551 1.55073 2.82452C1.51118 2.80463 1.43209 2.80463 1.39254 2.78474C1.23434 2.94387 0.73998 2.80463 0.522461 2.8842C0.660882 2.96376 0.957499 2.92398 1.15524 2.90409V3.00354Z" fill="url(#paint78_linear)"/>
<path d="M2.12434 2.88415L2.14412 2.86426C2.12434 2.86426 2.08479 2.86426 2.12434 2.88415Z" fill="#53606F"/>
<path d="M1.33297 6.14617C1.39229 6.10639 1.47139 6.0865 1.51094 6.02683C1.45162 5.96715 1.3132 6.14617 1.33297 6.14617Z" fill="url(#paint79_linear)"/>
<path d="M33.6844 33.4361C34.1985 33.4361 34.4951 33.5355 34.7522 33.6549L35.1477 32.7399C34.8906 32.6007 34.4358 32.5012 33.8426 32.5012C32.2013 32.5012 30.7182 33.5355 30.382 35.5047C30.2238 36.4197 30.3622 37.2153 30.7775 37.6927C31.173 38.17 31.8058 38.3888 32.6759 38.3888C33.3284 38.3888 34.0007 38.2297 34.3567 38.1104L34.8906 35.1268H33.012L32.8538 36.002H33.6844L33.4471 37.4142C33.3482 37.454 33.1307 37.4938 32.8736 37.4938C31.9244 37.4938 31.3312 36.8175 31.5685 35.4848C31.786 34.0726 32.6759 33.4361 33.6844 33.4361Z" fill="#53606F"/>
<path d="M37.6582 34.0527C36.452 34.0527 35.5819 35.087 35.3644 36.2805C35.1469 37.5734 35.7203 38.3889 37.0057 38.3889C37.5198 38.3889 38.0142 38.2894 38.3899 38.1502L38.3701 37.3944C38.0735 37.4938 37.7373 37.5734 37.3221 37.5734C36.7288 37.5734 36.274 37.2949 36.3729 36.5788H38.8645C38.904 36.4595 38.9436 36.3004 38.9634 36.1412C39.2006 34.7688 38.6667 34.0527 37.6582 34.0527ZM37.9944 35.8031H36.5113C36.6102 35.3854 36.9266 34.8285 37.4605 34.8285C38.0142 34.8285 38.0933 35.3655 37.9944 35.8031Z" fill="#53606F"/>
<path d="M42.2865 34.0527C41.6735 34.0527 41.2187 34.3909 40.9616 34.7091H40.9418L40.9814 34.1522H40.0322C39.9729 34.5102 39.9333 34.908 39.8345 35.4053L39.3203 38.3292H40.4277L40.8627 35.8429C40.9814 35.2064 41.4164 34.9677 41.7328 34.9677C42.2074 34.9677 42.2865 35.3655 42.2074 35.8827L41.7723 38.3292H42.8797L43.3345 35.7633C43.5521 34.5898 43.0577 34.0527 42.2865 34.0527Z" fill="#53606F"/>
<path d="M46.5569 36.7181C46.4778 37.1955 46.1021 37.4938 45.7462 37.4938C45.2914 37.4938 45.1727 37.096 45.2914 36.4595L45.7066 34.1323H44.5993L44.1642 36.6187C43.9467 37.8718 44.3818 38.3889 45.1727 38.3889C45.8055 38.3889 46.2603 38.0309 46.4779 37.7524H46.4976L46.4581 38.3094H47.427C47.4666 37.9513 47.5259 37.5336 47.605 37.0364L48.1191 34.1323H47.0118L46.5569 36.7181Z" fill="#53606F"/>
<path d="M49.9584 32.4019C49.6222 32.4019 49.3256 32.6405 49.2663 32.9986C49.207 33.3367 49.4047 33.5953 49.7606 33.5953C50.0968 33.5953 50.3934 33.3566 50.4528 32.9986C50.5121 32.6604 50.3143 32.4019 49.9584 32.4019Z" fill="#53606F"/>
<path d="M48.377 38.3291H49.4843L50.216 34.1521H49.1086L48.377 38.3291Z" fill="#53606F"/>
<path d="M53.4191 34.0527C52.806 34.0527 52.3512 34.3909 52.0942 34.7091L52.1337 34.1522H51.1845C51.1252 34.5102 51.0857 34.908 50.9868 35.4053L50.4727 38.3292H51.58L52.0151 35.8429C52.1337 35.2064 52.5687 34.9677 52.8851 34.9677C53.3597 34.9677 53.4388 35.3655 53.3597 35.8827L52.9247 38.3292H54.0321L54.4869 35.7633C54.6846 34.5898 54.1903 34.0527 53.4191 34.0527Z" fill="#53606F"/>
<path d="M57.434 34.0527C56.2277 34.0527 55.3576 35.087 55.1401 36.2805C54.9028 37.5734 55.4961 38.3889 56.7814 38.3889C57.2955 38.3889 57.7899 38.2894 58.1656 38.1502L58.1458 37.3944C57.8492 37.4938 57.5131 37.5734 57.0978 37.5734C56.5046 37.5734 56.0498 37.2949 56.1486 36.5788H58.6402C58.6798 36.4595 58.7193 36.3004 58.7391 36.1412C58.9764 34.7688 58.4425 34.0527 57.434 34.0527ZM57.7701 35.8031H56.287C56.3859 35.3854 56.7023 34.8285 57.2362 34.8285C57.7899 34.8285 57.869 35.3655 57.7701 35.8031Z" fill="#53606F"/>
<path d="M63.306 32.5012C62.6733 32.5012 62.1789 32.5609 61.8032 32.6206L60.8145 38.3093H61.9021L62.2778 36.1412C62.3766 36.1611 62.5151 36.1611 62.6733 36.1611C63.5236 36.1611 64.9078 35.8031 65.1846 34.2317C65.2835 33.6947 65.1451 33.2372 64.8682 32.9388C64.5321 32.6603 64.0179 32.5012 63.306 32.5012ZM64.0773 34.3113C63.9586 34.9279 63.5038 35.3257 62.8117 35.3257C62.6535 35.3257 62.5348 35.3257 62.436 35.2859L62.7721 33.4162C62.871 33.3963 63.0292 33.3764 63.2665 33.3764C63.84 33.3764 64.1761 33.6947 64.0773 34.3113Z" fill="#53606F"/>
<path d="M67.9735 34.0527C67.578 34.0527 67.0837 34.3312 66.8068 34.8683H66.7673L66.8464 34.1323H65.8972C65.8379 34.5102 65.7983 34.9279 65.6994 35.4451L65.2051 38.3093H66.3124L66.6882 36.1412C66.8068 35.4252 67.2616 35.087 67.756 35.087C67.8746 35.087 67.9537 35.087 68.0328 35.1069L68.2108 34.0527C68.1515 34.0527 68.0922 34.0527 67.9735 34.0527Z" fill="#53606F"/>
<path d="M70.5638 34.0527C69.4366 34.0527 68.4479 34.8484 68.2106 36.2407C67.9733 37.5933 68.6457 38.3889 69.753 38.3889C70.6824 38.3889 71.8096 37.7723 72.0864 36.181C72.3039 34.9279 71.7305 34.0527 70.5638 34.0527ZM70.9593 36.2208C70.8208 36.9568 70.4451 37.5933 69.9112 37.5933C69.3773 37.5933 69.1993 36.9767 69.3378 36.2407C69.4564 35.6042 69.7926 34.8881 70.4056 34.8881C70.9593 34.8682 71.0779 35.5644 70.9593 36.2208Z" fill="#53606F"/>
<path d="M75.4879 34.0527C74.954 34.0527 74.4794 34.2914 74.1432 34.7091H74.1234L74.163 34.1323H73.194C73.1347 34.5102 73.0754 34.9677 72.9765 35.5047L72.1855 40H73.2929L73.6489 37.9314H73.6686C73.8071 38.2099 74.1037 38.4287 74.5585 38.4287C75.4088 38.4287 76.3777 37.7524 76.6546 36.2208C76.9116 34.908 76.3975 34.0527 75.4879 34.0527ZM75.567 36.2208C75.4286 36.9767 75.0528 37.5336 74.4794 37.5336C74.1037 37.5336 73.7873 37.2352 73.9059 36.6385L74.0443 35.8628C74.1234 35.3655 74.5387 34.9478 74.9737 34.9478C75.5077 34.9478 75.7054 35.4849 75.567 36.2208Z" fill="#53606F"/>
<path d="M79.5215 34.0527C78.3153 34.0527 77.4452 35.087 77.2277 36.2805C77.0102 37.5734 77.5836 38.3889 78.869 38.3889C79.3831 38.3889 79.8775 38.2894 80.2532 38.1502L80.2334 37.3944C79.9368 37.4938 79.6006 37.5734 79.1854 37.5734C78.5921 37.5734 78.1373 37.2949 78.2164 36.5788H80.708C80.7476 36.4595 80.7871 36.3004 80.8069 36.1412C81.064 34.7688 80.53 34.0527 79.5215 34.0527ZM79.8577 35.8031H78.3746C78.4735 35.3854 78.7899 34.8285 79.3238 34.8285C79.8577 34.8285 79.9368 35.3655 79.8577 35.8031Z" fill="#53606F"/>
<path d="M82.27 32.2825L81.2021 38.3292H82.3095L83.3576 32.2825H82.27Z" fill="#53606F"/>
<path d="M83.2979 38.3292H84.4052L85.4533 32.2825H84.3657L83.2979 38.3292Z" fill="#53606F"/>
<path d="M87.8272 34.0527C86.621 34.0527 85.7509 35.087 85.5334 36.2805C85.3158 37.5734 85.8893 38.3889 87.1746 38.3889C87.6888 38.3889 88.1831 38.2894 88.5589 38.1502L88.5391 37.3944C88.2425 37.4938 87.9063 37.5734 87.491 37.5734C86.8978 37.5734 86.443 37.2949 86.5419 36.5788H89.0334C89.073 36.4595 89.1125 36.3004 89.1323 36.1412C89.3498 34.7688 88.8357 34.0527 87.8272 34.0527ZM88.1634 35.8031H86.6803C86.7791 35.3854 87.0955 34.8285 87.6295 34.8285C88.1634 34.8285 88.2425 35.3655 88.1634 35.8031Z" fill="#53606F"/>
<path d="M91.1095 34.8681H91.07L91.1491 34.1322H90.1999C90.1406 34.5101 90.101 34.9278 90.0022 35.4449L89.5078 38.3092H90.6152L90.9909 36.1411C91.1096 35.4251 91.5644 35.0869 92.0587 35.0869C92.1774 35.0869 92.2565 35.0869 92.3356 35.1068L92.5135 34.0526C92.4344 34.0327 92.3751 34.0327 92.2763 34.0327C91.8808 34.0526 91.3864 34.3311 91.1095 34.8681Z" fill="#53606F"/>
<path d="M62.8121 29.299C62.8517 29.2393 62.8912 29.1597 62.9308 29.0802L65.3235 21.2035C65.3235 21.1637 65.3433 21.1239 65.3433 21.0841C65.3433 20.209 64.6907 19.7913 63.3658 19.7913H59.0945L56.1679 29.3984C56.0493 29.7565 55.7329 29.9355 55.2187 29.9355L55.0605 30.4128H60.1228C60.9533 30.4128 61.6257 30.2537 62.12 29.9355C62.2189 29.8758 62.3178 29.7962 62.4167 29.6968C62.4364 29.6769 62.476 29.657 62.4958 29.6172C62.5748 29.5377 62.6539 29.4581 62.7133 29.3586C62.7726 29.3388 62.7924 29.3189 62.8121 29.299ZM60.2217 29.1995C60.0635 29.6968 59.7669 29.9355 59.2923 29.9355H58.6595L61.5861 20.2487H62.2782C62.5946 20.2487 62.7528 20.388 62.7528 20.6664C62.7528 20.7261 62.7528 20.7659 62.7528 20.8256C62.7528 20.8852 62.733 20.925 62.7133 20.9847L60.2217 29.1995Z" fill="#53606F"/>
<path d="M63.6819 29.4181L63.6226 29.5772C63.6028 29.6368 63.583 29.6766 63.583 29.7164C63.583 29.7562 63.583 29.8159 63.583 29.8755C63.583 30.0744 63.6621 30.2137 63.8005 30.2932C63.9389 30.3529 64.1367 30.3927 64.3938 30.3927H68.4673C68.5662 30.3927 68.6651 30.3927 68.7441 30.3728C68.7837 30.3728 68.8035 30.3529 68.843 30.3529C68.9023 30.333 68.9617 30.333 69.0012 30.3131C69.0408 30.3131 69.0803 30.2932 69.1001 30.2733C69.1396 30.2535 69.1792 30.2336 69.2385 30.2137C69.2781 30.1938 69.3176 30.1739 69.3374 30.1739C69.3769 30.154 69.3967 30.1341 69.4363 30.1142C69.5154 30.0744 69.5747 30.0148 69.6538 29.9551C69.6735 29.9352 69.6933 29.9153 69.7131 29.8954C69.7526 29.8556 69.7922 29.8159 69.8317 29.7562C69.8515 29.7363 69.8515 29.7164 69.8713 29.6965C69.9108 29.6368 69.9504 29.5971 69.9702 29.5374L72.8177 20.1291C72.7979 20.0695 72.7781 20.0098 72.7386 19.97C72.699 19.9302 72.6397 19.8905 72.5804 19.8507C72.5804 19.8507 72.5606 19.8507 72.5606 19.8308C72.5013 19.8109 72.4222 19.791 72.3431 19.7711C72.3233 19.7711 72.3233 19.7711 72.3036 19.7711C72.2245 19.7512 72.1256 19.7512 72.0069 19.7512H67.9532C67.5181 19.7512 67.1622 19.8308 66.8853 20.0098C66.6085 20.1888 66.391 20.5468 66.213 21.1038L66.1537 21.2828C66.1537 21.3822 66.1339 21.4817 66.1141 21.5812C66.0944 21.7005 66.0548 21.8397 66.0153 21.979V21.9989V22.0187L63.9587 28.7617C63.8796 29.0004 63.8005 29.2191 63.6819 29.4181ZM66.4108 28.8412L68.8628 20.8054C68.9814 20.4474 69.2583 20.2485 69.6933 20.2485H70.3657L67.5774 29.4379C67.4786 29.7761 67.3006 29.9352 67.0831 29.9352H65.7384C66.0153 29.7562 66.2328 29.3982 66.4108 28.8412Z" fill="#53606F"/>
<path d="M79.3236 21.1436L76.832 29.3982C76.7133 29.7562 76.476 29.9352 76.1003 29.9352H75.8037H75.7839L76.041 29.0401L75.5466 29.06C75.3885 29.617 75.1116 29.9153 74.7359 29.9153L73.411 29.9352H73.3517L76.4167 19.7711H73.7867L73.6483 20.2286C73.6483 20.2485 73.6483 20.2883 73.6483 20.3082C73.6483 20.4872 73.6087 20.6861 73.5494 20.8651L70.9787 29.2788C70.8996 29.4976 70.8205 29.6965 70.7217 29.8954L70.5635 30.3927H75.5664H75.6455H78.1569C79.0072 30.3927 79.5806 29.9352 79.8773 29.0202L80.7473 26.1361H83.3971C83.8124 26.1361 84.1683 25.9969 84.4847 25.7383C84.8011 25.4797 85.0186 25.1615 85.1373 24.7835L86.6599 19.7512H84.8209H81.5185C80.3321 19.7711 79.5806 20.2286 79.3236 21.1436ZM82.6655 20.3877C82.7643 20.2883 82.9225 20.2485 83.1005 20.2485H83.8915L82.3293 25.3803C82.27 25.5593 82.1315 25.6587 81.9338 25.6587H80.9253L82.4084 20.7855C82.4677 20.6065 82.5468 20.4872 82.6655 20.3877Z" fill="#53606F"/>
<path d="M98.8412 30.4128H100.641L103.864 19.7913H103.053L101.036 26.4347L99.8695 19.7913H98.2085L95.3016 29.3984C95.2225 29.6769 94.7281 29.8559 94.2931 29.9156L97.3581 19.7913H95.0445L91.8213 30.4128H93.7592H94.1151H95.8157L97.9316 23.3915L98.8412 30.4128Z" fill="#53606F"/>
<path d="M48.4167 21.6411C48.5552 21.6411 48.6738 21.6212 48.7924 21.5615C48.8913 21.5217 48.9902 21.4223 49.0891 21.2632C49.1088 21.2433 49.1088 21.2234 49.1286 21.2035C49.1484 21.1637 49.1682 21.1239 49.1879 21.0841C49.2077 21.0444 49.2275 20.9847 49.2473 20.9449L49.4648 20.2289L49.6032 19.7913H49.4055H48.9902H48.6145L48.1597 21.2234H48.3772H48.5354H48.5947C48.5947 21.2433 48.5947 21.283 48.5552 21.3228C48.5354 21.3626 48.4958 21.4024 48.4563 21.4422C48.4167 21.482 48.3772 21.5018 48.3574 21.5018H48.0806L48.041 21.6411H48.4167Z" fill="#53606F"/>
<path d="M87.5303 19.7712L85.8495 25.2809L84.9992 28.1054L84.6037 29.3784C84.4851 29.7364 84.1489 29.9155 83.5557 29.9155L83.3975 30.3928H84.3269H86.9371L88.4993 25.2213H89.8242L88.262 30.3928H90.892L94.1152 19.7712H91.4654L89.9824 24.6842H88.6575L90.1406 19.7712H87.5303Z" fill="#53606F"/>
<path d="M28.3649 24.0875L28.4835 22.6753L30.7971 19.7712H30.4016H29.67L25.3394 24.9826L26.9213 19.7712H24.41L21.5031 29.3784C21.3845 29.7364 21.0879 29.9353 20.6133 29.9353L20.4551 30.4127H23.7179L24.9637 26.3152L26.0117 25.2213L25.2998 30.4127H27.1982H27.8903L28.1276 27.3297V27.27L28.3649 24.0875Z" fill="#53606F"/>
<path d="M42.8997 19.7712C41.7923 19.7712 41.1002 20.2287 40.8432 21.1238L38.3516 29.3784C38.2329 29.7364 37.9759 29.9353 37.5606 29.9353H37.2442L40.329 19.7712H39.5183L37.4617 26.4346L36.295 19.7911H34.634L31.7271 29.3784C31.6283 29.7165 31.1734 29.8956 30.6989 29.9154L33.7837 19.7712H32.1028H31.4701L29.3542 26.7926L29.1367 27.5286L28.2666 30.4127H28.9192H30.4616H30.5802H32.2808L34.3967 23.3913L35.3063 30.4127H36.9278H37.1058H43.4929C44.4619 30.4127 45.0947 29.8956 45.4111 28.8414L46.5184 25.2213H43.928L42.6624 29.3784C42.5438 29.7364 42.3856 29.9353 42.1483 29.9353H40.8036C41.0607 29.7762 41.298 29.3983 41.476 28.8414L43.928 20.8056C44.0466 20.4475 44.3433 20.2486 44.7981 20.2486H46.2218L46.6766 20.2685C47.0524 20.2884 47.1512 20.5669 46.993 21.1238L47.4676 21.1437L47.9027 19.7712H45.3517H42.8997V19.7712Z" fill="#53606F"/>
<path d="M48.9902 24.1074C48.9506 24.2466 48.9308 24.3859 48.9308 24.4853C48.9111 24.9229 49.1681 25.1417 49.7218 25.1417H51.7981L50.5128 29.3784C50.3941 29.7364 50.1766 29.9353 49.8207 29.9353H49.3856L48.3771 29.9154C48.0014 29.8956 47.8235 29.6171 47.9816 29.0602L47.5071 29.0403L47.0918 30.4127H51.1456C51.8377 30.4127 52.332 29.9552 52.6287 29.0403L53.6965 25.5594C53.7163 25.4997 53.7163 25.46 53.736 25.4202C53.736 25.3804 53.7558 25.3406 53.7558 25.2809C53.7756 24.8831 53.5185 24.6842 52.9846 24.6842H50.8885L52.0552 20.8056C52.1738 20.4475 52.332 20.2486 52.5693 20.2486H53.9931C54.3688 20.2685 54.4875 20.5669 54.3293 21.1238L54.8039 21.1437L55.1796 19.7712H51.5806C51.4817 19.7712 51.3829 19.7712 51.284 19.7911C51.2049 19.7911 51.1456 19.811 51.0862 19.8309C51.0665 19.8309 51.0467 19.8309 51.0269 19.8508C50.9478 19.8707 50.8687 19.9105 50.7896 19.9304C50.3546 20.1293 50.0382 20.5271 49.8602 21.1437L49.5043 22.3371L48.9902 24.1074Z" fill="#53606F"/>
<defs>
<linearGradient id="paint0_linear" x1="0.663093" y1="17.9367" x2="11.0068" y2="-7.24915" gradientUnits="userSpaceOnUse">
<stop stop-color="#58373A"/>
<stop offset="0.5" stop-color="#C52B2D"/>
<stop offset="1" stop-color="#CB5138"/>
</linearGradient>
<linearGradient id="paint1_linear" x1="1.15903" y1="18.2661" x2="11.5705" y2="-7.08485" gradientUnits="userSpaceOnUse">
<stop stop-color="#58373A"/>
<stop offset="0.5" stop-color="#C52B2D"/>
<stop offset="1" stop-color="#CB5138"/>
</linearGradient>
<linearGradient id="paint2_linear" x1="98.4879" y1="57.0364" x2="108.814" y2="31.8933" gradientUnits="userSpaceOnUse">
<stop stop-color="#58373A"/>
<stop offset="0.5" stop-color="#C52B2D"/>
<stop offset="1" stop-color="#CB5138"/>
</linearGradient>
<linearGradient id="paint3_linear" x1="94.5556" y1="55.3762" x2="104.866" y2="30.2704" gradientUnits="userSpaceOnUse">
<stop stop-color="#58373A"/>
<stop offset="0.5" stop-color="#C52B2D"/>
<stop offset="1" stop-color="#CB5138"/>
</linearGradient>
<linearGradient id="paint4_linear" x1="93.8043" y1="55.1809" x2="104.158" y2="29.9668" gradientUnits="userSpaceOnUse">
<stop stop-color="#58373A"/>
<stop offset="0.5" stop-color="#C52B2D"/>
<stop offset="1" stop-color="#CB5138"/>
</linearGradient>
<linearGradient id="paint5_linear" x1="92.7391" y1="54.618" x2="103.045" y2="29.5239" gradientUnits="userSpaceOnUse">
<stop stop-color="#58373A"/>
<stop offset="0.5" stop-color="#C52B2D"/>
<stop offset="1" stop-color="#CB5138"/>
</linearGradient>
<linearGradient id="paint6_linear" x1="92.4534" y1="54.5446" x2="102.778" y2="29.4053" gradientUnits="userSpaceOnUse">
<stop stop-color="#58373A"/>
<stop offset="0.5" stop-color="#C52B2D"/>
<stop offset="1" stop-color="#CB5138"/>
</linearGradient>
<linearGradient id="paint7_linear" x1="93.49" y1="54.7724" x2="103.73" y2="29.8386" gradientUnits="userSpaceOnUse">
<stop stop-color="#58373A"/>
<stop offset="0.5" stop-color="#C52B2D"/>
<stop offset="1" stop-color="#CB5138"/>
</linearGradient>
<linearGradient id="paint8_linear" x1="91.7711" y1="54.1199" x2="102.03" y2="29.1375" gradientUnits="userSpaceOnUse">
<stop stop-color="#58373A"/>
<stop offset="0.5" stop-color="#C52B2D"/>
<stop offset="1" stop-color="#CB5138"/>
</linearGradient>
<linearGradient id="paint9_linear" x1="93.0444" y1="54.8111" x2="103.38" y2="29.6448" gradientUnits="userSpaceOnUse">
<stop stop-color="#58373A"/>
<stop offset="0.5" stop-color="#C52B2D"/>
<stop offset="1" stop-color="#CB5138"/>
</linearGradient>
<linearGradient id="paint10_linear" x1="93.1548" y1="54.8142" x2="103.472" y2="29.6917" gradientUnits="userSpaceOnUse">
<stop stop-color="#58373A"/>
<stop offset="0.5" stop-color="#C52B2D"/>
<stop offset="1" stop-color="#CB5138"/>
</linearGradient>
<linearGradient id="paint11_linear" x1="91.3495" y1="54.1373" x2="101.693" y2="28.9542" gradientUnits="userSpaceOnUse">
<stop stop-color="#58373A"/>
<stop offset="0.5" stop-color="#C52B2D"/>
<stop offset="1" stop-color="#CB5138"/>
</linearGradient>
<linearGradient id="paint12_linear" x1="91.5934" y1="54.1348" x2="101.891" y2="29.0603" gradientUnits="userSpaceOnUse">
<stop stop-color="#58373A"/>
<stop offset="0.5" stop-color="#C52B2D"/>
<stop offset="1" stop-color="#CB5138"/>
</linearGradient>
<linearGradient id="paint13_linear" x1="92.8778" y1="54.7125" x2="103.2" y2="29.5768" gradientUnits="userSpaceOnUse">
<stop stop-color="#58373A"/>
<stop offset="0.5" stop-color="#C52B2D"/>
<stop offset="1" stop-color="#CB5138"/>
</linearGradient>
<linearGradient id="paint14_linear" x1="92.2949" y1="54.4104" x2="102.587" y2="29.348" gradientUnits="userSpaceOnUse">
<stop stop-color="#58373A"/>
<stop offset="0.5" stop-color="#C52B2D"/>
<stop offset="1" stop-color="#CB5138"/>
</linearGradient>
<linearGradient id="paint15_linear" x1="92.3073" y1="54.3803" x2="102.583" y2="29.3594" gradientUnits="userSpaceOnUse">
<stop stop-color="#58373A"/>
<stop offset="0.5" stop-color="#C52B2D"/>
<stop offset="1" stop-color="#CB5138"/>
</linearGradient>
<linearGradient id="paint16_linear" x1="92.3056" y1="54.3845" x2="102.583" y2="29.3609" gradientUnits="userSpaceOnUse">
<stop stop-color="#58373A"/>
<stop offset="0.5" stop-color="#C52B2D"/>
<stop offset="1" stop-color="#CB5138"/>
</linearGradient>
<linearGradient id="paint17_linear" x1="91.4793" y1="54.1253" x2="101.796" y2="29.0049" gradientUnits="userSpaceOnUse">
<stop stop-color="#58373A"/>
<stop offset="0.5" stop-color="#C52B2D"/>
<stop offset="1" stop-color="#CB5138"/>
</linearGradient>
<linearGradient id="paint18_linear" x1="90.9631" y1="53.9688" x2="101.309" y2="28.7779" gradientUnits="userSpaceOnUse">
<stop stop-color="#58373A"/>
<stop offset="0.5" stop-color="#C52B2D"/>
<stop offset="1" stop-color="#CB5138"/>
</linearGradient>
<linearGradient id="paint19_linear" x1="90.6601" y1="53.6926" x2="100.923" y2="28.7059" gradientUnits="userSpaceOnUse">
<stop stop-color="#58373A"/>
<stop offset="0.5" stop-color="#C52B2D"/>
<stop offset="1" stop-color="#CB5138"/>
</linearGradient>
<linearGradient id="paint20_linear" x1="90.5682" y1="53.6939" x2="100.85" y2="28.6592" gradientUnits="userSpaceOnUse">
<stop stop-color="#58373A"/>
<stop offset="0.5" stop-color="#C52B2D"/>
<stop offset="1" stop-color="#CB5138"/>
</linearGradient>
<linearGradient id="paint21_linear" x1="91.2182" y1="54.0112" x2="101.528" y2="28.9097" gradientUnits="userSpaceOnUse">
<stop stop-color="#58373A"/>
<stop offset="0.5" stop-color="#C52B2D"/>
<stop offset="1" stop-color="#CB5138"/>
</linearGradient>
<linearGradient id="paint22_linear" x1="91.8929" y1="54.2645" x2="102.194" y2="29.1824" gradientUnits="userSpaceOnUse">
<stop stop-color="#58373A"/>
<stop offset="0.5" stop-color="#C52B2D"/>
<stop offset="1" stop-color="#CB5138"/>
</linearGradient>
<linearGradient id="paint23_linear" x1="92.8571" y1="54.6793" x2="103.168" y2="29.5705" gradientUnits="userSpaceOnUse">
<stop stop-color="#58373A"/>
<stop offset="0.5" stop-color="#C52B2D"/>
<stop offset="1" stop-color="#CB5138"/>
</linearGradient>
<linearGradient id="paint24_linear" x1="91.5887" y1="54.1559" x2="101.899" y2="29.0523" gradientUnits="userSpaceOnUse">
<stop stop-color="#58373A"/>
<stop offset="0.5" stop-color="#C52B2D"/>
<stop offset="1" stop-color="#CB5138"/>
</linearGradient>
<linearGradient id="paint25_linear" x1="92.3335" y1="54.4619" x2="102.644" y2="29.3574" gradientUnits="userSpaceOnUse">
<stop stop-color="#58373A"/>
<stop offset="0.5" stop-color="#C52B2D"/>
<stop offset="1" stop-color="#CB5138"/>
</linearGradient>
<linearGradient id="paint26_linear" x1="90.8837" y1="53.9396" x2="101.232" y2="28.7428" gradientUnits="userSpaceOnUse">
<stop stop-color="#58373A"/>
<stop offset="0.5" stop-color="#C52B2D"/>
<stop offset="1" stop-color="#CB5138"/>
</linearGradient>
<linearGradient id="paint27_linear" x1="90.6002" y1="56.683" x2="106.434" y2="18.129" gradientUnits="userSpaceOnUse">
<stop stop-color="#58373A"/>
<stop offset="0.5" stop-color="#C52B2D"/>
<stop offset="1" stop-color="#CB5138"/>
</linearGradient>
<linearGradient id="paint28_linear" x1="26.0416" y1="30.3728" x2="41.9189" y2="-8.28669" gradientUnits="userSpaceOnUse">
<stop stop-color="#58373A"/>
<stop offset="0.5" stop-color="#C52B2D"/>
<stop offset="1" stop-color="#CB5138"/>
</linearGradient>
<linearGradient id="paint29_linear" x1="22.1266" y1="28.7656" x2="38.0044" y2="-9.89499" gradientUnits="userSpaceOnUse">
<stop stop-color="#58373A"/>
<stop offset="0.5" stop-color="#C52B2D"/>
<stop offset="1" stop-color="#CB5138"/>
</linearGradient>
<linearGradient id="paint30_linear" x1="96.0283" y1="55.9141" x2="106.321" y2="30.8555" gradientUnits="userSpaceOnUse">
<stop stop-color="#58373A"/>
<stop offset="0.5" stop-color="#C52B2D"/>
<stop offset="1" stop-color="#CB5138"/>
</linearGradient>
<linearGradient id="paint31_linear" x1="94.8607" y1="58.4206" x2="110.696" y2="19.8696" gradientUnits="userSpaceOnUse">
<stop stop-color="#58373A"/>
<stop offset="0.5" stop-color="#C52B2D"/>
<stop offset="1" stop-color="#CB5138"/>
</linearGradient>
<linearGradient id="paint32_linear" x1="95.6417" y1="55.8538" x2="105.964" y2="30.7213" gradientUnits="userSpaceOnUse">
<stop stop-color="#58373A"/>
<stop offset="0.5" stop-color="#C52B2D"/>
<stop offset="1" stop-color="#CB5138"/>
</linearGradient>
<linearGradient id="paint33_linear" x1="94.5001" y1="58.3042" x2="110.347" y2="19.7192" gradientUnits="userSpaceOnUse">
<stop stop-color="#58373A"/>
<stop offset="0.5" stop-color="#C52B2D"/>
<stop offset="1" stop-color="#CB5138"/>
</linearGradient>
<linearGradient id="paint34_linear" x1="90.851" y1="54.0436" x2="101.199" y2="28.8393" gradientUnits="userSpaceOnUse">
<stop stop-color="#58373A"/>
<stop offset="0.5" stop-color="#C52B2D"/>
<stop offset="1" stop-color="#CB5138"/>
</linearGradient>
<linearGradient id="paint35_linear" x1="89.7799" y1="56.342" x2="105.604" y2="17.7995" gradientUnits="userSpaceOnUse">
<stop stop-color="#58373A"/>
<stop offset="0.5" stop-color="#C52B2D"/>
<stop offset="1" stop-color="#CB5138"/>
</linearGradient>
<linearGradient id="paint36_linear" x1="98.4613" y1="56.8587" x2="108.742" y2="31.8284" gradientUnits="userSpaceOnUse">
<stop stop-color="#58373A"/>
<stop offset="0.5" stop-color="#C52B2D"/>
<stop offset="1" stop-color="#CB5138"/>
</linearGradient>
<linearGradient id="paint37_linear" x1="97.2649" y1="59.4269" x2="113.109" y2="20.8508" gradientUnits="userSpaceOnUse">
<stop stop-color="#58373A"/>
<stop offset="0.5" stop-color="#C52B2D"/>
<stop offset="1" stop-color="#CB5138"/>
</linearGradient>
<linearGradient id="paint38_linear" x1="98.4851" y1="57.0118" x2="108.805" y2="31.8844" gradientUnits="userSpaceOnUse">
<stop stop-color="#58373A"/>
<stop offset="0.5" stop-color="#C52B2D"/>
<stop offset="1" stop-color="#CB5138"/>
</linearGradient>
<linearGradient id="paint39_linear" x1="97.35" y1="59.4484" x2="113.188" y2="20.8839" gradientUnits="userSpaceOnUse">
<stop stop-color="#58373A"/>
<stop offset="0.5" stop-color="#C52B2D"/>
<stop offset="1" stop-color="#CB5138"/>
</linearGradient>
<linearGradient id="paint40_linear" x1="97.1366" y1="56.5703" x2="107.489" y2="31.3644" gradientUnits="userSpaceOnUse">
<stop stop-color="#58373A"/>
<stop offset="0.5" stop-color="#C52B2D"/>
<stop offset="1" stop-color="#CB5138"/>
</linearGradient>
<linearGradient id="paint41_linear" x1="96.0468" y1="58.9095" x2="111.882" y2="20.3525" gradientUnits="userSpaceOnUse">
<stop stop-color="#58373A"/>
<stop offset="0.5" stop-color="#C52B2D"/>
<stop offset="1" stop-color="#CB5138"/>
</linearGradient>
<linearGradient id="paint42_linear" x1="97.9296" y1="56.7898" x2="108.251" y2="31.6571" gradientUnits="userSpaceOnUse">
<stop stop-color="#58373A"/>
<stop offset="0.5" stop-color="#C52B2D"/>
<stop offset="1" stop-color="#CB5138"/>
</linearGradient>
<linearGradient id="paint43_linear" x1="96.7894" y1="59.2373" x2="112.636" y2="20.6531" gradientUnits="userSpaceOnUse">
<stop stop-color="#58373A"/>
<stop offset="0.5" stop-color="#C52B2D"/>
<stop offset="1" stop-color="#CB5138"/>
</linearGradient>
<linearGradient id="paint44_linear" x1="92.8904" y1="54.7084" x2="103.204" y2="29.5957" gradientUnits="userSpaceOnUse">
<stop stop-color="#58373A"/>
<stop offset="0.5" stop-color="#C52B2D"/>
<stop offset="1" stop-color="#CB5138"/>
</linearGradient>
<linearGradient id="paint45_linear" x1="91.7493" y1="57.1579" x2="107.584" y2="18.6013" gradientUnits="userSpaceOnUse">
<stop stop-color="#58373A"/>
<stop offset="0.5" stop-color="#C52B2D"/>
<stop offset="1" stop-color="#CB5138"/>
</linearGradient>
<linearGradient id="paint46_linear" x1="91.8776" y1="54.2741" x2="102.187" y2="29.1712" gradientUnits="userSpaceOnUse">
<stop stop-color="#58373A"/>
<stop offset="0.5" stop-color="#C52B2D"/>
<stop offset="1" stop-color="#CB5138"/>
</linearGradient>
<linearGradient id="paint47_linear" x1="90.7247" y1="56.7486" x2="106.569" y2="18.1698" gradientUnits="userSpaceOnUse">
<stop stop-color="#58373A"/>
<stop offset="0.5" stop-color="#C52B2D"/>
<stop offset="1" stop-color="#CB5138"/>
</linearGradient>
<linearGradient id="paint48_linear" x1="6.79975" y1="22.6374" x2="22.69" y2="-16.0532" gradientUnits="userSpaceOnUse">
<stop stop-color="#58373A"/>
<stop offset="0.5" stop-color="#C52B2D"/>
<stop offset="1" stop-color="#CB5138"/>
</linearGradient>
<linearGradient id="paint49_linear" x1="7.77558" y1="20.5428" x2="18.1293" y2="-4.66721" gradientUnits="userSpaceOnUse">
<stop stop-color="#58373A"/>
<stop offset="0.5" stop-color="#C52B2D"/>
<stop offset="1" stop-color="#CB5138"/>
</linearGradient>
<linearGradient id="paint50_linear" x1="2.53075" y1="18.816" x2="12.9256" y2="-6.49413" gradientUnits="userSpaceOnUse">
<stop stop-color="#58373A"/>
<stop offset="0.5" stop-color="#C52B2D"/>
<stop offset="1" stop-color="#CB5138"/>
</linearGradient>
<linearGradient id="paint51_linear" x1="2.37397" y1="18.3936" x2="12.6014" y2="-6.50864" gradientUnits="userSpaceOnUse">
<stop stop-color="#58373A"/>
<stop offset="0.5" stop-color="#C52B2D"/>
<stop offset="1" stop-color="#CB5138"/>
</linearGradient>
<linearGradient id="paint52_linear" x1="1.89658" y1="18.5738" x2="12.3049" y2="-6.7693" gradientUnits="userSpaceOnUse">
<stop stop-color="#58373A"/>
<stop offset="0.5" stop-color="#C52B2D"/>
<stop offset="1" stop-color="#CB5138"/>
</linearGradient>
<linearGradient id="paint53_linear" x1="1.13867" y1="18.2005" x2="11.5119" y2="-7.05717" gradientUnits="userSpaceOnUse">
<stop stop-color="#58373A"/>
<stop offset="0.5" stop-color="#C52B2D"/>
<stop offset="1" stop-color="#CB5138"/>
</linearGradient>
<linearGradient id="paint54_linear" x1="1.28896" y1="20.4168" x2="17.2048" y2="-18.3366" gradientUnits="userSpaceOnUse">
<stop stop-color="#58373A"/>
<stop offset="0.5" stop-color="#C52B2D"/>
<stop offset="1" stop-color="#CB5138"/>
</linearGradient>
<linearGradient id="paint55_linear" x1="2.16786" y1="18.5302" x2="12.5077" y2="-6.64605" gradientUnits="userSpaceOnUse">
<stop stop-color="#58373A"/>
<stop offset="0.5" stop-color="#C52B2D"/>
<stop offset="1" stop-color="#CB5138"/>
</linearGradient>
<linearGradient id="paint56_linear" x1="0.741664" y1="18.0499" x2="11.1344" y2="-7.25527" gradientUnits="userSpaceOnUse">
<stop stop-color="#58373A"/>
<stop offset="0.5" stop-color="#C52B2D"/>
<stop offset="1" stop-color="#CB5138"/>
</linearGradient>
<linearGradient id="paint57_linear" x1="-1.28828" y1="16.9718" x2="8.95797" y2="-7.97672" gradientUnits="userSpaceOnUse">
<stop stop-color="#58373A"/>
<stop offset="0.5" stop-color="#C52B2D"/>
<stop offset="1" stop-color="#CB5138"/>
</linearGradient>
<linearGradient id="paint58_linear" x1="-2.24436" y1="16.6675" x2="8.05343" y2="-8.40656" gradientUnits="userSpaceOnUse">
<stop stop-color="#58373A"/>
<stop offset="0.5" stop-color="#C52B2D"/>
<stop offset="1" stop-color="#CB5138"/>
</linearGradient>
<linearGradient id="paint59_linear" x1="-2.82243" y1="16.645" x2="7.61683" y2="-8.77328" gradientUnits="userSpaceOnUse">
<stop stop-color="#58373A"/>
<stop offset="0.5" stop-color="#C52B2D"/>
<stop offset="1" stop-color="#CB5138"/>
</linearGradient>
<linearGradient id="paint60_linear" x1="-2.7182" y1="16.3833" x2="7.22949" y2="-8.64345" gradientUnits="userSpaceOnUse">
<stop stop-color="#58373A"/>
<stop offset="0.5" stop-color="#C52B2D"/>
<stop offset="1" stop-color="#CB5138"/>
</linearGradient>
<linearGradient id="paint61_linear" x1="-2.66838" y1="16.6543" x2="7.72666" y2="-8.65657" gradientUnits="userSpaceOnUse">
<stop stop-color="#58373A"/>
<stop offset="0.5" stop-color="#C52B2D"/>
<stop offset="1" stop-color="#CB5138"/>
</linearGradient>
<linearGradient id="paint62_linear" x1="-1.6434" y1="17.1258" x2="8.80955" y2="-8.32683" gradientUnits="userSpaceOnUse">
<stop stop-color="#58373A"/>
<stop offset="0.5" stop-color="#C52B2D"/>
<stop offset="1" stop-color="#CB5138"/>
</linearGradient>
<linearGradient id="paint63_linear" x1="-2.75472" y1="16.6573" x2="7.66762" y2="-8.72001" gradientUnits="userSpaceOnUse">
<stop stop-color="#58373A"/>
<stop offset="0.5" stop-color="#C52B2D"/>
<stop offset="1" stop-color="#CB5138"/>
</linearGradient>
<linearGradient id="paint64_linear" x1="-2.93664" y1="16.3817" x2="7.35922" y2="-8.68758" gradientUnits="userSpaceOnUse">
<stop stop-color="#58373A"/>
<stop offset="0.5" stop-color="#C52B2D"/>
<stop offset="1" stop-color="#CB5138"/>
</linearGradient>
<linearGradient id="paint65_linear" x1="-1.5847" y1="17.1104" x2="8.84869" y2="-8.2935" gradientUnits="userSpaceOnUse">
<stop stop-color="#58373A"/>
<stop offset="0.5" stop-color="#C52B2D"/>
<stop offset="1" stop-color="#CB5138"/>
</linearGradient>
<linearGradient id="paint66_linear" x1="-2.06775" y1="16.8238" x2="8.29196" y2="-8.40109" gradientUnits="userSpaceOnUse">
<stop stop-color="#58373A"/>
<stop offset="0.5" stop-color="#C52B2D"/>
<stop offset="1" stop-color="#CB5138"/>
</linearGradient>
<linearGradient id="paint67_linear" x1="-3.46192" y1="16.4983" x2="7.04021" y2="-9.07325" gradientUnits="userSpaceOnUse">
<stop stop-color="#58373A"/>
<stop offset="0.5" stop-color="#C52B2D"/>
<stop offset="1" stop-color="#CB5138"/>
</linearGradient>
<linearGradient id="paint68_linear" x1="-2.99354" y1="16.1573" x2="7.1653" y2="-8.57832" gradientUnits="userSpaceOnUse">
<stop stop-color="#58373A"/>
<stop offset="0.5" stop-color="#C52B2D"/>
<stop offset="1" stop-color="#CB5138"/>
</linearGradient>
<linearGradient id="paint69_linear" x1="-3.33595" y1="16.0659" x2="6.85642" y2="-8.75186" gradientUnits="userSpaceOnUse">
<stop stop-color="#58373A"/>
<stop offset="0.5" stop-color="#C52B2D"/>
<stop offset="1" stop-color="#CB5138"/>
</linearGradient>
<linearGradient id="paint70_linear" x1="-3.86189" y1="16.3241" x2="6.64366" y2="-9.2559" gradientUnits="userSpaceOnUse">
<stop stop-color="#58373A"/>
<stop offset="0.5" stop-color="#C52B2D"/>
<stop offset="1" stop-color="#CB5138"/>
</linearGradient>
<linearGradient id="paint71_linear" x1="-3.33916" y1="16.3544" x2="7.05693" y2="-8.95878" gradientUnits="userSpaceOnUse">
<stop stop-color="#58373A"/>
<stop offset="0.5" stop-color="#C52B2D"/>
<stop offset="1" stop-color="#CB5138"/>
</linearGradient>
<linearGradient id="paint72_linear" x1="-3.43113" y1="16.2221" x2="6.89749" y2="-8.92708" gradientUnits="userSpaceOnUse">
<stop stop-color="#58373A"/>
<stop offset="0.5" stop-color="#C52B2D"/>
<stop offset="1" stop-color="#CB5138"/>
</linearGradient>
<linearGradient id="paint73_linear" x1="-3.30979" y1="16.1768" x2="6.93867" y2="-8.77761" gradientUnits="userSpaceOnUse">
<stop stop-color="#58373A"/>
<stop offset="0.5" stop-color="#C52B2D"/>
<stop offset="1" stop-color="#CB5138"/>
</linearGradient>
<linearGradient id="paint74_linear" x1="-3.02708" y1="16.3414" x2="7.2619" y2="-8.71116" gradientUnits="userSpaceOnUse">
<stop stop-color="#58373A"/>
<stop offset="0.5" stop-color="#C52B2D"/>
<stop offset="1" stop-color="#CB5138"/>
</linearGradient>
<linearGradient id="paint75_linear" x1="-3.80494" y1="16.1563" x2="6.61022" y2="-9.20292" gradientUnits="userSpaceOnUse">
<stop stop-color="#58373A"/>
<stop offset="0.5" stop-color="#C52B2D"/>
<stop offset="1" stop-color="#CB5138"/>
</linearGradient>
<linearGradient id="paint76_linear" x1="1.48987" y1="18.3307" x2="11.8929" y2="-6.99946" gradientUnits="userSpaceOnUse">
<stop stop-color="#58373A"/>
<stop offset="0.5" stop-color="#C52B2D"/>
<stop offset="1" stop-color="#CB5138"/>
</linearGradient>
<linearGradient id="paint77_linear" x1="-3.14607" y1="19.2471" x2="12.9181" y2="-21.1679" gradientUnits="userSpaceOnUse">
<stop stop-color="#58373A"/>
<stop offset="0.5" stop-color="#C52B2D"/>
<stop offset="1" stop-color="#CB5138"/>
</linearGradient>
<linearGradient id="paint78_linear" x1="-4.28513" y1="15.9737" x2="6.10237" y2="-9.31864" gradientUnits="userSpaceOnUse">
<stop stop-color="#58373A"/>
<stop offset="0.5" stop-color="#C52B2D"/>
<stop offset="1" stop-color="#CB5138"/>
</linearGradient>
<linearGradient id="paint79_linear" x1="-3.36891" y1="16.3721" x2="7.06508" y2="-9.03345" gradientUnits="userSpaceOnUse">
<stop stop-color="#58373A"/>
<stop offset="0.5" stop-color="#C52B2D"/>
<stop offset="1" stop-color="#CB5138"/>
</linearGradient>
</defs>
</svg>
