<svg width="118" height="17" viewBox="0 0 118 17" fill="none" xmlns="http://www.w3.org/2000/svg">
<path d="M50.6902 9.56728L50.6157 9.69345L50.5806 9.76307L50.5324 9.84573L50.4842 9.94145L50.436 10.0415L50.3922 10.1503L50.3571 10.2634L50.3308 10.3809L50.3221 10.5027L50.3352 10.6202L50.3747 10.742L50.4535 10.8508L50.5631 10.9378L50.7034 10.9987L50.8699 11.0379L51.0627 11.0509H69.9215L69.904 11.0814L69.755 11.3163L69.6016 11.5382L69.4482 11.7471L69.2904 11.9429L69.1282 12.1299L68.9705 12.304L68.8039 12.4693L68.6374 12.6216L68.4665 12.7608L68.2955 12.8913L68.1246 13.0132L67.9537 13.1263L67.7784 13.2351L67.6074 13.3308L67.4365 13.4178L67.2612 13.4961L67.0859 13.5701L66.915 13.6397L66.7441 13.6963L66.5731 13.7528L66.4022 13.8007L66.2357 13.8398L66.0735 13.8746L65.9113 13.9051L65.7492 13.9312L65.5914 13.9486L65.438 13.966L65.289 13.9747L65.1444 13.9834L64.9997 13.9878H64.8639H47.7363L47.4821 13.9791L47.2366 13.9617L47 13.9312L46.7765 13.8833L46.5617 13.8268L46.3557 13.7572L46.1629 13.6745L45.9744 13.5831L45.7991 13.4831L45.6326 13.3743L45.4792 13.2568L45.3345 13.1263L45.1987 12.9958L45.076 12.8565L44.9576 12.7086L44.8568 12.5563L44.7648 12.3953L44.6859 12.23L44.6158 12.0603L44.5588 11.8863L44.515 11.7079L44.4799 11.5252L44.4624 11.3381L44.458 11.151L44.4624 10.9639L44.4799 10.7725L44.515 10.581L44.5588 10.3896L44.6202 10.1982L44.6903 10.0067L44.7779 9.81528L44.8831 9.62384L46.6231 6.42595L46.7282 6.25626L46.8378 6.09093L46.9605 5.92559L47.092 5.76026L47.2279 5.59928L47.3725 5.44265L47.5259 5.28602L47.6881 5.13373L47.8546 4.98581L48.0299 4.84223L48.2096 4.703L48.3981 4.57247L48.5909 4.43759L48.7925 4.31142L48.9985 4.1896L49.2132 4.07212L49.428 3.96335L49.6515 3.85458L49.8794 3.75451L50.1117 3.65879L50.3484 3.57177L50.5894 3.49346L50.8348 3.41949L51.0847 3.34988L51.3389 3.29331L51.5974 3.23675L51.856 3.19324L52.119 3.15409L52.3863 3.12363L52.658 3.10188L52.9342 3.08882L53.2103 3.08447H77.2888L79.9886 10.3287L88.3245 3.08447H114.787L115.024 3.08882L115.256 3.10188L115.475 3.12363L115.686 3.15409L115.896 3.18454L116.093 3.22805L116.282 3.27591L116.461 3.33247L116.632 3.39338L116.79 3.463L116.944 3.53261L117.084 3.61093L117.215 3.69795L117.338 3.78496L117.452 3.87633L117.553 3.9764L117.645 4.08082L117.724 4.1896L117.794 4.29837L117.855 4.41584L117.903 4.53767L117.947 4.65949L117.973 4.79002L117.991 4.92054L118 5.05542V5.199L117.987 5.34258L117.96 5.49051L117.917 5.64279L117.868 5.79942L117.807 5.95605L117.772 6.03437H98.9701L98.8693 6.03872L98.7685 6.04307L98.6677 6.05612L98.5713 6.07352L98.4748 6.09963L98.3784 6.13009L98.2864 6.16489L98.1987 6.2084L98.1154 6.25626L98.0366 6.31282L97.9577 6.37373L97.8876 6.439L97.8174 6.51296L97.7517 6.59563L97.6903 6.68265L97.6421 6.77401L97.2301 7.51801L115.265 7.52672C116.418 7.52672 116.514 8.46215 116.247 8.97121C115.918 9.60208 115.572 10.2112 115.226 10.8334L115.085 11.0814L114.941 11.3163L114.787 11.5382L114.634 11.7471L114.48 11.9429L114.318 12.1299L114.156 12.304L113.99 12.465L113.827 12.6129L113.661 12.7565L113.49 12.887L113.319 13.0088L113.148 13.1263L112.973 13.2307L112.802 13.3264L112.631 13.4135L112.46 13.4918L112.289 13.5657L112.118 13.631L111.947 13.6919L111.776 13.7441L111.614 13.792L111.448 13.8311L111.285 13.8659L111.123 13.892L110.966 13.9182L110.808 13.9399L110.659 13.9573L110.51 13.966L110.365 13.9747L110.225 13.9791H110.089H92.0542L91.7737 13.9747L91.5107 13.9617L91.2609 13.9399L91.033 13.9138L90.8139 13.879L90.6123 13.8355L90.4238 13.7876L90.2529 13.7311L90.0907 13.6702L89.9505 13.6005L89.8146 13.5266L89.7007 13.4483L89.5955 13.3656L89.5034 13.2786L89.4245 13.1829L89.3544 13.0871L89.2975 12.9871L89.2492 12.8826L89.2098 12.7739L89.1791 12.6564L89.1616 12.5346L89.1484 12.4084L89.1441 12.2822L89.1528 12.1473L89.1703 12.0125L89.1966 11.8689L89.2317 11.7253L89.2712 11.5817L89.3237 11.4295L89.3851 11.2772L89.4508 11.1205L89.4903 11.0509H108.209L108.318 11.0466L108.428 11.0422L108.538 11.0335L108.647 11.0205L108.757 10.9987L108.866 10.9726L108.976 10.9422L109.085 10.9073L109.195 10.8638L109.296 10.8116L109.392 10.7507L109.489 10.6811L109.576 10.6028L109.659 10.5158L109.734 10.42L109.8 10.3156L110.229 9.56728H92.1155C90.9629 9.56728 90.8621 8.63619 91.1294 8.12279L92.4442 5.60798L82.7585 13.9965H75.7987L72.7089 5.84293L71.5913 8.10103C71.2188 8.85808 70.3379 9.56728 69.4613 9.56728H50.6902ZM53.6003 6.04742L53.4382 6.05612L53.2848 6.08223L53.1358 6.12138L52.9999 6.17359L52.8684 6.23886L52.7457 6.31282L52.6318 6.39549L52.5266 6.48686L52.4301 6.58258L52.3425 6.68265L52.2548 6.79142L52.1759 6.90019L52.1014 7.00896L52.0357 7.11773L51.97 7.22651L51.7947 7.54412H65.885L65.9771 7.39184L66.0297 7.30482L66.0867 7.2091L66.148 7.10903L66.205 7.00461L66.2576 6.89584L66.3014 6.78707L66.3321 6.67394L66.3496 6.56082L66.3408 6.44335L66.3014 6.33023L66.2225 6.23016L66.1129 6.15184L65.9771 6.09963L65.8105 6.06917L65.6221 6.06047H53.6003" fill="#53606F"/>
<path fill-rule="evenodd" clip-rule="evenodd" d="M13.8055 9.39754L26.6863 15.5845L28.6848 9.31487L42.464 9.23656L38.112 16.4764L16.9874 16.5982L0.00876541 9.47585L13.8055 9.39754ZM13.7968 7.85298L26.6074 1.52246L28.6804 7.76596L42.4596 7.68764L38.0243 0.5L16.8997 0.617474L0 7.93129L13.7968 7.85298Z" fill="#53606F"/>
</svg>
