<svg width="557" height="78" viewBox="0 0 557 78" fill="none" xmlns="http://www.w3.org/2000/svg">
<path fill-rule="evenodd" clip-rule="evenodd" d="M447.8 65H356V51L370 37H356V12H396V51H461.8L447.8 65ZM342.6 65H250L255.9 58.2L256.9 12.7V12H291.9V51H356.4L342.6 65ZM232.3 65H141.8L129 53.1L130 24.3L141.3 12H169V51H205V13H244L244.1 53.1L232.3 65ZM127 27H52V39H113.7L101.7 51H52V65H13V13H127V27ZM435 39H409V0H345V39H304V0H193V39H181V0H0V77H64V63H107.3L117 53.2V57.8L136 77H452.2L461 67.2L485.7 38.7" fill="#34495E"/>
<path fill-rule="evenodd" clip-rule="evenodd" d="M545 40H508V66H465V56.2L481.3 40H429V14H545" fill="#34495E"/>
<path fill-rule="evenodd" clip-rule="evenodd" d="M417.5 49.2L462.7 48.6L452.9 60.8L453 77L521 78V50H557V1H417L417.2 49.2" fill="#34495E"/>
<path fill-rule="evenodd" clip-rule="evenodd" d="M465.601 66.6998H508.601V40.5998H544.901V14.2998H429.301V40.5998H482.001L465.601 56.9998" fill="#C94237"/>
</svg>
