<svg width="92" height="27" viewBox="0 0 92 27" fill="none" xmlns="http://www.w3.org/2000/svg">
<path d="M26.0273 5.34728V0H0V15.0251H21.5453V9.5272H5.93675V5.34728H26.0273ZM66.5231 8.81172L60.7043 3.50209L60.665 26.9623H66.5231V8.81172ZM70.5333 9.5272L85.7094 22.1799L85.6308 26.9247H92V20.636L84.9231 14.7615H92V0H61.412L67.2701 5.34728H86.2205V9.5272H78.5145H70.5333ZM0 17.3598L5.93675 17.3975V27L0 26.9623V17.3598Z" fill="#34495E"/>
<path d="M47.3369 13.4812L58.0702 3.65272V0H54.06L43.248 9.75314L32.436 0H28.4258V3.65272L39.1198 13.4812L28.4258 23.3096V26.9623H32.436L43.248 17.2092L54.06 26.9623H58.0702V23.3096L47.3369 13.4812Z" fill="#34495E"/>
</svg>
