<svg width="101" height="85" viewBox="0 0 101 85" fill="none" xmlns="http://www.w3.org/2000/svg">
<path d="M40.3036 49.5463C36.4107 51.1034 32.6043 48.8542 30.8742 46.432C30.7012 46.1724 30.1821 45.8264 30.4416 45.3939C30.6147 45.0478 31.1337 45.1343 31.4797 45.1343C32.5178 45.1343 33.5559 45.1343 34.594 45.0478C34.8536 45.0478 35.2861 45.0478 35.3726 44.7883C35.5456 44.4423 35.1131 44.1828 34.9401 44.0097C34.5075 43.4907 34.075 43.3177 33.3829 43.4907C29.144 44.3558 25.5972 41.0685 24.9917 37.5216C24.9051 37.0891 24.6456 36.6566 25.0782 36.397C25.4242 36.051 25.9432 36.3105 26.3758 36.4836C27.5004 36.8296 28.5385 37.4351 29.4901 38.1272C30.0956 38.3002 30.5282 38.3867 30.0956 37.5216C30.0091 37.3486 29.8361 37.1756 29.7496 36.9161C29.144 35.878 28.1059 35.3589 27.1544 34.9264C24.2996 33.6288 22.829 31.3796 23.002 28.1788C23.002 27.3137 23.0885 26.4486 23.175 25.5835C23.2615 24.805 23.6075 24.8915 24.1266 25.151C25.1647 25.6701 25.8567 26.6216 26.5488 27.5732C26.8948 28.0923 27.2409 28.5248 27.9329 29.1304C27.9329 27.7462 27.9329 26.7082 27.1544 25.5835C24.8186 22.2097 24.0401 18.4899 26.0298 14.597C26.2028 14.251 26.3758 13.905 26.6353 13.6454C27.2409 12.7804 27.5869 12.7804 28.0194 13.732C28.3655 14.597 28.625 15.4621 28.971 16.3272C29.144 16.7597 29.0575 17.1923 29.317 17.6248C29.5766 18.0574 29.6631 17.7113 29.8361 17.4518C31.3932 15.8081 30.8742 13.732 30.9607 11.7423C31.1337 8.801 32.5178 6.46529 35.0266 4.82163C36.1512 4.12957 36.3242 4.30258 36.3242 5.51369C36.3242 6.46528 36.2377 7.41687 35.8917 8.36846C35.7186 8.71449 35.6321 9.14703 35.8051 9.66608C37.0163 9.06052 37.8813 8.36846 38.4004 6.98433C39.525 4.04306 41.3417 1.62084 44.629 0.842269C45.5806 0.669253 45.667 0.928776 45.667 1.79386C45.494 3.43751 44.3694 4.4756 43.3314 5.60021C42.4663 6.46529 42.4663 6.5518 43.6774 6.89783C44.975 7.33037 46.2726 7.76291 47.3972 8.62799C48.1758 9.23354 48.1758 9.49306 47.3107 10.0986C45.5805 11.2232 43.6774 11.1367 41.6877 10.6177C41.2551 10.5312 40.7361 10.3581 40.3036 10.1851C38.5734 9.49306 37.1893 9.8391 35.9782 11.2232C35.5456 11.7423 35.7186 11.9153 36.2377 12.0883C36.7567 12.1748 37.2758 12.2613 37.7948 12.1748C38.6599 12.1748 39.6115 12.1748 40.3901 12.5208C41.3416 12.8669 41.4282 13.1264 40.6496 13.8185C39.0925 15.2026 37.2758 16.0677 35.1996 16.1542C34.6805 16.1542 34.248 16.3272 33.729 16.2407C32.0853 15.8947 31.3067 16.7597 30.8742 18.1439C30.7012 18.6629 30.3552 19.182 30.3552 19.9605C31.7393 19.182 33.0369 18.5764 34.5075 18.2304C35.7186 17.9708 35.8051 18.1439 35.6321 19.2685C35.1996 21.6042 33.6425 23.1613 31.9988 24.7185C31.1337 25.497 30.2686 26.2756 29.4036 26.9677C28.452 27.7462 28.971 28.6978 28.8845 29.8224C29.5766 28.9574 29.9226 28.1788 30.5282 27.5732C30.7877 27.4002 30.9607 27.1407 31.1337 26.9677C31.7393 26.5351 32.3448 26.1026 33.1234 26.4486C33.902 26.7082 33.729 27.5732 33.8155 28.1788C33.9885 30.8605 32.8639 33.0232 31.3067 35.0129C30.7012 35.705 30.8742 36.8296 31.5663 37.3486C32.0853 37.7812 32.2583 37.1756 32.3448 36.9161C32.6044 36.051 32.7774 35.1859 33.1234 34.3209C33.2964 33.8018 33.3829 32.9367 34.075 32.9367C34.7671 32.9367 34.9401 33.8018 35.1996 34.3209C36.0647 36.6566 35.5456 39.1653 35.3726 41.501C35.2861 42.6256 35.6321 43.1447 36.6702 43.7502C36.4972 42.1066 36.3242 40.5494 36.4107 39.0788C36.4107 38.0407 36.5837 37.8677 37.6218 38.3867C39.0059 39.0788 39.9575 40.2034 40.7361 41.501C41.5147 42.3661 41.7742 43.4907 41.8607 44.5288C41.9472 45.3074 42.0337 45.9994 42.3798 46.6915C42.5528 46.951 42.8988 47.2971 43.1583 47.124C43.5909 46.951 43.2448 46.5185 43.1583 46.259C42.7258 45.3074 42.1202 44.4423 41.6877 43.4907C41.5147 43.1447 41.3417 42.7986 41.3417 42.4526C41.2551 41.847 41.5147 41.5875 42.2067 41.674C42.8123 41.7605 43.2448 42.1931 43.8504 42.3661C46.6186 43.4907 48.2623 45.6534 49.3004 48.3351C49.6464 49.2867 50.3385 49.3732 50.944 48.5082C51.9821 47.0375 52.9337 45.5669 54.2313 44.3558C55.1829 43.4907 56.221 42.7986 57.4321 42.3661C58.2107 42.1066 58.7297 42.1931 58.5567 43.2312C58.5567 43.4042 58.5567 43.4907 58.5567 43.6637C58.9028 44.3558 58.2972 44.8748 58.1242 45.4804C57.8647 46.0859 57.4321 46.605 56.8266 47.3836C57.6917 47.124 57.8647 46.605 58.1242 46.0859C58.4702 45.3074 58.5567 44.3558 59.0758 43.6637C59.6813 42.1931 60.2004 40.6359 61.2385 39.3383C61.4115 39.0788 61.671 38.8193 61.8441 38.5597C62.1901 38.3002 62.5361 37.8677 63.0552 38.1272C63.5742 38.3002 63.5742 38.8193 63.5742 39.2518C63.6607 40.5494 63.8337 41.9336 63.5742 43.2312C63.4877 43.4907 63.4877 43.8367 63.8337 43.9232C64.0067 43.9232 64.2663 43.7502 64.4393 43.6637C65.3909 42.9717 65.1313 42.1066 64.7853 41.2415C63.5742 38.3002 64.6123 35.7915 65.9964 33.2828C66.3425 32.6772 66.6885 32.9367 67.0345 33.2828C68.0726 34.4074 68.5052 35.705 68.6782 37.0891C68.7647 37.3486 68.5917 37.6082 68.9377 37.7812C69.4567 37.0026 69.7163 36.3105 69.3702 35.3589C68.6782 33.4558 67.5536 31.7256 67.3806 29.7359C67.294 28.7843 67.2075 27.8328 67.294 26.7947C67.3806 25.6701 67.6401 25.497 68.6782 25.9296C69.8028 26.3621 70.5814 27.0542 71.4464 28.0058C71.9655 25.6701 71.6194 24.978 69.8893 23.9399C67.9861 22.7288 65.9099 21.6042 65.3909 19.0089C65.0448 17.3653 65.3044 17.0193 66.948 17.4518C67.4671 17.6248 67.9861 17.8843 68.5051 18.1439C68.8512 18.3169 69.1972 18.4899 69.6298 18.4899C69.1107 15.6351 67.294 14.1645 64.6123 14.251C63.7472 14.251 62.8821 14.3375 62.0171 14.3375C61.7575 14.3375 61.498 14.3375 61.2385 14.251C60.0274 13.9915 58.8163 13.0399 58.9893 12.3478C59.3353 11.3097 60.2869 11.0502 61.325 10.8772C61.5845 10.8772 61.7575 10.7907 62.0171 10.7907C62.4496 10.6177 63.1417 10.7042 63.1417 10.1851C63.1417 9.66608 62.5361 9.49306 62.1036 9.32005C61.0655 8.801 60.1139 8.88751 59.0758 9.32005C56.9996 10.2716 54.9234 10.7042 52.6742 10.0986C52.4147 10.0121 52.1552 10.0121 51.8956 9.83909C50.771 9.40655 50.771 8.88751 51.7226 8.19545C52.6742 7.50338 53.7123 6.72481 54.9234 6.37877C55.875 6.03274 55.9615 5.5137 55.6155 4.73513C55.1829 3.69703 54.7504 2.57242 54.3178 1.53433C54.1448 1.10179 53.9718 0.669249 54.3178 0.236709C54.6639 -0.19583 55.1829 0.0636935 55.529 0.236709C58.2107 1.10179 60.0274 2.83195 60.6329 5.60021C60.8925 6.6383 61.325 7.41687 62.3631 7.84941C62.8822 8.02243 63.3147 8.45497 64.0933 8.97401C63.2282 7.24385 63.3147 5.60021 63.1417 3.95655C63.1417 3.61052 63.0552 3.26449 63.4012 3.09148C63.7472 2.83195 64.0933 3.09147 64.4393 3.26449C67.2941 5.42719 69.3702 7.93592 68.8512 11.8288C68.5917 13.905 69.5433 15.5486 70.4948 17.2788C70.8409 17.8843 71.1004 17.7113 71.3599 17.2788C72.225 16.0677 72.571 14.6835 72.7441 13.2129C72.8306 12.8669 72.571 12.4343 73.0036 12.3478C73.2631 12.2613 73.5226 12.6073 73.6956 12.8669C75.7718 15.1161 76.2909 18.4899 74.9068 21.2582C74.3012 22.3828 73.7821 23.5074 73.0036 24.4589C72.225 25.4105 72.8306 26.4486 72.9171 27.4867C73.0036 27.5732 73.0901 27.5732 73.1766 27.6597C74.3012 26.5351 75.3393 25.324 76.4639 24.1994C76.9829 23.5939 77.2424 23.8534 77.4155 24.5454C77.7615 26.4486 77.5885 28.4383 77.2425 30.3415C76.983 31.7256 76.1179 32.7637 74.9068 33.5423C73.7822 34.3209 72.7441 35.0994 71.6195 35.878C70.9274 36.3105 70.4948 37.0026 70.3218 37.8677C71.2734 37.6947 71.9655 37.0891 72.7441 36.8296C73.5226 36.5701 74.3877 36.224 75.1663 35.9645C75.6853 35.7915 75.8583 35.9645 75.7718 36.4836C75.6853 37.2621 75.5123 38.0407 75.0798 38.7328C73.0901 41.7605 70.4949 43.8367 66.6885 43.9232C66.0829 43.9232 65.4774 44.0097 65.0448 44.5288C64.8718 44.7018 64.6123 44.8748 64.6988 45.2209C64.7853 45.4804 65.1314 45.5669 65.3909 45.5669C66.775 45.6534 68.1591 45.4804 69.4567 45.2209C69.9758 45.1343 70.6679 44.8748 70.9274 45.3074C71.2734 45.8264 70.5813 46.2589 70.2353 46.605C67.2075 49.7193 62.7091 51.3629 58.3837 49.1137C57.9512 48.8542 57.5186 48.7677 56.9996 49.1137C57.1726 49.6328 57.6052 49.8058 57.9512 49.9788C58.6433 50.3248 59.2488 50.6709 59.9409 51.0169C60.4599 51.2764 61.325 51.5359 61.325 52.1415C61.325 52.8336 60.4599 53.1796 59.7679 53.4391C57.6917 54.2177 55.7885 53.6121 53.9718 52.8336C52.8472 52.401 51.8956 51.709 51.1171 50.7574C50.5115 50.0653 49.9059 50.0653 49.1274 50.5844C48.2623 51.1034 47.5702 51.7955 46.7917 52.4875C44.629 54.3907 40.4766 53.7851 38.9194 52.574C38.0544 51.882 39.0059 51.3629 39.525 50.9304C40.044 50.3248 40.8226 50.2383 41.5147 50.0653C41.6877 49.7193 42.2067 49.6328 42.3798 49.2002C41.6012 49.0272 40.9956 49.4598 40.3036 49.5463Z" fill="#53606F"/>
<path d="M56.3938 27.6597C58.0375 27.6597 59.7677 27.6597 61.4113 27.6597C62.1034 27.6597 62.4494 27.8327 62.2764 28.5248C62.1899 29.1303 62.7089 29.9954 61.4978 30.0819C59.7677 30.2549 59.5946 30.5145 59.5946 32.2446C59.5946 34.1478 59.5946 35.9645 59.5946 37.8676C59.5946 38.3867 59.5946 39.0788 58.8161 38.8192C58.2105 38.6462 56.9994 39.5113 56.9994 38.0407C56.9994 37.0026 56.4804 37.6081 56.1343 37.7811C52.501 39.5113 48.6946 39.7708 44.8883 38.3867C41.428 37.1756 39.3518 34.6669 38.5732 31.2065C37.7081 27.4867 37.8811 23.7668 40.1303 20.4795C43.1581 16.1541 47.4835 15.116 52.4145 15.8946C53.6256 16.0676 54.7502 16.4137 55.7883 17.0192C56.3073 17.3653 56.7399 17.4518 56.6534 16.5867C56.5669 15.1161 57.778 15.8946 58.3835 15.8081C58.9891 15.6351 59.4216 15.8946 59.4216 16.6732C59.3351 19.0954 59.3351 21.6041 59.4216 24.0264C59.4216 24.8049 59.1621 25.151 58.3835 25.0645C58.2105 25.0645 58.124 25.0645 57.951 25.0645C56.8264 25.2375 56.3073 24.978 56.0478 23.6803C55.5288 21.0851 53.7986 19.3549 51.2034 18.7494C48.9542 18.2303 46.705 19.2684 45.4939 21.1716C44.8883 22.2097 44.4557 23.2478 44.3692 24.3724C43.9367 27.4867 43.8502 30.601 45.4939 33.5422C46.7915 35.9645 49.6462 37.0026 52.155 35.9645C53.2796 35.5319 53.8851 34.7534 53.8851 33.5422C53.8851 33.1097 53.8851 32.7637 53.8851 32.3311C53.8851 30.5145 53.5391 30.2549 51.7224 30.1684C51.2899 30.1684 50.6843 30.3415 50.5978 29.7359C50.5113 29.1303 50.4248 28.4383 50.6843 27.8327C50.7708 27.4867 51.2034 27.6597 51.4629 27.6597C53.02 27.6597 54.6637 27.6597 56.3938 27.6597Z" fill="#53606F"/>
<path d="M93.9386 68.8377C96.1013 65.983 98.264 63.1282 100.859 60.6195C100.859 60.4464 100.859 60.3599 100.859 60.1869C100.081 60.1004 99.8212 58.8028 98.9561 59.2353C98.264 59.5814 97.745 60.3599 97.2259 60.9655C97.1394 61.052 97.0529 61.225 96.9664 61.3115C95.8418 62.8687 94.6307 64.4258 93.5061 65.8964C93.3331 66.156 93.16 66.7615 92.7275 66.156C91.9489 65.0314 90.9108 65.2044 89.8727 65.5504C87.537 66.329 85.8069 67.9726 84.1632 69.7028C82.6061 71.433 80.7894 72.7306 78.8862 73.8552C78.5402 74.0282 78.1076 74.2877 77.5886 74.2012C78.0211 73.0766 78.7132 72.298 79.4053 71.5195C80.2704 70.6544 81.2219 69.7893 82.087 69.0107C82.6926 68.4052 82.8656 67.0211 82.4331 66.329C81.8275 65.3774 81.1354 66.0695 80.4433 66.329C79.5783 66.675 78.7132 67.1076 77.8481 67.5401C77.3291 67.7996 77.1561 67.7996 77.2426 67.1076C77.4156 65.8099 76.8965 65.3774 75.5989 65.8099C74.4743 66.156 73.6092 66.9345 72.7442 67.7996C70.3219 70.1353 67.8997 72.5576 65.4775 74.8933C65.0449 75.2393 64.6124 75.6719 64.1799 75.9314C64.0068 76.1044 63.7473 76.2774 63.4878 76.0179C63.1418 75.7584 63.3148 75.4988 63.4013 75.2393C63.4878 74.9798 63.6608 74.7203 63.7473 74.4607C64.8719 72.5576 66.256 70.7409 67.6402 69.0107C67.9862 68.5782 68.0727 68.3187 67.5537 67.9726C66.9481 67.5401 66.4291 67.2806 65.8235 68.0591C65.564 68.4052 65.3045 68.5782 64.8719 68.2322C64.2664 67.7131 63.5743 67.7996 62.9688 67.9726C59.941 68.8377 57.3457 70.3084 55.7886 73.0766C54.664 74.9798 53.1933 76.2774 51.2037 77.056C50.6846 77.3155 49.9926 77.6615 49.6465 76.9695C49.3005 76.2774 49.4735 75.5853 50.2521 75.1528C50.9442 74.7203 51.6362 74.2877 52.3283 73.8552C55.4426 71.6925 57.8648 68.8377 60.2005 65.8964C61.3251 64.4258 62.5362 62.9552 63.2283 61.225C63.5743 60.3599 63.4013 59.6679 62.7957 59.0623C62.1902 58.5433 61.5846 58.9758 61.0656 59.3218C57.8648 61.3115 55.183 63.8203 52.7608 66.675C50.9442 68.7512 49.1275 70.9139 48.0894 73.4226C47.3108 75.3258 45.9267 76.3639 44.283 77.3155C43.937 77.4885 43.4179 77.8345 43.0719 77.4885C42.6394 77.1425 42.8989 76.5369 42.9854 76.1044C43.591 74.3742 44.8021 73.0766 46.1862 72.0385C46.9648 71.433 47.1378 70.8274 46.7053 70.0488C46.2727 69.1838 45.7537 69.7893 45.2346 69.8758C44.11 70.1353 43.591 69.7028 43.937 68.6647C44.11 67.9726 43.8505 67.7131 43.3315 67.7131C42.3799 67.6266 41.6878 68.0592 41.3418 69.0107C41.0822 69.7893 41.0822 70.7409 40.6497 71.433C38.9195 74.4607 36.7568 77.229 33.9021 79.3052C33.556 79.5647 33.21 79.9107 32.7775 79.6512C32.3449 79.3917 32.5179 78.8726 32.6044 78.4401C32.691 78.1806 32.864 77.9211 33.037 77.6615C34.2481 75.6719 35.6322 73.7687 37.1894 72.0385C37.7949 71.433 37.6219 71.0869 37.1029 70.5679C36.3243 69.8758 35.8918 70.3949 35.3727 70.9139C35.1132 71.1734 34.9402 71.779 34.4211 71.1734C33.7291 70.2219 32.7775 70.4814 31.9124 70.7409C28.9711 71.779 26.6354 73.5957 25.1648 76.3639C24.6457 77.3155 23.9536 78.0941 23.0886 78.7861C22.0505 79.6512 20.9259 80.3433 19.6283 80.7758C18.8497 81.0353 18.4171 81.4679 18.7632 82.2464C19.1957 83.1115 19.8013 82.4195 20.2338 82.1599C21.2719 81.6409 22.31 81.0353 23.3481 80.4298C23.7807 80.1703 24.0402 80.0838 24.2997 80.7758C24.7322 81.9004 25.3378 82.1599 26.5489 81.9004C27.587 81.6409 28.6251 81.2949 29.4902 80.6893C29.8362 80.5163 30.0092 80.3433 30.2687 80.7758C31.0473 81.9869 31.7394 82.16 33.037 81.5544C33.556 81.2949 34.0751 80.9488 34.5076 80.6028C37.2759 78.5266 39.1791 75.6718 41.0822 72.8171C41.4283 72.298 41.7743 71.779 42.3799 72.298C42.9854 72.7306 42.2934 73.1631 42.0338 73.5092C41.1688 74.8068 40.3902 76.1909 40.1307 77.748C40.0441 78.6131 40.0441 79.5647 40.9957 80.1703C41.8608 80.6893 42.5529 80.2568 43.2449 79.8242C44.283 79.1322 45.4076 78.3536 46.4457 77.575C47.3973 79.9972 48.2624 80.3433 50.6846 79.2187C51.8957 78.6996 52.9338 78.0076 54.0584 77.229C54.4045 76.9695 54.5775 76.883 54.837 77.3155C55.2695 78.3536 56.1346 78.5266 57.1727 78.3536C58.2973 78.1806 59.3354 77.9211 60.287 77.1425C60.633 76.883 60.8061 76.6234 61.0656 77.229C61.5846 78.5266 62.0172 78.6131 63.2283 78.0076C63.8338 77.748 64.3529 77.402 64.7854 76.9695C67.2942 74.9798 69.2838 72.5576 71.7061 70.4814C72.3116 69.5298 73.2632 69.0107 74.1283 68.3187C73.8688 69.0972 73.4362 69.7893 72.7442 70.2218C71.6196 71.6925 70.495 73.0766 69.2838 74.4607C68.3323 75.4988 68.5918 76.2774 70.0624 76.7099C70.3219 76.0179 70.841 75.5853 71.4465 75.2393C73.6092 73.2496 75.2529 70.7409 78.1077 69.5298C78.0212 69.7893 77.9346 69.8758 77.7616 70.0488C76.637 71.5195 75.5124 72.9036 74.5608 74.4607C74.2148 74.9798 73.9553 75.5853 74.4743 76.1909C74.9934 76.7964 75.6854 77.056 76.464 76.7099C76.983 76.4504 77.5886 76.2774 78.1077 75.9314C79.4053 75.2393 80.6164 74.3742 81.914 73.5957C81.914 73.8552 82.0005 74.0282 82.0005 74.2012C82.3466 76.0179 83.2981 76.5369 85.0283 75.9314C86.1529 75.4988 87.191 74.8933 88.1426 74.2012C88.5751 73.8552 88.8346 73.6822 89.0941 74.4607C89.7862 76.2774 90.6513 76.5369 92.3815 75.5853C94.7172 74.2012 96.4473 72.2115 98.264 70.2218C98.7831 69.6163 98.437 69.0972 98.091 68.4917C97.3989 69.2703 96.7934 69.9623 96.1878 70.6544C95.2362 71.6925 94.1981 72.6441 92.9005 73.3361C92.5545 73.5092 92.1219 73.6822 91.8624 73.4226C91.5164 73.1631 91.8624 72.8171 91.949 72.5576C92.295 71.1734 93.0735 69.9623 93.9386 68.8377ZM52.2418 70.3949C54.491 67.6266 56.5672 64.6853 59.768 62.6957C58.2973 66.2425 55.9616 68.9242 52.7608 71.0869C52.4148 71.433 51.8957 72.0385 51.5497 71.5195C51.2037 71.2599 51.8092 70.7409 52.2418 70.3949ZM27.8465 79.5647C27.587 79.6512 27.241 79.8242 26.8949 79.5647C26.5489 79.2187 26.7219 78.8726 26.8084 78.5266C27.587 76.1909 29.4037 74.7203 31.3933 73.3361C32.0854 72.9036 32.7775 73.1631 32.7775 73.7687V73.8552C31.6529 76.2774 30.4417 78.5266 27.8465 79.5647ZM58.7299 76.1909C57.8648 76.7964 57.5188 76.6234 57.5188 75.8449C57.5188 75.4123 57.6918 74.9798 57.8648 74.5472C58.9029 72.5576 60.46 71.0869 62.2767 69.7893C62.6227 69.5298 63.0553 69.4433 63.4013 69.7028C63.7473 69.9623 63.4878 70.3949 63.4013 70.7409C62.2767 72.9901 60.7195 74.8068 58.7299 76.1909ZM91.1704 68.6647C89.8727 70.8274 88.3156 72.6441 85.9799 73.6822C85.4608 73.9417 84.7688 73.7687 85.0283 73.0766C85.9799 70.7409 87.191 68.5782 89.6132 67.5401C89.7862 67.4536 90.0458 67.4536 90.2188 67.3671C91.0839 67.3671 91.6029 67.9726 91.1704 68.6647Z" fill="#53606F"/>
<path d="M28.5381 55.7746C27.673 55.8611 26.808 55.8611 26.0294 56.1206C19.8008 57.6778 15.1294 61.1381 12.1881 66.9341C12.0151 67.2801 11.8421 67.5397 11.4095 67.6262C9.59286 67.8857 7.86271 67.7992 6.47858 66.242C6.21906 65.9825 5.95953 65.55 5.44048 65.4635C5.18095 68.3182 5.70002 69.2698 8.29526 69.9619C9.07383 70.2214 9.9389 70.3944 10.804 70.2214C11.496 70.1349 11.7556 70.3944 12.0151 70.9135C12.6206 72.3841 13.7452 73.3357 15.3889 73.5087C16.081 73.5952 16.8595 73.5952 17.6381 73.5952C15.4754 76.45 13.3992 79.1317 10.5444 81.2079C9.33333 82.1595 7.94921 82.7651 6.30556 82.7651C4.83492 82.7651 3.36428 82.419 2.75873 80.8619C2.15317 79.3048 2.23969 77.7476 3.45081 76.3635C4.31589 75.4119 5.35396 74.7198 6.65158 74.4603C7.25714 74.2873 7.43018 74.0278 7.43018 73.5087C7.43018 73.0762 7.43018 72.7301 7.43018 72.2976C7.43018 71.692 7.17063 71.6055 6.65158 71.6921C5.44047 71.9516 4.40238 72.2976 3.27778 72.9032C1.63413 73.8548 0.942064 75.4984 0.25 77.1421C0.25 78.1802 0.25 79.2183 0.25 80.2563C0.68254 80.9484 0.855551 81.8135 1.46111 82.5055C3.5373 85.0143 6.6516 85.7063 9.9389 84.2357C13.7453 82.5921 16.6865 79.9103 19.0222 76.5365C20.4929 74.3738 22.05 72.2111 24.2992 70.654C25.1643 70.0484 24.7318 69.6159 24.4722 68.9238C24.2127 68.2317 23.6937 68.2317 23.0881 68.4913C22.1365 68.8373 21.2714 69.5294 20.4929 70.1349C19.6278 70.827 18.7627 71.2595 17.7246 71.4325C16.773 71.6055 15.9079 71.346 15.3889 70.4809C15.0429 69.8754 15.0429 69.3563 15.9079 69.2698C19.1087 68.8373 21.9635 67.4532 24.6453 65.8095C27.2405 64.1659 29.5762 62.4357 30.9603 59.5809C31.8254 58.1968 30.5278 55.6016 28.5381 55.7746ZM28.1921 59.4944C27.5 60.7056 26.3754 61.5706 25.2508 62.3492C22.8286 64.1659 20.3199 65.9825 17.2921 66.6746C17.0326 66.7611 16.773 66.7611 16.6 66.8476C15.9944 66.8476 15.9079 66.6746 16.1675 66.242C16.5135 65.55 17.0325 65.0309 17.5516 64.5119C19.8873 62.1762 22.5691 60.3595 25.5969 58.9754C26.1159 58.7159 26.7214 58.5428 27.2405 58.3698C27.5865 58.1968 28.0191 58.2833 28.2786 58.6294C28.6246 58.9754 28.3651 59.2349 28.1921 59.4944Z" fill="#53606F"/>
</svg>
