<svg width="101" height="34" viewBox="0 0 101 34" fill="none" xmlns="http://www.w3.org/2000/svg">
<path fill-rule="evenodd" clip-rule="evenodd" d="M75.0351 31.2832V31.4246H74.2178C74.2178 31.3932 74.2178 31.346 74.2335 31.3146C74.2492 31.2518 74.2806 31.2047 74.3278 31.1576C74.3749 31.1105 74.4378 31.0477 74.5321 30.9691C74.6579 30.8592 74.7522 30.7807 74.7993 30.7179C74.8465 30.655 74.8622 30.5922 74.8622 30.5294C74.8622 30.4666 74.8465 30.4195 74.7993 30.3724C74.7522 30.3253 74.705 30.3096 74.6264 30.3096C74.5478 30.3096 74.5007 30.3253 74.4535 30.3724C74.4064 30.4195 74.3907 30.4823 74.3907 30.5451L74.2335 30.5294C74.2492 30.4195 74.2806 30.3253 74.3592 30.2624C74.4221 30.1996 74.5164 30.1682 74.6421 30.1682C74.7522 30.1682 74.8465 30.1996 74.9251 30.2624C74.9879 30.3253 75.0351 30.4038 75.0351 30.498C75.0351 30.5451 75.0194 30.5922 75.0036 30.6393C74.9879 30.6865 74.9565 30.7336 74.9093 30.7964C74.8622 30.8435 74.7836 30.922 74.6736 31.0162C74.5793 31.0948 74.5321 31.1419 74.5007 31.1733C74.4692 31.2047 74.4535 31.2204 74.4378 31.2518H75.0351V31.2832Z" fill="#53606F"/>
<path fill-rule="evenodd" clip-rule="evenodd" d="M75.208 31.1105L75.3652 31.0948C75.3809 31.1733 75.3966 31.2361 75.4438 31.2675C75.4909 31.2989 75.5381 31.3303 75.6009 31.3303C75.6795 31.3303 75.7424 31.2989 75.7896 31.2518C75.8367 31.2047 75.8681 31.1262 75.8681 31.032C75.8681 30.9534 75.8367 30.8749 75.7896 30.8278C75.7424 30.7807 75.6795 30.7493 75.6009 30.7493C75.5538 30.7493 75.5066 30.765 75.4752 30.7807C75.4438 30.7964 75.4123 30.8278 75.3809 30.8592L75.2394 30.8435L75.3652 30.2153H75.9782V30.3567H75.4909L75.428 30.6865C75.5066 30.6394 75.5852 30.6079 75.6638 30.6079C75.7738 30.6079 75.8681 30.6394 75.931 30.7179C76.0096 30.7964 76.041 30.8906 76.041 31.0006C76.041 31.1105 76.0096 31.2047 75.9467 31.2832C75.8681 31.3775 75.7581 31.4246 75.6324 31.4246C75.5224 31.4246 75.4281 31.3932 75.3652 31.3303C75.2552 31.2989 75.2237 31.2047 75.208 31.1105Z" fill="#53606F"/>
<path fill-rule="evenodd" clip-rule="evenodd" d="M76.1827 30.3725V30.1997H76.3399V30.341C76.3399 30.4196 76.3242 30.4667 76.3084 30.4981C76.277 30.5452 76.2456 30.5766 76.1984 30.5923L76.167 30.5295C76.1984 30.5138 76.2141 30.4981 76.2299 30.4667C76.2456 30.4353 76.2456 30.4039 76.2613 30.3568H76.1827V30.3725ZM76.4342 30.3725V30.1997H76.5914V30.341C76.5914 30.4196 76.5756 30.4667 76.5599 30.4981C76.5285 30.5452 76.4971 30.5766 76.4499 30.5923L76.4185 30.5295C76.4499 30.5138 76.4656 30.4981 76.4813 30.4667C76.4971 30.4353 76.4971 30.4039 76.5128 30.3568H76.4342V30.3725Z" fill="#53606F"/>
<path fill-rule="evenodd" clip-rule="evenodd" d="M77.2041 31.4246L77.5342 30.9692L77.2355 30.5452H77.4241L77.5656 30.7493C77.597 30.7964 77.6128 30.8278 77.6285 30.8435C77.6599 30.8121 77.6756 30.7807 77.6913 30.7493L77.8485 30.5452H78.0214L77.7071 30.9692L78.0371 31.4403H77.8485L77.6599 31.1576L77.6128 31.0791L77.377 31.4246H77.2041Z" fill="#53606F"/>
<path fill-rule="evenodd" clip-rule="evenodd" d="M79.3414 30.7651C79.2785 30.7494 79.2314 30.7022 79.2 30.6708C79.1685 30.6237 79.1528 30.5766 79.1528 30.5138C79.1528 30.4196 79.1842 30.3567 79.2471 30.2939C79.31 30.2311 79.3886 30.1997 79.4986 30.1997C79.6086 30.1997 79.6872 30.2311 79.7501 30.2939C79.8129 30.3567 79.8444 30.4353 79.8444 30.5138C79.8444 30.5766 79.8287 30.6237 79.7972 30.6551C79.7658 30.7022 79.7186 30.7337 79.6558 30.7494C79.7343 30.7808 79.7815 30.8122 79.8286 30.875C79.8758 30.9221 79.8915 31.0006 79.8915 31.0634C79.8915 31.1734 79.8601 31.2519 79.7815 31.3304C79.7029 31.4089 79.6086 31.4404 79.4829 31.4404C79.3571 31.4404 79.2628 31.4089 79.1842 31.3304C79.1057 31.2519 79.0742 31.1734 79.0742 31.0634C79.0742 30.9849 79.0899 30.9221 79.1371 30.8593C79.2157 30.8122 79.2785 30.7808 79.3414 30.7651ZM79.31 30.5138C79.31 30.5766 79.3257 30.6237 79.3728 30.6551C79.4043 30.6865 79.4514 30.718 79.5143 30.718C79.5772 30.718 79.6243 30.7022 79.6558 30.6708C79.6872 30.6394 79.7186 30.5923 79.7186 30.5295C79.7186 30.4667 79.7029 30.4353 79.6558 30.3882C79.6243 30.3568 79.5772 30.3253 79.5143 30.3253C79.4514 30.3253 79.4043 30.341 79.3728 30.3882C79.3414 30.4196 79.31 30.451 79.31 30.5138ZM79.2628 31.0792C79.2628 31.1263 79.2785 31.1577 79.2943 31.2048C79.31 31.2519 79.3414 31.2833 79.3886 31.299C79.4357 31.3147 79.4672 31.3304 79.5143 31.3304C79.5929 31.3304 79.64 31.3147 79.6872 31.2676C79.7343 31.2205 79.7501 31.1577 79.7501 31.0949C79.7501 31.0163 79.7186 30.9692 79.6715 30.9221C79.6243 30.875 79.5615 30.8436 79.4986 30.8436C79.42 30.8436 79.3728 30.8593 79.3257 30.9064C79.2943 30.9378 79.2628 31.0006 79.2628 31.0792Z" fill="#53606F"/>
<path d="M80.1748 31.2517H80.332V31.4245H80.1748V31.2517Z" fill="#53606F"/>
<path fill-rule="evenodd" clip-rule="evenodd" d="M80.583 31.1104L80.7402 31.0947C80.7559 31.1732 80.7873 31.236 80.8345 31.2831C80.8816 31.3146 80.9288 31.346 80.9917 31.346C81.0545 31.346 81.1174 31.3146 81.1645 31.2674C81.2117 31.2203 81.2431 31.1575 81.2431 31.079C81.2431 31.0162 81.2274 30.9534 81.1803 30.9062C81.1331 30.8591 81.0702 30.8434 81.0074 30.8434C80.9759 30.8434 80.9445 30.8434 80.8974 30.8591L80.9131 30.7335C80.9288 30.7335 80.9288 30.7335 80.9445 30.7335C81.0074 30.7335 81.0702 30.7178 81.1174 30.6864C81.1645 30.655 81.196 30.6079 81.196 30.5293C81.196 30.4665 81.1803 30.4351 81.1331 30.388C81.1017 30.3566 81.0545 30.3409 80.9917 30.3409C80.9288 30.3409 80.8816 30.3566 80.8502 30.4037C80.8188 30.4351 80.7873 30.4979 80.7716 30.5765L80.6144 30.545C80.6302 30.4508 80.6773 30.3723 80.7402 30.3095C80.803 30.2467 80.8816 30.231 80.9759 30.231C81.0388 30.231 81.1017 30.2467 81.1645 30.2781C81.2274 30.3095 81.2588 30.3409 81.2903 30.388C81.3217 30.4351 81.3374 30.4979 81.3374 30.545C81.3374 30.5922 81.3217 30.6393 81.2903 30.6864C81.2588 30.7335 81.2274 30.7649 81.1645 30.7963C81.2431 30.812 81.2903 30.8434 81.3374 30.9062C81.3846 30.9534 81.4003 31.0319 81.4003 31.1104C81.4003 31.2203 81.3689 31.3146 81.2903 31.3774C81.2117 31.4559 81.1174 31.4873 80.9917 31.4873C80.8816 31.4873 80.7873 31.4559 80.7245 31.3931C80.6302 31.2831 80.583 31.2046 80.583 31.1104Z" fill="#53606F"/>
<path fill-rule="evenodd" clip-rule="evenodd" d="M81.7779 30.7651C81.7151 30.7494 81.6679 30.7022 81.6365 30.6708C81.6051 30.6237 81.5893 30.5766 81.5893 30.5138C81.5893 30.4196 81.6208 30.3567 81.6836 30.2939C81.7465 30.2311 81.8251 30.1997 81.9351 30.1997C82.0451 30.1997 82.1237 30.2311 82.1866 30.2939C82.2495 30.3567 82.2809 30.4353 82.2809 30.5138C82.2809 30.5766 82.2652 30.6237 82.2337 30.6551C82.2023 30.7022 82.1552 30.7337 82.0923 30.7494C82.1709 30.7808 82.218 30.8122 82.2652 30.875C82.3123 30.9221 82.328 31.0006 82.328 31.0634C82.328 31.1734 82.2966 31.2519 82.218 31.3304C82.1394 31.4089 82.0451 31.4404 81.9194 31.4404C81.7937 31.4404 81.6994 31.4089 81.6208 31.3304C81.5422 31.2519 81.5107 31.1734 81.5107 31.0634C81.5107 30.9849 81.5265 30.9221 81.5736 30.8593C81.6365 30.8122 81.6994 30.7808 81.7779 30.7651ZM81.7465 30.5138C81.7465 30.5766 81.7622 30.6237 81.8094 30.6551C81.8408 30.6865 81.888 30.718 81.9508 30.718C82.0137 30.718 82.0608 30.7022 82.0923 30.6708C82.1237 30.6394 82.1552 30.5923 82.1552 30.5295C82.1552 30.4667 82.1394 30.4353 82.0923 30.3882C82.0608 30.3568 82.0137 30.3253 81.9508 30.3253C81.888 30.3253 81.8408 30.341 81.8094 30.3882C81.7622 30.4196 81.7465 30.451 81.7465 30.5138ZM81.6994 31.0792C81.6994 31.1263 81.7151 31.1577 81.7308 31.2048C81.7465 31.2519 81.7779 31.2833 81.8251 31.299C81.8722 31.3147 81.9037 31.3304 81.9508 31.3304C82.0294 31.3304 82.0766 31.3147 82.1237 31.2676C82.1709 31.2205 82.1866 31.1577 82.1866 31.0949C82.1866 31.0163 82.1552 30.9692 82.108 30.9221C82.0609 30.875 81.998 30.8436 81.9351 30.8436C81.8565 30.8436 81.8094 30.8593 81.7622 30.9064C81.7151 30.9378 81.6994 31.0006 81.6994 31.0792Z" fill="#53606F"/>
<path fill-rule="evenodd" clip-rule="evenodd" d="M82.5167 30.3725V30.1997H82.6739V30.341C82.6739 30.4196 82.6581 30.4667 82.6424 30.4981C82.611 30.5452 82.5796 30.5766 82.5324 30.5923L82.501 30.5295C82.5324 30.5138 82.5481 30.4981 82.5638 30.4667C82.5796 30.4353 82.5796 30.4039 82.5953 30.3568H82.5167V30.3725ZM82.7682 30.3725V30.1997H82.9253V30.341C82.9253 30.4196 82.9096 30.4667 82.8939 30.4981C82.8625 30.5452 82.831 30.5766 82.7839 30.5923L82.7525 30.5295C82.7839 30.5138 82.7996 30.4981 82.8153 30.4667C82.831 30.4353 82.831 30.4039 82.8468 30.3568H82.7682V30.3725Z" fill="#53606F"/>
<path fill-rule="evenodd" clip-rule="evenodd" d="M75.0351 31.2832V31.4246H74.2178C74.2178 31.3932 74.2178 31.346 74.2335 31.3146C74.2492 31.2518 74.2806 31.2047 74.3278 31.1576C74.3749 31.1105 74.4378 31.0477 74.5321 30.9691C74.6579 30.8592 74.7522 30.7807 74.7993 30.7179C74.8465 30.655 74.8622 30.5922 74.8622 30.5294C74.8622 30.4666 74.8465 30.4195 74.7993 30.3724C74.7522 30.3253 74.705 30.3096 74.6264 30.3096C74.5478 30.3096 74.5007 30.3253 74.4535 30.3724C74.4064 30.4195 74.3907 30.4823 74.3907 30.5451L74.2335 30.5294C74.2492 30.4195 74.2806 30.3253 74.3592 30.2624C74.4221 30.1996 74.5164 30.1682 74.6421 30.1682C74.7522 30.1682 74.8465 30.1996 74.9251 30.2624C74.9879 30.3253 75.0351 30.4038 75.0351 30.498C75.0351 30.5451 75.0194 30.5922 75.0036 30.6393C74.9879 30.6865 74.9565 30.7336 74.9093 30.7964C74.8622 30.8435 74.7836 30.922 74.6736 31.0162C74.5793 31.0948 74.5321 31.1419 74.5007 31.1733C74.4692 31.2047 74.4535 31.2204 74.4378 31.2518H75.0351V31.2832Z" fill="#53606F"/>
<path fill-rule="evenodd" clip-rule="evenodd" d="M75.208 31.1105L75.3652 31.0948C75.3809 31.1733 75.3966 31.2361 75.4438 31.2675C75.4909 31.2989 75.5381 31.3303 75.6009 31.3303C75.6795 31.3303 75.7424 31.2989 75.7896 31.2518C75.8367 31.2047 75.8681 31.1262 75.8681 31.032C75.8681 30.9534 75.8367 30.8749 75.7896 30.8278C75.7424 30.7807 75.6795 30.7493 75.6009 30.7493C75.5538 30.7493 75.5066 30.765 75.4752 30.7807C75.4438 30.7964 75.4123 30.8278 75.3809 30.8592L75.2394 30.8435L75.3652 30.2153H75.9782V30.3567H75.4909L75.428 30.6865C75.5066 30.6394 75.5852 30.6079 75.6638 30.6079C75.7738 30.6079 75.8681 30.6394 75.931 30.7179C76.0096 30.7964 76.041 30.8906 76.041 31.0006C76.041 31.1105 76.0096 31.2047 75.9467 31.2832C75.8681 31.3775 75.7581 31.4246 75.6324 31.4246C75.5224 31.4246 75.4281 31.3932 75.3652 31.3303C75.2552 31.2989 75.2237 31.2047 75.208 31.1105Z" fill="#53606F"/>
<path fill-rule="evenodd" clip-rule="evenodd" d="M76.1827 30.3725V30.1997H76.3399V30.341C76.3399 30.4196 76.3242 30.4667 76.3084 30.4981C76.277 30.5452 76.2456 30.5766 76.1984 30.5923L76.167 30.5295C76.1984 30.5138 76.2141 30.4981 76.2299 30.4667C76.2456 30.4353 76.2456 30.4039 76.2613 30.3568H76.1827V30.3725ZM76.4342 30.3725V30.1997H76.5914V30.341C76.5914 30.4196 76.5756 30.4667 76.5599 30.4981C76.5285 30.5452 76.4971 30.5766 76.4499 30.5923L76.4185 30.5295C76.4499 30.5138 76.4656 30.4981 76.4813 30.4667C76.4971 30.4353 76.4971 30.4039 76.5128 30.3568H76.4342V30.3725Z" fill="#53606F"/>
<path fill-rule="evenodd" clip-rule="evenodd" d="M77.2041 31.4246L77.5342 30.9692L77.2355 30.5452H77.4241L77.5656 30.7493C77.597 30.7964 77.6128 30.8278 77.6285 30.8435C77.6599 30.8121 77.6756 30.7807 77.6913 30.7493L77.8485 30.5452H78.0214L77.7071 30.9692L78.0371 31.4403H77.8485L77.6599 31.1576L77.6128 31.0791L77.377 31.4246H77.2041Z" fill="#53606F"/>
<path fill-rule="evenodd" clip-rule="evenodd" d="M79.3414 30.7651C79.2785 30.7494 79.2314 30.7022 79.2 30.6708C79.1685 30.6237 79.1528 30.5766 79.1528 30.5138C79.1528 30.4196 79.1842 30.3567 79.2471 30.2939C79.31 30.2311 79.3886 30.1997 79.4986 30.1997C79.6086 30.1997 79.6872 30.2311 79.7501 30.2939C79.8129 30.3567 79.8444 30.4353 79.8444 30.5138C79.8444 30.5766 79.8287 30.6237 79.7972 30.6551C79.7658 30.7022 79.7186 30.7337 79.6558 30.7494C79.7343 30.7808 79.7815 30.8122 79.8286 30.875C79.8758 30.9221 79.8915 31.0006 79.8915 31.0634C79.8915 31.1734 79.8601 31.2519 79.7815 31.3304C79.7029 31.4089 79.6086 31.4404 79.4829 31.4404C79.3571 31.4404 79.2628 31.4089 79.1842 31.3304C79.1057 31.2519 79.0742 31.1734 79.0742 31.0634C79.0742 30.9849 79.0899 30.9221 79.1371 30.8593C79.2157 30.8122 79.2785 30.7808 79.3414 30.7651ZM79.31 30.5138C79.31 30.5766 79.3257 30.6237 79.3728 30.6551C79.4043 30.6865 79.4514 30.718 79.5143 30.718C79.5772 30.718 79.6243 30.7022 79.6558 30.6708C79.6872 30.6394 79.7186 30.5923 79.7186 30.5295C79.7186 30.4667 79.7029 30.4353 79.6558 30.3882C79.6243 30.3568 79.5772 30.3253 79.5143 30.3253C79.4514 30.3253 79.4043 30.341 79.3728 30.3882C79.3414 30.4196 79.31 30.451 79.31 30.5138ZM79.2628 31.0792C79.2628 31.1263 79.2785 31.1577 79.2943 31.2048C79.31 31.2519 79.3414 31.2833 79.3886 31.299C79.4357 31.3147 79.4672 31.3304 79.5143 31.3304C79.5929 31.3304 79.64 31.3147 79.6872 31.2676C79.7343 31.2205 79.7501 31.1577 79.7501 31.0949C79.7501 31.0163 79.7186 30.9692 79.6715 30.9221C79.6243 30.875 79.5615 30.8436 79.4986 30.8436C79.42 30.8436 79.3728 30.8593 79.3257 30.9064C79.2943 30.9378 79.2628 31.0006 79.2628 31.0792Z" fill="#53606F"/>
<path d="M80.1748 31.2517H80.332V31.4245H80.1748V31.2517Z" fill="#53606F"/>
<path fill-rule="evenodd" clip-rule="evenodd" d="M80.583 31.1104L80.7402 31.0947C80.7559 31.1732 80.7873 31.236 80.8345 31.2831C80.8816 31.3146 80.9288 31.346 80.9917 31.346C81.0545 31.346 81.1174 31.3146 81.1645 31.2674C81.2117 31.2203 81.2431 31.1575 81.2431 31.079C81.2431 31.0162 81.2274 30.9534 81.1803 30.9062C81.1331 30.8591 81.0702 30.8434 81.0074 30.8434C80.9759 30.8434 80.9445 30.8434 80.8974 30.8591L80.9131 30.7335C80.9288 30.7335 80.9288 30.7335 80.9445 30.7335C81.0074 30.7335 81.0702 30.7178 81.1174 30.6864C81.1645 30.655 81.196 30.6079 81.196 30.5293C81.196 30.4665 81.1803 30.4351 81.1331 30.388C81.1017 30.3566 81.0545 30.3409 80.9917 30.3409C80.9288 30.3409 80.8816 30.3566 80.8502 30.4037C80.8188 30.4351 80.7873 30.4979 80.7716 30.5765L80.6144 30.545C80.6302 30.4508 80.6773 30.3723 80.7402 30.3095C80.803 30.2467 80.8816 30.231 80.9759 30.231C81.0388 30.231 81.1017 30.2467 81.1645 30.2781C81.2274 30.3095 81.2588 30.3409 81.2903 30.388C81.3217 30.4351 81.3374 30.4979 81.3374 30.545C81.3374 30.5922 81.3217 30.6393 81.2903 30.6864C81.2588 30.7335 81.2274 30.7649 81.1645 30.7963C81.2431 30.812 81.2903 30.8434 81.3374 30.9062C81.3846 30.9534 81.4003 31.0319 81.4003 31.1104C81.4003 31.2203 81.3689 31.3146 81.2903 31.3774C81.2117 31.4559 81.1174 31.4873 80.9917 31.4873C80.8816 31.4873 80.7873 31.4559 80.7245 31.3931C80.6302 31.2831 80.583 31.2046 80.583 31.1104Z" fill="#53606F"/>
<path fill-rule="evenodd" clip-rule="evenodd" d="M81.7779 30.7651C81.7151 30.7494 81.6679 30.7022 81.6365 30.6708C81.6051 30.6237 81.5893 30.5766 81.5893 30.5138C81.5893 30.4196 81.6208 30.3567 81.6836 30.2939C81.7465 30.2311 81.8251 30.1997 81.9351 30.1997C82.0451 30.1997 82.1237 30.2311 82.1866 30.2939C82.2495 30.3567 82.2809 30.4353 82.2809 30.5138C82.2809 30.5766 82.2652 30.6237 82.2337 30.6551C82.2023 30.7022 82.1552 30.7337 82.0923 30.7494C82.1709 30.7808 82.218 30.8122 82.2652 30.875C82.3123 30.9221 82.328 31.0006 82.328 31.0634C82.328 31.1734 82.2966 31.2519 82.218 31.3304C82.1394 31.4089 82.0451 31.4404 81.9194 31.4404C81.7937 31.4404 81.6994 31.4089 81.6208 31.3304C81.5422 31.2519 81.5107 31.1734 81.5107 31.0634C81.5107 30.9849 81.5265 30.9221 81.5736 30.8593C81.6365 30.8122 81.6994 30.7808 81.7779 30.7651ZM81.7465 30.5138C81.7465 30.5766 81.7622 30.6237 81.8094 30.6551C81.8408 30.6865 81.888 30.718 81.9508 30.718C82.0137 30.718 82.0608 30.7022 82.0923 30.6708C82.1237 30.6394 82.1552 30.5923 82.1552 30.5295C82.1552 30.4667 82.1394 30.4353 82.0923 30.3882C82.0608 30.3568 82.0137 30.3253 81.9508 30.3253C81.888 30.3253 81.8408 30.341 81.8094 30.3882C81.7622 30.4196 81.7465 30.451 81.7465 30.5138ZM81.6994 31.0792C81.6994 31.1263 81.7151 31.1577 81.7308 31.2048C81.7465 31.2519 81.7779 31.2833 81.8251 31.299C81.8722 31.3147 81.9037 31.3304 81.9508 31.3304C82.0294 31.3304 82.0766 31.3147 82.1237 31.2676C82.1709 31.2205 82.1866 31.1577 82.1866 31.0949C82.1866 31.0163 82.1552 30.9692 82.108 30.9221C82.0609 30.875 81.998 30.8436 81.9351 30.8436C81.8565 30.8436 81.8094 30.8593 81.7622 30.9064C81.7151 30.9378 81.6994 31.0006 81.6994 31.0792Z" fill="#53606F"/>
<path fill-rule="evenodd" clip-rule="evenodd" d="M82.5167 30.3725V30.1997H82.6739V30.341C82.6739 30.4196 82.6581 30.4667 82.6424 30.4981C82.611 30.5452 82.5796 30.5766 82.5324 30.5923L82.501 30.5295C82.5324 30.5138 82.5481 30.4981 82.5638 30.4667C82.5796 30.4353 82.5796 30.4039 82.5953 30.3568H82.5167V30.3725ZM82.7682 30.3725V30.1997H82.9253V30.341C82.9253 30.4196 82.9096 30.4667 82.8939 30.4981C82.8625 30.5452 82.831 30.5766 82.7839 30.5923L82.7525 30.5295C82.7839 30.5138 82.7996 30.4981 82.8153 30.4667C82.831 30.4353 82.831 30.4039 82.8468 30.3568H82.7682V30.3725Z" fill="#53606F"/>
<path d="M68.3235 2.874L76.9052 11.8098L75.2077 14.825L83.1922 10.5377H100.513C101.016 10.5377 101.063 10.632 100.591 10.9146C100.544 10.9461 84.7639 19.4892 84.7639 19.4892L92.0568 27.2629L88.0803 33.8902H0.172852L13.234 10.5377H24.4719L22.1929 14.5581H27.081L29.6273 10.0823L43.4743 3.75345L46.9478 5.48093L58.3429 0.125732L63.3725 5.33959L68.3235 2.874Z" stroke="#53606F" stroke-width="1.2472" stroke-miterlimit="3.8637"/>
<path d="M68.3236 2.874L76.9053 11.8098L75.2078 14.825L83.1923 10.5377H100.513C101.016 10.5377 101.063 10.632 100.591 10.9146C100.544 10.9461 84.764 19.4892 84.764 19.4892L92.0569 27.2629L88.0804 33.8902H0.157227L13.2341 10.5377H24.472L22.193 14.5581H27.0811L29.6274 10.0823L43.4744 3.75345L46.9479 5.48093L58.343 0.125732L63.3726 5.33959L68.3236 2.874Z" fill="#53606F"/>
<path d="M68.3236 2.874L76.9053 11.8098L75.2078 14.825L83.1923 10.5377H100.513C101.016 10.5377 101.063 10.632 100.591 10.9146C100.544 10.9461 84.764 19.4892 84.764 19.4892L92.0569 27.2629L88.0804 33.8902H0.157227L13.2341 10.5377H24.472L22.193 14.5581H27.0811L29.6274 10.0823L43.4744 3.75345L46.9479 5.48093L58.343 0.125732L63.3726 5.33959L68.3236 2.874Z" stroke="#53606F" stroke-width="0.3967" stroke-miterlimit="3.8637"/>
<path fill-rule="evenodd" clip-rule="evenodd" d="M30.5546 11.1817L27.8355 15.9715H19.8825L22.1458 11.9512H13.9885L6.14551 25.8182H14.3186L16.7233 21.5466H24.692L22.2716 25.8182H37.5646L41.3525 19.1124L45.0775 26.3521L55.5296 19.8819L52.1503 25.8182H67.4434L69.8953 21.4838H74.469L78.5556 25.8182H88.5204L82.312 19.3008L95.939 11.9512H83.4751L75.7579 16.0971H72.9445L75.2077 12.0768L68.0092 4.58583L63.0582 7.05142L58.0286 1.80615L46.9164 7.03571L43.4272 5.30823L30.5546 11.1817Z" fill="white"/>
<path fill-rule="evenodd" clip-rule="evenodd" d="M86.4931 24.9544H78.933L74.8307 20.62H69.3925L66.9563 24.9544H60.7637L67.6322 12.8149H73.8091L71.4672 16.9452H75.9781L83.6954 12.8149H92.2771L92.3085 12.9249L80.8977 19.081L86.4931 24.9544Z" fill="#53606F"/>
<path fill-rule="evenodd" clip-rule="evenodd" d="M87.0431 32.4139H2.625L5.4227 27.467H89.9666L87.0431 32.4139Z" fill="white"/>
<path fill-rule="evenodd" clip-rule="evenodd" d="M14.4915 12.8149H20.6685L18.4052 16.8353H28.3386L30.6176 12.8149H36.7945L29.9417 24.9544H23.7491L26.1696 20.6828H16.2205L13.8157 24.9544H7.62305L14.4915 12.8149Z" fill="#53606F"/>
<path fill-rule="evenodd" clip-rule="evenodd" d="M37.8792 12.8149H45.4865L48.2213 18.0288L56.8344 12.8149H66.5478L59.6793 24.9544H53.6438L57.9504 17.3535L45.4236 25.1272L41.3842 17.2907L37.0619 24.9544H31.0107L37.8792 12.8149Z" fill="#53606F"/>
<path fill-rule="evenodd" clip-rule="evenodd" d="M73.7779 11.9513L67.8053 5.73231L63.8131 7.72677L64.8662 10.2866L57.8091 2.95264L42.2488 10.2709L45.8481 7.55402L43.4119 6.34478L31.1523 11.9513H38.681H38.6495H46.2725L48.6772 16.5997L56.2845 11.9513H66.4851H66.4693H73.7779Z" fill="#53606F"/>
<path fill-rule="evenodd" clip-rule="evenodd" d="M44.2599 7.64822L43.144 8.49625H40.582L43.3954 7.2085L44.2599 7.64822Z" fill="white"/>
<path fill-rule="evenodd" clip-rule="evenodd" d="M67.663 6.7688L65.1797 8.00945L65.3997 8.49628H69.3134L67.663 6.7688Z" fill="white"/>
<path fill-rule="evenodd" clip-rule="evenodd" d="M48.3623 8.4962H52.4488L53.6276 10.7576L57.3369 8.4962H61.8007L57.6356 4.22461L48.3623 8.4962Z" fill="white"/>
<path fill-rule="evenodd" clip-rule="evenodd" d="M74.0129 24.7031V24.9386H74.343C74.4373 24.9386 74.5001 24.9229 74.5316 24.8915C74.5473 24.8758 74.563 24.8444 74.5473 24.7973C74.5316 24.7502 74.5001 24.7031 74.3587 24.7031H74.0129ZM74.8145 25.4883H74.563L74.1543 25.0957H74.0129V25.4883H73.8086V24.5303H74.343C74.453 24.5303 74.5473 24.546 74.6102 24.5931C74.6887 24.6402 74.7359 24.7031 74.7516 24.7816C74.7673 24.8758 74.7359 24.9386 74.673 25.0014C74.6102 25.0486 74.5158 25.08 74.4058 25.08L74.8145 25.4883ZM73.337 25.0329C73.337 24.6559 73.7457 24.3419 74.2329 24.3419C74.7359 24.3419 75.1288 24.6559 75.1288 25.0329C75.1288 25.4098 74.7202 25.7238 74.2329 25.7238C73.7457 25.7238 73.337 25.4255 73.337 25.0329ZM73.1484 25.0329C73.1484 24.5617 73.6357 24.1848 74.2487 24.1848C74.8459 24.1848 75.3489 24.5617 75.3489 25.0329C75.3489 25.504 74.8616 25.8809 74.2487 25.8809C73.6357 25.8809 73.1484 25.504 73.1484 25.0329Z" fill="white"/>
<path fill-rule="evenodd" clip-rule="evenodd" d="M6.49179 28.4407H8.09497L7.46627 29.54H10.8927L11.5214 28.4407H13.1245L11.3485 31.5187H9.76101L10.4054 30.388H6.96332L6.3189 31.5187H4.73145L6.49179 28.4407Z" fill="#53606F"/>
<path fill-rule="evenodd" clip-rule="evenodd" d="M15.1052 28.4407H17.8557L18.2015 30.4351L20.8263 28.4407H23.5768L21.8008 31.5187H20.2919L21.6593 29.2102H21.4078L18.2015 31.5187H16.9441L16.394 29.2102H16.1268L14.838 31.5187H13.3291L15.1052 28.4407Z" fill="#53606F"/>
<path fill-rule="evenodd" clip-rule="evenodd" d="M25.8561 28.4408H27.3806L26.7362 29.5558H27.5692L30.2098 28.4094H32.5202L28.7638 29.9485L30.9956 31.5189H28.6852L27.1292 30.3411H26.2961L25.6046 31.5189H24.0957L25.8561 28.4408Z" fill="#53606F"/>
<path fill-rule="evenodd" clip-rule="evenodd" d="M34.2168 28.4408H35.7414L34.9241 29.8541C34.7512 30.1839 34.6412 30.3881 34.6255 30.4666C34.594 30.608 34.7041 30.7022 34.9713 30.7179C35.2227 30.7493 35.6 30.7493 36.1186 30.7493C36.653 30.7493 37.046 30.7336 37.2817 30.7179C37.6118 30.6865 37.8633 30.5766 38.0047 30.3724C38.1305 30.2153 38.2405 30.0269 38.3662 29.8384L39.1835 28.425H40.7081L39.8908 29.8384C39.5922 30.3253 39.3721 30.6551 39.2621 30.8121C39.0578 31.0634 38.7434 31.2518 38.3348 31.3775C38.0362 31.4717 37.5804 31.5188 36.9831 31.5345C36.7002 31.5502 36.2758 31.5502 35.6943 31.5502C34.8455 31.5502 34.2325 31.5345 33.9025 31.5031C33.6353 31.4874 33.4467 31.456 33.3052 31.4089C33.1638 31.3618 33.0695 31.3147 32.9909 31.2361C32.8966 31.1419 32.8651 31.0163 32.9123 30.8592C32.9594 30.6865 33.0537 30.4823 33.1952 30.2311L33.4152 29.8384L34.2168 28.4408Z" fill="#53606F"/>
<path fill-rule="evenodd" clip-rule="evenodd" d="M41.2902 30.4979H42.7677C42.6734 30.655 42.6734 30.7492 42.752 30.7963C42.7991 30.812 42.8463 30.8277 42.9091 30.8434C42.972 30.8434 43.082 30.8591 43.2549 30.8591C43.3335 30.8591 43.6164 30.8591 44.0879 30.8591C44.7324 30.8591 45.1096 30.8591 45.2196 30.8591C45.4239 30.8434 45.5497 30.8277 45.6282 30.812C45.7383 30.7806 45.8169 30.7021 45.8797 30.5922C45.9269 30.5136 45.9269 30.4665 45.8954 30.4351C45.8483 30.388 45.6911 30.3723 45.4082 30.3723C45.2196 30.3723 44.8267 30.3566 44.2294 30.3409C43.6164 30.3252 43.2235 30.3095 43.0349 30.3095C42.5634 30.2938 42.2333 30.2624 42.0761 30.1996C41.8718 30.121 41.7775 29.9954 41.8089 29.8069C41.8246 29.697 41.8718 29.5714 41.9818 29.3986C42.1861 29.0531 42.4376 28.8019 42.7205 28.6605C42.9406 28.5506 43.2235 28.4878 43.5693 28.4407C43.8836 28.4093 44.5909 28.3936 45.7068 28.3936C46.4298 28.3936 46.9328 28.4093 47.2157 28.425C47.5929 28.4564 47.8287 28.5192 47.9544 28.5977C48.1273 28.7233 48.1116 28.9275 47.9387 29.2416C47.923 29.273 47.8916 29.3201 47.8444 29.3986H46.367C46.3984 29.3201 46.4298 29.273 46.4298 29.2416C46.4456 29.1631 46.367 29.116 46.1784 29.1003C46.0212 29.0845 45.6125 29.0845 44.9524 29.0845C44.308 29.0845 43.9151 29.1003 43.7893 29.116C43.6321 29.1474 43.5378 29.2102 43.475 29.3201C43.4121 29.43 43.4435 29.4929 43.5693 29.5243C43.6793 29.54 44.198 29.5557 45.1567 29.5871C46.0055 29.6028 46.5556 29.6185 46.7756 29.6499C47.0114 29.6656 47.1686 29.7127 47.2943 29.7441C47.4043 29.7912 47.4829 29.8541 47.5301 29.9326C47.5929 30.0582 47.5458 30.2467 47.3886 30.5136C47.2157 30.812 47.0271 31.0319 46.8228 31.1732C46.6184 31.3146 46.3512 31.4088 46.0369 31.4559C45.7225 31.503 44.9367 31.5344 43.6636 31.5344C42.8934 31.5344 42.3433 31.5187 42.0132 31.503C41.6046 31.4716 41.3374 31.4088 41.2117 31.3303C41.0702 31.236 41.023 31.1104 41.0859 30.9377C41.1174 30.8591 41.1645 30.7649 41.2274 30.6393L41.2902 30.4979Z" fill="#53606F"/>
<path fill-rule="evenodd" clip-rule="evenodd" d="M54.0365 31.5187L53.9108 31.0005H50.6101L49.8871 31.5187H48.1582L52.5748 28.4407H54.9324L55.7654 31.5187H54.0365ZM53.7693 30.3095L53.4864 29.1474H53.1878L51.5532 30.3095H53.7693Z" fill="#53606F"/>
<path fill-rule="evenodd" clip-rule="evenodd" d="M57.8875 30.6865H59.4907L59.0192 31.5189H57.416L57.8875 30.6865Z" fill="#53606F"/>
<path fill-rule="evenodd" clip-rule="evenodd" d="M66.5005 30.3253H68.025C67.9465 30.4823 67.8993 30.5765 67.8679 30.6394C67.7421 30.8592 67.585 31.0477 67.3806 31.1733C67.1763 31.3147 66.8934 31.4089 66.5319 31.4717C66.1232 31.5345 65.4788 31.5659 64.5672 31.5659C63.577 31.5659 62.9012 31.5502 62.5711 31.5345C62.2568 31.5188 62.021 31.4874 61.8638 31.456C61.7067 31.4246 61.5809 31.3618 61.4866 31.2989C61.3766 31.2047 61.3452 31.0791 61.3923 30.922C61.4395 30.765 61.5966 30.4509 61.8481 29.9955C62.0996 29.5558 62.2882 29.2574 62.4139 29.1003C62.6026 28.8648 62.8383 28.7077 63.1369 28.5978C63.357 28.5193 63.687 28.4565 64.0957 28.425C64.5201 28.3936 65.2745 28.3779 66.3276 28.3779C66.9563 28.3779 67.3964 28.3936 67.6635 28.4093C68.0565 28.4407 68.3237 28.4879 68.4651 28.5507C68.638 28.6449 68.7166 28.7705 68.6852 28.9433C68.6537 29.0689 68.6066 29.2103 68.5123 29.3673C68.4966 29.3987 68.4651 29.4615 68.4023 29.5401H66.8777C66.9091 29.4615 66.9405 29.4144 66.9563 29.383C66.9877 29.2888 66.9563 29.226 66.862 29.2103C66.7048 29.1789 66.249 29.1631 65.4788 29.1631C64.9602 29.1631 64.5829 29.1789 64.3786 29.1946C64.1271 29.2103 63.9228 29.3045 63.7814 29.4458C63.6713 29.5558 63.5456 29.7442 63.3884 30.0112C63.2312 30.2782 63.1527 30.4509 63.1369 30.5608C63.1212 30.6865 63.2312 30.765 63.4827 30.7964C63.687 30.8121 64.0643 30.8278 64.5987 30.8278C65.1802 30.8278 65.5889 30.8278 65.8089 30.8121C66.0132 30.7964 66.1704 30.7493 66.2647 30.6865C66.3276 30.5765 66.4062 30.4666 66.5005 30.3253Z" fill="#53606F"/>
<path fill-rule="evenodd" clip-rule="evenodd" d="M74.3433 28.3936C75.3964 28.3936 76.1037 28.4093 76.4966 28.4407C77.0467 28.4878 77.3139 28.6605 77.2668 28.9589C77.2353 29.1631 77.0939 29.5086 76.811 29.9797C76.5281 30.4665 76.2923 30.7963 76.088 31.0005C75.7893 31.2989 75.3335 31.4716 74.7206 31.5187C74.2962 31.5501 73.5418 31.5658 72.473 31.5658C71.3885 31.5658 70.6655 31.5501 70.2725 31.5187C69.7224 31.4716 69.4552 31.2989 69.5024 31.0005C69.5338 30.7963 69.6753 30.4508 69.9582 29.9797C70.2411 29.4929 70.4769 29.1631 70.6812 28.9589C70.9798 28.6605 71.4356 28.4878 72.0486 28.4407C72.473 28.4093 73.2274 28.3936 74.3433 28.3936ZM73.7775 29.1945C73.0074 29.1945 72.5516 29.2102 72.3629 29.2259C72.1429 29.2573 71.9857 29.3358 71.86 29.4457C71.75 29.5557 71.5928 29.7598 71.4356 30.0582C71.3256 30.2467 71.2627 30.388 71.247 30.4665C71.2156 30.6236 71.357 30.7178 71.6399 30.7335C71.86 30.7492 72.2844 30.7649 72.9288 30.7649C73.5732 30.7649 74.0133 30.7492 74.249 30.7335C74.5634 30.7178 74.7991 30.6236 74.9563 30.4665C75.0349 30.388 75.1292 30.2467 75.2392 30.0739C75.365 29.8541 75.4436 29.697 75.475 29.6028C75.5221 29.4457 75.5064 29.3515 75.4121 29.2887C75.3335 29.2416 75.1135 29.2102 74.7677 29.1945C74.6577 29.1945 74.3276 29.1945 73.7775 29.1945Z" fill="#53606F"/>
<path fill-rule="evenodd" clip-rule="evenodd" d="M79.2634 28.4407H82.0139L82.3597 30.4351L84.9845 28.4407H87.735L85.959 31.5187H84.4501L85.8175 29.2102H85.566L82.3597 31.5187H81.1023L80.5522 29.2102H80.285L78.9962 31.5187H77.4873L79.2634 28.4407Z" fill="#53606F"/>
</svg>
