<svg width="114" height="59" viewBox="0 0 114 59" fill="none" xmlns="http://www.w3.org/2000/svg">
<path d="M90.1959 51.9696H92.4429C93.9175 51.9696 94.1282 52.5642 94.1282 52.9838V55.5369C94.1282 55.8866 93.9877 56.1314 93.7069 56.3063C93.3909 56.4812 92.8994 56.6211 92.2323 56.6211H90.1959V51.9696ZM103.292 53.2986C103.292 50.8155 100.764 49.5914 95.8134 49.5914H81.0324V58.9992H95.7783C100.799 58.9992 103.292 57.7052 103.292 55.2221V53.2986ZM66.7429 53.6833V51.9696H69.2708C70.1836 51.9696 70.7103 52.1445 70.7103 52.3893V53.2986C70.7103 53.5084 70.2187 53.6833 69.2708 53.7183H66.7429V53.6833ZM78.9258 54.8374C79.5227 54.3828 79.8387 53.7882 79.8387 53.0538V52.4243C79.8387 50.4658 77.5566 49.5914 73.0977 49.5914H57.5794V58.9992H66.7429V55.5019H69.341C70.2187 55.5019 70.7103 55.6768 70.7103 55.8866V58.9992H79.8738V56.5861C79.8387 55.8866 79.5578 55.2921 78.9258 54.8374ZM43.2899 55.5719V53.0188C43.2899 52.6691 43.4303 52.4243 43.7112 52.2494C44.0272 52.0745 44.5187 51.9696 45.1858 51.9696H45.5018C47.0115 52.0046 47.2221 52.5991 47.2221 53.0188V55.5719C47.2221 55.9216 47.0817 56.1664 46.8008 56.3413C46.4848 56.5161 45.9933 56.6211 45.3262 56.6211H45.0102C43.5005 56.5861 43.2899 56.0265 43.2899 55.5719ZM48.8371 49.5914H41.6748C39.2172 49.5914 37.3213 49.9062 36.0925 50.5007C34.7934 51.1302 34.1614 52.0745 34.1614 53.3336V55.2571C34.1614 56.5161 34.8285 57.4604 36.1276 58.0899C37.3564 58.6845 39.2172 58.9992 41.6397 58.9992C41.6748 58.9992 48.8723 58.9992 48.8723 58.9992C53.8929 58.9992 56.3857 57.7052 56.3857 55.2221V53.2986C56.3857 50.8155 53.8227 49.5914 48.8371 49.5914ZM32.9326 49.5914V58.9992H23.7691V55.5019H19.8368V58.9992H10.6733V49.5914H19.8368V53.1237H23.7691V49.5914H32.9326ZM78.2939 27.803V33.2938C78.2939 33.8884 77.8374 34.3431 77.2406 34.3431H62.9862C62.0734 34.3431 61.2658 34.9726 61.0201 35.8819L59.4402 42.6317L56.9825 43.4361L54.5249 42.6317L52.9449 35.8819C52.7343 34.9726 51.9268 34.3431 50.9788 34.3431H36.7244C36.1276 34.3431 35.6711 33.8884 35.6711 33.2938V27.803L44.7645 11.9951C45.1156 11.4005 45.7826 11.0158 46.4848 11.0158H49.5393L43.8867 28.6074L46.9061 12.6246H46.2039L37.2511 28.1877V32.7692H51.0139C52.6641 32.7692 54.0684 33.8884 54.4546 35.4622L55.8239 41.3727L56.9825 41.7574L58.1411 41.3727L59.5104 35.4622C59.8966 33.8534 61.301 32.7692 62.9511 32.7692H76.7139V28.1877L67.7611 12.6246H67.0589L70.0783 28.6074L64.3906 11.0158H67.4451C68.1473 11.0158 68.8143 11.4005 69.1654 11.9951L78.2939 27.803ZM47.1168 28.6074L50.8033 11.0158L56.9825 7.55348H57.0176L63.1969 11.0158L66.8833 28.6074L61.2658 12.0301L57.0176 9.82675H56.9825L52.7343 12.0301L47.1168 28.6074ZM76.6437 36.2666C76.9948 36.2666 77.065 36.7562 76.7491 36.8611L61.301 42.0022L62.6351 36.2666H76.6437ZM91.3545 18.8848L96.5858 14.9329L100.343 18.9548L95.5677 25.4598L92.9345 24.1658L91.3545 18.8848ZM112.174 19.2346L99.0084 34.6228C98.6573 35.0425 98.0604 35.1824 97.5338 34.9726L87.6681 31.0206C87.1765 30.8107 86.8605 30.3211 86.8605 29.7965L87.317 14.0585L88.1947 13.7088L89.7395 18.8149L91.7056 25.25L96.0943 27.3834L102.344 18.8848L96.7614 12.9044L90.863 17.346L89.564 13.0093C89.4586 12.6596 89.2129 12.3798 88.8969 12.2399C88.5809 12.1 88.1947 12.065 87.8787 12.2049L86.5797 12.6946C86.0881 12.8694 85.7722 13.3241 85.7722 13.8487L85.5615 21.333L80.5409 25.1101L72.3604 10.8759L96.2699 1.60802C96.7614 1.39818 97.3231 1.53807 97.6742 1.92278L112.104 17.5209C112.561 18.0105 112.596 18.7449 112.174 19.2346ZM113.263 16.5067L98.8328 0.908551C98.0253 0.0342181 96.8316 -0.245568 95.7432 0.209085L70.1485 10.1415L80.0493 27.4183L85.4913 23.3265L85.3157 29.7615C85.2806 30.9506 85.9828 32.0348 87.0712 32.4545L96.9369 36.4065C97.288 36.5464 97.6391 36.6163 97.9902 36.6163C98.7977 36.6163 99.6052 36.2666 100.132 35.6371L113.298 20.2488C114.246 19.1646 114.246 17.5559 113.263 16.5067ZM51.365 36.2666L52.6992 42.0022L37.2511 36.8611C36.9351 36.7562 37.0053 36.2666 37.3564 36.2666H51.365ZM21.0306 24.2008L18.3974 25.4948L13.6576 18.9898L17.4143 14.9678L22.6456 18.8848L21.0306 24.2008ZM1.89598 17.5209L16.3259 1.95775C16.677 1.57304 17.2388 1.43315 17.7303 1.64299L41.6397 10.9109L33.4593 25.1451L28.4386 21.333L28.228 13.8487C28.228 13.3241 27.8769 12.8694 27.4205 12.6946L26.1214 12.2049C25.8054 12.065 25.4192 12.1 25.1032 12.2399C24.7873 12.3798 24.5415 12.6596 24.4362 13.0093L23.1371 17.346L17.2036 12.9044L11.6564 18.8848L17.9409 27.4533L22.3296 25.3199L24.2957 18.8848L25.8405 13.7787L26.7183 14.1285L27.1747 29.8665C27.1747 30.3911 26.8587 30.9157 26.3672 31.0905L16.4663 34.9726C15.9397 35.1824 15.3429 35.0425 14.9918 34.6228L1.86087 19.2346C1.40445 18.7449 1.43956 18.0105 1.89598 17.5209ZM0.667154 20.2488L13.8331 35.6371C14.3949 36.2666 15.1673 36.6163 15.9748 36.6163C16.3259 36.6163 16.677 36.5464 17.0281 36.4065L26.8938 32.4545C27.9822 31.9998 28.6844 30.9157 28.6493 29.7615L28.4737 23.3265L33.9157 27.4183L43.8867 10.1065L18.292 0.209085C17.2036 -0.210595 15.9748 0.0691914 15.2024 0.908551L0.737372 16.5067C-0.21058 17.5559 -0.245689 19.1646 0.667154 20.2488Z" fill="#34495E"/>
</svg>
