<svg width="126" height="23" viewBox="0 0 126 23" fill="none" xmlns="http://www.w3.org/2000/svg">
<path d="M60.6953 0.0371094C61.8998 0.0371094 63.0519 0.0371094 64.2564 0.0371094C64.911 4.94549 65.5394 9.85387 66.1679 14.4539C66.8487 9.85387 67.5557 4.97119 68.2888 0.0628077C68.3674 0.0628077 68.4459 0.0371094 68.5245 0.0371094C69.3362 0.0371094 70.1217 0.0371094 70.9335 0.0371094C71.1429 0.0371094 71.2215 0.114204 71.2477 0.294093C71.6928 3.40359 72.1641 6.48739 72.6093 9.59689C72.8187 10.9589 73.0282 12.2952 73.2115 13.6572C73.2639 14.017 73.2639 14.4025 73.3424 14.7879C73.3948 14.2226 73.4472 13.6315 73.5257 13.0662C73.7352 11.4986 73.9447 9.93096 74.1542 8.38906C74.3636 6.87286 74.5469 5.35666 74.7564 3.81476C74.9135 2.63264 75.0706 1.45052 75.2277 0.294093C75.2277 0.216998 75.3586 0.088506 75.411 0.088506C76.537 0.0628077 77.6367 0.088506 78.815 0.088506C77.6629 7.74661 76.537 15.379 75.411 23.0371C75.2277 23.0371 75.0706 23.0371 74.9135 23.0371C74.0232 23.0371 73.133 23.0371 72.2427 23.0371C72.0594 23.0371 71.9808 23.0114 71.9285 22.8058C71.5619 20.493 71.1953 18.1801 70.8287 15.8673C70.5145 13.9656 70.2003 12.0382 69.9123 10.1366C69.8599 9.85387 69.8861 9.54549 69.8599 9.26281C69.8599 9.16001 69.8337 9.05722 69.8599 8.98013C69.1267 13.6572 68.3674 18.3343 67.6342 23.0371C66.4559 23.0371 65.33 23.0371 64.1779 23.0371C62.9734 15.3276 61.8474 7.69521 60.6953 0.0371094Z" fill="#53606F"/>
<path d="M117.568 22.9087C116.364 22.9087 115.212 22.9087 114.06 22.9087C114.06 15.2763 114.06 7.66958 114.06 0.0114746C114.19 0.0114746 114.295 0.0114746 114.426 0.0114746C117.411 0.0114746 120.37 0.0114746 123.355 0.0114746C124.743 0.0114746 125.45 0.70533 125.45 2.04164C125.45 4.86846 125.45 7.69528 125.45 10.5221C125.45 10.702 125.424 10.8819 125.397 11.0618C125.214 11.9612 124.717 12.4238 123.774 12.4752C123.277 12.5009 122.753 12.5266 122.203 12.578C123.486 16.0215 124.743 19.4394 126.026 22.9087C124.795 22.9087 123.591 22.9087 122.36 22.9087C122.046 22.0606 121.758 21.2126 121.444 20.3389C120.501 17.7176 119.558 15.1221 118.616 12.5009C118.511 12.1925 118.537 11.8327 118.511 11.4729C118.485 11.0618 118.511 10.6506 118.511 10.2137C119.663 10.2137 120.789 10.2137 121.941 10.2137C121.941 7.79807 121.941 5.40812 121.941 3.01818C120.501 3.01818 119.061 3.01818 117.594 3.01818C117.568 9.64835 117.568 16.2785 117.568 22.9087Z" fill="#53606F"/>
<path d="M101.072 18.617C100.836 20.0561 100.6 21.4695 100.391 22.9086C99.2386 22.9086 98.0865 22.9086 96.9082 22.9086C97.0391 22.2405 97.17 21.5723 97.301 20.9299C97.8508 18.1544 98.4007 15.379 98.9506 12.6036C99.5528 9.5969 100.129 6.61589 100.731 3.60919C100.941 2.47846 101.176 1.37343 101.412 0.242706C101.438 0.139913 101.543 0.0114215 101.621 0.0114215C102.8 -0.0142768 103.952 0.0114215 105.156 0.0114215C106.649 7.64382 108.141 15.2762 109.634 22.9343C108.456 22.9343 107.303 22.9343 106.151 22.9343C105.916 21.5209 105.68 20.0818 105.444 18.6427C103.978 18.617 102.538 18.617 101.072 18.617ZM103.297 5.66505C103.271 5.66505 103.245 5.66505 103.219 5.66505C102.669 8.98014 102.119 12.2695 101.569 15.5846C102.721 15.5846 103.821 15.5846 104.921 15.5846C104.371 12.2695 103.821 8.95444 103.297 5.66505Z" fill="#53606F"/>
<path d="M86.749 9.72531C88.5033 9.72531 90.2315 9.72531 91.9597 9.72531C91.9597 10.7275 91.9597 11.7041 91.9597 12.732C90.2315 12.732 88.5033 12.732 86.7228 12.732C86.7228 12.8862 86.7228 12.989 86.7228 13.1175C86.7228 15.2505 86.7228 17.3834 86.7228 19.5421C86.7228 19.8505 86.8013 19.9018 87.0894 19.9018C88.8699 19.9018 90.6767 19.9018 92.4572 19.9018C92.5881 19.9018 92.7191 19.9018 92.8762 19.9018C92.8762 20.9298 92.8762 21.9063 92.8762 22.9342C89.6816 22.9342 86.4871 22.9342 83.2402 22.9342C83.2402 15.3275 83.2402 7.72084 83.2402 0.0627441C86.4086 0.0627441 89.5769 0.0627441 92.7976 0.0627441C92.7976 1.06498 92.7976 2.04151 92.7976 3.06945C90.8076 3.06945 88.7914 3.06945 86.749 3.06945C86.749 5.2795 86.749 7.48956 86.749 9.72531Z" fill="#53606F"/>
<path d="M56.8471 22.9086C55.6688 22.9086 54.5166 22.9086 53.3383 22.9086C53.3383 19.5164 53.3383 16.0986 53.3383 12.6807C51.7673 12.6807 50.1962 12.6807 48.6251 12.6807C48.6251 16.0729 48.6251 19.465 48.6251 22.8829C47.4468 22.8829 46.3209 22.8829 45.1426 22.8829C45.1426 15.2762 45.1426 7.66951 45.1426 0.0371094C46.2685 0.0371094 47.4206 0.0371094 48.5989 0.0371094C48.5989 3.14661 48.5989 6.2818 48.5989 9.417C50.17 9.417 51.7149 9.417 53.3122 9.417C53.3122 6.3075 53.3122 3.1723 53.3122 0.0371094C54.5166 0.0371094 55.6688 0.0371094 56.8471 0.0371094C56.8471 7.66951 56.8471 15.2762 56.8471 22.9086Z" fill="#53606F"/>
<path d="M19.7167 19.8762C21.7853 19.8762 23.8015 19.8762 25.8701 19.8762C25.8701 20.9042 25.8701 21.8807 25.8701 22.9086C22.6494 22.9086 19.4287 22.9086 16.208 22.9086C16.208 15.3019 16.208 7.69521 16.208 0.0371094C19.3763 0.0371094 22.5709 0.0371094 25.7654 0.0371094C25.7654 1.03934 25.7654 2.01588 25.7654 3.04381C23.7753 3.04381 21.7591 3.04381 19.7429 3.04381C19.7429 5.27957 19.7429 7.46392 19.7429 9.69968C21.4711 9.69968 23.1731 9.69968 24.9275 9.69968C24.9275 10.7276 24.9275 11.7041 24.9275 12.7064C23.1993 12.7064 21.4711 12.7064 19.7429 12.7064C19.7167 15.122 19.7167 17.4606 19.7167 19.8762Z" fill="#53606F"/>
<path d="M3.53491 15.1734C3.53491 16.7923 3.53491 18.3599 3.53491 19.9532C4.81795 19.9532 6.101 19.9532 7.41022 19.9532C7.41022 13.3231 7.41022 6.69291 7.41022 0.0627441C8.58853 0.0627441 9.74065 0.0627441 10.9451 0.0627441C10.9451 0.191236 10.9451 0.294029 10.9451 0.396822C10.9451 7.18118 10.9451 13.9655 10.9451 20.7499C10.9451 21.0069 10.919 21.2639 10.8666 21.4951C10.6833 22.3689 10.0287 22.9085 9.08603 22.9085C6.67706 22.9342 4.26808 22.9342 1.88529 22.9085C0.837905 22.9085 0.130923 22.2404 0.104738 21.2125C0 19.6192 0.0261845 18.0259 0 16.4583C0 16.0985 0 15.7644 0 15.4046C0 15.3275 0.104738 15.1734 0.157107 15.1734C1.28304 15.1734 2.38279 15.1734 3.53491 15.1734Z" fill="#53606F"/>
<path d="M33.5425 3.06951C32.2333 3.06951 30.9764 3.06951 29.6934 3.06951C29.6934 2.04158 29.6934 1.06504 29.6934 0.0371094C33.4116 0.0371094 37.1298 0.0371094 40.848 0.0371094C40.848 1.03934 40.848 2.01588 40.848 3.04381C39.5911 3.04381 38.3343 3.04381 37.025 3.04381C37.025 9.67398 37.025 16.2785 37.025 22.9086C35.8467 22.9086 34.6946 22.9086 33.5163 22.9086C33.5425 16.3041 33.5425 9.69968 33.5425 3.06951Z" fill="#53606F"/>
</svg>
