<svg width="108" height="27" viewBox="0 0 108 27" fill="none" xmlns="http://www.w3.org/2000/svg">
<g clip-path="url(#clip0)">
<path fill-rule="evenodd" clip-rule="evenodd" d="M34.3038 25.526C34.3038 26.3333 33.6707 26.9955 32.899 26.9955H2.15909C1.38301 27 0.75 26.3378 0.75 25.526V1.46951C0.75 0.662187 1.38301 0 2.15476 0H32.8947C33.6664 0 34.2994 0.662187 34.2994 1.46951V25.526H34.3038ZM29.3525 14.9446L29.3575 14.8501C29.3769 14.4796 29.4136 13.7827 29.4175 13.0895C29.4175 12.5004 29.389 11.9086 29.3701 11.5153C29.3645 11.3999 29.3598 11.3016 29.3568 11.2254C29.2701 9.37948 28.8452 7.18882 26.8422 6.39057C25.5588 5.87805 23.0571 5.61953 18.2359 5.61046H18.2055V9.20713C18.2055 9.37948 18.3399 9.51555 18.5003 9.51555L22.8924 9.52008C23.3866 9.52008 23.7855 9.94189 23.7855 10.4589V15.7065C23.7855 16.2236 23.3823 16.6454 22.888 16.6454H18.496C18.3312 16.6454 18.2012 16.786 18.2012 16.9538V20.5596H18.2315C19.0553 20.5596 19.814 20.546 20.5077 20.5324C23.8766 20.4507 25.7712 20.1967 26.8422 19.7749C28.8366 18.9857 29.2658 16.7951 29.3525 14.9446ZM5.69219 14.8502C5.694 14.8845 5.69566 14.9161 5.69713 14.9446C5.78384 16.7951 6.21741 18.9857 8.20748 19.7749C9.27839 20.1967 11.1731 20.4507 14.5419 20.5324C15.2356 20.546 15.9943 20.5596 16.8181 20.5596H16.8528V16.9538C16.8528 16.786 16.7227 16.6454 16.558 16.6454H12.1659C11.6717 16.6454 11.2685 16.2236 11.2685 15.7065V10.4589C11.2685 9.94189 11.6673 9.52008 12.1616 9.52008L16.5536 9.51555C16.7141 9.51555 16.8485 9.37948 16.8485 9.20713V5.61046H16.8138C11.9925 5.61953 9.49084 5.87805 8.20748 6.39057C6.2044 7.18882 5.77951 9.37948 5.69279 11.2254C5.68984 11.3016 5.68511 11.3999 5.67955 11.5153C5.6606 11.9086 5.63209 12.5004 5.63209 13.0895C5.63606 13.7827 5.67271 14.4797 5.69219 14.8502Z" fill="#53606F"/>
<path d="M91.8773 16.6091H101.52V11.1302H91.8773V16.6091ZM105.864 15.2938C105.795 16.7225 105.465 18.4142 103.917 19.0311C102.899 19.4347 100.904 19.6388 97.0107 19.6388H96.395C92.4973 19.6388 90.5029 19.4347 89.484 19.0311C87.9405 18.4142 87.611 16.7225 87.5373 15.2938C87.5243 15.0307 87.4896 14.4411 87.4896 13.856C87.4896 13.2709 87.5243 12.6768 87.5373 12.4137C87.6066 10.985 87.9405 9.29328 89.484 8.68098C90.5029 8.27732 92.4973 8.07322 96.395 8.07322H97.0107C100.904 8.07322 102.899 8.27732 103.917 8.68098C105.461 9.29781 105.795 10.9896 105.864 12.4137C105.877 12.6768 105.912 13.2664 105.912 13.856C105.912 14.4411 105.877 15.0307 105.864 15.2938ZM85.5689 19.6343H81.3329V8.06869H85.5689V19.6343ZM79.3689 11.1302H66.2405V16.6091H75.1329V14.9083H71.0314V13.0351H79.3689V19.6388H70.7582C66.8605 19.6388 64.8661 19.4347 63.8472 19.0311C62.3037 18.4142 61.9742 16.7225 61.9048 15.2938C61.8918 15.0307 61.8528 14.4411 61.8528 13.856C61.8528 13.2709 61.8875 12.6768 61.9048 12.4137C61.9742 10.985 62.3037 9.29328 63.8472 8.68098C64.8661 8.27732 66.8605 8.07322 70.7582 8.07322H79.3689V11.1302ZM60.0751 13.8515C60.0751 14.4411 60.0405 15.0262 60.0274 15.2892C59.9581 16.7179 59.6286 18.4097 58.0851 19.0265C57.0662 19.4302 55.0718 19.6343 51.174 19.6343H50.5584C46.6606 19.6343 44.6705 19.4302 43.6516 19.0265C43.4782 18.954 43.3178 18.8723 43.1704 18.7771C42.0951 18.0151 41.8393 16.5819 41.7786 15.3391V12.4591C41.848 11.0349 42.1775 9.33863 43.7253 8.72634C44.7399 8.32267 46.7386 8.11858 50.6364 8.11858H51.2477C55.1455 8.11858 57.1399 8.32267 58.1588 8.72634C58.4276 8.83065 58.6574 8.97126 58.8568 9.13453C59.763 9.92825 59.9928 11.2572 60.0448 12.4137C60.0535 12.5951 60.0751 12.9262 60.0838 13.3072C60.0795 13.4841 60.0751 13.6655 60.0751 13.8515ZM107.707 12.4545L107.698 12.3185C107.564 9.47924 106.51 7.65142 104.563 6.87584C103.254 6.35426 101.065 6.14109 97.002 6.14109H96.3864C92.3238 6.14109 90.1343 6.34972 88.825 6.87131C88.27 7.08901 87.7931 7.39743 87.3855 7.78748C87.2554 6.85316 86.4924 6.14109 85.5645 6.14109H81.3286C80.9687 6.14109 80.6305 6.2454 80.3487 6.4359C80.0626 6.2454 79.7287 6.14109 79.3689 6.14109H73.403C72.783 6.12294 72.1153 6.11841 71.3826 6.11841H70.7712C66.7087 6.11841 64.5149 6.33158 63.2098 6.85316C62.2516 7.23415 61.5059 7.87819 60.9856 8.77623C60.6431 8.10951 60.1532 7.61967 59.4898 7.24322C59.26 7.10262 59.0172 6.98016 58.7571 6.87584C57.5821 6.40868 55.6961 6.19098 52.388 6.15016C52.0021 6.14562 51.6032 6.14562 51.1784 6.14562H50.5627C46.5002 6.14562 44.3063 6.35426 43.0013 6.87584C41.0546 7.65142 40.0053 9.47924 39.8709 12.3185L39.8666 12.4591L39.8232 13.8515L39.8666 15.2439L39.8709 15.389C39.988 17.8382 40.7901 19.5345 42.2556 20.4507C42.5114 20.6185 42.7802 20.7591 43.075 20.877C44.3844 21.3986 46.5782 21.6072 50.6407 21.6072H51.2521C55.3146 21.6072 57.5084 21.3986 58.8178 20.877C59.221 20.7137 59.5635 20.4915 59.8584 20.2148C60.3049 19.8701 60.6821 19.4393 60.9813 18.9267C61.0247 18.9993 61.0723 19.0719 61.12 19.1399C61.6316 19.9382 62.3254 20.5187 63.2142 20.8725C64.5235 21.3941 66.7174 21.6072 70.7799 21.6072H71.3956C72.4925 21.6072 73.4507 21.5936 74.2918 21.5619H79.3775C79.7417 21.5619 80.0756 21.4485 80.3574 21.2625C80.6392 21.453 80.9774 21.5619 81.3373 21.5619H85.5732C86.501 21.5619 87.2684 20.8453 87.3942 19.9109C87.8061 20.301 88.2787 20.6094 88.8336 20.8271C90.143 21.3487 92.3325 21.5619 96.395 21.5619H97.0107C101.069 21.5619 103.263 21.3487 104.572 20.8271C106.519 20.0561 107.572 18.2237 107.707 15.389L107.715 15.2484L107.759 13.8515L107.707 12.4545ZM46.0406 16.6091H55.6831V11.1302H46.0406V16.6091Z" fill="#53606F"/>
</g>
<defs>
<clipPath id="clip0">
<rect width="107" height="27" fill="white" transform="translate(0.75)"/>
</clipPath>
</defs>
</svg>
