<svg width="120" height="21" viewBox="0 0 120 21" fill="none" xmlns="http://www.w3.org/2000/svg">
<g clip-path="url(#clip0)">
<path fill-rule="evenodd" clip-rule="evenodd" d="M97.0398 20.6274H80.5674V2.14185H85.8588V17.0886H97.0398" fill="#53606F"/>
<path fill-rule="evenodd" clip-rule="evenodd" d="M112.96 16.0178C113.466 15.459 113.88 14.8072 114.11 14.0156C114.34 13.2706 114.478 12.3393 114.478 11.3149C114.478 10.1974 114.34 9.26614 114.064 8.47456C113.788 7.68299 113.42 7.07767 112.96 6.56547C112.5 6.05328 111.948 5.72734 111.349 5.49452C110.751 5.2617 110.107 5.16858 109.417 5.16858C108.727 5.16858 108.129 5.2617 107.53 5.49452C106.932 5.72734 106.38 6.05328 105.874 6.56547C105.414 7.03111 105.046 7.68299 104.724 8.47456C104.448 9.3127 104.31 10.244 104.31 11.3149C104.31 12.4324 104.448 13.3637 104.724 14.1553C105 14.9468 105.368 15.5522 105.828 16.0644C106.288 16.53 106.84 16.9025 107.438 17.1353C108.037 17.3681 108.727 17.4613 109.371 17.4613C110.061 17.4613 110.705 17.3216 111.303 17.0888C111.948 16.9025 112.5 16.53 112.96 16.0178ZM120 11.3615C120 14.295 119.08 16.6697 117.193 18.3925C115.306 20.1154 112.73 21.0001 109.371 21.0001C106.058 21.0001 103.481 20.1154 101.595 18.3925C99.7083 16.6697 98.7881 14.295 98.7881 11.3615C98.7881 8.38144 99.7083 6.05328 101.595 4.33044C103.481 2.6076 106.058 1.7229 109.371 1.7229C112.684 1.7229 115.26 2.56104 117.147 4.33044C119.033 6.00671 120 8.38144 120 11.3615Z" fill="#53606F"/>
<path fill-rule="evenodd" clip-rule="evenodd" d="M77.9909 5.72721H67.224V9.17289H77.3007V12.9445H67.224V20.6274H61.9326V2.14185H77.9909" fill="#53606F"/>
<path fill-rule="evenodd" clip-rule="evenodd" d="M20.1992 6.33259L36.9017 4.33038V0L20.1992 2.00222" fill="#53606F"/>
<path fill-rule="evenodd" clip-rule="evenodd" d="M36.8558 13.5964H25.3067C25.3067 14.9467 25.3067 16.0177 25.3067 16.9024C29.1718 16.9024 32.9908 16.9024 36.8558 16.9024C36.8558 18.1596 36.8558 19.4168 36.8558 20.6274H20.1994V9.73166C25.7669 9.73166 31.2883 9.73166 36.8558 9.73166C36.8558 11.0354 36.8558 12.3392 36.8558 13.5964ZM59.816 20.6274H54.2945L49.1411 6.98443L43.8497 20.6274H38.4663L46.0583 2.0953H52.1779L59.816 20.6274ZM17.6227 14.807C17.6227 16.623 16.7485 18.113 15.046 19.2306C13.3436 20.3946 10.9969 20.9534 8.05215 20.9534C6.34969 20.9534 4.8773 20.8137 3.58896 20.5343C2.30061 20.3015 1.10429 19.9756 0 19.5565V15.133H0.598159C1.70245 15.9246 2.94479 16.5299 4.27914 16.949C5.65951 17.368 6.94785 17.6008 8.19018 17.6008C8.51227 17.6008 8.92638 17.6008 9.47853 17.5077C9.98466 17.4611 10.4448 17.368 10.7669 17.2749C11.181 17.1352 11.5031 16.949 11.7791 16.7161C12.0552 16.4833 12.1933 16.1574 12.1933 15.7383C12.1933 15.3192 12.0092 14.9933 11.5951 14.6674C11.227 14.388 10.6288 14.1552 9.89264 14.0155C9.11043 13.8292 8.28221 13.6895 7.45399 13.5498C6.57975 13.4102 5.79755 13.2239 5.01534 12.9911C3.26687 12.4789 2.02454 11.7804 1.28834 10.9423C0.506135 10.0576 0.138037 8.98665 0.138037 7.72944C0.138037 6.00661 1.01227 4.60971 2.71472 3.49219C4.41718 2.32811 6.62577 1.81592 9.34049 1.81592C10.6748 1.81592 12.0552 1.90904 13.3436 2.18842C14.6779 2.42124 15.8282 2.70062 16.7945 3.07312V7.35694H16.2423C15.4141 6.75162 14.4018 6.23942 13.2055 5.86692C12.0092 5.44785 10.7669 5.26159 9.52454 5.26159C9.06442 5.26159 8.65031 5.30816 8.19018 5.35472C7.77607 5.40128 7.31595 5.49441 6.94785 5.68066C6.57975 5.82035 6.30368 6.00661 6.02761 6.23942C5.75153 6.47224 5.65951 6.79818 5.65951 7.12412C5.65951 7.58975 5.88957 8.00882 6.30368 8.24164C6.71779 8.52102 7.5 8.75383 8.65031 8.94009C9.3865 9.07978 10.1227 9.21947 10.8129 9.35916C11.5031 9.49885 12.2393 9.6851 13.0675 9.91791C14.6319 10.3835 15.8282 11.0354 16.5644 11.827C17.2546 12.5255 17.6227 13.5498 17.6227 14.807Z" fill="#53606F"/>
</g>
<defs>
<clipPath id="clip0">
<rect width="120" height="21" fill="white"/>
</clipPath>
</defs>
</svg>
