<svg width="96" height="32" viewBox="0 0 96 32" fill="none" xmlns="http://www.w3.org/2000/svg">
<g clip-path="url(#clip0)">
<path d="M8.95582 28.9638C4.28772 28.9638 0.5 25.2884 0.5 20.7341V8.20974C0.5 3.67541 4.28772 0 8.95582 0H19.9709C24.639 0 28.4267 3.67541 28.4267 8.20974V20.7341C28.4267 25.2684 24.639 28.9438 19.9709 28.9438H8.95582V28.9638ZM16.9203 15.181C18.681 17.1186 18.8448 17.4782 18.4149 20.9139C21.486 20.0749 23.3287 15.7204 22.1412 11.8851C20.9537 8.04994 20.708 5.23346 24.0657 2.61673L24.1681 2.43695C18.8653 2.397 15.7532 6.57179 15.3847 10.6267C15.2209 13.1835 15.8966 14.0624 16.7769 15.0012L16.9203 15.181ZM12.6821 2.49688C11.8427 2.91635 10.6552 3.95506 10.5733 4.37453C9.97953 4.21473 9.61099 4.61423 9.61099 4.61423C9.07866 3.83521 8.23922 3.61548 8.23922 3.61548C7.74785 3.43571 7.56358 3.15605 7.52263 3.15605C6.90841 4.85393 7.74785 5.69288 7.74785 5.69288C8.48491 6.59176 8.77155 6.89139 8.11638 8.12984C6.19181 12.1049 7.33836 13.8027 8.7306 15.6804C9.5291 16.6792 8.85345 17.9975 8.36207 18.3171C5.31142 20.035 6.19181 23.1111 7.82974 23.7503C7.66595 24.2896 7.64547 24.829 7.64547 24.829C6.92888 24.829 6.45797 25.0087 6.45797 25.0087C5.67996 25.3683 5.43427 26.2871 6.92888 26.4869C8.42349 26.7066 7.7069 26.427 8.07543 26.407C8.44397 26.367 9.03772 26.367 9.03772 24.809L9.14009 24.3496C9.63147 24.4694 10.3276 24.5693 10.3276 24.5693C10.3685 25.7478 10.2252 26.8864 11.4127 27.1261C12.6002 27.3658 12.6002 27.2459 12.6002 27.2459C13.3987 27.2459 13.7877 26.367 12.8254 26.0075C11.8631 25.6479 12.0474 24.8689 12.2112 23.3109C12.375 21.7728 12.8869 18.6367 13.8287 17.578C13.7263 20.5144 14.4429 21.4332 15.2004 22.0724C15.9989 22.6517 15.3028 23.1511 15.3028 23.1511C15.3028 23.1511 14.5043 24.03 13.6853 24.0899C12.6002 24.1498 12.2522 25.2085 13.3987 25.5081C13.8287 25.9675 14.4019 25.8077 14.5862 25.568C15.528 25.8677 15.8966 25.0287 15.7737 24.5693C15.6099 24.0499 15.6099 23.8502 17.6983 22.6717C18.1282 22.432 18.3125 22.1923 17.9849 21.8327C17.6369 21.4732 18.0463 20.8939 18.0463 20.8939C18.722 19.7753 18.5172 17.7978 18.0463 17.1386C17.5754 16.4794 15.7123 13.7029 14.1358 16.779C14.1972 14.8414 14.32 14.0025 15.7123 14.8814C15.958 15.0012 16.306 15.0412 15.8966 14.2821C15.8966 14.2821 15.1595 12.9838 13.8491 12.4444C12.2931 11.7853 11.1466 10.6866 11.2694 9.12859C11.6379 9.46817 12.0474 9.72784 12.764 9.88764C12.764 9.88764 12.0884 9.34832 12.1703 9.12859C12.7231 9.18851 13.194 8.64919 13.194 8.64919C13.194 8.64919 11.9246 8.74906 11.8631 8.58926C11.1261 8.48939 11.2694 7.57054 12.1703 7.77029C13.0711 7.99001 13.0097 8.06991 13.6034 8.24969C14.5248 8.52934 15.6304 8.30961 15.6304 7.41074C16.2241 7.45069 15.9989 6.21223 15.1595 6.83146C14.75 6.87141 13.8287 6.65169 13.6444 6.53184C13.4601 6.41199 12.805 5.29338 12.1907 5.25343C12.6002 4.65418 12.7231 3.65543 12.6821 2.65668V2.49688ZM8.11638 4.13483C8.21875 5.21348 8.97629 5.71286 8.97629 5.71286C9.65194 5.61298 10.8804 5.87266 10.1024 7.97004C9.32435 10.0874 8.46444 11.6854 10.2252 14.4819C10.819 15.5006 10.9623 15.7803 11.0647 16.3196C11.167 16.8589 11.6584 17.7378 12.1907 16.6192C12.7231 15.5006 12.6207 13.5431 11.6994 12.3246C10.778 11.1261 10.3685 9.68789 10.6756 8.94881C10.9828 8.18976 10.8599 8.42946 10.8599 8.42946C10.4504 8.00999 10.3276 7.35081 11.0851 7.37079C10.8599 7.03121 10.4709 6.55181 10.3071 5.37328C10.0205 5.13358 9.63147 5.01373 9.3653 5.07366C9.14009 4.37453 8.36207 4.11486 8.23922 4.11486H8.11638V4.13483ZM9.50862 19.4557C9.67241 18.9363 9.40625 18.8165 9.14009 18.9363C8.85345 19.0562 6.62177 20.2347 7.64547 22.6517C7.80927 22.9513 8.11638 23.1111 8.19828 22.5918C8.30065 22.0724 9.20151 20.035 9.38578 19.6554L9.50862 19.4557ZM11.7812 18.7765C11.6175 18.2572 11.3718 18.3171 11.167 18.7166C10.9418 19.1161 9.24246 22.4519 9.3653 23.4507C9.40625 23.6904 9.97953 23.97 10.4914 23.8102C10.5119 22.9913 11.1056 21.1536 11.4537 20.4145C11.8017 19.6954 11.8222 19.0961 11.8222 18.9763L11.7812 18.7765ZM6.82651 25.5081C6.56035 25.4881 6.31466 25.6679 6.37608 25.9875C6.4375 26.3071 6.60129 26.1673 6.72414 26.0674C6.84698 25.9476 6.9903 25.7678 6.96983 25.6679C6.96983 25.568 6.86746 25.5281 6.86746 25.5281L6.82651 25.5081ZM7.60453 25.8077C7.60453 25.628 7.44073 25.5081 7.27694 25.6879C7.11315 25.8677 7.13362 26.0275 7.17457 26.2072C7.21552 26.367 7.46121 26.387 7.52263 26.2072C7.58405 26.0275 7.60453 25.8677 7.60453 25.8677V25.8077ZM13.6239 24.5293C13.3373 24.6891 13.2963 24.8889 13.3373 25.0287C13.3782 25.1685 13.5216 25.2085 13.583 25.0487C13.583 24.9688 13.5625 24.9488 13.5625 24.9488C13.5625 24.769 13.6239 24.5693 13.6239 24.5693V24.5293ZM14.4019 24.5293C14.0948 24.7491 13.8901 24.9688 13.972 25.2085C14.0539 25.4482 14.2996 25.3883 14.3405 25.2085V25.1286C14.3405 25.1286 14.2791 24.9488 14.3815 24.6891L14.4019 24.5293ZM14.9957 24.5493C14.8933 24.769 14.7909 25.0687 14.8933 25.2484C14.9957 25.4082 15.6713 25.0886 15.0571 24.5693L14.9957 24.5493ZM11.8017 26.5868C11.7608 26.6467 11.6175 26.8464 11.6789 26.9663C11.7403 27.0861 11.8836 27.0861 11.9246 26.9663C11.986 26.8464 11.9246 26.5868 11.7812 26.5268L11.8017 26.5868ZM12.375 26.5668C12.4159 26.6667 12.4364 26.8464 12.3955 26.9463C12.3955 27.0462 12.6616 27.0861 12.6616 26.9064C12.6616 26.7266 12.5388 26.6067 12.375 26.5268V26.5668ZM12.8664 26.5268C12.8869 26.5668 12.9278 26.7266 12.9483 26.8065C12.9483 26.8864 13.0711 26.8864 13.0916 26.7865C13.1121 26.6667 13.0711 26.5468 12.8459 26.4869L12.8664 26.5268ZM15.18 7.67041C15.4052 7.39076 15.3642 7.03121 15.0162 7.21099C14.6681 7.39076 14.0539 7.61049 13.7058 7.43071C13.3578 7.25094 12.9688 7.65044 13.583 7.85019C14.1972 8.06991 14.7705 7.89014 15.0366 7.73034L15.18 7.67041ZM12.2726 5.59301C12.3136 5.65293 12.3341 5.71286 12.3341 5.79276C12.3341 5.97253 12.1703 6.13234 11.986 6.13234C11.8017 6.13234 11.6379 5.97253 11.6379 5.79276C11.6379 5.61298 11.8017 5.45318 11.986 5.45318C11.7403 5.35331 11.3922 5.25343 11.0851 5.35331C11.208 5.97253 11.4741 6.55181 13.0302 6.55181C12.8459 5.91261 12.3341 5.61298 12.3136 5.59301H12.2726ZM15.18 6.61174L13.931 4.89388L14.2586 5.71286L13.3987 4.79401L13.9925 5.85268L13.153 5.39326L14.4019 6.51186L14.9343 6.59176H15.18V6.61174Z" fill="#53606F"/>
<path d="M44.1512 2.73648C30.2083 0.579171 28.509 11.6653 35.2859 16.3195C36.1254 16.9188 36.3506 17.0186 36.3506 17.0186C37.968 18.5967 37.2924 20.3145 35.8592 20.694C34.467 21.0136 32.4195 20.6341 32.4195 20.6341V26.5667C46.4853 29.4431 46.3215 17.4381 42.6566 14.2421C41.592 13.2034 40.1997 12.2845 40.1997 12.2845C37.8861 10.5068 38.7051 8.22961 40.8754 8.22961C43.0456 8.22961 44.1922 8.36944 44.1922 8.36944L44.1512 2.73648Z" fill="#53606F"/>
<path d="M58.8515 2.79639H52.8525V26.6066H58.8515V2.79639Z" fill="#53606F"/>
<path d="M60.4277 26.5866H66.4471V18.0573L70.501 26.5866H77.0732L72.5484 17.1584L75.8652 10.287L82.1917 23.4705L78.056 31.9999H84.4439L95.4999 9.2683H89.0301L85.3243 16.8988L81.6799 9.28827H69.7639L66.4471 16.1597V2.79639H60.4277V26.5866Z" fill="#53606F"/>
<path d="M51.2968 2.79639H45.3184V8.40937H51.2968V2.79639Z" fill="#53606F"/>
<path d="M51.2968 9.26831H45.3184V26.5867H51.2968V9.26831Z" fill="#53606F"/>
</g>
<defs>
<clipPath id="clip0">
<rect width="95" height="32" fill="white" transform="translate(0.5)"/>
</clipPath>
</defs>
</svg>
