<svg width="119" height="80" viewBox="0 0 119 80" fill="none" xmlns="http://www.w3.org/2000/svg">
<g clip-path="url(#clip0)">
<path d="M49.7595 50.353L52.9317 24.4946L60.3711 36.9976L49.7595 50.353ZM100.873 21.7856H80.9523H72.4177L65.2426 30.8219L59.8046 21.7856H51.2701H47.4182H23.7782C20.3794 21.7856 17.3583 24.4567 16.8674 27.8856L16.3387 32.1479C16.0744 33.9666 16.5842 35.8041 17.736 37.1491C18.8878 38.4941 20.5682 39.2519 22.3809 39.2519H35.145L34.2764 44.8403C34.2576 44.8593 34.2198 44.8972 34.2009 44.9161H14.9415L14.2051 51.9822H34.2576C37.6563 51.9822 40.8662 49.3111 41.3571 45.8823L42.1879 39.2708C42.4523 37.4522 41.9425 35.6147 40.7907 34.2697C39.6389 32.9246 37.9584 32.1669 36.1457 32.1669H23.3816L23.7593 28.9085C23.7782 28.8896 23.8159 28.8517 23.8348 28.8328H44.8125L41.9802 51.9632H49.5329V51.9254H57.2178L64.0719 43.2301L69.2455 51.9254H77.9689L68.9812 36.9786L75.401 28.8328H98.8145C98.8333 28.8517 98.8711 28.8896 98.8711 28.9085L98.4746 32.1669H87.0511C85.2573 32.1669 83.3314 32.9246 81.8208 34.2697C80.2914 35.6147 79.2529 37.4333 78.9886 39.2708L78.1766 45.8444C77.6857 49.2543 79.7438 51.9632 83.1426 51.9632H103.289L104.007 44.8972H85.2196C85.2007 44.8782 85.1629 44.8403 85.1629 44.8214L86.0504 39.233H97.4739C99.2676 39.233 101.194 38.4563 102.704 37.1302C104.234 35.7852 105.272 33.9666 105.536 32.129L106.065 27.8666C106.537 24.4567 104.271 21.7856 100.873 21.7856Z" fill="#53606F"/>
<path d="M13.374 61.4349H43.4527L43.6982 58.1956H13.6195L13.374 61.4349Z" fill="#53606F"/>
<path d="M42.7734 61.4349H72.8333L73.0787 58.1956H43.0189L42.7734 61.4349Z" fill="#E2E2E2"/>
<path d="M71.9443 61.4349H102.004L102.25 58.1956H72.1709L71.9443 61.4349Z" fill="#53606F"/>
<path d="M51.9111 18.527L53.5539 6.09985L57.4246 12.1051L51.9111 18.527Z" fill="#53606F"/>
<path d="M50.7217 16.6327L46.209 6.89551L51.7602 9.45293L50.7217 16.6327Z" fill="#53606F"/>
<path d="M49.3632 16.5571L42.9434 12.4841L47.2295 11.8779L49.3632 16.5571Z" fill="#53606F"/>
<path d="M48.9835 17.826L43.3379 17.8829L45.9436 15.8369L48.9835 17.826Z" fill="#53606F"/>
</g>
<defs>
<clipPath id="clip0">
<rect width="117.728" height="80" fill="white" transform="translate(0.760742)"/>
</clipPath>
</defs>
</svg>
