<svg width="82" height="35" viewBox="0 0 82 35" fill="none" xmlns="http://www.w3.org/2000/svg">
<g clip-path="url(#clip0)">
<path d="M54.8326 31.5358V34.2659H27.4937V31.5358H54.8326ZM55.0538 31.3074H27.2725V34.4943H55.0483V31.3074H55.0538Z" fill="#53606F"/>
<path d="M27.9086 31.3074H0.132812V34.4943H27.9086V31.3074Z" fill="#53606F"/>
<path d="M81.9945 31.3074H54.2188V34.4943H81.9945V31.3074Z" fill="#53606F"/>
<path d="M19.5349 0.5H4.4855C1.62606 0.5 0 2.39619 0 6.04578V11.2603C0 15.1669 1.26103 16.332 4.4855 16.332H11.0948C12.3559 16.332 12.6213 16.5148 12.6213 17.3544V18.9593C12.6213 19.8331 12.3559 19.9816 11.0948 19.9816H3.25766C1.66478 19.9816 0.868339 19.5418 0.0663699 19.1078L0.763254 23.8482H15.3812C19.2694 23.8482 20.464 21.8035 20.464 18.1197V12.4311C20.464 9.03855 18.6057 7.72493 15.1489 7.72493H9.4024C8.14137 7.72493 7.84271 7.58214 7.84271 6.70259V5.38896C7.84271 4.54939 8.14137 4.36662 9.4024 4.36662H16.9464C18.5061 4.36662 19.2362 4.6579 20.2373 5.13195L19.5349 0.5ZM33.0909 23.8482C32.6927 22.9344 32.4272 22.0606 32.4272 19.8331V4.51512C32.4272 2.28767 32.6927 1.41382 33.0909 0.5H23.6553C24.0536 1.41382 24.319 2.28767 24.319 4.51512V19.8388C24.319 22.0663 24.0536 22.9401 23.6553 23.8539H33.0909V23.8482ZM46.647 3.27003C46.1824 2.57895 45.8837 1.77935 45.8837 0.5H33.9205C35.082 1.37385 35.4471 1.66513 36.8795 3.70981L43.7212 13.6362L37.7423 20.3814C35.9172 22.4604 35.3198 22.9344 34.2192 23.8482H40.4967C40.6294 22.8659 41.1272 22.0948 42.2223 20.8555L45.845 16.7718L48.1679 20.1986C49.2299 21.7693 49.429 22.0606 49.3958 23.8482H61.0271C59.8988 22.9744 59.2683 22.0263 58.3336 20.6384L51.4643 10.4207L57.1113 4.04107C58.2728 2.72745 59.4674 1.52234 60.8667 0.5H54.2574C54.1246 1.48807 53.6932 2.32765 52.5981 3.56703L49.2741 7.28515L46.647 3.27003Z" fill="#53606F"/>
<path d="M62.4598 0.5H77.5092C80.3686 0.5 81.9947 2.39619 81.9947 6.04577V11.2603C81.9947 15.1612 80.7336 16.332 77.5092 16.332H70.8998C69.6388 16.332 69.3733 16.5148 69.3733 17.3544V18.9593C69.3733 19.8331 69.6388 19.9816 70.8998 19.9816H78.7425C80.3354 19.9816 81.1319 19.5418 81.9338 19.1078L81.2369 23.8482H66.619C62.7308 23.8482 61.5361 21.8035 61.5361 18.1197V12.4311C61.5361 9.03855 63.3945 7.72493 66.8513 7.72493H72.5978C73.8588 7.72493 74.1575 7.57643 74.1575 6.70259V5.38896C74.1575 4.54939 73.8588 4.36662 72.5978 4.36662H65.0537C63.494 4.36662 62.764 4.6579 61.7629 5.13195L62.4598 0.5Z" fill="#53606F"/>
</g>
<defs>
<clipPath id="clip0">
<rect width="82" height="34" fill="white" transform="translate(0 0.5)"/>
</clipPath>
</defs>
</svg>
