<svg width="108" height="53" viewBox="0 0 108 53" fill="none" xmlns="http://www.w3.org/2000/svg">
<g clip-path="url(#clip0)">
<path fill-rule="evenodd" clip-rule="evenodd" d="M18.6836 34.518C18.8456 34.7355 18.7376 34.5724 18.8456 34.9529C19.3316 34.9529 20.1956 34.6268 20.6276 34.4637C22.3016 33.9744 32.1296 31.2021 32.6156 31.0391C33.2636 30.8216 37.7996 27.8862 39.2576 27.1252C39.7436 26.7991 40.2836 26.4729 40.7696 26.2555C42.6056 25.1139 44.9816 23.9724 46.7636 22.8309C46.9796 22.7765 47.2496 22.6134 47.4656 22.4503C48.9236 21.635 50.5976 20.7652 52.0556 20.0042L60.6416 15.5468C61.1816 15.275 61.6676 15.0575 62.1536 14.8401C62.6936 14.5139 63.1796 14.2965 63.7736 14.0247L68.5256 11.6873C71.2796 10.3283 71.9276 11.7416 74.2496 13.4811C75.4376 14.3509 76.6796 15.3293 77.8136 16.3078C78.2996 16.7426 78.7856 17.0144 79.2716 17.4493C79.7576 17.7755 80.1356 18.156 80.6216 18.4821C81.8096 19.4606 83.5916 20.8196 84.9956 21.798C87.3176 23.6462 89.6936 25.6032 92.1236 27.397C92.6096 27.7232 93.2576 28.1037 93.0956 28.9191C92.9336 29.7344 92.5016 30.0606 91.6376 30.0606L78.9476 30.0062C75.2216 30.0062 73.7636 30.876 70.6316 31.9632L66.9056 33.3221C66.2576 33.5396 65.7176 33.757 65.0696 33.9744C64.5296 34.1919 59.8856 35.9857 59.3996 35.9857C59.4536 36.2032 59.4536 36.2032 59.4536 36.5293C61.2356 36.5293 63.5036 36.2032 65.3396 36.2032C66.3656 36.2032 67.1756 36.0944 68.3096 36.0944C68.8496 36.0944 69.1196 36.0401 69.7676 36.0401L74.3036 35.9857C74.8436 35.9857 75.1676 35.877 75.8156 35.877L83.5916 35.8226C84.2396 35.8226 95.2556 35.9857 95.7956 36.0944L107.028 36.5293C107.352 36.5837 107.352 36.5837 107.73 36.5837C107.73 36.3662 107.838 36.3662 107.892 36.0944C107.568 35.8226 107.19 35.3878 106.866 35.0616L104.112 32.4524C103.95 32.235 103.788 32.1262 103.572 31.9632C102.546 30.9303 100.116 28.5385 99.3056 27.5601C97.9556 25.9293 95.9036 24.2985 94.5536 22.6134C94.3916 22.396 94.2296 22.2329 94.0136 22.0698C93.0416 21.037 92.0156 19.8955 91.0436 18.8083L90.9896 18.6452C90.7736 18.4821 90.6656 18.3191 90.4496 18.156C90.2336 17.8842 90.2336 17.8298 89.9636 17.558L87.3716 14.7314C87.0476 14.4052 86.7236 14.0247 86.3996 13.5898C86.2376 13.318 86.0756 13.2637 85.8596 12.9919C85.6976 12.8288 85.6436 12.6657 85.3736 12.4483C84.5636 11.6329 81.2696 7.71906 80.8376 7.22983C79.6496 5.59906 78.1916 4.07701 76.8956 2.5006L75.4376 0.706751C75.2756 0.489315 75.1136 0.21752 74.9516 0.0544434L67.4996 3.96829C66.1496 4.6206 63.2336 6.25137 61.9916 6.95803C59.6696 8.42572 57.1316 9.62162 54.8096 11.035L39.7976 20.1129C36.5576 22.1242 33.4796 24.2442 30.3476 26.3098C29.8076 26.7447 29.2136 27.1252 28.6736 27.4514C27.6476 28.2668 26.4056 28.9734 25.3796 29.7888C24.2456 30.6042 23.1116 31.3109 22.0856 32.1262L19.6016 33.8114C19.1696 34.0832 18.8996 34.355 18.6836 34.518Z" fill="#34495E"/>
<path fill-rule="evenodd" clip-rule="evenodd" d="M0 44.9006L10.908 42.7806L22.086 40.9324C26.298 40.2257 31.86 39.4104 36.234 38.8124L45.036 37.7796C45.36 37.7252 53.46 36.9098 53.784 36.7468C54.27 36.638 54.594 36.5293 54.972 36.3119L57.402 35.4965C58.914 34.8442 61.776 33.8114 63.396 33.3222L68.148 31.5283C69.606 30.9847 71.442 30.3868 72.9 29.8432C75.978 28.6473 79.434 27.5057 82.512 26.3642L84.996 25.4945C84.834 25.277 84.942 25.277 84.942 24.9509C83.916 24.9509 79.866 23.6463 78.894 23.755C77.436 23.8093 75.006 24.2442 73.656 24.4073C69.714 24.9509 65.826 25.6032 61.992 26.2555C54.162 27.5601 44.388 29.517 36.774 31.3109C30.456 32.6155 24.192 34.1919 17.928 35.877C14.958 36.8011 11.88 37.6165 8.91 38.595C8.586 38.6493 8.478 38.595 8.262 38.758L6.75 39.7909L5.778 40.4975C4.482 41.3673 1.89 42.998 0.756 43.9222C0 44.4114 0 44.2483 0 44.9006Z" fill="#34495E"/>
<path fill-rule="evenodd" clip-rule="evenodd" d="M86.7239 44.7374L85.5899 43.759C84.9419 43.2154 82.5119 41.639 81.8099 41.1497C81.5939 40.9867 81.4319 40.9323 81.1619 40.7149C79.7039 39.8451 80.1359 39.8451 78.8939 39.8451H74.6279V46.9118H78.6779C78.6779 45.6072 78.7319 42.8349 78.5159 41.6933L80.9459 43.5415L85.4819 46.5313C85.6979 46.6944 85.8059 46.8574 86.1839 46.8574H90.5579V39.7908H86.5079C86.5079 40.4974 86.5079 42.6174 86.5619 43.5415C86.5619 43.9221 86.7239 44.2482 86.7239 44.7374Z" fill="#34495E"/>
<path fill-rule="evenodd" clip-rule="evenodd" d="M49.1396 46.9661H53.5136C53.5136 44.3025 53.0816 44.8461 54.6476 44.1394C55.2956 43.922 55.0256 43.922 55.9436 44.4656L57.0776 45.1722C57.5096 45.4984 57.7796 45.6615 58.2116 45.9876C60.0476 47.1291 59.3996 46.9661 61.0196 46.9661H64.7996C64.6376 46.803 64.2596 46.5856 63.9896 46.4768C63.7736 46.205 63.5036 46.042 63.1796 45.8789L61.5596 44.9004C61.1816 44.7374 58.3196 42.9435 58.2656 42.8891C58.9676 42.5086 60.5876 41.8563 61.3976 41.4215C61.7216 41.204 64.3136 40.0625 64.4756 39.8994C63.7736 39.8994 59.7236 39.845 59.2376 39.8994C58.9136 39.8994 55.9976 41.5845 55.7816 41.6932C55.5656 41.8563 53.6756 42.8891 53.5136 42.8891V39.8994H49.1396V46.9661Z" fill="#34495E"/>
<path fill-rule="evenodd" clip-rule="evenodd" d="M93.798 40.9866C93.798 41.3127 94.284 41.2584 94.608 41.2584H101.952L101.844 41.3127L98.604 42.9979C98.172 43.161 97.956 43.4327 97.47 43.5415L94.176 45.3353C93.96 45.4984 93.204 45.9333 93.042 45.9333V46.9117H107.838V45.5527H98.928C99.09 45.3897 102.978 43.3784 103.788 42.8892L106.596 41.4215C106.812 41.3671 107.46 40.9322 107.73 40.8779V39.8994H93.744V40.9866" fill="#34495E"/>
<path fill-rule="evenodd" clip-rule="evenodd" d="M33.372 41.7477C33.372 42.6174 34.182 42.9436 34.884 43.2154C37.26 44.0308 40.284 44.0851 41.472 44.5743C42.012 44.8461 42.012 45.2266 40.932 45.4441C39.582 45.7702 36.396 45.6072 35.046 45.3354C34.722 45.3354 34.344 45.1723 34.02 45.1723C33.966 45.5528 33.372 46.1508 33.21 46.5313C33.588 46.6943 35.154 46.8031 35.802 46.8574C36.126 46.9661 36.342 46.9661 36.774 46.9661C39.042 47.1292 40.986 46.9661 43.254 46.64C44.118 46.5313 46.386 45.9333 46.386 44.7918C46.386 43.9764 45.522 43.6502 44.874 43.4328C43.2 42.7805 40.662 42.7261 38.826 42.2369C38.34 42.1282 37.476 41.802 38.286 41.4215C38.448 41.3672 38.502 41.2584 38.664 41.2584C40.176 40.9323 43.092 41.0954 44.658 41.4215C44.982 40.8779 45.522 40.4431 45.63 40.0625L43.038 39.8451C41.256 39.682 37.962 39.7908 36.234 40.1713C35.262 40.28 33.372 40.8236 33.372 41.7477Z" fill="#34495E"/>
<path fill-rule="evenodd" clip-rule="evenodd" d="M66.6359 40.2256V46.9661H71.0099V39.8994H66.6359C66.5279 40.2256 66.6359 39.8994 66.6359 40.2256Z" fill="#34495E"/>
<path fill-rule="evenodd" clip-rule="evenodd" d="M46.6561 53H46.2241C44.8741 53 43.5781 51.8585 43.5781 50.4995C43.5781 50.1734 43.7401 49.5211 43.9021 49.3036C44.3881 48.3252 45.5221 47.8359 46.7101 47.8359C50.1121 47.8359 50.4361 51.0975 48.9781 52.2934C48.1681 52.8913 47.5201 53 46.6561 53ZM46.9801 52.4021C46.3321 52.4021 46.1701 52.4564 45.6301 52.1847C45.4681 52.1303 45.2521 51.9672 45.0901 51.8041C44.1181 50.6626 44.6041 48.3795 46.7641 48.3795C49.6261 48.3252 49.3021 52.4021 46.9801 52.4021Z" fill="#34495E"/>
<path fill-rule="evenodd" clip-rule="evenodd" d="M85.752 50.3907C85.752 51.2605 86.184 52.0215 86.724 52.3476C87.372 52.8369 88.182 52.9999 88.992 52.9999H89.3159C90.0179 52.9999 90.774 52.9456 91.3139 52.7825V50.282H89.0999V50.9343H90.3959C90.3959 52.6194 90.7199 52.4564 88.9379 52.4564C88.4519 52.4564 87.8039 52.1302 87.4799 51.9128C86.13 50.9343 86.67 48.4881 89.0999 48.4881C89.6939 48.4881 90.3959 48.4881 90.8819 48.7599C90.9899 48.4881 91.0979 48.3794 91.2059 48.1076C90.3959 47.7815 88.452 47.8902 87.642 48.162C86.67 48.3251 85.752 49.2492 85.752 50.3907Z" fill="#34495E"/>
<path fill-rule="evenodd" clip-rule="evenodd" d="M38.6641 47.9447V52.8914C38.9881 52.8914 39.1501 52.9457 39.5281 52.9457C39.5821 52.4021 39.5281 51.4237 39.5281 50.7714H40.5001C41.7961 50.7714 41.5261 52.1303 42.1201 52.8914H42.9841L42.4981 51.5867C42.4441 51.0975 42.1741 50.717 41.6881 50.6083V50.4452C42.4981 50.3908 43.4701 48.9232 42.0661 48.1621C41.1481 47.6185 39.6361 47.9447 38.6641 47.9447ZM40.8241 50.2278H39.5281V48.4339C39.9601 48.4339 41.5261 48.1078 41.7961 49.0862C42.0121 49.7929 41.0401 50.2278 40.8241 50.2278Z" fill="#34495E"/>
<path fill-rule="evenodd" clip-rule="evenodd" d="M103.626 47.9446V52.8913H104.49V50.7713C105.462 50.7713 106.164 50.6082 106.488 51.478C106.704 52.0216 106.812 52.4564 107.028 52.8369H107.892L107.406 51.5323C107.352 51.0431 107.082 50.6626 106.596 50.5539V50.3908C107.622 50.119 108.216 48.8687 107.082 48.1077C106.164 47.6185 104.706 47.9446 103.626 47.9446ZM105.732 50.2277H104.544V48.4339C104.868 48.4339 106.866 48.1077 106.866 49.3036C106.866 49.7928 106.218 50.2277 105.732 50.2277Z" fill="#34495E"/>
<path fill-rule="evenodd" clip-rule="evenodd" d="M96.9844 52.8914H97.9564C98.0104 52.7283 98.4964 51.5868 98.6044 51.3694H101.034C101.034 51.5868 101.196 51.913 101.25 52.1847L101.682 52.8914H102.654C102.654 52.7283 101.142 49.4668 100.98 49.0863C100.764 48.6514 100.548 48.2709 100.332 47.8904H99.3064L98.7664 49.0863C98.4424 49.6299 97.0924 52.674 96.9844 52.8914ZM99.7384 48.6514C99.9004 48.7601 99.9544 49.1406 100.224 49.6299C100.386 49.956 100.656 50.4996 100.71 50.7714H98.8744C98.9284 50.4453 99.5764 49.4124 99.7384 48.6514Z" fill="#34495E"/>
<path fill-rule="evenodd" clip-rule="evenodd" d="M79.0557 48.1621C79.0557 48.6513 79.0557 52.6195 79.1637 52.7826C79.1637 52.9457 79.2177 52.9457 79.3257 52.9457H82.7817C82.9977 52.9457 82.9437 52.7826 82.9437 52.2934H80.1357V50.6082H82.7277V49.9559H80.1357V48.6513C80.1357 48.4882 79.9737 48.3795 80.2437 48.3795H82.8357V47.8359H79.3797C79.1637 47.8359 79.0557 47.7816 79.0557 48.1621Z" fill="#34495E"/>
<path fill-rule="evenodd" clip-rule="evenodd" d="M92.7178 52.8913H96.4438V52.3477H93.5278V50.6625H96.1198V50.0102H93.5278V48.4882H96.2818V47.9446H92.7178C92.5018 47.9446 92.5558 48.1077 92.5558 48.5969V52.5107C92.5558 52.6738 92.5018 52.8913 92.7178 52.8913Z" fill="#34495E"/>
<path fill-rule="evenodd" clip-rule="evenodd" d="M55.458 48.162V52.7282C55.458 52.8912 55.512 52.8913 55.674 52.8913H59.292V52.3477H56.484V50.6625H59.076V50.0102H56.484C56.484 48.162 55.998 48.4882 58.428 48.4882H59.238V47.9446H55.512C55.512 47.9989 55.458 47.9989 55.458 48.162Z" fill="#34495E"/>
<path fill-rule="evenodd" clip-rule="evenodd" d="M33.3184 47.9446V52.8913H34.1824V50.9343C34.6684 51.0974 35.9644 50.88 36.2884 50.7712C37.2604 50.3364 37.4764 49.9559 37.4764 49.0861C37.4764 48.3795 36.2884 47.8902 35.5324 47.8902H34.1824C33.8044 47.8359 33.6964 47.9446 33.3184 47.9446ZM34.9384 50.3907C34.0744 50.3907 34.2364 50.7169 34.2364 48.4338C34.9384 48.4338 36.5584 48.1077 36.5584 49.4123C36.5584 49.7384 36.3964 49.9015 36.2344 50.0646C35.9104 50.282 35.4244 50.3907 34.9384 50.3907Z" fill="#34495E"/>
<path fill-rule="evenodd" clip-rule="evenodd" d="M75.0064 52.8912H76.0324C76.1944 52.402 78.3544 48.3251 78.3544 47.8359H77.3824C77.3824 47.9989 77.2744 48.0533 77.2204 48.3251L76.5184 49.9559L76.3024 50.4451C76.1404 50.6082 76.1404 50.7712 76.0864 50.9887C75.9244 51.3148 75.7084 51.6953 75.6004 52.0215C75.3844 51.5866 74.0884 47.7815 73.6564 47.7815H72.9004C72.9004 48.1076 73.7644 49.9015 73.9264 50.282C73.9804 50.4994 74.0884 50.7169 74.1424 50.9343L75.0064 52.8912Z" fill="#34495E"/>
<path fill-rule="evenodd" clip-rule="evenodd" d="M59.9941 50.4452C59.9941 51.9672 61.5061 52.9457 62.9641 52.9457H63.7741C64.2601 52.9457 64.8001 52.9457 65.1241 52.7826C65.1241 52.5652 65.0161 52.2934 64.9621 52.1303C63.9361 52.3477 62.5321 52.5652 61.6681 51.8042C60.5341 50.9344 60.6961 48.3252 63.6121 48.3252C64.1521 48.3252 64.5841 48.4883 64.9621 48.5426C65.0161 48.3795 65.1241 48.1077 65.1781 47.999C64.0441 47.3467 59.9941 47.6729 59.9941 50.4452Z" fill="#34495E"/>
<path fill-rule="evenodd" clip-rule="evenodd" d="M49.7881 48.2708C49.7881 48.4339 49.8961 48.4882 50.0041 48.4882H51.8401V52.7826C51.8401 52.837 51.8941 52.9457 52.0021 52.9457H52.4341C52.5961 52.9457 52.7581 52.9457 52.7581 52.8913V48.4882H54.7021C54.9181 48.4882 54.9181 47.8359 54.7021 47.8359H49.7881V48.2708Z" fill="#34495E"/>
<path fill-rule="evenodd" clip-rule="evenodd" d="M65.5016 48.4882H67.4996V52.8913H68.3636V48.4882H70.1996C70.5236 48.4882 70.4155 48.3252 70.4155 47.8359H65.3936V48.4882" fill="#34495E"/>
<path fill-rule="evenodd" clip-rule="evenodd" d="M71.1182 47.999V52.8913H72.1442V47.999C72.1442 47.7815 71.9282 47.8359 71.3342 47.8359C71.2262 47.8359 71.1182 47.8359 71.1182 47.999Z" fill="#34495E"/>
</g>
<defs>
<clipPath id="clip0">
<rect width="108" height="53" fill="white"/>
</clipPath>
</defs>
</svg>
