<svg width="132" height="34" viewBox="0 0 132 34" fill="none" xmlns="http://www.w3.org/2000/svg">
<path d="M21.6368 28.426H22.3869V33.9301H21.5654V29.6453L19.8511 31.7703H19.7082L17.9582 29.6453V33.9301H17.1367V28.426H17.8867L19.7439 30.6904L21.6368 28.426Z" fill="#53606F"/>
<path d="M29.5306 28.3916H30.1021L32.6378 33.9305H31.8164L31.0664 32.2932H28.6734L27.9591 33.9305H27.1377L29.5306 28.3916ZM30.7092 31.5965L29.8163 29.6109L28.9592 31.5965H30.7092Z" fill="#53606F"/>
<path d="M37.3877 33.8957V28.3916H38.8163C39.3877 28.3916 39.852 28.5309 40.1735 28.8096C40.4949 29.0883 40.6735 29.4715 40.6735 29.9244C40.6735 30.2379 40.6021 30.5166 40.4235 30.7604C40.2449 31.0043 40.0306 31.1785 39.7092 31.283C39.8878 31.3875 40.0663 31.5617 40.2449 31.7707C40.4235 31.9797 40.6735 32.328 40.9592 32.8157C41.1378 33.1293 41.3164 33.3731 41.4235 33.5125L41.7092 33.8957H40.7449L40.4949 33.5473C40.4949 33.5473 40.4592 33.5125 40.4592 33.4776L40.3163 33.2686L40.0663 32.8506L39.7806 32.4326C39.602 32.2235 39.4592 32.0145 39.3163 31.91C39.1735 31.7707 39.0663 31.6662 38.9234 31.6313C38.8163 31.5617 38.6377 31.5268 38.352 31.5268H38.1377V33.9305H37.3877V33.8957ZM38.4234 29.0883H38.1734V30.8301H38.4949C38.8877 30.8301 39.1735 30.7953 39.352 30.7256C39.5306 30.6559 39.6378 30.5514 39.7092 30.4121C39.7806 30.2727 39.852 30.1334 39.852 29.9592C39.852 29.785 39.8163 29.6457 39.7092 29.5064C39.602 29.367 39.4949 29.2625 39.3163 29.1928C39.102 29.1232 38.8163 29.0883 38.4234 29.0883Z" fill="#53606F"/>
<path d="M46.459 28.426H47.2804V33.9301H46.459V28.426Z" fill="#53606F"/>
<path d="M57.1377 28.426H57.8877V33.9301H57.2091L53.459 29.715V33.9301H52.709V28.426H53.3519L57.1377 32.676V28.426Z" fill="#53606F"/>
<path d="M63.2447 28.426H66.4234V29.1227H64.0304V30.7949H66.3519V31.4916H64.0304V33.1985H66.4948V33.8953H63.209V28.426H63.2447Z" fill="#53606F"/>
<path d="M77.8877 33.8957V28.3916H79.6735C80.2092 28.3916 80.6378 28.5309 80.9592 28.8096C81.2806 29.0883 81.4235 29.4715 81.4235 29.9592C81.4235 30.2727 81.3521 30.5514 81.1735 30.7953C80.9949 31.0391 80.7806 31.2133 80.4949 31.3178C80.2092 31.4223 79.8163 31.492 79.2806 31.492H78.6734V33.8608H77.8877V33.8957ZM79.5306 29.1232H78.7091V30.8301H79.602C79.9235 30.8301 80.1735 30.7604 80.3521 30.6211C80.5306 30.4818 80.6021 30.2379 80.6021 29.9592C80.6021 29.4018 80.2449 29.1232 79.5306 29.1232Z" fill="#53606F"/>
<path d="M87.388 28.3916H87.9595L90.4953 33.9305H89.6738L88.9238 32.2932H86.5309L85.8166 33.9305H84.9951L87.388 28.3916ZM88.5666 31.5965L87.6738 29.6109L86.8166 31.5965H88.5666Z" fill="#53606F"/>
<path d="M95.2451 33.8957V28.3916H96.6737C97.2452 28.3916 97.7095 28.5309 98.0309 28.8096C98.3524 29.0883 98.5309 29.4715 98.5309 29.9244C98.5309 30.2379 98.4595 30.5166 98.2809 30.7604C98.1023 31.0043 97.8881 31.1785 97.5666 31.283C97.7452 31.3875 97.9238 31.5617 98.1023 31.7707C98.2809 31.9797 98.5309 32.328 98.8166 32.8157C98.9952 33.1293 99.1738 33.3731 99.281 33.5125L99.5667 33.8957H98.6024L98.3524 33.5473C98.3524 33.5473 98.3166 33.5125 98.3166 33.4776L98.1738 33.2686L97.9238 32.8506L97.638 32.4326C97.4595 32.2235 97.3166 32.0145 97.1738 31.91C97.0309 31.7707 96.9237 31.6662 96.7809 31.6313C96.6737 31.5617 96.4952 31.5268 96.2094 31.5268H95.9951V33.9305H95.2451V33.8957ZM96.3166 29.0883H96.0666V30.8301H96.388C96.7809 30.8301 97.0666 30.7953 97.2452 30.7256C97.388 30.6559 97.5309 30.5514 97.6023 30.4121C97.6738 30.2727 97.7452 30.1334 97.7452 29.9592C97.7452 29.785 97.7095 29.6457 97.6023 29.5064C97.4952 29.367 97.388 29.2625 97.2095 29.1928C96.9952 29.1232 96.7094 29.0883 96.3166 29.0883Z" fill="#53606F"/>
<path d="M103.139 28.426H107.854V29.1227H105.854V33.9301H105.032V29.1227H103.104V28.426H103.139Z" fill="#53606F"/>
<path d="M114.103 31.5962L113.496 31.2478C113.103 31.004 112.853 30.7949 112.675 30.5859C112.496 30.3769 112.425 30.0982 112.425 29.8195C112.425 29.4015 112.568 29.0183 112.889 28.7745C113.211 28.4958 113.603 28.3564 114.103 28.3564C114.568 28.3564 114.996 28.4958 115.389 28.7396V29.6454C114.996 29.2622 114.532 29.088 114.068 29.088C113.818 29.088 113.603 29.1577 113.425 29.2622C113.246 29.3667 113.175 29.5409 113.175 29.715C113.175 29.8892 113.246 30.0286 113.353 30.1679C113.461 30.3072 113.675 30.4466 113.961 30.6208L114.568 30.9691C115.246 31.3523 115.603 31.8749 115.603 32.5019C115.603 32.9548 115.461 33.3031 115.139 33.5818C114.853 33.8605 114.461 33.9998 113.961 33.9998C113.389 33.9998 112.889 33.8257 112.425 33.5121V32.5019C112.853 33.0244 113.353 33.3031 113.925 33.3031C114.175 33.3031 114.389 33.2334 114.568 33.0941C114.746 32.9548 114.818 32.7806 114.818 32.5716C114.853 32.2232 114.603 31.9097 114.103 31.5962Z" fill="#53606F"/>
<path d="M39.8163 21.0755C39.8163 21.5284 39.6021 21.807 39.2092 21.9464C38.8878 22.0509 38.0306 22.0857 36.6734 22.0857C35.352 22.0857 34.3876 22.0161 33.7805 21.9464C33.4948 21.9115 33.3162 21.8419 33.209 21.7722C33.1019 21.7025 32.9947 21.5632 32.8519 21.3193C32.0662 19.9259 31.2804 18.5325 30.5304 17.139C29.2447 14.8747 28.4946 13.6555 28.2446 13.4116C27.1017 13.8296 26.5303 14.1083 26.5303 14.2825C26.5303 15.0489 26.566 16.2333 26.6374 17.8358C26.7089 19.4034 26.7446 20.5878 26.7446 21.389C26.7446 21.7025 26.6017 21.9115 26.316 21.9464C25.7446 22.0161 24.7445 22.0857 23.3159 22.0857C21.923 22.0857 20.9944 22.0509 20.5659 21.9464C20.2444 21.8767 20.1016 21.7374 20.1016 21.4587C20.1016 20.3439 20.173 18.637 20.2801 16.3727C20.3873 14.1083 20.4587 12.4014 20.4587 11.2518C20.4587 10.0325 20.3873 8.22108 20.3159 5.81741C20.2087 3.37891 20.173 1.56744 20.173 0.383026C20.173 0.139175 20.2801 0.034668 20.4944 0.034668C20.8159 0.034668 21.3159 0.0346701 21.9945 0.0695059C22.6731 0.104342 23.1731 0.104344 23.4945 0.104344C23.8517 0.104344 24.3517 0.104342 25.0303 0.0695059C25.7088 0.0346701 26.2089 0.034668 26.5303 0.034668C26.7089 0.034668 26.816 0.139182 26.816 0.313361C26.816 1.07975 26.7803 2.26417 26.7089 3.79694C26.6374 5.36455 26.6017 6.51413 26.6017 7.28052C26.6017 8.18625 26.8517 8.63911 27.3517 8.63911C28.6375 8.63911 29.6018 8.29076 30.3161 7.62888C30.8518 7.14118 31.3518 6.2006 31.8876 4.87684C32.2447 3.8666 32.7805 2.36867 33.5662 0.417864C33.6733 0.174013 33.9233 0.034668 34.2805 0.034668C34.5662 0.034668 34.9948 0.0346701 35.5305 0.0695059C36.102 0.104342 36.4948 0.104344 36.7806 0.104344C37.0663 0.104344 37.4949 0.104342 38.0663 0.0695059C38.6377 0.0346701 39.0663 0.034668 39.3521 0.034668C39.6021 0.034668 39.7449 0.139175 39.7449 0.383026C39.7449 0.731384 39.5306 1.56745 39.0663 2.89121C37.7449 6.82765 36.2091 9.30099 34.4948 10.2764C34.1376 10.4854 33.9591 10.6248 33.9591 10.7641C33.9591 10.7641 34.9591 12.3317 36.9234 15.4669C38.8163 18.6022 39.8163 20.4833 39.8163 21.0755Z" fill="#53606F"/>
<path d="M48.1732 10.4159C48.1732 11.6352 48.2089 13.4815 48.2803 15.9548C48.3517 18.4281 48.3875 20.2744 48.3875 21.4937C48.3875 21.7027 48.3517 21.8421 48.2446 21.8769C48.2089 21.8769 48.1017 21.9117 47.816 21.9466C47.1374 22.0162 46.2088 22.0859 45.0302 22.0859C43.4588 22.0859 42.4587 22.0511 42.0659 21.9466C41.7444 21.8769 41.6016 21.7375 41.6016 21.4589C41.6016 21.633 41.6373 20.6925 41.7444 18.7068C41.923 14.4917 42.0301 11.7048 42.0301 10.3811C42.0301 9.26633 41.9944 7.59421 41.923 5.36472C41.8516 3.13523 41.8159 1.4631 41.8159 0.348358C41.8159 0.104507 41.923 0 42.173 0C42.4944 0 42.9945 2.12569e-06 43.673 0.0348379C44.3516 0.0696737 44.8516 0.0696759 45.1731 0.0696759C45.4945 0.0696759 45.9945 0.0696737 46.6374 0.0348379C47.2803 2.12569e-06 47.7803 0 48.1017 0C48.4232 0 48.566 0.104507 48.566 0.348358C48.566 1.4631 48.4946 3.13523 48.3875 5.36472C48.2089 7.62905 48.1732 9.30117 48.1732 10.4159Z" fill="#53606F"/>
<path d="M70.6382 8.39543C70.6382 10.9036 69.9596 12.9589 68.6025 14.5265C67.1381 16.1987 65.1381 16.9999 62.6023 16.9999C62.1737 16.9999 61.5309 16.965 60.6737 16.9302C59.8165 16.8954 59.1737 16.8605 58.7451 16.8605C58.2808 16.8605 58.0665 17.0696 58.0665 17.4527C58.0665 17.9404 58.1022 18.6372 58.2093 19.5777C58.3165 20.5183 58.3522 21.2499 58.3522 21.7027C58.3522 21.9466 58.2451 22.0511 58.0308 22.0511C57.3879 22.0511 56.3879 22.0162 55.1021 21.9814C53.7807 21.9466 52.8163 21.9117 52.1735 21.9117C51.852 21.9117 51.7092 21.7724 51.7092 21.4589C51.7092 20.3093 51.7449 18.5675 51.7806 16.2335C51.8163 13.8995 51.852 12.1925 51.852 11.0081C51.852 7.73355 51.7092 4.28481 51.4235 0.696716V0.48771C51.3877 0.278695 51.5663 0.174188 51.8877 0.139352C52.7092 0.0348443 54.5664 0 57.3879 0C59.0665 0 60.6737 0.0348401 62.2094 0.0696759C64.7452 0.139348 66.781 0.90574 68.3167 2.40368C69.8525 3.93646 70.6382 5.95693 70.6382 8.39543ZM64.2452 8.63929C64.2452 6.20078 63.0309 4.98153 60.6023 4.98153C58.8879 4.98153 57.995 5.08603 57.9236 5.26021C57.8522 5.39955 57.8165 6.58397 57.8165 8.88313C57.8165 9.19666 57.8165 9.68436 57.8522 10.3114C57.8879 10.9384 57.8879 11.4262 57.8879 11.7397C57.8879 11.9487 58.8522 12.0532 60.7808 12.0532C63.0666 12.088 64.2452 10.9385 64.2452 8.63929Z" fill="#53606F"/>
<path d="M92.0318 8.39543C92.0318 10.9036 91.3532 12.9589 89.996 14.5265C88.5317 16.1987 86.5316 16.9999 83.9959 16.9999C83.5673 16.9999 82.9244 16.965 82.0672 16.9302C81.2101 16.8954 80.5672 16.8605 80.1386 16.8605C79.6743 16.8605 79.46 17.0696 79.46 17.4527C79.46 17.9404 79.4958 18.6372 79.6029 19.5777C79.71 20.5183 79.7458 21.2499 79.7458 21.7027C79.7458 21.9466 79.6386 22.0511 79.4243 22.0511C78.7814 22.0511 77.7814 22.0162 76.4957 21.9814C75.1742 21.9466 74.2099 21.9117 73.567 21.9117C73.2456 21.9117 73.1027 21.7724 73.1027 21.4589C73.1027 20.3093 73.1384 18.5675 73.1742 16.2335C73.2099 13.8995 73.2456 12.1925 73.2456 11.0081C73.2456 7.73355 73.1027 4.28481 72.817 0.696716V0.48771C72.7813 0.278695 72.9599 0.174188 73.2813 0.139352C74.1028 0.0348443 75.9599 0 78.7814 0C80.4601 0 82.0672 0.0348401 83.603 0.0696759C86.1388 0.139348 88.1745 0.90574 89.7103 2.40368C91.2461 3.93646 92.0318 5.95693 92.0318 8.39543ZM85.6388 8.63929C85.6388 6.20078 84.4244 4.98153 81.9958 4.98153C80.2815 4.98153 79.3886 5.08603 79.3172 5.26021C79.2457 5.39955 79.21 6.58397 79.21 8.88313C79.21 9.19666 79.21 9.68436 79.2457 10.3114C79.2815 10.9384 79.2815 11.4262 79.2815 11.7397C79.2815 11.9487 80.2458 12.0532 82.1744 12.0532C84.4602 12.088 85.6388 10.9385 85.6388 8.63929Z" fill="#53606F"/>
<path d="M131.89 21.8768C131.89 21.9465 131.783 22.0161 131.568 22.0161C131.176 22.0858 130.14 22.1206 128.497 22.1206C127.104 22.1206 126.14 22.0858 125.64 22.0161C125.39 21.9813 125.283 21.9465 125.247 21.9465C125.175 21.9116 125.104 21.8071 125.033 21.6329C124.89 21.2149 124.64 20.6227 124.318 19.8215C123.89 18.7764 123.247 17.2436 122.354 15.2232C122.175 14.8051 121.711 14.5961 121.032 14.5613C121.354 14.5961 120.818 14.5961 119.39 14.5961C119.247 14.5961 119.14 14.8748 119.14 15.3973C119.14 16.0941 119.211 17.174 119.354 18.5674C119.497 19.9608 119.568 21.0407 119.568 21.7375C119.568 21.9116 119.532 22.0161 119.425 22.051C119.282 22.051 119.14 22.0858 118.961 22.0858C118.318 22.1207 117.354 22.1555 115.997 22.1555C114.461 22.1555 113.532 22.1207 113.247 22.051C112.925 21.9813 112.782 21.842 112.782 21.5633C112.782 20.4137 112.854 18.6719 112.961 16.3727C113.068 14.0736 113.139 12.3318 113.139 11.1822C113.139 6.75806 113.032 3.34414 112.818 0.8708V0.661793C112.818 0.487614 112.961 0.348271 113.318 0.313435C113.675 0.243763 115.282 0.174092 118.211 0.139256C120.175 0.10442 121.747 0.0695801 122.925 0.0695801C125.354 0.0695801 127.354 0.59212 128.89 1.67203C130.64 2.89128 131.497 4.63307 131.497 6.8974C131.497 8.43018 131.283 9.64943 130.818 10.5552C130.354 11.4609 129.533 12.3318 128.318 13.2027C128.068 13.3769 127.961 13.5162 127.961 13.6555C127.961 13.6555 128.604 14.9445 129.926 17.592C131.247 20.135 131.89 21.5981 131.89 21.8768ZM125.14 7.83796C125.14 6.58387 124.711 5.67815 123.854 5.19045C123.175 4.80726 122.14 4.63307 120.747 4.63307C119.747 4.63307 119.175 4.77241 119.14 5.08594C119.068 5.43429 119.032 6.44454 119.032 8.15149C119.032 8.39534 119.032 8.74369 119.032 9.2314C119.032 9.68426 119.032 10.0326 119.032 10.2765C119.032 10.3113 119.211 10.381 119.532 10.4158C120.175 10.5203 120.854 10.5552 121.568 10.5552C123.997 10.5552 125.14 9.64943 125.14 7.83796Z" fill="#53606F"/>
<path d="M109.639 22.1554C109.532 22.1554 107.675 22.0509 105.925 21.9813C104.889 21.9464 103.604 21.9464 102.032 21.9464C101.211 21.9464 99.9964 21.9464 98.3535 21.9464C96.7463 21.9464 95.4963 21.9464 94.7105 21.9464C94.3534 21.9464 94.1748 21.8071 94.1748 21.4936C94.1748 20.3091 94.2462 18.5673 94.3891 16.2333C94.532 13.8994 94.6034 12.1227 94.6034 10.9731C94.6034 9.78873 94.532 7.55924 94.4248 4.31952C94.3891 3.48346 94.3177 2.22936 94.2462 0.592082V0.383065C94.2105 0.139215 94.3534 0.0347074 94.6391 0.0347074C95.4248 0.0347074 96.6034 0.0695474 98.2106 0.104383C99.7821 0.139219 100.996 0.174048 101.782 0.174048C102.568 0.174048 103.746 0.139219 105.318 0.104383C106.889 0.0695474 108.354 0.0347074 109.139 0.0347074C110.104 0.0347074 110.568 -0.03496 109.889 1.14946C108.925 2.85641 106.497 6.75802 106.104 6.75802C105.711 6.75802 105.925 4.87688 105.247 4.87688C104.318 4.87688 102.211 4.91172 101.354 4.91172C100.782 4.91172 100.746 5.29492 100.746 6.89736C100.746 7.17605 100.818 7.69858 100.854 7.9076C101.032 9.02234 103.282 9.09201 103.461 9.09201C104.032 9.09201 103.568 7.24572 103.996 7.24572C104.354 7.24572 107.675 10.3809 107.675 10.9383C107.675 11.5654 104.568 14.9444 103.961 14.9444C103.675 14.9444 104.032 13.133 103.461 13.133C102.782 13.133 100.854 12.8543 100.746 14.2477C100.746 14.6309 100.746 14.5961 100.746 15.1883C100.746 15.9895 100.639 16.6862 100.889 17.1391C101.139 17.6616 104.925 17.4874 105.211 17.4874C105.782 17.4874 105.675 15.2231 106.068 15.2231C106.425 15.2231 108.604 19.0899 109.532 20.6923C110.389 22.1206 110.318 22.1554 109.639 22.1554Z" fill="#53606F"/>
<path d="M16.994 14.7701C16.7797 13.9341 16.3154 13.2025 15.744 12.5406C15.1726 11.8787 14.494 11.2517 13.8154 10.7292C13.1011 10.1718 12.3511 9.64925 11.6367 9.12672C11.0653 8.70869 10.4939 8.29066 9.99385 7.80296C9.52955 7.35009 8.92239 6.65337 9.31526 5.99149C9.67241 5.39929 10.5296 5.19027 11.2082 5.15544C11.9225 5.08577 12.7439 5.1206 13.6368 5.25994C14.744 5.43412 15.8154 5.67797 16.244 5.78248C16.6012 5.85215 16.9583 5.74765 16.994 5.36445C17.0297 5.05093 16.9226 4.73741 16.8869 4.42388C16.7797 3.69233 16.6726 2.92595 16.6726 2.1944C16.6726 2.05505 16.6726 1.9157 16.6726 1.74152C16.6726 1.53251 16.7083 1.28866 16.6369 1.07965C16.5297 0.696452 16.1369 0.626783 15.7797 0.591947C13.9939 0.313261 12.1725 0.104248 10.3867 0.104248C8.56524 0.104248 6.67234 0.313263 5.02944 1.14932C3.5294 1.91571 2.3508 3.1698 1.92222 4.77224C1.70792 5.64314 1.67221 6.54887 1.92222 7.41976C2.13651 8.22099 2.6008 8.95253 3.13653 9.57958C3.92227 10.4505 4.85086 11.1472 5.74374 11.8787C6.38661 12.4013 7.02949 12.9238 7.67236 13.4464C7.95808 13.6902 8.2438 13.8992 8.52953 14.1431C8.85096 14.3869 9.1724 14.6656 9.38669 14.9791C9.81527 15.5713 9.81527 16.059 9.1724 16.4771C8.56524 16.8603 7.70808 16.8254 6.99377 16.8603C5.27944 16.8951 3.60083 16.5816 1.99365 16.1636C1.70792 15.9894 1.20791 15.9197 0.957905 16.2681C0.743614 16.5467 0.886475 17.0693 0.957905 17.3828C1.06505 18.1144 1.1722 18.8459 1.20791 19.5775C1.20791 19.8213 1.20791 20.1 1.20791 20.3438C1.20791 20.6922 1.20791 21.1102 1.49363 21.3192C1.63649 21.4238 1.85078 21.4586 2.02936 21.4586C2.27937 21.4934 2.52937 21.5283 2.77938 21.5631C3.24368 21.6328 3.67226 21.7024 4.13656 21.7721C5.67231 21.9811 7.20806 22.1205 8.77953 22.0508C10.5653 21.9811 12.3511 21.7024 13.9225 20.8315C15.3868 20.0303 16.5297 18.7762 16.9583 17.1738C17.1369 16.4074 17.2083 15.5365 16.994 14.7701C17.0655 15.0836 16.9226 14.4218 16.994 14.7701Z" fill="#53606F"/>
</svg>
