<svg width="131" height="22" viewBox="0 0 131 22" fill="none" xmlns="http://www.w3.org/2000/svg">
<path d="M26.7411 16.3847V0.154541H21.3311V21.7948H25.7364H26.7411H34.9335L38.4887 16.3847H26.7411Z" fill="#53606F"/>
<path d="M12.675 16.3847C13.4478 16.3847 14.0662 15.7664 14.0662 14.9936C14.0662 14.2207 13.4478 13.6024 12.675 13.6024H7.80592C3.55516 13.6024 0.541015 10.5883 0.541015 6.80121C0.541015 3.09146 3.55516 0 7.80592 0C10.9747 0 20.0172 0 20.0172 0L16.462 5.41006H7.34222C6.56935 5.41006 5.95107 6.02835 5.95107 6.80121C5.95107 7.57408 6.56935 8.19237 7.34222 8.19237H12.2113C16.462 8.19237 19.4762 11.2065 19.4762 14.9936C19.4762 18.7033 16.462 21.7948 12.2113 21.7948H0L3.55516 16.3847H12.675Z" fill="#53606F"/>
<path d="M79.1416 0.154541H37.5615L41.1167 5.5646C41.1167 5.5646 54.4873 5.5646 60.5156 5.5646V16.3847C54.4873 16.3847 41.1167 16.3847 41.1167 16.3847L37.5615 21.7948H78.6779C85.711 21.7948 90.5028 16.9257 90.5028 10.9747C90.5028 5.02359 85.6337 0.154541 79.1416 0.154541ZM79.1416 16.3847C79.1416 16.3847 72.1859 16.3847 65.9257 16.3847V5.5646C72.1859 5.5646 79.1416 5.5646 79.1416 5.5646C82.6195 5.5646 85.0927 7.96048 85.0927 10.9747C85.0154 13.9115 82.6195 16.3847 79.1416 16.3847Z" fill="#53606F"/>
<path d="M131 0.154541H125.203L121.03 6.56932L116.779 0.154541H110.982L118.093 10.9747L110.982 21.7948H116.779L121.03 15.38L125.203 21.7948H131L123.889 10.9747L131 0.154541Z" fill="#53606F"/>
<path d="M108.433 21.7948H92.5117V16.3848H111.988L108.433 21.7948Z" fill="#53606F"/>
<path d="M108.433 0.154541H92.5117V5.5646H111.988L108.433 0.154541Z" fill="#53606F"/>
<path d="M92.5117 8.27002V13.6801H108.433L110.21 10.975L108.433 8.27002" fill="#53606F"/>
<path d="M57.8881 8.27002H55.4922V13.6801H57.8881V8.27002Z" fill="#53606F"/>
<path d="M53.0961 8.27002H50.7002V13.6801H53.0961V8.27002Z" fill="#53606F"/>
<path d="M48.3051 8.27002H45.9092V13.6801H48.3051V8.27002Z" fill="#53606F"/>
<path opacity="0.7" d="M43.4359 8.27002H41.04V13.6801H43.4359V8.27002Z" fill="#53606F"/>
<path opacity="0.45" d="M38.643 8.27002H36.2471V13.6801H38.643V8.27002Z" fill="#53606F"/>
<path opacity="0.2" d="M33.85 8.27026H31.4541V13.6803H33.85V8.27026Z" fill="#53606F"/>
</svg>
