<svg width="129" height="47" viewBox="0 0 129 47" fill="none" xmlns="http://www.w3.org/2000/svg">
<path d="M64.4406 46.4524C47.3484 46.4524 31.2899 44.1091 19.1599 39.836C6.82313 35.494 0 29.5669 0 23.2262C0 16.8855 6.82313 11.0273 19.1599 6.61637C31.2899 2.3433 47.3484 0 64.4406 0C81.5329 0 97.5914 2.3433 109.721 6.61637C122.058 10.9584 128.881 16.8855 128.881 23.2262C128.881 29.5669 122.058 35.4251 109.721 39.836C97.6603 44.0402 81.5329 46.4524 64.4406 46.4524ZM64.4406 1.51625C47.4862 1.51625 31.6345 3.85955 19.7113 8.0637C8.20154 12.13 1.58517 17.6436 1.58517 23.2262C1.58517 28.8088 8.20154 34.3224 19.7113 38.3887C31.6345 42.5928 47.5551 44.9361 64.4406 44.9361C81.3261 44.9361 97.2468 42.5928 109.17 38.3887C120.68 34.3224 127.296 28.8088 127.296 23.2262C127.296 17.6436 120.68 12.13 109.17 8.0637C97.3157 3.85955 81.3951 1.51625 64.4406 1.51625Z" fill="#53606F"/>
<path d="M61.1332 36.5969C61.1332 36.5969 61.0642 36.5969 61.1332 36.5969V36.7348V36.5969Z" fill="#53606F"/>
<path d="M75.8813 35.4938L75.4678 34.3911L74.9854 35.4938H75.8813Z" fill="#53606F"/>
<path d="M70.2296 35.1494C70.1607 35.1494 70.1607 35.1494 70.0918 35.1494L70.1607 35.2183L70.2296 35.1494Z" fill="#53606F"/>
<path d="M105.242 24.2603L104.415 27.0171C105.035 26.1211 105.518 25.1562 105.725 24.2603H105.242Z" fill="#53606F"/>
<path d="M89.1829 13.9909H90.9059L90.5613 15.0247C90.6991 15.0936 90.768 15.2315 90.9059 15.3004L91.0437 13.922H95.2479L93.9384 26.6033L100.21 13.922H100.486C92.0775 7.85698 74.9853 3.65283 55.2051 3.65283C49.5536 3.65283 44.1089 3.99744 39.0088 4.61772C40.4561 4.5488 41.9724 4.5488 43.4197 4.5488C63.6134 4.61772 80.9813 8.47726 89.1829 13.9909Z" fill="#53606F"/>
<path d="M65.4754 2.4812C63.0632 2.4812 60.7199 2.55012 58.3766 2.61904C78.4325 3.44609 95.318 7.857 103.795 13.9909H104.14H104.209H114.478L113.582 17.0234H107.448L107.379 17.2302C108.413 18.5397 109.102 19.8492 109.447 21.2276H111.101L110.205 24.2601H109.516C109.24 25.7763 108.413 27.2926 107.241 28.671H110.136L109.24 31.7035H103.864C94.422 38.5266 74.5729 43.2132 51.5535 43.2132C51.14 43.2132 50.7264 43.2132 50.3818 43.2132C55.2752 43.6267 60.3753 43.9024 65.6132 43.9024C98.8329 43.9024 125.781 34.5981 125.781 23.1573C125.781 11.7165 98.6951 2.4812 65.4754 2.4812Z" fill="#53606F"/>
<path d="M86.013 37.2859H82.9115V33.0128H86.6333V34.1155H84.4278V34.598H86.3576V35.6318H84.4278V36.1831H86.7022V37.0791C91.6644 35.6318 95.8686 33.8398 99.1079 31.8412H98.7633L103.381 16.5408C103.312 16.403 103.174 16.3341 103.105 16.2651L95.2483 31.8412H89.3901L89.7347 27.9816C88.7009 28.7397 87.4603 29.4979 86.0819 30.1871L85.5995 31.9101H82.2223C81.1196 32.3236 80.0169 32.7371 78.7763 33.0817H80.2237C80.7061 33.0817 81.1885 33.1507 81.6021 33.3574C82.0156 33.5642 82.2913 33.7709 82.498 34.1155C82.7048 34.4601 82.8426 34.8047 82.8426 35.2183C82.8426 35.6318 82.7048 36.0453 82.498 36.321C82.2913 36.6656 81.9467 36.8723 81.6021 37.0791C81.1885 37.2859 80.775 37.3548 80.2237 37.3548H78.225H77.9493H76.5709L76.2952 36.5967H74.5722L74.2965 37.3548H72.987H72.7113H71.5397V35.425L70.5059 37.0102H69.8167L68.8518 35.5629C68.8518 35.5629 68.8518 35.5629 68.7829 35.5629V37.3548H67.3355V35.7007C66.7842 35.7696 66.1639 35.9075 65.6125 35.9764V37.2169H64.303L63.476 36.2521C63.2003 36.321 62.8557 36.321 62.58 36.3899V37.2169H61.3395H61.0638H59.6854L59.4786 36.7345C58.7894 36.8034 58.1002 36.8724 57.411 36.9413L57.2732 37.2169H55.8258L55.8947 37.0791C55.7569 37.0791 55.6191 37.0791 55.4812 37.0791C55.1366 37.217 54.792 37.2859 54.3785 37.2859C54.1717 37.2859 53.965 37.2859 53.8271 37.2169C50.5189 37.4237 47.004 37.5616 43.4891 37.5616C39.6984 37.5616 36.0456 37.4237 32.5307 37.148H30.9455L31.0145 37.0102C27.0171 36.6656 23.2264 36.1831 19.6426 35.5629C28.809 38.871 41.4214 40.9387 55.2745 40.9387C66.7842 41.0765 77.4668 39.6292 86.013 37.2859Z" fill="#53606F"/>
<path d="M74.0886 34.3225C73.6751 34.3914 73.3305 34.5293 72.917 34.5982V36.7347L74.0886 34.3225Z" fill="#53606F"/>
<path d="M81.2582 35.1495C81.2582 34.8049 81.1893 34.5982 80.9825 34.3914C80.7757 34.1846 80.5 34.1157 80.1554 34.1157H79.5352V36.1144H80.1554C80.5 36.1144 80.7757 36.0455 80.9825 35.8387C81.1893 35.7009 81.2582 35.4252 81.2582 35.1495Z" fill="#53606F"/>
<path d="M78.0186 33.2197C77.5362 33.3576 77.0537 33.4954 76.5713 33.6333L78.0186 36.7347V33.2197Z" fill="#53606F"/>
<path d="M64.0276 33.1507V35.0805L62.3046 33.1507H60.9951V36.8035C61.4776 36.7346 62.0289 36.6657 62.5114 36.5967V35.494L63.4073 36.4589C64.0965 36.39 64.8547 36.2521 65.5439 36.1143V33.0818H64.0276V33.1507Z" fill="#53606F"/>
<path d="M72.7797 33.1506H71.4702L70.0918 35.3561C70.9878 35.1493 71.8837 35.0115 72.7797 34.8047V33.1506Z" fill="#53606F"/>
<path d="M68.5058 33.1506H67.1963V35.8385C67.6787 35.7696 68.1612 35.7007 68.6436 35.5629V35.4939L68.7125 35.5629C69.1261 35.4939 69.5396 35.425 69.9531 35.2872L68.5058 33.1506Z" fill="#53606F"/>
<path d="M57.3415 37.1481L57.5483 36.6656H59.2713L59.4091 36.9413C59.8916 36.8724 60.4429 36.8035 60.9254 36.8035L59.2023 33.1507H57.6861L56.1009 36.5278L55.2739 35.8386C54.9982 36.1832 54.6536 36.321 54.2401 36.321C53.8955 36.321 53.6887 36.2521 53.482 36.0454C53.2752 35.8386 53.2063 35.5629 53.2063 35.2872C53.2063 35.0116 53.2752 34.7359 53.482 34.5291C53.6887 34.3224 53.9644 34.2534 54.2401 34.2534C54.6536 34.2534 54.9293 34.3913 55.2739 34.7359L56.2388 33.9088C56.032 33.6331 55.6874 33.4264 55.3428 33.2886C54.9982 33.1507 54.5847 33.0818 54.1712 33.0818C53.6887 33.0818 53.2752 33.1507 52.8617 33.3575C52.4481 33.5642 52.1725 33.8399 51.9657 34.1845C51.7589 34.5291 51.6211 34.9426 51.6211 35.3562C51.6211 35.7697 51.7589 36.1832 51.9657 36.5278C52.1725 36.8724 52.5171 37.1481 52.8617 37.3549C53.0684 37.4927 53.3441 37.5616 53.6198 37.5616C54.1712 37.4927 54.7225 37.4927 55.2739 37.4238C55.3428 37.4238 55.3428 37.4238 55.4117 37.3549C55.5496 37.2859 55.6874 37.217 55.8252 37.1481L55.6874 37.4238C56.2388 37.217 56.7901 37.217 57.3415 37.1481ZM58.4442 34.5291L58.8577 35.6318H57.9618L58.4442 34.5291Z" fill="#53606F"/>
<path d="M78.9121 17.1612L79.808 14.1287H69.4699L64.1631 31.9101H74.5012L75.3971 28.8776H69.2632L70.5727 24.3978H75.466L76.4309 21.3653H71.5376L72.7781 17.1612H78.9121Z" fill="#53606F"/>
<path d="M102.897 16.3341L103.862 14.4733L103.173 16.6787C104.896 18.5396 105.792 20.5383 105.792 22.6059C105.792 23.2262 105.723 23.8464 105.516 24.4667H109.238C109.307 23.9843 109.376 23.5019 109.376 23.0194C109.376 22.468 109.307 21.9167 109.169 21.3653H105.93L107.101 17.3679C106.205 16.2652 104.965 15.1625 103.518 14.1287H100.278C101.312 14.8179 102.208 15.576 102.897 16.3341Z" fill="#53606F"/>
<path d="M59.409 14.1287L54.0332 31.9101H64.0956L64.9916 28.8776H59.1333L63.5442 14.1287H59.409Z" fill="#53606F"/>
<path d="M48.0365 25.983H44.0391L43.6256 27.3614C43.2121 28.8777 43.3499 30.0493 44.108 30.8764C44.8661 31.7034 46.1067 32.1169 47.9676 32.1169C49.7595 32.1169 51.2758 31.7034 52.4474 30.9453C53.619 30.1872 54.4461 29.0155 54.8596 27.5682C55.1353 26.6722 55.1353 25.9141 54.9975 25.2938C54.7907 24.6735 54.515 24.0532 54.1015 23.5708C53.688 23.0884 53.2744 22.6059 52.792 22.1924C52.3096 21.7789 51.896 21.3654 51.4825 21.0208C51.1379 20.6761 50.7933 20.2626 50.6555 19.8491C50.4487 19.4356 50.4487 19.0221 50.5865 18.4707C50.7244 17.9193 51.0001 17.5058 51.3447 17.2991C51.6893 17.0923 52.1028 16.9544 52.5852 16.9544C53.0677 16.9544 53.4123 17.0234 53.5501 17.2301C53.7569 17.4369 53.688 17.9193 53.5501 18.2639L53.2055 19.5045H57.2029L57.4786 18.6085C57.8921 17.0923 57.7543 15.9206 57.0651 15.0936C56.3759 14.2665 55.0664 13.853 53.2055 13.853C51.4136 13.853 49.8973 14.2665 48.7946 15.0247C47.623 15.7828 46.8648 16.9544 46.3824 18.4018C46.1067 19.2977 46.1067 20.0559 46.2446 20.6761C46.4513 21.2964 46.727 21.9167 47.1405 22.3992C47.554 22.8816 47.9676 23.364 48.45 23.7776C48.9325 24.1911 49.346 24.6046 49.7595 24.9492C50.1041 25.2938 50.4487 25.7073 50.5865 26.1209C50.7933 26.5344 50.7933 26.9479 50.6555 27.4993C50.5176 28.0506 50.2419 28.3952 49.8973 28.602C49.5527 28.8088 49.0703 28.9466 48.5879 28.9466C48.1054 28.9466 47.7608 28.8777 47.554 28.6709C47.3473 28.4642 47.4162 27.9817 47.554 27.6371L48.0365 25.983Z" fill="#53606F"/>
<path d="M74.5021 33.1506L73.8818 34.4601C74.7089 34.2534 75.5359 34.0466 76.363 33.8398L76.0184 33.1506H74.5021Z" fill="#53606F"/>
<path d="M23.7089 31.9103L24.6738 28.74H20.6075L19.6426 31.9103H23.7089Z" fill="#53606F"/>
<path d="M28.0496 31.9101L29.6347 28.8087H33.4943L33.1497 31.9101H37.3538L38.939 14.1287H33.2186L24.1211 31.9101H28.0496ZM31.0131 25.8451L34.3902 19.0909L33.701 25.8451H31.0131Z" fill="#53606F"/>
<path d="M77.8096 33.3575C78.0853 33.2886 78.3609 33.2196 78.6366 33.0818H77.8096V33.3575Z" fill="#53606F"/>
<path d="M106.964 28.8775H103.724L104.207 27.2234C103.035 28.8775 101.243 30.4627 98.9688 31.91H103.586C104.965 30.9451 106.068 29.9113 106.964 28.8775Z" fill="#53606F"/>
<path d="M20.5375 28.8776H14.6792L19.0901 14.1287H14.886L9.5791 31.9101H19.6415L20.5375 28.8776Z" fill="#53606F"/>
<path d="M42.6611 28.74H38.5948L37.6299 31.9103H41.6962L42.6611 28.74Z" fill="#53606F"/>
<path d="M75.1221 31.9101H82.083C83.4614 31.3588 84.7709 30.8074 85.9426 30.1871L86.3561 28.8087H80.2222L81.5317 24.3978H86.425L87.321 21.3653H82.4276L83.6682 17.1612H89.8021L90.4224 15.1625C90.0089 14.8179 89.5264 14.4733 88.9751 14.1287H80.36L75.1221 31.9101Z" fill="#53606F"/>
<path d="M86.5628 37.2173C86.2871 37.2862 86.0804 37.3551 85.8047 37.424H86.5628V37.2173Z" fill="#53606F"/>
<path d="M36.0446 33.1506V36.9413L34.2527 33.1506H32.7364L30.8066 37.2859C31.2891 37.3548 31.8404 37.3548 32.3229 37.4237L32.5986 36.6656H34.3216L34.5973 37.4237H35.9757H36.2514H37.423V35.5629L38.4568 37.0791H39.146L40.1798 35.4939V37.4237H41.6271V34.2534H42.8677V37.4237H44.4529V34.2534H45.6935V37.4237H47.2786V36.321H47.6922L48.4503 37.4237H50.1044H51.6206V33.1506H50.0355V37.4237L49.0706 36.1142C49.3462 35.9764 49.553 35.7696 49.6909 35.5629C49.8287 35.3561 49.8976 35.0804 49.8976 34.7358C49.8976 34.3912 49.8287 34.1155 49.6219 33.9088C49.4841 33.6331 49.2084 33.4952 48.8638 33.3574C48.5192 33.2196 48.1746 33.1506 47.7611 33.1506H45.6245H45.5556H41.4893H41.4204H40.2487L38.8014 35.425L37.2852 33.1506H36.0446ZM33.0121 35.6318L33.4256 34.529L33.8391 35.6318H33.0121ZM47.1408 34.2534H47.6922C47.8989 34.2534 48.0368 34.3223 48.1746 34.3912C48.3124 34.4601 48.3124 34.598 48.3124 34.7358C48.3124 34.8736 48.2435 35.0115 48.1746 35.0804C48.0368 35.1493 47.8989 35.2182 47.6922 35.2182H47.1408V34.2534Z" fill="#53606F"/>
</svg>
