<svg width="138" height="80" viewBox="0 0 138 80" fill="none" xmlns="http://www.w3.org/2000/svg">
<g clip-path="url(#clip0)">
<path d="M50.391 50.436H53.7592C54.11 50.436 54.3954 50.1471 54.3954 49.7894V41.8106H59.4149C60.9446 41.8106 62.2685 41.5813 63.3538 41.1228C64.4438 40.6642 65.3466 40.0452 66.039 39.284C66.4506 38.8346 66.7921 38.3393 67.0728 37.8074C67.6809 38.7841 68.5277 40.1277 69.0469 40.9439L64.4531 49.4914C64.411 49.5785 64.3829 49.6794 64.3829 49.7848C64.3829 50.1425 64.6683 50.4314 65.0145 50.436H70.1837C70.4223 50.436 70.6328 50.2984 70.7404 50.1012L83.5815 26.5224C83.633 26.4307 83.6611 26.3206 83.6611 26.206C83.6611 25.8529 83.3851 25.5686 83.0436 25.5549H77.6825C77.444 25.5594 77.2428 25.697 77.1352 25.8988L72.2888 34.9231C71.4327 33.4511 69.7673 30.5806 67.0307 25.8667C66.9231 25.6878 66.7313 25.564 66.5114 25.5594H64.9771H48.9735C48.6321 25.5732 48.3561 25.8575 48.3561 26.2106V29.7369C48.3046 29.6268 48.2531 29.5213 48.2017 29.4113C47.6543 28.3795 46.9059 27.522 45.9703 26.8571C45.0487 26.2014 43.9821 25.7199 42.8032 25.431C41.6384 25.1467 40.4128 25 39.1544 25C38.0691 25 36.9604 25.1513 35.8704 25.454C34.7664 25.7566 33.7606 26.2289 32.8905 26.8617C32.0064 27.4991 31.2813 28.3062 30.734 29.2646C30.1819 30.2367 29.9013 31.3922 29.9013 32.6945C29.9013 33.8638 30.1211 34.8772 30.5655 35.7118C31.0006 36.5372 31.5807 37.2342 32.2824 37.7845C32.9747 38.3256 33.77 38.7704 34.6354 39.1051C35.4775 39.4353 36.3616 39.715 37.2598 39.9443L37.2458 39.9397C38.0878 40.1827 38.9486 40.412 39.8046 40.6183C40.6093 40.8109 41.3437 41.0402 41.9846 41.3016C42.5881 41.5492 43.0746 41.8519 43.4395 42.2141C43.7622 42.5305 43.9166 42.9432 43.9166 43.4705C43.9166 43.975 43.7997 44.3739 43.5517 44.6857C43.2851 45.025 42.9576 45.2864 42.5506 45.4836C42.1343 45.6854 41.6758 45.8275 41.194 45.8963C40.6935 45.9697 40.2163 46.0063 39.7766 46.0063C39.1357 46.0063 38.5088 45.9284 37.91 45.7679C37.33 45.6166 36.8201 45.3781 36.3944 45.0663C35.978 44.7637 35.6412 44.3556 35.3886 43.8603C35.1594 43.4109 35.0377 42.8607 35.0143 42.2187C35.0143 41.8564 34.729 41.5675 34.3781 41.5675H34.3735H29.7656C29.4194 41.5675 29.1388 41.8473 29.1294 42.2004C29.1294 43.6723 29.4101 44.97 29.9668 46.0614C30.5422 47.194 31.3374 48.1432 32.3198 48.8815C33.2928 49.6106 34.4296 50.1517 35.6927 50.4956C36.9417 50.8303 38.2515 51 39.5754 51C41.2127 51 42.6816 50.7982 43.9353 50.4085C45.2031 50.0141 46.2837 49.4501 47.1444 48.7302C47.6076 48.3496 48.0099 47.9231 48.3514 47.46V49.7894C48.3514 50.1471 48.6367 50.4406 48.9923 50.4406L50.391 50.436ZM61.8194 35.3129C61.5995 35.7164 61.3235 36.0145 60.968 36.2346C60.5984 36.4593 60.1587 36.6152 59.6675 36.6977C59.1389 36.7848 58.5822 36.8261 58.0115 36.8261H54.4001V30.5485H58.0115C58.5822 30.5485 59.1389 30.5898 59.6675 30.6769C60.1634 30.7594 60.5984 30.9153 60.968 31.14C61.3235 31.3601 61.6042 31.6582 61.8194 32.0617C62.0346 32.4607 62.1468 33.0109 62.1468 33.6896C62.1468 34.3637 62.0393 34.9093 61.8194 35.3129ZM48.3514 38.6007C47.8789 38.0183 47.3456 37.5231 46.7562 37.1287C45.9562 36.5922 45.1329 36.1933 44.3142 35.9503C43.519 35.7072 42.9155 35.5467 42.4617 35.455C42.4524 35.455 38.8924 34.515 38.8924 34.515C38.0083 34.2765 37.3112 34.0381 36.8247 33.8042C36.2821 33.5429 36.0622 33.3136 35.9733 33.1668C35.8424 32.9467 35.7722 32.6441 35.7722 32.2589C35.7722 31.837 35.8564 31.4885 36.0295 31.2317C36.2166 30.952 36.4552 30.709 36.7452 30.521C37.0399 30.3284 37.3721 30.1908 37.7369 30.1129C38.1252 30.0303 38.5182 29.9891 38.9065 29.9891C39.5146 29.9891 40.0806 30.0441 40.5905 30.1496C41.0771 30.2504 41.5121 30.4247 41.8864 30.6631C42.2419 30.8924 42.5272 31.2042 42.7471 31.6123C42.9436 31.97 43.0652 32.4286 43.1213 32.9743H43.126C43.126 33.3319 43.4114 33.6254 43.7622 33.6254H48.3467V38.6007H48.3514Z" fill="#34495E"/>
<path d="M109.376 32.8596C109.376 32.5157 109.1 32.236 108.754 32.2177H102.878V26.1189C102.878 25.7704 102.593 25.4861 102.242 25.4769H90.3084C89.9482 25.4769 89.6535 25.7658 89.6535 26.1189V32.2223H83.7873C83.4458 32.236 83.1698 32.5066 83.1558 32.8459V43.3514C83.1604 43.7044 83.4505 43.9887 83.8107 43.9887H89.6535V49.8812C89.6535 50.2342 89.9482 50.5231 90.3084 50.5231H102.223C102.584 50.5231 102.878 50.2342 102.878 49.8812V43.9842H108.721C109.081 43.9842 109.371 43.6999 109.376 43.3468V32.8596Z" fill="#34495E"/>
</g>
<defs>
<clipPath id="clip0">
<rect width="137" height="80" fill="white" transform="translate(0.5)"/>
</clipPath>
</defs>
</svg>
