<svg width="136" height="21" viewBox="0 0 136 21" fill="none" xmlns="http://www.w3.org/2000/svg">
<g clip-path="url(#clip0)">
<path d="M32.7743 5.61735V15.7933L32.9323 16.3982H29.7031L29.8612 15.7069V5.61735L26.519 5.68216C26.2932 5.74698 26.09 5.8334 25.8867 5.87661L26.1125 4.40747H36.4777L36.7036 5.79019L32.7743 5.61735Z" fill="#53606F"/>
<path d="M47.6333 5.70365C47.5655 5.68204 47.4752 5.66044 47.4301 5.66044H40.949V9.72216H46.7526L47.4752 9.57093L47.4978 11.0401C47.3397 11.0617 47.2494 11.0833 47.2042 11.0833C47.0913 11.0833 47.0236 11.0833 46.9558 11.0617C46.9332 11.0617 46.9332 11.0617 46.9107 11.0401H40.9716V15.1666L47.4526 15.145C47.5204 15.145 47.6107 15.1234 47.6559 15.1018C47.7462 15.0586 47.8139 15.037 47.8591 15.0154V16.3549H37.9004V4.42896H47.701L47.9494 5.66044C47.814 5.68204 47.7236 5.68204 47.6333 5.70365Z" fill="#53606F"/>
<path d="M57.6144 5.59562H52.3302C52.2399 5.59562 52.1495 5.63883 52.0366 5.72525C51.9237 5.81167 51.8785 5.89809 51.8785 5.98451L51.856 14.8209C51.856 14.9506 51.9915 15.0802 52.2399 15.1666C52.285 15.1882 52.3528 15.2098 52.4431 15.2314L58.0435 15.1666L58.8564 14.929L58.6306 16.3981H50.9978C50.5462 16.3981 50.0946 16.2253 49.6881 15.8796C49.259 15.5339 49.0332 15.1234 49.0332 14.6481V6.15735C49.0332 5.61723 49.259 5.20673 49.6881 4.90426C50.1397 4.60179 50.6139 4.42896 51.1559 4.42896H58.5629L58.8564 5.89809L57.6144 5.59562Z" fill="#53606F"/>
<path d="M71.8415 4.81784V16.4197H68.4994L61.4538 6.33019C61.4086 6.35179 61.386 6.3734 61.3635 6.3734C61.3409 6.395 61.3183 6.43821 61.3183 6.52463V16.3981H59.873V4.42896H63.3733L70.5544 14.5185V5.83328L70.3285 4.42896H71.9996C71.8867 4.49377 71.8415 4.6234 71.8415 4.81784Z" fill="#53606F"/>
<path d="M85.6393 14.6913V6.13575C85.6393 5.66044 85.3909 5.22834 84.8715 4.88266C84.4199 4.58019 83.9908 4.42896 83.5392 4.42896H75.9967C75.4774 4.42896 75.0031 4.6234 74.5515 4.96908C74.0998 5.31476 73.874 5.72525 73.874 6.17896V14.6049C73.874 15.1018 74.1224 15.5339 74.6192 15.9228C75.0257 16.2469 75.4322 16.4197 75.8387 16.4197H83.6521C84.1037 16.4197 84.5328 16.2253 84.9844 15.8796C85.4135 15.5123 85.6393 15.1234 85.6393 14.6913ZM82.7714 14.7561C82.7714 14.9074 82.7036 15.0154 82.5681 15.145C82.5004 15.2098 82.4101 15.2314 82.3423 15.2314H77.1258C77.0355 15.2314 76.9452 15.1882 76.8549 15.0802C76.7419 14.9722 76.6968 14.8857 76.6968 14.7993V6.00612C76.6968 5.9197 76.7645 5.83328 76.9226 5.72525C77.0581 5.61723 77.171 5.57402 77.2839 5.57402H82.1842C82.2971 5.57402 82.4101 5.61723 82.5456 5.72525C82.7036 5.83328 82.7488 5.9413 82.7488 6.02772V14.7561H82.7714Z" fill="#53606F"/>
<path d="M97.8556 15.8796C97.4491 16.2253 96.9974 16.4197 96.5006 16.4197H87.7839L87.5581 15.2314H95.1909C95.3489 15.2314 95.4844 15.145 95.5522 14.9938C95.6425 14.8209 95.6877 14.6913 95.6877 14.5833V12.1203C95.6877 12.0339 95.6425 11.9259 95.5296 11.7962C95.4167 11.645 95.2812 11.5586 95.1231 11.5586L89.2969 11.4722C88.8904 11.537 88.5066 11.3641 88.0775 10.9536C87.671 10.5432 87.4678 10.1543 87.4678 9.74377V6.15735C87.4678 5.61723 87.6936 5.20673 88.1227 4.90426C88.5743 4.60179 89.0485 4.42896 89.5905 4.42896H98.0588L98.3072 5.66044C98.1943 5.72525 98.104 5.74686 98.0362 5.74686C97.833 5.68204 97.6523 5.66044 97.4039 5.66044L90.7873 5.59562C90.6744 5.57402 90.5615 5.61723 90.4486 5.74686C90.2905 5.89809 90.2228 6.00612 90.2228 6.07093V8.51229C90.2228 8.62031 90.268 8.72834 90.3583 8.81476C90.4712 8.92278 90.5615 8.9876 90.6519 8.9876L96.4555 8.96599C96.9297 8.96599 97.3813 9.16044 97.7878 9.52772C98.1943 9.89501 98.4201 10.3055 98.4201 10.7592V14.6913C98.4653 15.1234 98.262 15.5123 97.8556 15.8796Z" fill="#53606F"/>
<path d="M109.779 5.70365C109.711 5.68204 109.621 5.66044 109.553 5.66044H103.072V9.72216H108.876L109.598 9.57093L109.621 11.0401C109.463 11.0617 109.372 11.0833 109.327 11.0833C109.214 11.0833 109.147 11.0833 109.079 11.0617C109.056 11.0617 109.056 11.0617 109.034 11.0401H103.094V15.1666L109.576 15.145C109.643 15.145 109.734 15.1234 109.801 15.1018C109.892 15.0586 109.959 15.037 110.005 15.0154V16.3549H100.046V4.42896H109.869L110.118 5.66044C109.937 5.68204 109.847 5.68204 109.779 5.70365Z" fill="#53606F"/>
<path d="M124.413 16.3982L118.406 4.45068H115.177L115.651 5.18525L110.118 16.3982H112.083L113.46 12.8766H119.49L120.867 16.3982H124.413ZM118.948 11.6667H114.047L116.464 6.54636L118.948 11.6667Z" fill="#53606F"/>
<path d="M135.613 16.4197H125.632V4.42896H128.861C128.748 4.58019 128.703 4.68821 128.68 4.81784V15.1882L135.432 15.1666C135.658 15.1666 135.816 15.1234 135.929 15.037L135.613 16.4197Z" fill="#53606F"/>
<path d="M11.3434 10.4999C11.3434 14.4104 8.49802 17.7159 4.68164 18.5801L5.44943 19.1203C9.31098 17.9968 12.1112 14.5616 12.1112 10.4999C12.1112 6.58939 14.9565 3.28384 18.7729 2.41964L18.0051 1.85791C14.1435 3.00297 11.3434 6.43816 11.3434 10.4999Z" fill="#53606F"/>
<path d="M2.71733 16.4414C1.52048 14.7562 0.797852 12.7037 0.797852 10.5C0.797852 4.70988 5.72075 0 11.7728 0C12.9244 0 14.0761 0.172839 15.1149 0.496914C11.3889 2.41975 8.88225 6.17901 8.88225 10.5C8.88225 13.7623 6.12723 16.4198 2.71733 16.4414Z" fill="#53606F"/>
<path d="M8.36328 20.4816C12.0442 18.5587 14.5508 14.7995 14.5508 10.5001C14.5508 7.21612 17.3961 4.53711 20.806 4.53711C22.0255 6.22229 22.7255 8.27476 22.7255 10.4785C22.7255 16.2686 17.8026 20.9785 11.7506 20.9785C10.5763 21.0001 9.44722 20.8056 8.36328 20.4816Z" fill="#53606F"/>
<path d="M135.93 1.51245H26.2031V2.31183H135.93V1.51245Z" fill="#53606F"/>
<path d="M135.93 18.4722H26.2031V19.2716H135.93V18.4722Z" fill="#53606F"/>
</g>
<defs>
<clipPath id="clip0">
<rect width="135.131" height="21" fill="white" transform="translate(0.797852)"/>
</clipPath>
</defs>
</svg>
