<svg width="120" height="72" viewBox="0 0 120 72" fill="none" xmlns="http://www.w3.org/2000/svg">
<path d="M51.458 57.1372L53.4343 61.0531H58.59L60.5663 57.1372H51.458ZM36.1629 26.4326V30.3486H46.3882L44.5838 26.4326H36.1629ZM78.2674 57.1372C79.2126 59.0062 80.8452 60.3411 83.1652 61.0531H104.905C107.139 60.3411 108.686 59.0952 109.459 57.1372H78.2674ZM78.2674 50.9963V54.9122H110.318C111.178 53.4882 111.521 51.4413 111.521 49.1273H103.53L101.382 50.9963H78.2674ZM78.2674 44.8554H87.1179V48.7713H78.2674V44.8554ZM78.2674 38.6254H87.1179V42.5414H78.2674V38.6254ZM78.2674 32.5735H110.318C111.092 34.3535 111.349 36.2225 111.521 38.2695H103.53L101.554 36.5785H78.2674V32.5735ZM78.2674 30.4376H109.459C108.858 28.5686 107.397 27.1446 104.991 26.5216H82.9934C80.3296 26.9666 79.0407 28.3906 78.2674 30.4376ZM47.9349 50.9963L49.9113 54.9122H61.7693L63.6597 50.9963H47.9349ZM36.1629 38.6254H50.5128L52.575 42.5414H36.1629V38.6254ZM47.3335 32.5735L49.3957 36.4895H36.1629V32.5735H47.3335ZM55.9262 48.7713H46.3882L44.5838 44.8554V48.7713H36.1629V44.8554H53.8639L55.9262 48.7713ZM57.9885 44.8554L55.9262 48.7713H65.2064L67.1827 44.8554V48.7713H75.5177V44.8554H57.9885ZM75.4317 38.6254H61.0819L59.1914 42.6304H75.4317V38.6254ZM75.4317 32.5735H64.2612L62.3708 36.4895H75.4317V32.5735ZM75.4317 26.4326H67.0968L65.3782 30.3486H75.4317V26.4326ZM67.1827 50.9963H75.5177V54.9122H67.1827V50.9963ZM67.1827 57.1372H75.5177V61.0531H67.1827V57.1372ZM36.1629 50.9963H44.5838V54.9122H36.1629V50.9963ZM36.1629 57.1372H44.5838V61.0531H36.1629V57.1372ZM12.8765 57.1372H22.1567V61.0531H12.8765V57.1372ZM12.8765 50.9963H22.1567V54.9122H12.8765V50.9963ZM12.8765 44.8554H22.1567V48.7713H12.8765V44.8554ZM12.8765 38.6254H22.1567V42.5414H12.8765V38.6254ZM0.760742 32.5735H33.4132V36.4895H0.760742V32.5735ZM0.760742 26.4326H33.4132V30.3486H0.760742V26.4326Z" fill="#53606F"/>
<path d="M110.49 7.11987L110.233 7.20887L109.975 7.38687L109.803 7.56487L109.631 7.74286L109.459 7.92086L109.287 8.18786L109.116 8.45485L108.944 8.72185L108.858 8.98885L108.686 9.25584L108.6 9.52284L108.514 9.78984L108.342 10.0568L108.256 10.4128L108.084 10.6798L107.999 10.9468L107.569 12.0148L107.225 13.1718L106.881 14.2398L106.538 15.3968L106.194 16.4647L105.85 17.6217L105.593 18.7787L105.335 19.8467L105.077 21.0037L104.819 22.1607L104.647 23.3176L104.475 24.4746L104.304 25.6316L104.218 26.7886L104.132 27.9456L104.046 29.1916L103.874 31.6835L103.788 34.0865V36.4895L103.702 38.9814H103.874L104.046 39.0704H104.218H104.39H104.561L104.733 38.9814H104.905L105.077 38.8034L105.335 38.5364L105.678 38.1804L105.936 37.8244L106.194 37.4685L106.366 37.1125L106.71 36.7565L106.881 36.4005L107.139 36.1335L107.483 35.7775L107.741 35.4215L107.999 35.1545L108.256 34.8875L108.6 34.6205L108.944 34.3535L109.287 34.1755L109.717 33.9085H109.889H110.061H110.233L110.404 33.9975H110.576L110.748 34.0865L110.92 34.1755L111.092 34.2645H111.35L111.693 34.3535H111.951L112.295 34.2645H112.553L112.81 34.1755L113.154 33.9975L113.326 33.8195L113.584 33.7305L113.842 33.5525L114.013 33.2855L114.271 33.1075L114.529 32.9295L114.701 32.6625L114.873 32.4845L115.045 32.2175L115.302 31.7725L115.56 31.3275L115.818 30.9715L116.076 30.6155L116.333 30.2596L116.677 29.8146L116.935 29.4586L117.193 29.1026L117.536 28.7466L117.794 28.3906L118.052 28.0346L118.31 27.5896L118.654 27.3226L118.911 26.8776L119.169 26.5216L119.513 26.1656L119.427 25.4536L119.341 24.8306L119.083 24.2966L118.825 23.8516L118.396 23.4066L117.966 22.9617L117.536 22.6057L116.935 22.2497L116.419 21.9827L115.818 21.6267L115.216 21.3597L114.615 21.0927L114.099 20.8257L113.584 20.4697L113.068 20.2027L112.639 19.8467V19.0457L112.725 18.3337L112.896 17.5327L113.068 16.8207L113.24 16.1087L113.412 15.3968L113.67 14.6848L113.842 13.9728L113.928 13.6168L114.013 13.1718L114.099 12.8158V12.4598V12.1038V11.8368L114.013 11.4808L113.842 11.2138L113.756 11.1248L113.584 10.9468L113.498 10.8578L113.412 10.6798L113.24 10.5018L113.154 10.4128L112.982 10.2348L112.81 10.1458L112.725 9.96783L112.553 9.87884L112.467 9.78984L112.381 9.61184L112.209 9.43384L112.123 9.34484L112.037 9.16684L111.951 8.98885L111.779 8.72185L111.693 8.27686L111.522 7.92086L111.35 7.56487L111.178 7.29787L110.92 7.11987H110.748H110.49Z" fill="#D3D6D9"/>
<path d="M105.679 39.9604L105.507 40.0494L105.335 40.1384L105.077 40.2274H104.905H104.733L104.562 40.3164H104.476L104.39 40.2274L104.905 34.7985L105.507 29.8146L106.108 25.2756L106.71 21.0927L107.311 17.4438L107.913 14.1508L108.514 11.3028L109.03 8.72188L109.545 6.49691L110.061 4.71693L110.491 3.20396L110.834 2.04697L111.178 1.06799L111.35 0.444994L111.522 0.0889988V0V0.0889988L111.436 0.444994L111.264 1.06799L111.006 2.04697L110.748 3.29295L110.405 4.89493L109.975 6.76391L109.545 8.98887L109.116 11.5698L108.686 14.5068L108.17 17.7998L107.655 21.4487L107.139 25.4536L106.624 29.9036L106.108 34.7095L105.679 39.9604Z" fill="#53606F"/>
<path d="M111.178 3.29297L111.264 3.47097L111.435 3.73796L111.693 4.09396L111.951 4.53895L112.209 5.07294L112.553 5.60694L112.81 6.22993L113.154 7.03092L113.412 7.74291L113.67 8.63289L113.927 9.52288L114.013 10.4129L114.099 11.4809V12.5488L113.927 13.7058L113.755 14.8628V13.6168L113.67 12.4598L113.498 11.3919L113.326 10.4129L113.154 9.43388L112.896 8.63289L112.638 7.9209L112.381 7.20891L112.123 6.67492L111.779 6.14093L111.521 5.69594L111.35 5.33994L111.092 5.07294L111.006 4.89495L110.92 4.80595L110.834 4.71695L111.178 3.29297Z" fill="#53606F"/>
<path d="M109.974 13.0828L111.521 14.0618L112.896 15.0407L114.185 16.0197L115.216 17.0877L116.161 18.1557L116.934 19.2237L117.536 20.3807L117.965 21.4486L118.395 22.6056L118.653 23.7626L118.739 24.8306L118.825 26.0766L118.739 27.1446L118.567 28.3015L118.395 29.3695L118.051 30.4375L117.708 31.5055L117.278 32.5735L116.762 33.5525L116.247 34.4425L115.731 35.4214L115.044 36.2224L114.442 37.0234L113.755 37.7354L113.154 38.4474L112.466 39.0704L111.865 39.6044L111.177 40.0494L110.576 40.4054L109.974 40.6724L109.373 40.9394L108.857 41.0284V40.9394H108.943L109.115 40.7614L109.287 40.5834L109.373 40.3164L109.63 40.0494L109.888 39.6934L110.146 39.2484L110.404 38.8034L110.662 38.3584L110.919 37.8244L111.177 37.2904L111.435 36.6674L111.693 36.0444L111.951 35.4214L112.122 34.7095L111.607 35.1545L111.177 35.5994L110.748 35.9554L110.232 36.3114L109.716 36.7564L109.287 37.0234L108.771 37.3794L108.342 37.6464L107.998 37.9134L107.568 38.0914L107.31 38.3584L106.967 38.4474L106.795 38.5364L106.623 38.6254L106.537 38.7144L106.967 38.4474L107.31 38.1804L107.74 37.8244L108.17 37.4684L108.599 37.1124L108.943 36.7564L109.373 36.4004L109.716 36.0444L110.06 35.5994L110.404 35.2434L110.748 34.8875L111.005 34.5315L111.263 34.1755L111.435 33.8195L111.607 33.5525L111.693 33.1965L112.208 31.5055L112.552 29.8145L112.81 28.0346V26.4326L112.724 24.7416L112.638 23.2286L112.38 21.7156L112.122 20.3807L111.779 19.1347L111.349 17.9777L111.005 16.9987L110.748 16.1087L110.404 15.3967L110.146 14.9517L109.974 14.5957V14.5067L111.091 16.6427L112.036 18.7787L112.724 20.9147L113.154 22.9616L113.497 25.0086L113.583 26.8776V28.7465L113.497 30.5265L113.325 32.1285L113.154 33.5525L112.896 34.7985L112.638 35.8664L112.38 36.7564L112.122 37.3794L112.036 37.8244L111.951 38.0024L113.239 36.4894L114.357 35.0655L115.216 33.6415L115.989 32.3065L116.591 30.9715L117.106 29.6365L117.536 28.4795L117.708 27.3226L117.88 26.1656V25.0086L117.794 24.0296L117.622 22.9616L117.45 22.0716L117.192 21.0927L116.762 20.2917L116.333 19.4907L115.903 18.7787L115.474 17.9777L114.958 17.3547L114.442 16.7317L113.841 16.1087L113.325 15.6637L112.81 15.1297L112.294 14.7737L111.779 14.3287L111.349 14.0618L111.005 13.7948L110.662 13.5278L110.318 13.3498L110.146 13.1718H109.974V13.0828Z" fill="#53606F"/>
<path d="M103.616 40.7613H103.702V40.6723H103.788L103.874 40.5833L104.046 40.4943L104.132 40.4053L104.304 40.3163L104.475 40.2273L104.647 40.1383L104.819 40.0493H105.077L105.249 39.9603H105.507L105.764 39.8713L106.022 39.9603L105.936 40.3163L103.702 41.1173L103.616 40.7613Z" fill="white"/>
<path d="M111.607 64.613H0.760742V71.1099H111.607V64.613Z" fill="#53606F"/>
<path d="M11.1357 65.7051H15.1699V66.7656H13.8164V70H12.4893V66.7656H11.1357V65.7051ZM15.7588 65.7051H17.5049L18.1787 68.3184L18.8496 65.7051H20.5898V70H19.5059V66.7246L18.665 70H17.6836L16.8457 66.7246V70H15.7588V65.7051ZM24.2988 68.2451L25.4619 68.5967C25.3838 68.9229 25.2607 69.1953 25.0928 69.4141C24.9248 69.6328 24.7158 69.7979 24.4658 69.9092C24.2178 70.0205 23.9014 70.0762 23.5166 70.0762C23.0498 70.0762 22.668 70.0088 22.3711 69.874C22.0762 69.7373 21.8213 69.498 21.6064 69.1562C21.3916 68.8145 21.2842 68.377 21.2842 67.8438C21.2842 67.1328 21.4727 66.5869 21.8496 66.2061C22.2285 65.8232 22.7637 65.6318 23.4551 65.6318C23.9961 65.6318 24.4209 65.7412 24.7295 65.96C25.04 66.1787 25.2705 66.5146 25.4209 66.9678L24.249 67.2285C24.208 67.0977 24.165 67.002 24.1201 66.9414C24.0459 66.8398 23.9551 66.7617 23.8477 66.707C23.7402 66.6523 23.6201 66.625 23.4873 66.625C23.1865 66.625 22.9561 66.7461 22.7959 66.9883C22.6748 67.168 22.6143 67.4502 22.6143 67.835C22.6143 68.3115 22.6865 68.6387 22.8311 68.8164C22.9756 68.9922 23.1787 69.0801 23.4404 69.0801C23.6943 69.0801 23.8857 69.0088 24.0146 68.8662C24.1455 68.7236 24.2402 68.5166 24.2988 68.2451ZM27.8115 65.7051H31.8457V66.7656H30.4922V70H29.165V66.7656H27.8115V65.7051ZM32.4463 65.7051H36.0029V66.6221H33.7764V67.3047H35.8418V68.1807H33.7764V69.0273H36.0674V70H32.4463V65.7051ZM39.6445 68.2451L40.8076 68.5967C40.7295 68.9229 40.6064 69.1953 40.4385 69.4141C40.2705 69.6328 40.0615 69.7979 39.8115 69.9092C39.5635 70.0205 39.2471 70.0762 38.8623 70.0762C38.3955 70.0762 38.0137 70.0088 37.7168 69.874C37.4219 69.7373 37.167 69.498 36.9521 69.1562C36.7373 68.8145 36.6299 68.377 36.6299 67.8438C36.6299 67.1328 36.8184 66.5869 37.1953 66.2061C37.5742 65.8232 38.1094 65.6318 38.8008 65.6318C39.3418 65.6318 39.7666 65.7412 40.0752 65.96C40.3857 66.1787 40.6162 66.5146 40.7666 66.9678L39.5947 67.2285C39.5537 67.0977 39.5107 67.002 39.4658 66.9414C39.3916 66.8398 39.3008 66.7617 39.1934 66.707C39.0859 66.6523 38.9658 66.625 38.833 66.625C38.5322 66.625 38.3018 66.7461 38.1416 66.9883C38.0205 67.168 37.96 67.4502 37.96 67.835C37.96 68.3115 38.0322 68.6387 38.1768 68.8164C38.3213 68.9922 38.5244 69.0801 38.7861 69.0801C39.04 69.0801 39.2314 69.0088 39.3604 68.8662C39.4912 68.7236 39.5859 68.5166 39.6445 68.2451ZM41.4609 65.7051H42.7881V67.208H44.2383V65.7051H45.5713V70H44.2383V68.2627H42.7881V70H41.4609V65.7051ZM46.4619 65.7051H47.7012L49.3184 68.0811V65.7051H50.5693V70H49.3184L47.71 67.6416V70H46.4619V65.7051ZM51.2842 67.8555C51.2842 67.1543 51.4795 66.6084 51.8701 66.2178C52.2607 65.8271 52.8047 65.6318 53.502 65.6318C54.2168 65.6318 54.7676 65.8242 55.1543 66.209C55.541 66.5918 55.7344 67.1289 55.7344 67.8203C55.7344 68.3223 55.6494 68.7344 55.4795 69.0566C55.3115 69.377 55.0674 69.627 54.7471 69.8066C54.4287 69.9844 54.0312 70.0732 53.5547 70.0732C53.0703 70.0732 52.6689 69.9961 52.3506 69.8418C52.0342 69.6875 51.7773 69.4434 51.5801 69.1094C51.3828 68.7754 51.2842 68.3574 51.2842 67.8555ZM52.6113 67.8613C52.6113 68.2949 52.6914 68.6064 52.8516 68.7959C53.0137 68.9854 53.2334 69.0801 53.5107 69.0801C53.7959 69.0801 54.0166 68.9873 54.1729 68.8018C54.3291 68.6162 54.4072 68.2832 54.4072 67.8027C54.4072 67.3984 54.3252 67.1035 54.1611 66.918C53.999 66.7305 53.7783 66.6367 53.499 66.6367C53.2314 66.6367 53.0166 66.7314 52.8545 66.9209C52.6924 67.1104 52.6113 67.4238 52.6113 67.8613ZM56.4492 65.7051H57.7764V68.9424H59.8477V70H56.4492V65.7051Z" fill="white"/>
<path d="M61.626 67.8555C61.626 67.1543 61.8213 66.6084 62.2119 66.2178C62.6025 65.8271 63.1465 65.6318 63.8438 65.6318C64.5586 65.6318 65.1094 65.8242 65.4961 66.209C65.8828 66.5918 66.0762 67.1289 66.0762 67.8203C66.0762 68.3223 65.9912 68.7344 65.8213 69.0566C65.6533 69.377 65.4092 69.627 65.0889 69.8066C64.7705 69.9844 64.373 70.0732 63.8965 70.0732C63.4121 70.0732 63.0107 69.9961 62.6924 69.8418C62.376 69.6875 62.1191 69.4434 61.9219 69.1094C61.7246 68.7754 61.626 68.3574 61.626 67.8555ZM62.9531 67.8613C62.9531 68.2949 63.0332 68.6064 63.1934 68.7959C63.3555 68.9854 63.5752 69.0801 63.8525 69.0801C64.1377 69.0801 64.3584 68.9873 64.5146 68.8018C64.6709 68.6162 64.749 68.2832 64.749 67.8027C64.749 67.3984 64.667 67.1035 64.5029 66.918C64.3408 66.7305 64.1201 66.6367 63.8408 66.6367C63.5732 66.6367 63.3584 66.7314 63.1963 66.9209C63.0342 67.1104 62.9531 67.4238 62.9531 67.8613ZM68.9502 68.4443V67.5508H71.001V69.3818C70.6084 69.6494 70.2607 69.832 69.958 69.9297C69.6572 70.0254 69.2998 70.0732 68.8857 70.0732C68.376 70.0732 67.96 69.9863 67.6377 69.8125C67.3174 69.6387 67.0684 69.3799 66.8906 69.0361C66.7148 68.6924 66.627 68.2979 66.627 67.8525C66.627 67.3838 66.7236 66.9766 66.917 66.6309C67.1104 66.2832 67.3936 66.0195 67.7666 65.8398C68.0576 65.7012 68.4492 65.6318 68.9414 65.6318C69.416 65.6318 69.7705 65.6748 70.0049 65.7607C70.2412 65.8467 70.4365 65.9805 70.5908 66.1621C70.7471 66.3418 70.8643 66.5703 70.9424 66.8477L69.6621 67.0762C69.6094 66.9141 69.5195 66.79 69.3926 66.7041C69.2676 66.6182 69.1074 66.5752 68.9121 66.5752C68.6211 66.5752 68.3887 66.6768 68.2148 66.8799C68.043 67.0811 67.957 67.4004 67.957 67.8379C67.957 68.3027 68.0439 68.6348 68.2178 68.834C68.3936 69.0332 68.6377 69.1328 68.9502 69.1328C69.0986 69.1328 69.2402 69.1113 69.375 69.0684C69.5098 69.0254 69.6641 68.9521 69.8379 68.8486V68.4443H68.9502ZM71.3555 65.7051H72.8291L73.6963 67.1553L74.5635 65.7051H76.0283L74.3584 68.2012V70H73.0283V68.2012L71.3555 65.7051ZM81.3223 68.2451L82.4854 68.5967C82.4072 68.9229 82.2842 69.1953 82.1162 69.4141C81.9482 69.6328 81.7393 69.7979 81.4893 69.9092C81.2412 70.0205 80.9248 70.0762 80.54 70.0762C80.0732 70.0762 79.6914 70.0088 79.3945 69.874C79.0996 69.7373 78.8447 69.498 78.6299 69.1562C78.415 68.8145 78.3076 68.377 78.3076 67.8438C78.3076 67.1328 78.4961 66.5869 78.873 66.2061C79.252 65.8232 79.7871 65.6318 80.4785 65.6318C81.0195 65.6318 81.4443 65.7412 81.7529 65.96C82.0635 66.1787 82.2939 66.5146 82.4443 66.9678L81.2725 67.2285C81.2314 67.0977 81.1885 67.002 81.1436 66.9414C81.0693 66.8398 80.9785 66.7617 80.8711 66.707C80.7637 66.6523 80.6436 66.625 80.5107 66.625C80.21 66.625 79.9795 66.7461 79.8193 66.9883C79.6982 67.168 79.6377 67.4502 79.6377 67.835C79.6377 68.3115 79.71 68.6387 79.8545 68.8164C79.999 68.9922 80.2021 69.0801 80.4639 69.0801C80.7178 69.0801 80.9092 69.0088 81.0381 68.8662C81.1689 68.7236 81.2637 68.5166 81.3223 68.2451ZM82.9658 67.8555C82.9658 67.1543 83.1611 66.6084 83.5518 66.2178C83.9424 65.8271 84.4863 65.6318 85.1836 65.6318C85.8984 65.6318 86.4492 65.8242 86.8359 66.209C87.2227 66.5918 87.416 67.1289 87.416 67.8203C87.416 68.3223 87.3311 68.7344 87.1611 69.0566C86.9932 69.377 86.749 69.627 86.4287 69.8066C86.1104 69.9844 85.7129 70.0732 85.2363 70.0732C84.752 70.0732 84.3506 69.9961 84.0322 69.8418C83.7158 69.6875 83.459 69.4434 83.2617 69.1094C83.0645 68.7754 82.9658 68.3574 82.9658 67.8555ZM84.293 67.8613C84.293 68.2949 84.373 68.6064 84.5332 68.7959C84.6953 68.9854 84.915 69.0801 85.1924 69.0801C85.4775 69.0801 85.6982 68.9873 85.8545 68.8018C86.0107 68.6162 86.0889 68.2832 86.0889 67.8027C86.0889 67.3984 86.0068 67.1035 85.8428 66.918C85.6807 66.7305 85.46 66.6367 85.1807 66.6367C84.9131 66.6367 84.6982 66.7314 84.5361 66.9209C84.374 67.1104 84.293 67.4238 84.293 67.8613ZM88.1484 70V65.7051H90.3604C90.7705 65.7051 91.084 65.7402 91.3008 65.8105C91.5176 65.8809 91.6924 66.0117 91.8252 66.2031C91.958 66.3926 92.0244 66.624 92.0244 66.8975C92.0244 67.1357 91.9736 67.3418 91.8721 67.5156C91.7705 67.6875 91.6309 67.8271 91.4531 67.9346C91.3398 68.0029 91.1846 68.0596 90.9873 68.1045C91.1455 68.1572 91.2607 68.21 91.333 68.2627C91.3818 68.2979 91.4521 68.373 91.5439 68.4883C91.6377 68.6035 91.7002 68.6924 91.7314 68.7549L92.373 70H90.873L90.1641 68.6875C90.0742 68.5176 89.9941 68.4072 89.9238 68.3564C89.8281 68.29 89.7197 68.2568 89.5986 68.2568H89.4814V70H88.1484ZM89.4814 67.4453H90.041C90.1016 67.4453 90.2188 67.4258 90.3926 67.3867C90.4805 67.3691 90.5518 67.3242 90.6064 67.252C90.6631 67.1797 90.6914 67.0967 90.6914 67.0029C90.6914 66.8643 90.6475 66.7578 90.5596 66.6836C90.4717 66.6094 90.3066 66.5723 90.0645 66.5723H89.4814V67.4453ZM92.7949 65.7051H95.001C95.4814 65.7051 95.8408 65.8193 96.0791 66.0479C96.3193 66.2764 96.4395 66.6016 96.4395 67.0234C96.4395 67.457 96.3086 67.7959 96.0469 68.04C95.7871 68.2842 95.3896 68.4062 94.8545 68.4062H94.1279V70H92.7949V65.7051ZM94.1279 67.5361H94.4531C94.709 67.5361 94.8887 67.4922 94.9922 67.4043C95.0957 67.3145 95.1475 67.2002 95.1475 67.0615C95.1475 66.9268 95.1025 66.8125 95.0127 66.7188C94.9229 66.625 94.7539 66.5781 94.5059 66.5781H94.1279V67.5361Z" fill="white"/>
<path d="M98.9197 68.5354H100.481V70H98.9197V68.5354Z" fill="white"/>
</svg>
