<svg width="138" height="80" viewBox="0 0 138 80" fill="none" xmlns="http://www.w3.org/2000/svg">
<g clip-path="url(#clip0)">
<g clip-path="url(#clip1)">
<path d="M33.2544 31.2011H53.4129V35.5252H45.9652V48.5978H40.7021V35.5252H33.2544V31.2011Z" fill="#34495E"/>
<path d="M55.2998 42.4637C55.2998 47.5922 58.0803 48.7989 62.8468 48.7989H71.2876C76.0542 48.7989 78.8347 47.5922 78.8347 42.4637V37.3352C78.8347 32.2067 76.0542 31 71.2876 31H62.8468C58.0803 31 55.2998 32.2067 55.2998 37.3352V42.4637ZM60.7615 38.9441C60.7615 36.7318 61.258 35.4246 64.0385 35.4246H70.1953C72.9758 35.4246 73.4723 36.7318 73.4723 38.9441V40.8548C73.4723 43.3687 72.9758 44.3743 70.4932 44.3743H63.7406C61.258 44.3743 60.7615 43.3687 60.7615 40.8548V38.9441Z" fill="#34495E"/>
<path d="M87.3744 35.4246H96.7089C97.7019 35.4246 98.2977 35.8268 98.2977 36.8324C98.2977 37.838 97.7019 38.1397 96.7089 38.1397H87.3744V35.4246ZM82.1113 48.5978H98.8936C101.873 48.5978 104.157 47.7933 104.157 43.9721C104.157 41.3576 103.263 40.0503 100.979 39.8492V39.7486C102.468 39.3464 103.561 38.743 103.561 35.7263C103.561 32.3073 101.475 31.2011 97.3047 31.2011H82.1113V48.5978ZM87.3744 41.7598H96.9075C97.9998 41.7598 98.7942 42.0615 98.7942 43.1676C98.7942 44.1732 97.9998 44.4749 96.9075 44.4749H87.4737V41.7598H87.3744Z" fill="#34495E"/>
<path d="M107.334 31.2011H126.202V35.2235H112.598V38.0391H125.507V41.6592H112.598V44.4749H126.5V48.5978H107.334V31.2011Z" fill="#34495E"/>
<path d="M26.9973 47.7933H29.7778C30.3736 47.7933 30.9695 47.2905 30.9695 46.5866C30.9695 46.3855 30.8702 46.1844 30.7709 45.9833L29.3806 43.4693L26.9973 47.7933ZM15.1803 43.5698L13.79 46.0838C13.4921 46.6872 13.6907 47.3911 14.1872 47.6928C14.3858 47.7933 14.5844 47.8939 14.7831 47.8939H17.5635L15.1803 43.5698ZM24.7134 35.324L23.3231 32.8101C23.0252 32.2067 22.3301 32.1062 21.7343 32.4078C21.5357 32.5084 21.4364 32.7095 21.3371 32.9106L19.9468 35.324H24.7134ZM24.3162 32.3073L31.8632 45.4805C32.0618 45.8827 32.1611 46.2849 32.1611 46.6872C32.1611 47.9944 31.1681 49 29.8771 49H14.7831C14.3858 49 13.9886 48.8995 13.5914 48.6983C12.4991 48.095 12.1019 46.5866 12.797 45.4805L20.344 32.3073C20.5426 31.905 20.8405 31.7039 21.1385 31.5028C22.2308 30.7989 23.7203 31.2011 24.3162 32.3073Z" fill="#34495E"/>
</g>
</g>
<defs>
<clipPath id="clip0">
<rect width="137" height="80" fill="white" transform="translate(0.5)"/>
</clipPath>
<clipPath id="clip1">
<rect width="114" height="18" fill="white" transform="translate(12.5 31)"/>
</clipPath>
</defs>
</svg>
