<svg width="109" height="43" viewBox="0 0 109 43" fill="none" xmlns="http://www.w3.org/2000/svg">
<path d="M52.2138 41.4632H50.7251C50.0191 41.4632 48.6992 41.4632 48.6992 39.9187V39.6407C48.6992 39.4708 48.7913 39.3163 48.9294 39.2391C48.7146 38.9302 48.6992 38.5441 48.6992 38.1734C48.6992 37.3239 48.8527 36.4126 50.7711 36.4126H52.49C53.9174 36.4126 54.5006 36.8914 54.5006 38.0653V38.1888C54.5006 38.3278 54.4392 38.4514 54.3471 38.5286C54.6233 38.8684 54.6694 39.3163 54.6694 39.7179C54.6847 41.3551 53.7485 41.4632 52.2138 41.4632ZM49.6201 40.104C49.6354 40.3821 49.7735 40.5365 50.587 40.5365C50.3721 40.4902 50.1265 40.3821 50.0038 40.104H49.6201ZM50.587 37.3393C49.6354 37.3702 49.6354 37.6019 49.6354 38.1734C49.6354 38.6522 49.6968 38.714 49.7582 38.7603C49.9884 38.8993 50.6637 38.9302 51.2316 38.9302C52.0757 38.9302 52.5054 38.9302 52.7816 38.992C53.196 39.0847 53.4109 39.3472 53.4109 39.7642C53.4109 40.0268 53.3188 40.4284 52.7663 40.5365C53.7639 40.5056 53.7639 40.3357 53.7639 39.7488C53.7639 39.4244 53.7178 39.2237 53.6411 39.131C53.4416 38.9302 52.6589 38.9148 51.8761 38.9148C50.7865 38.9148 50.4181 38.9148 50.1419 38.6522C49.9424 38.4514 49.9424 38.1888 49.9424 38.0961C49.9424 37.7872 50.1112 37.432 50.587 37.3393ZM53.196 37.7409H53.5797C53.5337 37.4783 53.3342 37.3548 52.5975 37.3393C52.843 37.3857 53.0733 37.4938 53.196 37.7409Z" fill="#53606F"/>
<path d="M60.4397 41.4177H58.5367C58.3985 41.4177 58.2604 41.3559 58.1683 41.2478L56.6643 39.348V40.9698C56.6643 41.2323 56.4648 41.4331 56.2038 41.4331H54.976C54.7151 41.4331 54.5156 41.2323 54.5156 40.9698V36.9385C54.5156 36.676 54.7151 36.4752 54.976 36.4752H56.8791C57.0173 36.4752 57.1554 36.5369 57.2475 36.6451L58.7515 38.5448V36.9231C58.7515 36.6605 58.951 36.4597 59.2119 36.4597H60.4397C60.7006 36.4597 60.9002 36.6605 60.9002 36.9231V40.9543C60.9002 41.2169 60.6853 41.4177 60.4397 41.4177ZM58.7515 40.491H59.9793V37.3864H59.6724V39.8577C59.6724 40.1203 59.4729 40.3211 59.2119 40.3211C59.0738 40.3211 58.9203 40.2593 58.8436 40.1512L56.6643 37.3864H55.4365V40.491H55.7434V38.0197C55.7434 37.7571 55.9429 37.5563 56.2038 37.5563C56.342 37.5563 56.4954 37.6181 56.5722 37.7262L58.7515 40.491Z" fill="#53606F"/>
<path d="M64.921 41.464H62.9412C62.3273 41.464 60.7158 41.464 60.7158 39.5334V38.3286C60.7158 36.3979 62.3273 36.3979 62.9412 36.3979H64.921C65.5349 36.3979 67.1464 36.3979 67.1464 38.3286V39.5334C67.1464 41.464 65.5349 41.464 64.921 41.464ZM62.9565 37.3401C61.8362 37.3401 61.652 37.6336 61.652 38.3441V39.5488C61.652 40.2593 61.8362 40.5528 62.9565 40.5528H64.9364C66.0567 40.5528 66.2409 40.2593 66.2409 39.5488V38.3441C66.2409 37.6336 66.0567 37.3401 64.9364 37.3401H62.9565ZM64.7215 40.4292H63.1407C62.1124 40.4292 61.9743 39.7496 61.9743 39.1627V38.7302C61.9743 37.8807 62.3887 37.4637 63.2021 37.4637H64.6448C65.4582 37.4637 65.8726 37.8962 65.8726 38.7302V39.1627C65.8879 39.7496 65.7498 40.4292 64.7215 40.4292ZM62.9412 39.487C62.9719 39.5025 63.0333 39.5025 63.1561 39.5025H64.7369C64.8596 39.5025 64.921 39.487 64.9517 39.487C64.9671 39.4561 64.9824 39.3789 64.9824 39.1627V38.7302C64.9824 38.4831 64.9364 38.4367 64.9364 38.4213C64.9364 38.4213 64.875 38.375 64.6601 38.375H63.2175C63.0026 38.375 62.9412 38.4213 62.9412 38.4213C62.9412 38.4213 62.8952 38.4676 62.8952 38.7302V39.1627C62.9105 39.3635 62.9259 39.4561 62.9412 39.487Z" fill="#53606F"/>
<path d="M73.0711 41.4177H71.6591C71.4596 41.4177 71.2908 41.2941 71.2294 41.1088L70.7229 39.6569L70.2165 41.1088C70.1551 41.2941 69.9709 41.4177 69.7867 41.4177H68.3748C68.1752 41.4177 67.9911 41.2941 67.9297 41.0933L66.6251 37.0621C66.5791 36.9231 66.6098 36.7686 66.6865 36.6451C66.7633 36.5215 66.9167 36.4597 67.0549 36.4597H68.252C68.4515 36.4597 68.6357 36.5987 68.6971 36.7995L69.1575 38.3749L69.71 36.7686C69.7714 36.5833 69.9555 36.4597 70.1397 36.4597H71.2754C71.4749 36.4597 71.6438 36.5833 71.7052 36.7686L72.2577 38.3749L72.7181 36.7995C72.7795 36.5987 72.9483 36.4597 73.1632 36.4597H74.3603C74.5137 36.4597 74.6519 36.5369 74.7286 36.6451C74.8053 36.7532 74.836 36.9231 74.79 37.0621L73.4855 41.0933C73.4394 41.2941 73.2706 41.4177 73.0711 41.4177ZM71.9814 40.491H72.7334L73.731 37.3864H73.5008L72.7488 40.0122C72.6874 40.2129 72.5186 40.352 72.3037 40.352C72.1042 40.352 71.92 40.2284 71.8586 40.043L70.9531 37.3864H70.462L69.5565 40.043C69.4951 40.2284 69.311 40.352 69.1268 40.352C68.9273 40.352 68.7277 40.2129 68.6664 40.0122L67.9143 37.3864H67.6841L68.6817 40.491H69.4337L70.2625 38.1278C70.3239 37.9425 70.5081 37.8189 70.6922 37.8189C70.8764 37.8189 71.0759 37.9425 71.1373 38.1278L71.9814 40.491Z" fill="#53606F"/>
<path d="M81.3895 41.4177H80.1924C79.9315 41.4177 79.732 41.2169 79.732 40.9543V39.8114L78.9646 41.186C78.8879 41.325 78.7344 41.4177 78.5656 41.4177H77.6447C77.4759 41.4177 77.3224 41.325 77.2457 41.186L76.4783 39.8114V40.9543C76.4783 41.2169 76.2788 41.4177 76.0179 41.4177H74.8208C74.5599 41.4177 74.3604 41.2169 74.3604 40.9543V36.9231C74.3604 36.6605 74.5599 36.4597 74.8208 36.4597H76.7085C76.8773 36.4597 77.0308 36.5524 77.1075 36.7068L78.0898 38.5448L79.072 36.7068C79.1488 36.5524 79.3022 36.4597 79.4711 36.4597H81.3588C81.6197 36.4597 81.8192 36.6605 81.8192 36.9231V40.9543C81.8499 41.2169 81.6351 41.4177 81.3895 41.4177ZM80.6528 40.491H80.9291V37.3864H79.778L78.5195 39.7341C78.4428 39.8886 78.2893 39.9813 78.1205 39.9813C77.9517 39.9813 77.7982 39.8886 77.7214 39.7341L76.463 37.3864H75.3119V40.491H75.5881V38.0506C75.5881 37.788 75.7877 37.5872 76.0486 37.5872C76.2174 37.5872 76.3862 37.6799 76.463 37.8189L77.9363 40.4755H78.32L79.7934 37.8189C79.8701 37.6799 80.0236 37.5872 80.1924 37.5872C80.4533 37.5872 80.6682 37.788 80.6682 38.0506V40.491H80.6528Z" fill="#53606F"/>
<path d="M87.7892 41.4177H86.1317C86.0089 41.4177 85.8708 41.3559 85.7941 41.2632L84.8118 40.1666L83.8296 41.2632C83.7375 41.3559 83.6147 41.4177 83.492 41.4177H81.8344C81.6503 41.4177 81.4814 41.3096 81.4047 41.1397C81.328 40.9698 81.374 40.769 81.4968 40.63L83.1543 38.9155L81.6196 37.232C81.4968 37.093 81.4661 36.9076 81.5428 36.7377C81.6196 36.5678 81.7884 36.4597 81.9572 36.4597H83.5533C83.6915 36.4597 83.8143 36.5215 83.891 36.6142L84.7965 37.6336L85.702 36.6142C85.7941 36.5215 85.9169 36.4597 86.0396 36.4597H87.6358C87.8199 36.4597 87.9888 36.5678 88.0501 36.7377C88.1115 36.9076 88.0962 37.1084 87.9734 37.232L86.4387 38.9155L88.0962 40.63C88.219 40.769 88.265 40.9543 88.1883 41.1397C88.1422 41.3096 87.9734 41.4177 87.7892 41.4177ZM86.3466 40.491H86.6996L85.5025 39.2553C85.3337 39.0854 85.3337 38.8074 85.4871 38.6221L86.6075 37.3864H86.2698L85.1648 38.6375C85.0727 38.7302 84.95 38.792 84.8272 38.792C84.6891 38.792 84.5663 38.7302 84.4895 38.6375L83.3845 37.3864H83.0469L84.1672 38.6221C84.3361 38.8074 84.3207 39.0854 84.1519 39.2553L82.9548 40.491H83.3078L84.4895 39.1781C84.6584 38.9773 84.996 38.9773 85.1648 39.1781L86.3466 40.491Z" fill="#53606F"/>
<path d="M89.309 38.7764C89.1555 38.7764 88.9867 38.7455 88.8486 38.6837C88.7104 38.622 88.5877 38.5293 88.4802 38.4212C88.3728 38.3131 88.296 38.1895 88.2347 38.0505C88.1733 37.9115 88.1426 37.757 88.1426 37.6026C88.1426 37.4481 88.1733 37.2937 88.2347 37.1546C88.296 37.0156 88.3728 36.8921 88.4802 36.784C88.5877 36.6758 88.7104 36.5832 88.8486 36.5214C89.002 36.4596 89.1555 36.4287 89.309 36.4287C89.5238 36.4287 89.7234 36.4905 89.9075 36.5986C90.0763 36.7067 90.2298 36.8457 90.3219 37.0311C90.414 37.2164 90.4754 37.4018 90.4754 37.618C90.4754 37.8188 90.4293 38.0196 90.3219 38.2049C90.2298 38.3903 90.0763 38.5293 89.9075 38.6374C89.7234 38.7146 89.5238 38.7764 89.309 38.7764Z" fill="#53606F"/>
<path d="M108.094 9.86272C107.833 9.32213 107.281 8.98233 106.697 8.98233H75.5728C75.1431 8.98233 74.744 9.15223 74.4524 9.46114C74.1608 9.16768 73.7618 8.98233 73.3474 8.98233H67.4693C66.9936 8.98233 66.5331 9.21402 66.2415 9.5847L62.2359 14.7744L58.092 9.49203C57.8004 9.12134 57.34 8.88966 56.8643 8.88966H50.9862C50.6178 8.88966 50.2802 9.01323 50.0039 9.24491L43.1743 0.595479C42.7599 0.0703353 42.0693 -0.130455 41.4401 0.0857807L37.8027 1.3523L34.1347 0.0857807C33.5054 -0.130455 32.7994 0.0857807 32.3851 0.62637L25.7243 9.41481C25.4327 9.13679 25.0643 8.98233 24.65 8.98233H1.81295C1.22974 8.98233 0.677235 9.32213 0.416328 9.84728C0.155421 10.3724 0.201464 11.0057 0.554455 11.4845L17.3906 34.3746C17.6822 34.7762 18.158 35.0078 18.6491 35.0078H26.0619C26.5223 35.0078 26.9521 34.8071 27.2437 34.4673L29.3923 37.3555C29.822 37.927 30.5587 38.1433 31.2187 37.8807C31.3721 37.8189 31.5256 37.7262 31.6484 37.6181L34.0119 40.7535C34.457 41.3559 35.2704 41.5412 35.9457 41.2169C35.9917 41.2015 36.0224 41.1706 36.0531 41.1551L37.0047 42.3907C37.2963 42.7769 37.7567 42.9931 38.2324 42.9931C38.7082 42.9931 39.1686 42.7769 39.4602 42.3907L40.4118 41.1551C40.4425 41.1706 40.4885 41.2015 40.5192 41.2169C41.1945 41.5567 42.0079 41.3559 42.453 40.7535L44.7705 37.6799C45.4151 37.9579 46.1671 37.7571 46.5968 37.2011L48.6073 34.6526C48.8989 34.9306 49.2826 35.1005 49.697 35.1005H88.8944C89.3702 35.1005 89.8306 34.8843 90.1222 34.4981L93.606 30.0035C93.8516 29.6792 94.6957 28.6289 94.9413 28.3045L107.91 11.5308C108.294 11.052 108.355 10.4033 108.094 9.86272Z" fill="#53606F"/>
<path d="M42.4834 23.3311L45.8906 16.1027L43.8493 11.5308L34.5641 13.6468L38.3396 12.2722L32.7685 11.5154L30.7119 16.0872L34.073 23.3157L31.51 19.2999V22.5897L33.4438 27.0843H43.1127L45.0464 22.5897V19.2999L42.4834 23.3311ZM35.3008 21.1379L36.0068 20.0412H37.8792L38.2168 21.1379H35.3008ZM33.6586 18.2187L32.1392 15.9173L33.1368 14.0021L38.3243 16.4888L43.5117 14.0021L44.5093 15.9173L42.9899 18.2187L38.3089 16.5197L33.6586 18.2187ZM38.401 21.1379L38.7386 20.0412H40.611L41.317 21.1379H38.401Z" fill="white"/>
<path d="M42.2998 15.0371C42.3765 15.1607 42.4072 15.2997 42.4072 15.4541C42.4072 15.902 42.0389 16.2727 41.5938 16.2727C41.2562 16.2727 40.9492 16.0565 40.8418 15.7476L42.2998 15.0371Z" fill="white"/>
<path d="M34.3184 15.0371C34.2416 15.1607 34.2109 15.2997 34.2109 15.4541C34.2109 15.902 34.5793 16.2727 35.0244 16.2727C35.362 16.2727 35.6689 16.0565 35.7764 15.7476L34.3184 15.0371Z" fill="white"/>
<path d="M43.021 27.6096H33.5977L36.2528 33.4943V30.328L38.3093 35.7957L40.3659 30.328V33.4943L43.021 27.6096Z" fill="white"/>
<path d="M56.1581 22.6053L53.15 18.3269L57.0636 20.6437L42.0231 1.50684L37.8793 2.94326L33.7048 1.50684L19.002 20.968L24.5731 17.4619L20.2911 22.3427L30.7121 36.3671L30.3284 33.1236L35.3163 39.7651L34.3954 36.3362L38.309 41.3714L42.2226 36.3362L41.2864 39.7651L46.2744 33.1236L45.4456 36.1972L56.1581 22.6053ZM44.3713 33.4788L45.2154 30.3589L38.309 39.2245L31.4027 30.3589L32.2468 33.4788L27.2589 26.8373L28.149 30.0963L23.4834 23.671L29.3768 13.5543L23.6522 16.3653L34.2727 2.72702L37.3422 3.62286L34.5643 5.35274L41.1944 3.03593L39.015 6.8355L33.3365 8.98241L38.2477 10.0945L30.8195 10.3416L39.1992 11.9634L43.7267 9.13687L52.4133 16.5198L49.6201 15.2378L53.6565 23.2849L48.4844 30.0808L49.3746 26.8219L44.3713 33.4788Z" fill="white"/>
<path d="M24.7264 10.4961H1.87402L5.11233 14.8826H21.2732L24.7264 10.4961Z" fill="white"/>
<path d="M19.9534 16.6587H6.41699L9.63996 21.0452H16.8379L19.9534 16.6587Z" fill="white"/>
<path d="M21.565 27.2234H14.1829L10.96 22.8369H18.3267L21.565 27.2234Z" fill="white"/>
<path d="M22.8851 28.9998H15.5029L18.7259 33.3862H26.1234L22.8851 28.9998Z" fill="white"/>
<path d="M88.9711 33.4788H49.7891L59.3812 21.0452L51.0322 10.4033H56.9103L62.2972 17.2765L67.5307 10.496H73.4088L59.1203 28.9841H92.455L88.9711 33.4788Z" fill="white"/>
<path d="M93.7906 27.2852H87.7744L95.9546 16.6897H101.94L93.7906 27.2852Z" fill="white"/>
<path d="M103.29 14.9907H94.9869L85.4561 27.2852H79.5627L89.1088 14.9907H78.0433L76.8002 16.597H85.4561L81.9723 21.0916H73.3163L71.9811 22.7906H80.8059L77.3373 27.2852H62.6191L75.6338 10.4961H106.758L103.29 14.9907Z" fill="white"/>
<path d="M49.1602 39.6414H50.388C50.388 40.0739 50.5721 40.1048 50.9251 40.1048H52.4292C52.6901 40.1048 52.951 40.0739 52.951 39.765C52.951 39.4098 52.8129 39.3943 51.2167 39.3943C49.3597 39.3943 49.1602 39.1781 49.1602 38.1741C49.1602 37.4482 49.2215 36.8767 50.7716 36.8767H52.4906C53.9025 36.8767 54.0406 37.3555 54.0406 38.066V38.1896H52.8129C52.8129 37.8961 52.7822 37.7725 52.2143 37.7725H50.8484C50.5721 37.7725 50.388 37.8652 50.388 38.0815C50.388 38.4367 50.5414 38.4367 51.8613 38.4367C53.7797 38.4367 54.2095 38.5448 54.2095 39.7187C54.2095 40.7999 53.8411 40.9852 52.2143 40.9852H50.7256C49.6052 40.9852 49.1602 40.769 49.1602 39.904V39.6414Z" fill="white"/>
<path d="M54.9766 36.9231H56.8796L59.1971 39.8577H59.2124V36.9231H60.4402V40.9543H58.5372L56.2197 38.0197H56.2044V40.9543H54.9766V36.9231Z" fill="white"/>
<path d="M61.1768 38.344C61.1768 37.1547 61.8367 36.8767 62.9417 36.8767H64.9215C66.0265 36.8767 66.6865 37.1547 66.6865 38.344V39.5488C66.6865 40.7381 66.0265 41.0161 64.9215 41.0161H62.9417C61.8367 41.0161 61.1768 40.7381 61.1768 39.5488V38.344ZM62.4506 39.1626C62.4506 39.7496 62.5734 39.9658 63.1566 39.9658H64.7374C65.3206 39.9658 65.4433 39.7496 65.4433 39.1626V38.7302C65.4433 38.2359 65.3206 37.927 64.676 37.927H63.2333C62.5887 37.927 62.4659 38.2359 62.4659 38.7302V39.1626H62.4506Z" fill="white"/>
<path d="M67.0557 36.9231H68.2528L69.1122 39.8886H69.1276L70.1405 36.9231H71.2762L72.2892 39.8886H72.3045L73.164 36.9231H74.3611L73.0565 40.9543H71.6446L70.7084 38.2823H70.693L69.7568 40.9543H68.3449L67.0557 36.9231Z" fill="white"/>
<path d="M74.8213 36.9231H76.709L78.1057 39.5179L79.5023 36.9231H81.39V40.9543H80.1929V38.0506H80.1776L78.5661 40.9543H77.6452L76.0337 38.0506H76.0184V40.9543H74.8213V36.9231Z" fill="#D3D6D9"/>
<path d="M83.8151 38.931L81.9887 36.9231H83.5848L84.828 38.3286L86.0711 36.9231H87.6673L85.8409 38.931L87.8054 40.9543H86.1479L84.828 39.487L83.5081 40.9543H81.8506L83.8151 38.931Z" fill="#D3D6D9"/>
<path d="M89.3085 38.3132C89.2164 38.3132 89.1243 38.2977 89.0323 38.2514C88.9402 38.2051 88.8788 38.1587 88.8174 38.097C88.756 38.0352 88.71 37.9579 88.6639 37.8653C88.6332 37.7726 88.6025 37.6799 88.6025 37.5873C88.6025 37.4946 88.6179 37.4019 88.6639 37.3092C88.6946 37.2166 88.756 37.1393 88.8174 37.0776C88.8788 37.0158 88.9555 36.954 89.0323 36.9231C89.1243 36.8768 89.2164 36.8613 89.3085 36.8613C89.4313 36.8613 89.5541 36.8922 89.6615 36.954C89.7689 37.0158 89.8457 37.1085 89.9071 37.2166C89.9685 37.3247 89.9991 37.4483 89.9991 37.5718C89.9991 37.6954 89.9685 37.8189 89.9071 37.9271C89.8457 38.0352 89.7689 38.1278 89.6615 38.1896C89.5541 38.2514 89.4313 38.3132 89.3085 38.3132ZM89.0476 38.0506V37.1239C88.9709 37.1702 88.9095 37.232 88.8634 37.3247C88.8174 37.4019 88.8021 37.4946 88.8021 37.5873C88.8021 37.6799 88.8174 37.7726 88.8634 37.8498C88.9095 37.9425 88.9709 38.0043 89.0476 38.0506C89.1243 38.1124 89.2164 38.1433 89.3085 38.1433C89.4006 38.1433 89.4927 38.1124 89.5848 38.0506H89.4159L89.2932 37.6645H89.2318V38.0506H89.0476ZM89.6001 38.0352C89.6615 37.9888 89.7075 37.9271 89.7536 37.8498C89.7843 37.7726 89.815 37.6954 89.815 37.6027C89.815 37.5255 89.7996 37.4637 89.7843 37.4019C89.7536 37.3401 89.7229 37.2784 89.6769 37.232C89.6308 37.1857 89.5848 37.1393 89.5234 37.1085C89.462 37.0776 89.4006 37.0621 89.3239 37.0621C89.2471 37.0621 89.155 37.0776 89.0937 37.1239H89.3239C89.508 37.1239 89.6001 37.2166 89.6001 37.4019C89.6001 37.51 89.5541 37.5873 89.4773 37.6336C89.4773 37.6645 89.4927 37.6954 89.508 37.7417C89.5234 37.7726 89.5387 37.8189 89.5387 37.8344C89.5387 37.8498 89.5694 37.8962 89.5848 37.9425C89.6001 37.9888 89.5848 38.0197 89.6001 38.0352ZM89.2318 37.5409C89.2932 37.5409 89.3392 37.5255 89.3546 37.51C89.3852 37.4946 89.3853 37.4483 89.3853 37.3865C89.3853 37.2938 89.3546 37.2475 89.2778 37.2475H89.2164V37.5409H89.2318Z" fill="white"/>
</svg>
