<svg width="185" height="32" viewBox="0 0 185 32" fill="none" xmlns="http://www.w3.org/2000/svg">
<path d="M35.2101 18.7002C34.6083 21.8002 34.1067 24.0002 33.7054 25.2002C33.3042 26.5002 32.602 27.6002 31.5989 28.7002C30.5957 29.8002 29.392 30.6002 27.9876 31.1002C26.5832 31.7002 24.9782 32.0002 23.1725 32.0002C21.4672 32.0002 20.0628 31.7002 18.8591 31.2002C17.6553 30.7002 16.7525 29.9002 16.1506 28.8002C15.5487 27.7002 15.2478 26.6002 15.3481 25.3002C15.4484 24.0002 15.7494 21.8002 16.4516 18.7002L17.4547 13.5002C18.0566 10.4002 18.5581 8.2002 18.9594 7.0002C19.3606 5.7002 20.0628 4.6002 21.066 3.5002C22.0691 2.4002 23.2729 1.6002 24.6772 1.1002C26.0816 0.500195 27.6866 0.200195 29.4923 0.200195C31.1976 0.200195 32.602 0.500195 33.8058 1.0002C35.0095 1.5002 35.9123 2.3002 36.5142 3.4002C37.1161 4.5002 37.417 5.6002 37.3167 6.9002C37.2164 8.2002 36.9155 10.4002 36.2133 13.5002L35.2101 18.7002ZM29.091 8.6002C29.392 7.2002 29.4923 6.3002 29.392 5.9002C29.2917 5.5002 28.9907 5.3002 28.4892 5.3002C28.0879 5.3002 27.6866 5.5002 27.3857 5.8002C27.0848 6.1002 26.7838 7.0002 26.4829 8.6002L23.6741 22.9002C23.3732 24.7002 23.1726 25.8002 23.2729 26.2002C23.3732 26.6002 23.6741 26.8002 24.1757 26.8002C24.7776 26.8002 25.1788 26.6002 25.3794 26.1002C25.5801 25.6002 25.881 24.5002 26.2823 22.7002L29.091 8.6002Z" fill="#53606F"/>
<path d="M39.7244 0.599609H47.9501C50.157 0.599609 51.8623 0.799609 52.9658 1.09961C54.0692 1.39961 54.8717 1.89961 55.3733 2.59961C55.8749 3.19961 56.0755 3.99961 56.1758 4.89961C56.1758 5.79961 56.0755 7.19961 55.6742 9.09961L55.1727 11.7996C54.7714 13.7996 54.2699 15.1996 53.7683 16.0996C53.1664 16.9996 52.2636 17.6996 51.0598 18.1996C49.8561 18.6996 48.3514 18.8996 46.646 18.8996H44.4391L42.0316 31.1996H33.9062L39.7244 0.599609ZM46.7464 5.79961L45.2417 13.5996C45.4423 13.5996 45.6429 13.5996 45.8435 13.5996C46.5457 13.5996 47.1476 13.3996 47.5489 13.0996C47.9501 12.6996 48.1507 11.9996 48.4517 10.8996L48.9532 8.39961C49.1539 7.39961 49.1539 6.69961 48.8529 6.39961C48.552 5.99961 47.8498 5.79961 46.7464 5.79961Z" fill="#53606F"/>
<path d="M19.0595 0.6L17.7555 7.5H12.9404L8.32601 31.2H0.200627L4.81504 7.4H0L1.30407 0.5H19.0595V0.6Z" fill="#53606F"/>
<path d="M73.4298 28.9L70.4204 19.6L80.4517 12.3H68.0129L64.201 0L60.389 12.4H47.9502L57.9815 19.7L54.1696 31.4L64.201 24.1L72.226 29.9C72.527 29.4 72.9282 29.1 73.4298 28.9Z" fill="#F05A28"/>
<path d="M183.573 9.9002H176.25L176.652 7.7002C176.852 6.7002 176.852 6.0002 176.752 5.7002C176.652 5.4002 176.351 5.3002 175.949 5.3002C175.448 5.3002 175.047 5.5002 174.746 5.9002C174.445 6.3002 174.244 6.9002 174.043 7.6002C173.843 8.60019 173.843 9.3002 174.043 9.8002C174.244 10.3002 174.846 10.9002 175.949 11.6002C179.059 13.6002 180.965 15.3002 181.567 16.6002C182.269 17.9002 182.269 20.0002 181.667 22.9002C181.266 25.0002 180.664 26.6002 179.962 27.6002C179.26 28.6002 178.156 29.4002 176.551 30.1002C174.946 30.8002 173.241 31.1002 171.335 31.1002C169.228 31.1002 167.523 30.7002 166.219 29.9002C164.915 29.1002 164.112 28.1002 163.912 26.9002C163.711 25.7002 163.812 24.0002 164.213 21.8002L164.514 20.0002H171.837L171.134 23.6002C170.934 24.7002 170.833 25.4002 171.034 25.7002C171.134 26.0002 171.536 26.2002 172.037 26.2002C172.539 26.2002 172.94 26.0002 173.341 25.6002C173.642 25.2002 173.943 24.6002 174.043 23.8002C174.344 22.1002 174.344 20.9002 173.943 20.4002C173.542 19.9002 172.539 19.0002 170.833 17.7002C169.128 16.4002 168.025 15.5002 167.523 14.9002C167.022 14.3002 166.62 13.5002 166.42 12.5002C166.219 11.5002 166.219 10.2002 166.52 8.6002C166.921 6.3002 167.623 4.7002 168.426 3.6002C169.228 2.6002 170.332 1.7002 171.736 1.1002C173.141 0.500195 174.846 0.200195 176.652 0.200195C178.658 0.200195 180.363 0.500195 181.667 1.2002C182.971 1.8002 183.774 2.7002 184.075 3.6002C184.376 4.5002 184.275 6.2002 183.774 8.6002L183.573 9.9002Z" fill="#53606F"/>
<path d="M89.5801 9.89961H82.2572L82.6585 7.69961C82.8591 6.69961 82.8591 5.99961 82.7588 5.69961C82.6585 5.39961 82.3575 5.29961 81.9563 5.29961C81.4547 5.29961 81.0535 5.49961 80.7525 5.89961C80.4516 6.29961 80.2509 6.89961 80.0503 7.59961C79.8497 8.59961 79.8497 9.29961 80.0503 9.79961C80.2509 10.2996 80.8528 10.8996 81.9563 11.5996C85.066 13.5996 86.9719 15.2996 87.5738 16.5996C88.276 17.8996 88.276 19.9996 87.6741 22.8996C87.2729 24.9996 86.671 26.5996 85.9688 27.5996C85.2666 28.5996 84.1632 29.3996 82.5582 30.0996C80.9531 30.7996 79.2478 31.0996 77.3419 31.0996C75.2353 31.0996 73.53 30.6996 72.2259 29.8996C70.9218 29.0996 70.1193 28.0996 69.9187 26.8996C69.718 25.6996 69.8184 23.9996 70.2196 21.7996L70.6209 19.8996H77.9437L77.2415 23.4996C77.0409 24.5996 76.9406 25.2996 77.1412 25.5996C77.2415 25.8996 77.6428 26.0996 78.1444 26.0996C78.6459 26.0996 79.0472 25.8996 79.4484 25.4996C79.7494 25.0996 80.0503 24.4996 80.1506 23.6996C80.4516 21.9996 80.4516 20.7996 80.0503 20.2996C79.6491 19.7996 78.6459 18.8996 76.9406 17.5996C75.2353 16.2996 74.1318 15.3996 73.6303 14.7996C73.1287 14.1996 72.7275 13.3996 72.5268 12.3996C72.3262 11.3996 72.3262 10.0996 72.6271 8.49961C73.0284 6.19961 73.7306 4.59961 74.4328 3.49961C75.2353 2.49961 76.3387 1.59961 77.7431 0.999609C79.1475 0.399609 80.8528 0.0996094 82.6585 0.0996094C84.6647 0.0996094 86.3701 0.399609 87.6741 1.09961C88.9782 1.69961 89.7807 2.59961 90.0817 3.49961C90.3826 4.39961 90.2823 6.09961 89.7807 8.49961L89.5801 9.89961Z" fill="#53606F"/>
<path d="M92.6893 0.599609H100.915C103.122 0.599609 104.827 0.799609 105.931 1.09961C107.034 1.39961 107.837 1.89961 108.338 2.59961C108.84 3.19961 109.04 3.99961 109.141 4.89961C109.141 5.79961 109.04 7.19961 108.639 9.09961L108.138 11.7996C107.736 13.7996 107.235 15.1996 106.733 16.0996C106.131 16.9996 105.228 17.6996 104.025 18.1996C102.821 18.6996 101.316 18.8996 99.6109 18.8996H97.404L94.9965 31.1996H86.8711L92.6893 0.599609ZM99.8115 5.79961L98.3068 13.5996C98.5074 13.5996 98.7081 13.5996 98.9087 13.5996C99.6109 13.5996 100.213 13.3996 100.614 13.0996C101.015 12.6996 101.216 11.9996 101.517 10.8996L102.018 8.39961C102.219 7.39961 102.219 6.69961 101.918 6.39961C101.517 5.99961 100.815 5.79961 99.8115 5.79961Z" fill="#53606F"/>
<path d="M126.495 18.7002C125.893 21.8002 125.392 24.0002 124.991 25.2002C124.589 26.5002 123.887 27.6002 122.884 28.7002C121.881 29.8002 120.677 30.6002 119.273 31.1002C117.868 31.7002 116.263 32.0002 114.458 32.0002C112.752 32.0002 111.348 31.7002 110.144 31.2002C108.94 30.7002 108.038 29.9002 107.436 28.8002C106.834 27.7002 106.533 26.6002 106.633 25.3002C106.734 24.0002 107.035 21.8002 107.737 18.7002L108.74 13.5002C109.342 10.4002 109.843 8.2002 110.245 7.0002C110.646 5.7002 111.348 4.6002 112.351 3.5002C113.354 2.4002 114.558 1.6002 115.962 1.1002C117.367 0.500195 118.972 0.200195 120.777 0.200195C122.483 0.200195 123.887 0.500195 125.091 1.0002C126.295 1.5002 127.198 2.3002 127.799 3.4002C128.401 4.5002 128.702 5.6002 128.602 6.9002C128.502 8.2002 128.201 10.4002 127.498 13.5002L126.495 18.7002ZM120.276 8.6002C120.577 7.2002 120.677 6.3002 120.577 5.9002C120.477 5.5002 120.176 5.3002 119.674 5.3002C119.273 5.3002 118.871 5.5002 118.571 5.8002C118.27 6.1002 117.969 7.1002 117.668 8.6002L114.859 22.9002C114.558 24.7002 114.357 25.8002 114.458 26.2002C114.558 26.6002 114.859 26.8002 115.361 26.8002C115.962 26.8002 116.364 26.6002 116.564 26.1002C116.765 25.6002 117.066 24.5002 117.467 22.7002L120.276 8.6002Z" fill="#53606F"/>
<path d="M131.11 0.599609H136.828C140.64 0.599609 143.248 0.699609 144.552 0.999609C145.856 1.29961 146.859 1.99961 147.461 3.19961C148.063 4.39961 148.163 6.29961 147.662 8.89961C147.16 11.2996 146.558 12.8996 145.856 13.6996C145.053 14.4996 143.85 14.9996 142.044 15.1996C143.549 15.5996 144.552 16.0996 144.953 16.7996C145.354 17.4996 145.655 18.0996 145.655 18.5996C145.655 19.0996 145.455 20.6996 144.953 23.0996L143.348 31.1996H135.825L137.831 20.9996C138.132 19.3996 138.232 18.2996 138.032 17.9996C137.831 17.5996 137.229 17.3996 136.025 17.3996L133.317 31.1996H125.191L131.11 0.599609ZM138.132 5.79961L136.828 12.5996C137.731 12.5996 138.433 12.4996 138.834 12.1996C139.235 11.9996 139.637 11.1996 139.837 9.79961L140.138 8.09961C140.339 7.09961 140.238 6.49961 139.937 6.19961C139.737 5.99961 139.135 5.79961 138.132 5.79961Z" fill="#53606F"/>
<path d="M167.724 0.599609L166.42 7.49961H161.505L156.89 31.1996H148.765L153.379 7.49961H148.564L149.869 0.599609H167.724V0.599609Z" fill="#53606F"/>
</svg>
