<svg width="185" height="30" viewBox="0 0 185 30" fill="none" xmlns="http://www.w3.org/2000/svg">
<g clip-path="url(#clip0)">
<path d="M35.2101 17.0075C34.6083 19.8269 34.1067 21.8278 33.7054 22.9191C33.3042 24.1015 32.602 25.1019 31.5989 26.1023C30.5957 27.1028 29.392 27.8304 27.9876 28.2851C26.5832 28.8308 24.9782 29.1036 23.1725 29.1036C21.4672 29.1036 20.0628 28.8308 18.8591 28.376C17.6553 27.9213 16.7525 27.1937 16.1506 26.1933C15.5487 25.1929 15.2478 24.1924 15.3481 23.0101C15.4484 21.8278 15.7494 19.8269 16.4516 17.0075L17.4547 12.2782C18.0566 9.4588 18.5581 7.45793 18.9594 6.36655C19.3606 5.18423 20.0628 4.18379 21.066 3.18336C22.0691 2.18293 23.2729 1.45534 24.6773 1.0006C26.0816 0.454913 27.6866 0.182068 29.4923 0.182068C31.1976 0.182068 32.602 0.454913 33.8058 0.909654C35.0095 1.3644 35.9123 2.09198 36.5142 3.09241C37.1161 4.09285 37.417 5.09328 37.3167 6.2756C37.2164 7.45793 36.9155 9.4588 36.2133 12.2782L35.2101 17.0075ZM29.091 7.82173C29.392 6.54845 29.4923 5.72991 29.392 5.36612C29.2917 5.00233 28.9907 4.82043 28.4892 4.82043C28.0879 4.82043 27.6866 5.00233 27.3857 5.27517C27.0848 5.54802 26.7838 6.36655 26.4829 7.82173L23.6741 20.8273C23.3732 22.4644 23.1726 23.4648 23.2729 23.8286C23.3732 24.1924 23.6741 24.3743 24.1757 24.3743C24.7776 24.3743 25.1788 24.1924 25.3794 23.7377C25.5801 23.2829 25.881 22.2825 26.2823 20.6454L29.091 7.82173Z" fill="white"/>
<path d="M39.7244 0.545334H47.9501C50.157 0.545334 51.8623 0.72723 52.9658 1.00008C54.0692 1.27292 54.8717 1.72766 55.3733 2.3643C55.8749 2.90999 56.0755 3.63758 56.1758 4.45611C56.1758 5.27465 56.0755 6.54792 55.6742 8.27594L55.1727 10.7315C54.7714 12.5505 54.2699 13.8238 53.7683 14.6423C53.1664 15.4609 52.2636 16.0975 51.0598 16.5522C49.8561 17.007 48.3514 17.1889 46.646 17.1889H44.4391L42.0316 28.3755H33.9062L39.7244 0.545334ZM46.7464 5.27465L45.2417 12.3686C45.4423 12.3686 45.6429 12.3686 45.8435 12.3686C46.5457 12.3686 47.1476 12.1867 47.5489 11.9139C47.9501 11.5501 48.1507 10.9134 48.4517 9.91301L48.9532 7.6393C49.1539 6.72982 49.1539 6.09318 48.8529 5.82033C48.552 5.45654 47.8498 5.27465 46.7464 5.27465Z" fill="white"/>
<path d="M19.0595 0.545691L17.7555 6.82112H12.9404L8.32601 28.3759H0.200627L4.81504 6.73017H0L1.30407 0.454742H19.0595V0.545691Z" fill="white"/>
<path d="M73.4298 26.2841L70.4204 17.8259L80.4517 11.1866H68.0129L64.201 0L60.389 11.2776H47.9502L57.9815 17.9168L54.1696 28.5578L64.201 21.9185L72.226 27.1935C72.527 26.7388 72.9282 26.466 73.4298 26.2841Z" fill="#F05A28"/>
<path d="M183.573 9.00405H176.25L176.652 7.00319C176.852 6.09371 176.852 5.45707 176.752 5.18422C176.652 4.91138 176.351 4.82043 175.949 4.82043C175.448 4.82043 175.047 5.00233 174.746 5.36612C174.445 5.72991 174.244 6.2756 174.043 6.91224C173.843 7.82172 173.843 8.45836 174.043 8.9131C174.244 9.36785 174.846 9.91354 175.949 10.5502C179.059 12.3691 180.965 13.9153 181.567 15.0976C182.269 16.2799 182.269 18.1898 181.667 20.8273C181.266 22.7372 180.664 24.1924 179.962 25.1019C179.26 26.0114 178.156 26.739 176.551 27.3756C174.946 28.0122 173.241 28.2851 171.335 28.2851C169.228 28.2851 167.523 27.9213 166.219 27.1937C164.915 26.4661 164.112 25.5566 163.912 24.4653C163.711 23.3739 163.812 21.8278 164.213 19.8269L164.514 18.1898H171.837L171.134 21.464C170.934 22.4644 170.833 23.101 171.034 23.3739C171.134 23.6467 171.536 23.8286 172.037 23.8286C172.539 23.8286 172.94 23.6467 173.341 23.2829C173.642 22.9191 173.943 22.3734 174.043 21.6459C174.344 20.0997 174.344 19.0084 173.943 18.5536C173.542 18.0989 172.539 17.2803 170.833 16.098C169.128 14.9157 168.025 14.0972 167.523 13.5515C167.022 13.0058 166.62 12.2782 166.42 11.3687C166.219 10.4592 166.219 9.2769 166.52 7.82172C166.921 5.72991 167.623 4.27474 168.426 3.27431C169.228 2.36483 170.332 1.54629 171.736 1.0006C173.141 0.454913 174.846 0.182068 176.652 0.182068C178.658 0.182068 180.363 0.454913 181.667 1.09155C182.971 1.63724 183.774 2.45578 184.075 3.27431C184.376 4.09284 184.275 5.63897 183.774 7.82172L183.573 9.00405Z" fill="white"/>
<path d="M89.5801 9.00354H82.2572L82.6585 7.00268C82.8591 6.09319 82.8591 5.45656 82.7588 5.18371C82.6585 4.91087 82.3575 4.81992 81.9563 4.81992C81.4547 4.81992 81.0535 5.00181 80.7525 5.36561C80.4516 5.7294 80.2509 6.27509 80.0503 6.91173C79.8497 7.82121 79.8497 8.45785 80.0503 8.91259C80.2509 9.36733 80.8528 9.91302 81.9563 10.5497C85.066 12.3686 86.9719 13.9147 87.5738 15.0971C88.276 16.2794 88.276 18.1893 87.6741 20.8268C87.2729 22.7367 86.671 24.1919 85.9688 25.1014C85.2666 26.0109 84.1632 26.7385 82.5582 27.3751C80.9531 28.0117 79.2478 28.2846 77.3419 28.2846C75.2353 28.2846 73.53 27.9208 72.2259 27.1932C70.9218 26.4656 70.1193 25.5561 69.9187 24.4647C69.718 23.3734 69.8184 21.8272 70.2196 19.8264L70.6209 18.0984H77.9437L77.2415 21.3725C77.0409 22.3729 76.9406 23.0096 77.1412 23.2824C77.2415 23.5553 77.6428 23.7372 78.1444 23.7372C78.6459 23.7372 79.0472 23.5553 79.4484 23.1915C79.7494 22.8277 80.0503 22.282 80.1506 21.5544C80.4516 20.0083 80.4516 18.9169 80.0503 18.4622C79.6491 18.0074 78.6459 17.1889 76.9406 16.0066C75.2353 14.8242 74.1318 14.0057 73.6303 13.46C73.1287 12.9143 72.7275 12.1867 72.5268 11.2772C72.3262 10.3678 72.3262 9.18544 72.6271 7.73026C73.0284 5.63845 73.7306 4.18328 74.4328 3.18285C75.2353 2.27337 76.3387 1.45483 77.7431 0.909141C79.1475 0.363452 80.8528 0.0906067 82.6585 0.0906067C84.6647 0.0906067 86.3701 0.363452 87.6741 1.00009C88.9782 1.54578 89.7807 2.36431 90.0817 3.18285C90.3826 4.00138 90.2823 5.5475 89.7807 7.73026L89.5801 9.00354Z" fill="white"/>
<path d="M92.6893 0.545334H100.915C103.122 0.545334 104.827 0.72723 105.931 1.00008C107.034 1.27292 107.837 1.72766 108.338 2.3643C108.84 2.90999 109.04 3.63758 109.141 4.45611C109.141 5.27465 109.04 6.54792 108.639 8.27594L108.138 10.7315C107.736 12.5505 107.235 13.8238 106.733 14.6423C106.131 15.4609 105.228 16.0975 104.025 16.5522C102.821 17.007 101.316 17.1889 99.6109 17.1889H97.404L94.9965 28.3755H86.8711L92.6893 0.545334ZM99.8115 5.27465L98.3068 12.3686C98.5074 12.3686 98.7081 12.3686 98.9087 12.3686C99.6109 12.3686 100.213 12.1867 100.614 11.9139C101.015 11.5501 101.216 10.9134 101.517 9.91301L102.018 7.6393C102.219 6.72982 102.219 6.09318 101.918 5.82033C101.517 5.45654 100.815 5.27465 99.8115 5.27465Z" fill="white"/>
<path d="M126.495 17.0075C125.893 19.8269 125.392 21.8278 124.991 22.9191C124.589 24.1015 123.887 25.1019 122.884 26.1023C121.881 27.1028 120.677 27.8304 119.273 28.2851C117.868 28.8308 116.263 29.1036 114.458 29.1036C112.752 29.1036 111.348 28.8308 110.144 28.376C108.94 27.9213 108.038 27.1937 107.436 26.1933C106.834 25.1929 106.533 24.1924 106.633 23.0101C106.734 21.8278 107.035 19.8269 107.737 17.0075L108.74 12.2782C109.342 9.4588 109.843 7.45793 110.245 6.36655C110.646 5.18423 111.348 4.18379 112.351 3.18336C113.354 2.18293 114.558 1.45534 115.962 1.0006C117.367 0.454913 118.972 0.182068 120.777 0.182068C122.483 0.182068 123.887 0.454913 125.091 0.909654C126.295 1.3644 127.198 2.09198 127.799 3.09241C128.401 4.09285 128.702 5.09328 128.602 6.2756C128.502 7.45793 128.201 9.4588 127.498 12.2782L126.495 17.0075ZM120.276 7.82173C120.577 6.54845 120.677 5.72991 120.577 5.36612C120.477 5.00233 120.176 4.82043 119.674 4.82043C119.273 4.82043 118.871 5.00233 118.571 5.27517C118.27 5.54802 117.969 6.4575 117.668 7.82173L114.859 20.8273C114.558 22.4644 114.357 23.4648 114.458 23.8286C114.558 24.1924 114.859 24.3743 115.361 24.3743C115.962 24.3743 116.364 24.1924 116.564 23.7377C116.765 23.2829 117.066 22.2825 117.467 20.6454L120.276 7.82173Z" fill="white"/>
<path d="M131.11 0.545334H136.828C140.64 0.545334 143.248 0.636282 144.552 0.909127C145.856 1.18197 146.859 1.81861 147.461 2.90999C148.063 4.00137 148.163 5.72939 147.662 8.09404C147.16 10.2768 146.558 11.732 145.856 12.4596C145.053 13.1871 143.85 13.6419 142.044 13.8238C143.549 14.1876 144.552 14.6423 144.953 15.279C145.354 15.9156 145.655 16.4613 145.655 16.916C145.655 17.3708 145.455 18.8259 144.953 21.0087L143.348 28.3755H135.825L137.831 19.0988C138.132 17.6436 138.232 16.6432 138.032 16.3703C137.831 16.0065 137.229 15.8246 136.025 15.8246L133.317 28.3755H125.191L131.11 0.545334ZM138.132 5.27465L136.828 11.4591C137.731 11.4591 138.433 11.3682 138.834 11.0953C139.235 10.9134 139.637 10.1859 139.837 8.91258L140.138 7.36646C140.339 6.45697 140.238 5.91128 139.937 5.63844C139.737 5.45654 139.135 5.27465 138.132 5.27465Z" fill="white"/>
<path d="M167.724 0.545334L166.42 6.82077H161.505L156.89 28.3755H148.765L153.379 6.82077H148.564L149.869 0.545334H167.724V0.545334Z" fill="white"/>
</g>
<defs>
<clipPath id="clip0">
<rect width="184.276" height="29.1035" fill="white"/>
</clipPath>
</defs>
</svg>
