<svg width="27" height="46" viewBox="0 0 27 46" fill="none" xmlns="http://www.w3.org/2000/svg">
<path d="M1.28629 21.6304C1.28548 21.6311 1.28467 21.6319 1.28387 21.6326C0.788175 22.0816 0.499999 22.6451 0.499999 23.2496C0.499999 23.8552 0.789115 24.4196 1.28629 24.8689L22.557 44.0928C23.5155 44.959 24.9583 45.0789 25.7498 44.0596C26.2249 43.6158 26.5 43.0642 26.5 42.4735C26.5 41.8696 26.2125 41.3067 25.7178 40.858L6.77043 23L25.7178 5.142C26.2125 4.69327 26.5 4.13032 26.5 3.52644C26.5 2.9209 26.2109 2.35652 25.7137 1.90719C24.755 1.04072 23.3115 0.920993 22.5202 1.94128L1.28629 21.6304Z" fill="white" fill-opacity="0.2" stroke="#C6C6C6"/>
</svg>
