<svg width="27" height="46" viewBox="0 0 27 46" fill="none" xmlns="http://www.w3.org/2000/svg">
<path d="M25.7137 21.6304C25.7145 21.6311 25.7153 21.6319 25.7161 21.6326C26.2118 22.0816 26.5 22.6451 26.5 23.2496C26.5 23.8552 26.2109 24.4196 25.7137 24.8689L4.44299 44.0928C3.48454 44.959 2.04168 45.0789 1.25016 44.0596C0.775139 43.6158 0.500002 43.0642 0.500002 42.4735C0.500002 41.8696 0.787539 41.3067 1.28222 40.858L20.2296 23L1.28222 5.142C0.787542 4.69327 0.500007 4.13032 0.500008 3.52644C0.500008 2.9209 0.789126 2.35652 1.2863 1.90719C2.24503 1.04072 3.68846 0.920991 4.47982 1.94128L25.7137 21.6304Z" fill="white" fill-opacity="0.2" stroke="#C6C6C6"/>
</svg>
